<?xml version="1.0" encoding="UTF-8" standalone="no"?>
<svg
   xmlns:dc="http://purl.org/dc/elements/1.1/"
   xmlns:cc="http://creativecommons.org/ns#"
   xmlns:rdf="http://www.w3.org/1999/02/22-rdf-syntax-ns#"
   xmlns:svg="http://www.w3.org/2000/svg"
   xmlns="http://www.w3.org/2000/svg"
   width="1mm"
   height="1mm"
   viewBox="0 0 1 1"
   version="1.1"
   id="svg5">
  <defs
     id="defs1064" />
  <metadata
     id="metadata6530">
    <rdf:RDF>
      <cc:Work
         rdf:about="">
        <dc:format>image/svg+xml</dc:format>
        <dc:type
           rdf:resource="http://purl.org/dc/dcmitype/StillImage" />
        <dc:title></dc:title>
      </cc:Work>
    </rdf:RDF>
  </metadata>
  <path
     id="path25603-0"
     d="m 0.47384199,0.21884515 c -0.0144924,0.0197989 -0.10024644,0.0360702 -0.10832458,0.0416981 -0.007954,0.005541 -0.0186254,0.0574314 -0.009037,0.0660038 0.009588,0.008572 0.0466208,-0.0104719 0.0710707,0.010382 0.0583039,0.0497291 0.0744107,0.10418513 0.14921873,-0.007422 0.006806,-0.007041 0.0630804,0.0134133 0.0681271,0.006567 0.005045,-0.006845 0.0162333,-0.0537373 -0.001247,-0.0636133 -0.0174764,-0.009876 -0.10530184,-0.0358469 -0.11234403,-0.0495491 -0.007041,-0.0137021 0.002813,-0.0347555 -0.0270409,-0.0354434 -0.0298574,-6.8772e-4 -0.0229543,0.008601 -0.0254137,0.0229589"
     style="font-variation-settings:normal;fill:none;fill-opacity:0.933333;stroke:#f0d3a7;stroke-width:0.0323416;stroke-linecap:round;stroke-linejoin:miter;stroke-miterlimit:4;stroke-dasharray:none;stroke-dashoffset:0;stroke-opacity:1;stop-color:#000000" />
  <path
     id="path25656-6"
     d="m 0.50128008,0.22753314 c -0.001323,0.0261066 -0.1130636,0.0370449 -0.10118548,0.0715191 0.089457,0.009673 0.087779,0.12394133 0.16982219,0.0334564 0.00918,-0.0102848 0.0384186,-0.0252976 0.0359745,-0.0288159 -0.002442,-0.003518 -0.10435194,-0.0529225 -0.10113972,-0.0592032"
     style="font-variation-settings:normal;fill:none;fill-opacity:0.933333;stroke:#f0d3a7;stroke-width:0.0709009;stroke-linecap:round;stroke-linejoin:miter;stroke-miterlimit:4;stroke-dasharray:none;stroke-dashoffset:0;stroke-opacity:1;stop-color:#000000" />
  <path
     id="path25660-5"
     d="m 0.49855814,0.30806833 c -0.0291314,0.0203794 -0.01639,0.0864098 -0.0100711,0.0870187 0.006316,6.0969e-4 0.0220902,-0.0703894 0.0227455,-0.0805083 6.5687e-4,-0.010119 -0.0448627,0.004035 -0.0439253,0.0103747"
     style="font-variation-settings:normal;fill:none;fill-opacity:0.933333;stroke:#f0d3a7;stroke-width:0.127133;stroke-linecap:round;stroke-linejoin:miter;stroke-miterlimit:4;stroke-dasharray:none;stroke-dashoffset:0;stroke-opacity:1;stop-color:#000000" />
  <path
     style="opacity:1;fill:none;fill-opacity:0.93333297;stroke:#0071d1;stroke-width:0.0259151;stroke-linecap:round;stroke-linejoin:miter;stroke-miterlimit:4;stroke-dasharray:none;stroke-dashoffset:0;stroke-opacity:1"
     d="m 0.33171635,0.2999594 c -0.003538,0.0208928 -0.003621,0.0419066 0.001004,0.0413993 0.004625,-5.077e-4 -0.001491,-0.0251679 0.006077,-0.0260567 0.007567,-8.8887e-4 0.003605,0.0238113 0.008219,0.0212148 0.004613,-0.002596 -7.4227e-4,-0.0205816 0.008788,-0.0138823 0.009531,0.006699 0.009519,0.0183544 0.0196457,0.009982 0.0101265,-0.008372 0.0108989,-0.009064 0.0141895,-0.006103"
     id="path27328-4" />
  <path
     style="opacity:1;fill:none;fill-opacity:0.93333297;stroke:#0071d1;stroke-width:0.0259151;stroke-linecap:round;stroke-linejoin:miter;stroke-miterlimit:4;stroke-dasharray:none;stroke-dashoffset:0;stroke-opacity:1"
     d="m 0.38744651,0.35261044 c 0.0736541,-0.006848 0.0662888,-0.007047 0.0869127,0.0113417 0.0146624,0.0130735 0.10857593,0.0823168 0.10409573,0.0937791 -0.00448,0.0114625 -0.006999,0.0218697 -0.04804,0.0178693 -0.0410411,-0.004 -0.10483679,-0.00317 -0.10766087,-0.0127889 -0.002824,-0.009619 -0.0270067,-0.0971816 -0.0229884,-0.0968436 0.004018,3.382e-4 0.0504901,0.00438 0.0631643,0.0149917 0.0126743,0.0106116 0.0952459,0.0686623 0.0912692,0.0727242 -0.003977,0.004062 -0.10434091,0.005749 -0.11047988,-3.3659e-4 -0.006139,-0.006085 -0.0296927,-0.0546099 -0.0209316,-0.0626006 0.008761,-0.007991 0.0938763,0.0515671 0.0918216,0.0515671 -0.002055,0 -0.0477047,2.2573e-4 -0.0550305,-0.003102 -0.007326,-0.003328 -0.0157738,-0.0179952 -0.0131748,-0.0244995 0.002599,-0.006504 0.0174416,0.0182758 0.0230968,0.0155829"
     id="path27330-7" />
  <path
     style="opacity:1;fill:none;fill-opacity:0.93333297;stroke:#0071d1;stroke-width:0.0259151;stroke-linecap:round;stroke-linejoin:miter;stroke-miterlimit:4;stroke-dasharray:none;stroke-dashoffset:0;stroke-opacity:1"
     d="m 0.52533752,0.36880826 c 0.0300233,-0.0240104 0.054986,-0.0299326 0.0712544,-0.0250977 0.0244653,0.007271 -1.205e-4,0.0885137 -0.004154,0.0906592 -0.003996,0.002125 -0.0465168,-0.04778 -0.049071,-0.0534029 -0.002554,-0.005623 0.037341,-0.0300224 0.03878,-0.0230685 0.001439,0.006954 0.005271,0.0463726 0.001258,0.0440969 -0.004013,-0.002276 -0.0276179,-0.0166097 -0.0189694,-0.0238323 0.008648,-0.007223 0.006593,-0.00369 0.008075,0.001718"
     id="path27332-6" />
  <path
     style="opacity:1;fill:none;fill-opacity:0.93333297;stroke:#0071d1;stroke-width:0.0259151;stroke-linecap:round;stroke-linejoin:miter;stroke-miterlimit:4;stroke-dasharray:none;stroke-dashoffset:0;stroke-opacity:1"
     d="m 0.62199081,0.32167989 c 0.042796,-0.0226596 0.0531881,-0.0376528 0.0505867,-0.0306318 -0.002602,0.007021 -0.008524,0.0186368 -0.012872,0.0214703 -0.004348,0.002833 -2.41e-5,0.0158197 -0.008618,0.0168815 -0.008596,0.001062 -0.0268313,0.001573 -0.0212464,-0.003232 0.005585,-0.004806 0.0128622,-3.5105e-4 0.0184948,-0.006684"
     id="path27334-5" />
  <path
     style="opacity:1;fill:none;fill-opacity:0.93333297;stroke:#0071d1;stroke-width:0.0259151;stroke-linecap:round;stroke-linejoin:miter;stroke-miterlimit:4;stroke-dasharray:none;stroke-dashoffset:0;stroke-opacity:1"
     d="m 0.42094319,0.49282778 c 0.0525352,0.005322 0.0863852,0.007954 0.1062022,0.006397 0.0198171,-0.001556 0.0500168,-0.002266 0.0591928,-0.006883"
     id="path27336-6" />
  <path
     id="path553-6-9"
     d="m 0.33642531,0.27457425 c 0.004072,0.015214 0.004336,0.0365673 0.0494047,0.0435402 0.0450692,0.006972 0.0558271,0.00542 0.0777381,0.0186045 0.0219108,0.0131844 0.11730134,0.0962537 0.12594641,0.11149629 0.0196392,0.0346278 -0.015237,0.0375789 -0.0580243,0.0395818 -0.0425422,0.001987 -0.11608059,-0.009654 -0.12240504,-0.0124693 -0.006326,-0.002813 -0.0256146,-0.11212582 -0.0315371,-0.12955926"
     style="font-variation-settings:normal;fill:none;fill-opacity:0.933333;stroke:#00095e;stroke-width:0.0143393;stroke-linecap:round;stroke-linejoin:miter;stroke-miterlimit:4;stroke-dasharray:none;stroke-dashoffset:0;stroke-opacity:1;stop-color:#000000" />
  <path
     id="path555-0-3"
     d="m 0.33912752,0.26992165 c -0.0108428,0.0125349 -0.0252816,0.0324204 -0.0238532,0.0389935 0.001435,0.006573 -0.003102,0.0209408 0.003958,0.0226588 0.00706,0.001719 0.001561,0.0229811 0.008629,0.0247666 0.007067,0.001785 0.0347056,-0.0121805 0.0732108,-0.0204679 0.0385054,-0.008287 0.0398303,-0.006516 0.0537988,-0.001017"
     style="font-variation-settings:normal;fill:none;fill-opacity:0.933333;stroke:#00095e;stroke-width:0.0143393;stroke-linecap:round;stroke-linejoin:miter;stroke-miterlimit:4;stroke-dasharray:none;stroke-dashoffset:0;stroke-opacity:1;stop-color:#000000" />
  <path
     id="path557-6-7"
     d="m 0.50434103,0.36520969 c 0.0201725,-0.0178107 0.0363636,-0.0371361 0.0637676,-0.0403818 0.0274039,-0.003245 0.0549678,0.004474 0.0566986,0.0274432 0.001735,0.0229695 -0.0257624,0.10634865 -0.029806,0.11905926"
     style="font-variation-settings:normal;fill:none;fill-opacity:0.933333;stroke:#00095e;stroke-width:0.0143393;stroke-linecap:round;stroke-linejoin:miter;stroke-miterlimit:4;stroke-dasharray:none;stroke-dashoffset:0;stroke-opacity:1;stop-color:#000000" />
  <path
     id="path559-2-4"
     d="m 0.59682995,0.32301329 c 0.0633523,-0.0364693 0.0660576,-0.0353934 0.0753247,-0.0446393"
     style="font-variation-settings:normal;fill:none;fill-opacity:0.933333;stroke:#00095e;stroke-width:0.0143393;stroke-linecap:round;stroke-linejoin:miter;stroke-miterlimit:4;stroke-dasharray:none;stroke-dashoffset:0;stroke-opacity:1;stop-color:#000000" />
  <path
     id="path561-6-5"
     d="m 0.67131561,0.27707746 c 0.0133697,0.005403 0.0302617,-0.00441 0.0202019,0.0121404 -0.0100606,0.0165508 -0.0112445,0.007827 -0.0115177,0.0223004 -2.723e-4,0.014474 -0.0112106,0.002145 -0.0126588,0.016688 -0.001449,0.014545 -0.0105802,0.0229527 -0.0460586,0.0133768"
     style="font-variation-settings:normal;fill:none;fill-opacity:0.933333;stroke:#00095e;stroke-width:0.0143393;stroke-linecap:round;stroke-linejoin:miter;stroke-miterlimit:4;stroke-dasharray:none;stroke-dashoffset:0;stroke-opacity:1;stop-color:#000000" />
  <path
     id="path563-1-2"
     d="m 0.4057976,0.47360216 c 0.007967,0.0333038 0.004312,0.0330646 0.0136526,0.0355508 0.009343,0.002485 0.15904391,0.003849 0.16920796,-0.004911 0.016849,-0.0145202 0.0108755,-0.0214417 0.003268,-0.029859"
     style="font-variation-settings:normal;fill:none;fill-opacity:0.933333;stroke:#00095e;stroke-width:0.0143393;stroke-linecap:round;stroke-linejoin:miter;stroke-miterlimit:4;stroke-dasharray:none;stroke-dashoffset:0;stroke-opacity:1;stop-color:#000000" />
</svg>
