<?xml version="1.0" encoding="UTF-8" standalone="no"?>
<svg
   xmlns:dc="http://purl.org/dc/elements/1.1/"
   xmlns:cc="http://creativecommons.org/ns#"
   xmlns:rdf="http://www.w3.org/1999/02/22-rdf-syntax-ns#"
   xmlns:svg="http://www.w3.org/2000/svg"
   xmlns="http://www.w3.org/2000/svg"
   id="svg5"
   version="1.1"
   viewBox="0 0 1 1"
   height="1mm"
   width="1mm">
  <metadata
     id="metadata5437">
    <rdf:RDF>
      <cc:Work
         rdf:about="">
        <dc:format>image/svg+xml</dc:format>
        <dc:type
           rdf:resource="http://purl.org/dc/dcmitype/StillImage" />
        <dc:title></dc:title>
      </cc:Work>
    </rdf:RDF>
  </metadata>
  <defs
     id="defs2" />
  <path
     style="opacity:1;vector-effect:none;fill:none;fill-opacity:1;stroke:#000000;stroke-width:0.02645833;stroke-linecap:round;stroke-linejoin:miter;stroke-miterlimit:4;stroke-dasharray:none;stroke-dashoffset:0;stroke-opacity:1"
     d="m 0.13135593,0.37923729 c 0.36228814,0.0699152 0.77330506,0.008475 0.77330506,-0.0105931 0,-0.0190677 -0.0995763,-0.10593225 -0.2076271,-0.0656779"
     id="path6470" />
  <path
     style="opacity:1;vector-effect:none;fill:none;fill-opacity:1;stroke:#000000;stroke-width:0.02645833;stroke-linecap:round;stroke-linejoin:miter;stroke-miterlimit:4;stroke-dasharray:none;stroke-dashoffset:0;stroke-opacity:1"
     d="m 0.33050847,0.4237288 c -0.0148305,0.20127119 -0.0466102,0.40466102 0.006356,0.42161018 0.0529661,0.0169492 0.27542373,-0.0381356 0.31567797,-0.13771187 0.0402542,-0.0995763 0.0423729,-0.14194914 0.0423729,-0.14194914"
     id="path6472" />
  <path
     style="opacity:1;vector-effect:none;fill:none;fill-opacity:1;stroke:#000000;stroke-width:0.02645833;stroke-linecap:round;stroke-linejoin:miter;stroke-miterlimit:4;stroke-dasharray:none;stroke-dashoffset:0;stroke-opacity:1"
     d="m 0.69067796,0.43432203 c 0.0805085,-0.0148305 0.1059322,-0.0317797 0.1016949,0.0105932 -0.004237,0.0423729 -0.0190678,0.059322 -0.0466102,0.11016948 -0.0275424,0.0508475 0.0169491,0.0762712 -0.0275424,0.0508475"
     id="path6474" />
  <path
     style="opacity:1;vector-effect:none;fill:none;fill-opacity:1;stroke:#000000;stroke-width:0.02645833;stroke-linecap:round;stroke-linejoin:miter;stroke-miterlimit:4;stroke-dasharray:none;stroke-dashoffset:0;stroke-opacity:1"
     d="m 0.41737287,0.50211865 c -0.0169492,0.0550847 -0.059322,0.13983049 -0.0550847,0.14618642 0.004237,0.006356 0.0550847,0.0105931 0.0699153,0"
     id="path6476" />
  <path
     style="opacity:1;vector-effect:none;fill:none;fill-opacity:1;stroke:#000000;stroke-width:0.02645833;stroke-linecap:round;stroke-linejoin:miter;stroke-miterlimit:4;stroke-dasharray:none;stroke-dashoffset:0;stroke-opacity:1"
     d="m 0.34957626,0.48516949 c 0.036017,0.002119 0.002119,0.0105931 0.0466102,0.006356"
     id="path6478" />
  <path
     style="opacity:1;vector-effect:none;fill:none;fill-opacity:1;stroke:#000000;stroke-width:0.02645833;stroke-linecap:round;stroke-linejoin:miter;stroke-miterlimit:4;stroke-dasharray:none;stroke-dashoffset:0;stroke-opacity:1"
     d="m 0.48916813,0.50893085 c 0.036017,0.002119 0.002119,0.0105931 0.0466102,0.006356"
     id="path6478-5" />
  <path
     style="opacity:1;vector-effect:none;fill:none;fill-opacity:1;stroke:#000000;stroke-width:0.02645833;stroke-linecap:round;stroke-linejoin:miter;stroke-miterlimit:4;stroke-dasharray:none;stroke-dashoffset:0;stroke-opacity:1"
     d="m 0.38135594,0.71610169 c 0.0902544,0.0114404 0.10168584,-9.7287e-4 0.10588061,-0.005168"
     id="path6495" />
</svg>
