<?xml version="1.0" encoding="UTF-8" standalone="no"?>
<svg
   xmlns:dc="http://purl.org/dc/elements/1.1/"
   xmlns:cc="http://creativecommons.org/ns#"
   xmlns:rdf="http://www.w3.org/1999/02/22-rdf-syntax-ns#"
   xmlns:svg="http://www.w3.org/2000/svg"
   xmlns="http://www.w3.org/2000/svg"
   xmlns:sodipodi="http://sodipodi.sourceforge.net/DTD/sodipodi-0.dtd"
   xmlns:inkscape="http://www.inkscape.org/namespaces/inkscape"
   id="svg8"
   version="1.1"
   viewBox="0 0 1 1"
   height="0.1cm"
   width="0.1cm"
   sodipodi:docname="drawing_lamp.svg"
   inkscape:version="0.92.5 (2060ec1f9f, 2020-04-08)">
  <sodipodi:namedview
     pagecolor="#ffffff"
     bordercolor="#666666"
     borderopacity="1"
     objecttolerance="10"
     gridtolerance="10"
     guidetolerance="10"
     inkscape:pageopacity="0"
     inkscape:pageshadow="2"
     inkscape:window-width="1650"
     inkscape:window-height="1017"
     id="namedview9"
     showgrid="false"
     units="cm"
     inkscape:zoom="62.441667"
     inkscape:cx="-0.18417189"
     inkscape:cy="1.8897638"
     inkscape:window-x="54"
     inkscape:window-y="27"
     inkscape:window-maximized="0"
     inkscape:current-layer="svg8" />
  <defs
     id="defs2" />
  <metadata
     id="metadata5">
    <rdf:RDF>
      <cc:Work
         rdf:about="">
        <dc:format>image/svg+xml</dc:format>
        <dc:type
           rdf:resource="http://purl.org/dc/dcmitype/StillImage" />
        <dc:title></dc:title>
      </cc:Work>
    </rdf:RDF>
  </metadata>
  <g
     id="layer1">
    <path
       id="path53808-0"
       d="m 0.40625898,0.46921 c 0.040488,0.076 0.046638,0.0702 0.047798,0.0907 0.001201,0.0205 0.085807,0.0129 0.098876,0.01 0.0130699,-0.003 0.0094,-0.0124 0.009,-0.0206 -4.2598e-4,-0.008 0.038658,-0.0589 0.043298,-0.0707"
       style="vector-effect:none;fill:none;fill-opacity:1;stroke:#5d5955;stroke-width:0.0252993;stroke-linecap:round;stroke-linejoin:miter;stroke-miterlimit:4;stroke-dasharray:none;stroke-dashoffset:0;stroke-opacity:1"
       inkscape:connector-curvature="0" />
    <path
       id="path52838-6"
       d="m 0.67347406,0.15238 c -0.029789,-0.0311 -0.29419499,-0.009 -0.31616708,0.006 -0.027799,0.0183 -0.18212961,0.23364 -0.15506271,0.27651 0.027069,0.0429 0.57315467,0.0392 0.59422479,0.0102 0.021303,-0.0289 -0.0938934,-0.2863 -0.10479471,-0.28824"
       style="fill:none;fill-opacity:1;stroke:#eacd46;stroke-width:0.0209994;stroke-linecap:round;stroke-linejoin:miter;stroke-miterlimit:4;stroke-dasharray:none;stroke-dashoffset:0;stroke-opacity:1"
       inkscape:connector-curvature="0" />
    <path
       id="path54109-2"
       d="m 0.59244435,0.17874 c 0.077527,0.005 0.091366,-0.0143 0.093816,0.0175 0.002101,0.0276 -0.081787,9e-5 -0.078367,0.0276 0.0036,0.0292 0.081717,-0.0208 0.087816,0.008 0.0058,0.0275 -0.081097,0.0139 -0.073777,0.0411 0.0079,0.0294 0.082337,-0.0307 0.091336,-0.002 0.0102301,0.0331 -0.097996,0.0244 -0.086736,0.0571 0.0095,0.0277 0.078097,-0.0348 0.087587,-0.007 0.0075,0.0219 -0.065987,0.0163 -0.058188,0.0381 0.009,0.0253 0.070817,-0.0337 0.080237,-0.009 0.016359,0.0438 -0.15220882,0.0519 -0.11500131,0.0802 0.0177747,0.017 0.11332626,-0.0162 0.12718481,-0.0222"
       style="vector-effect:none;fill:none;fill-opacity:1;stroke:#fcf3c6;stroke-width:0.0209994;stroke-linecap:round;stroke-linejoin:miter;stroke-miterlimit:4;stroke-dasharray:none;stroke-dashoffset:0;stroke-opacity:1"
       inkscape:connector-curvature="0" />
  </g>
</svg>
