<?xml version="1.0" encoding="UTF-8" standalone="no"?>
<svg
   xmlns:dc="http://purl.org/dc/elements/1.1/"
   xmlns:cc="http://creativecommons.org/ns#"
   xmlns:rdf="http://www.w3.org/1999/02/22-rdf-syntax-ns#"
   xmlns:svg="http://www.w3.org/2000/svg"
   xmlns="http://www.w3.org/2000/svg"
   id="svg4562"
   version="1.1"
   viewBox="0 0 1 0.99999997"
   height="1mm"
   width="1mm">
  <defs
     id="defs4556" />
  <metadata
     id="metadata4559">
    <rdf:RDF>
      <cc:Work
         rdf:about="">
        <dc:format>image/svg+xml</dc:format>
        <dc:type
           rdf:resource="http://purl.org/dc/dcmitype/StillImage" />
        <dc:title></dc:title>
      </cc:Work>
    </rdf:RDF>
  </metadata>
  <g
     transform="translate(0,-0.00002)"
     id="layer1">
    <path
       id="path27560-0"
       d="m 0.51968858,0.42095 c 0,0 0.166634,-0.0667 0.1785249,-0.008 0.011709,0.0575 -0.1718439,0.003 -0.1650165,0.0613 0.00583,0.0502 0.1483771,-0.032 0.1503987,0.0185 0.00188,0.0475 -0.1373341,-0.0189 -0.1397785,0.0287 -0.00227,0.0443 0.1273135,-0.005 0.1269124,0.0399 -4.447e-4,0.0493 -0.1480463,-0.007 -0.1418958,0.0419 0.00583,0.0467 0.1351604,-0.0415 0.141214,0.005 0.00662,0.0514 -0.1483565,-0.007 -0.1487982,0.0452 -3.559e-4,0.0422 0.1262444,-0.003 0.120593,0.0388 -0.00632,0.0467 -0.141383,0.006 -0.141383,0.006"
       style="fill:none;fill-opacity:1;stroke:#e77f33;stroke-width:0.04475813;stroke-linecap:round;stroke-linejoin:miter;stroke-miterlimit:4;stroke-dasharray:none;stroke-dashoffset:0;stroke-opacity:1" />
    <path
       id="path30146-3"
       d="m 0.40756508,0.40274 c 0.023831,0.005 0.1106356,-0.0176 0.1121235,0.0182 0.00158,0.0384 -0.112983,-0.0111 -0.1120069,0.0274 9.881e-4,0.0396 0.1161892,-0.0173 0.1167821,0.0223 5.435e-4,0.0363 -0.1071123,-0.0127 -0.1060847,0.0236 9.585e-4,0.0338 0.1009172,-0.0174 0.1000883,0.0164 -7.905e-4,0.0323 -0.093862,-0.0212 -0.096343,0.011 -0.00277,0.0364 0.1063919,-0.008 0.1055482,0.0289 -7.412e-4,0.0321 -0.09407,-0.0111 -0.094021,0.0211 4.45e-5,0.0283 0.08254,-0.01 0.082826,0.0183 4.053e-4,0.0391 -0.1129583,-0.0115 -0.1140076,0.0276 -8.991e-4,0.0336 0.1004262,-0.005 0.096629,0.029 -0.00356,0.0315 -0.089011,-0.025 -0.094969,0.006 -0.00672,0.0349 0.1045957,0.0111 0.096333,0.0457 -0.00711,0.0298 -0.092015,-0.002 -0.092015,-0.002"
       style="fill:none;fill-opacity:1;stroke:#efa976;stroke-width:0.03062925;stroke-linecap:round;stroke-linejoin:miter;stroke-miterlimit:4;stroke-dasharray:none;stroke-dashoffset:0;stroke-opacity:1" />
    <path
       id="path30375-0"
       d="m 0.25569818,0.36768 c 0.022102,0.0131 0.02315,0.01 0.022418,0.0198 -6.616e-4,0.009 -0.023347,0.006 -0.022586,0.0146 6.122e-4,0.007 0.018545,0.002 0.020067,0.009 0.00237,0.0111 -0.025254,0.0139 -0.02308,0.0251 0.00158,0.008 0.020501,0.002 0.022161,0.0105 0.00237,0.0113 -0.023475,0.0144 -0.022774,0.0259 9.88e-4,0.0167 0.035836,0.0167 0.037545,0.0333 8.99e-4,0.009 -0.018061,0.0127 -0.01566,0.0211 0.00257,0.009 0.023248,0.002 0.026558,0.0105 0.00435,0.0117 -0.022053,0.0215 -0.017458,0.0331 0.00405,0.0102 0.029414,-8e-5 0.030995,0.0108 0.00178,0.012 -0.031489,0.009 -0.029513,0.0212 0.00138,0.008 0.02148,-6.7e-4 0.02397,0.007 0.00296,0.01 -0.021845,0.0139 -0.018436,0.0232 0.00375,0.0103 0.029364,-0.004 0.03223,0.007 0.00257,0.01 -0.023545,0.01 -0.022102,0.0197 0.00148,0.0104 0.026746,0.003 0.028594,0.0133 0.00158,0.009 -0.022794,0.017 -0.018466,0.0187 0.00435,0.002 0.029177,0.005 0.029177,0.005"
       style="vector-effect:none;fill:none;fill-opacity:1;stroke:#efa976;stroke-width:0.03062925;stroke-linecap:round;stroke-linejoin:miter;stroke-miterlimit:4;stroke-dasharray:none;stroke-dashoffset:0;stroke-opacity:1" />
    <path
       id="path27410-4"
       d="m 0.24034128,0.34186 c 0.2233735,0.0733 0.458051,0.047 0.4613728,0.0153 0.00336,-0.0317 -0.2359986,-0.11539 -0.4230502,-0.0474"
       style="fill:none;fill-opacity:1;stroke:#e77f33;stroke-width:0.02499745;stroke-linecap:round;stroke-linejoin:miter;stroke-miterlimit:4;stroke-dasharray:none;stroke-dashoffset:0;stroke-opacity:1" />
    <path
       id="path27412-4"
       d="m 0.22979408,0.35739 c 0.054846,0.32761 0.070417,0.34747 0.096323,0.35577 0.025906,0.008 0.283665,0.0259 0.3146515,0.003 0.030985,-0.0229 0.058867,-0.29182 0.06354,-0.33258"
       style="fill:none;fill-opacity:1;stroke:#e77f33;stroke-width:0.02499745;stroke-linecap:round;stroke-linejoin:miter;stroke-miterlimit:4;stroke-dasharray:none;stroke-dashoffset:0;stroke-opacity:1" />
  </g>
</svg>
