<?xml version="1.0" encoding="UTF-8" standalone="no"?>
<svg
   xmlns:dc="http://purl.org/dc/elements/1.1/"
   xmlns:cc="http://creativecommons.org/ns#"
   xmlns:rdf="http://www.w3.org/1999/02/22-rdf-syntax-ns#"
   xmlns:svg="http://www.w3.org/2000/svg"
   xmlns="http://www.w3.org/2000/svg"
   width="1mm"
   height="1mm"
   viewBox="0 0 1 1"
   version="1.1"
   id="svg5">
  <defs
     id="defs824" />
  <metadata
     id="metadata6530">
    <rdf:RDF>
      <cc:Work
         rdf:about="">
        <dc:format>image/svg+xml</dc:format>
        <dc:type
           rdf:resource="http://purl.org/dc/dcmitype/StillImage" />
        <dc:title></dc:title>
      </cc:Work>
    </rdf:RDF>
  </metadata>
  <path
     id="path51862-6"
     d="m 0.39226139,0.42145116 c -0.0400022,0.0451062 -0.0740141,0.0930913 -0.0740141,0.0930913 0,0 0.033854,-0.0367783 0.0463595,-0.0247761 0.0125055,0.0120026 -0.0480994,0.0604495 -0.0387996,0.0693761 0.0093,0.008927 0.0683713,0.11586035 0.0738459,0.13378318"
     style="font-variation-settings:normal;fill:none;fill-opacity:0.933333;stroke:#000000;stroke-width:0.015;stroke-linecap:round;stroke-linejoin:miter;stroke-miterlimit:4;stroke-dasharray:none;stroke-dashoffset:0;stroke-opacity:1;stop-color:#000000" />
  <path
     id="path51864-1"
     d="m 0.58739543,0.39865357 c 0.0597934,0.0416665 0.0942315,0.0803307 0.0941593,0.0856161 -7.752e-5,0.005286 -0.0366077,-0.0112488 -0.0389877,-0.007911 -0.006651,0.009328 0.0558655,0.0535612 0.0518845,0.0599452 -0.003981,0.006384 -0.22421527,0.19825868 -0.24598922,0.20413718 -0.0217739,0.005878 -0.0672856,0.0176802 -0.0789096,0.0151444 -0.0116248,-0.002536 0.19849119,-0.29400313 0.20118431,-0.30601723 0.002693,-0.0120134 0.0101533,-0.0626334 0.0101533,-0.0626334"
     style="fill:none;fill-opacity:0.93333297;stroke:#000000;stroke-width:0.015;stroke-linecap:round;stroke-linejoin:miter;stroke-miterlimit:4;stroke-dasharray:none;stroke-dashoffset:0;stroke-opacity:1" />
  <path
     id="path51868-6"
     d="m 0.33683519,0.48270342 c -0.0924359,0.0487865 -0.12605781,0.0673735 -0.12709335,0.0803046 -0.001035,0.0129311 0.0619143,0.17148557 0.0792406,0.18838106 0.0207388,0.0180332 0.34329926,0.019551 0.36457816,-3.0855e-4 0.028619,-0.0157222 0.14778486,-0.18314646 0.13764923,-0.20170558 -0.008525,-0.0149127 -0.10213769,-0.0533114 -0.11822679,-0.0664913"
     style="fill:none;fill-opacity:0.93333297;stroke:#000000;stroke-width:0.015;stroke-linecap:round;stroke-linejoin:miter;stroke-miterlimit:4;stroke-dasharray:none;stroke-dashoffset:0;stroke-opacity:1" />
  <path
     id="path51870-3"
     d="m 0.38051237,0.76402889 c 0.022148,0.0235599 0.0437381,0.0433317 0.0351345,0.054939 -0.008605,0.0116078 -0.0713449,0.0533436 -0.0713449,0.0691508 0,0.0158061 0.0108921,0.064358 0.0608274,0.0786048 0.0499356,0.0108771 0.1281346,0.0197795 0.19425103,-0.005722 0.0587881,-0.0313176 0.0548844,-0.0682463 0.0399075,-0.0943955 -0.011341,-0.0197991 -0.0501612,-0.0427879 -0.0534783,-0.0487589 -0.003318,-0.00597 -0.0125416,-0.0322863 0.0124266,-0.055609"
     style="fill:none;fill-opacity:0.93333297;stroke:#000000;stroke-width:0.015;stroke-linecap:round;stroke-linejoin:miter;stroke-miterlimit:4;stroke-dasharray:none;stroke-dashoffset:0;stroke-opacity:1" />
  <path
     id="path844"
     d="m 0.38964031,0.42019042 c 0.0227375,0.0361735 0.0640788,0.11988932 0.0878499,0.15916341"
     style="opacity:1;vector-effect:none;fill:none;fill-opacity:0.93333333;stroke:#000000;stroke-width:0.015;stroke-linecap:round;stroke-linejoin:miter;stroke-miterlimit:4;stroke-dasharray:none;stroke-dashoffset:0;stroke-opacity:1" />
</svg>
