<?xml version="1.0" encoding="UTF-8" standalone="no"?>
<svg
   xmlns:dc="http://purl.org/dc/elements/1.1/"
   xmlns:cc="http://creativecommons.org/ns#"
   xmlns:rdf="http://www.w3.org/1999/02/22-rdf-syntax-ns#"
   xmlns:svg="http://www.w3.org/2000/svg"
   xmlns="http://www.w3.org/2000/svg"
   id="svg5"
   version="1.1"
   viewBox="0 0 1 1"
   height="1mm"
   width="1mm">
  <defs
     id="defs827" />
  <metadata
     id="metadata6530">
    <rdf:RDF>
      <cc:Work
         rdf:about="">
        <dc:format>image/svg+xml</dc:format>
        <dc:type
           rdf:resource="http://purl.org/dc/dcmitype/StillImage" />
        <dc:title></dc:title>
      </cc:Work>
    </rdf:RDF>
  </metadata>
  <path
     id="path4704"
     d="m 0.58291016,0.03365072 c -0.021704,0.1012858 -0.0661458,0.41961262 -0.10231935,0.50022785"
     style="opacity:1;vector-effect:none;fill:none;fill-opacity:0.93333333;stroke:#c4784d;stroke-width:0.08784166;stroke-linecap:round;stroke-linejoin:miter;stroke-miterlimit:4;stroke-dasharray:none;stroke-dashoffset:0;stroke-opacity:1" />
  <path
     style="vector-effect:none;fill:none;fill-opacity:0.93333297;stroke:#c4784d;stroke-width:0.0627876;stroke-linecap:round;stroke-linejoin:miter;stroke-miterlimit:4;stroke-dasharray:none;stroke-dashoffset:0;stroke-opacity:1"
     d="m 0.19252201,0.85155977 c 0.060237,-0.008402 0.2005263,-0.003737 0.2115861,-0.0192906 0.0110596,-0.0155547 0.0936839,-0.22533452 0.1242363,-0.25223172 0.0423064,-0.0372453 0.17835333,-0.0850768 0.18672363,-0.12638708 0.0161749,-0.0798298 -0.1071122,-0.15667495 -0.1054937,-0.22645836 0.00125,-0.0688763 0.0524003,-0.20813823 0.0569253,-0.21945235"
     id="path18681-5" />
  <path
     style="vector-effect:none;fill:none;fill-opacity:0.93333297;stroke:#c4784d;stroke-width:0.0627876;stroke-linecap:round;stroke-linejoin:miter;stroke-miterlimit:4;stroke-dasharray:none;stroke-dashoffset:0;stroke-opacity:1"
     d="m 0.18322014,0.85672755 c 0.079315,0.0106758 0.2098282,-0.008905 0.220888,-0.0244584 0.01106,-0.0155547 0.1020501,-0.30189481 0.1326026,-0.32879201 0.042306,-0.0372453 0.1179962,-0.0324525 0.1263665,-0.0737628 0.016175,-0.0798298 -0.067102,-0.12375363 -0.065483,-0.19353704 0.00144,-0.0693445 0.0288394,-0.21370783 0.0335834,-0.22556886"
     id="path18681-3" />
  <path
     style="fill:none;fill-opacity:0.93333297;stroke:#c4784d;stroke-width:0.0627876;stroke-linecap:round;stroke-linejoin:miter;stroke-miterlimit:4;stroke-dasharray:none;stroke-dashoffset:0;stroke-opacity:1"
     d="m 0.50317221,0.00940404 c -0.0249178,0.21734695 -0.0944791,0.3973745 -0.10977628,0.4857528 -0.0153152,0.0884846 -0.0124358,0.23341031 -0.0238555,0.26253952 -0.0116303,0.0296666 -0.0880393,0.0922439 -0.16735152,0.0970791"
     id="path631" />
  <path
     style="vector-effect:none;fill:none;fill-opacity:0.93333297;stroke:#c4784d;stroke-width:0.0627876;stroke-linecap:round;stroke-linejoin:miter;stroke-miterlimit:4;stroke-dasharray:none;stroke-dashoffset:0;stroke-opacity:1"
     d="m 0.55646162,0.00820019 c -0.029275,0.16467256 -0.098324,0.43789894 -0.1103009,0.54684392 -0.011978,0.10894499 -0.013891,0.22719813 -0.039642,0.24440668 -0.025751,0.0172086 -0.036773,0.0336152 -0.1049952,0.0421004"
     id="path15535" />
  <path
     style="font-variation-settings:normal;fill:none;fill-opacity:0.933333;stroke:#c4784d;stroke-width:0.0978209;stroke-linecap:round;stroke-linejoin:miter;stroke-miterlimit:4;stroke-dasharray:none;stroke-dashoffset:0;stroke-opacity:1;stop-color:#000000"
     d="m 0.58164423,0.30440852 c 0.0421445,0.10659406 -0.0119265,0.12116246 -0.0119265,0.12116246"
     id="path18859" />
  <path
     style="font-variation-settings:normal;fill:none;fill-opacity:0.933333;stroke:#211108;stroke-width:0.0472171;stroke-linecap:round;stroke-linejoin:miter;stroke-miterlimit:4;stroke-dasharray:none;stroke-dashoffset:0;stroke-opacity:1;stop-color:#000000"
     d="m 0.62714022,0.24269873 c -0.10551367,0.0404191 -0.20888681,0.0598147 -0.21138779,0.0800661 -0.002501,0.0202514 0.0840167,0.12263055 0.0745438,0.14158998 -0.009473,0.0189594 -0.10759912,0.0406404 -0.11137084,0.0613564 -0.003772,0.020716 0.10792006,0.0880634 0.13892122,0.12524442"
     id="path567-6" />
  <path
     style="fill:none;fill-opacity:0.93333297;stroke:#211108;stroke-width:0.0472171;stroke-linecap:round;stroke-linejoin:miter;stroke-miterlimit:4;stroke-dasharray:none;stroke-dashoffset:0;stroke-opacity:1"
     d="m 0.69109311,0.33899437 c -0.12137538,0.0865766 -0.16401538,0.11205672 -0.16583731,0.1303079 -0.001822,0.018251 0.0422889,0.0539698 0.0714609,0.0881204"
     id="path569-2" />
  <path
     style="fill:none;fill-opacity:0.93333297;stroke:#211108;stroke-width:0.0472171;stroke-linecap:round;stroke-linejoin:miter;stroke-miterlimit:4;stroke-dasharray:none;stroke-dashoffset:0;stroke-opacity:1"
     d="m 0.62627139,0.23839509 c 0.0768965,0.0977254 0.12770824,0.14137647 0.11769475,0.2144318 -0.004025,0.029364 -0.0255447,0.0483579 -0.054042,0.0647253 -0.0577067,0.0331439 -0.14402494,0.0555177 -0.17161974,0.13142186"
     id="path24733" />
</svg>
