<?xml version="1.0" encoding="UTF-8" standalone="no"?>
<svg
   id="svg5"
   version="1.1"
   viewBox="0 0 1 1"
   height="1mm"
   width="1mm"
   xmlns="http://www.w3.org/2000/svg"
   xmlns:svg="http://www.w3.org/2000/svg"
   xmlns:rdf="http://www.w3.org/1999/02/22-rdf-syntax-ns#"
   xmlns:cc="http://creativecommons.org/ns#"
   xmlns:dc="http://purl.org/dc/elements/1.1/">
  <metadata
     id="metadata6530">
    <rdf:RDF>
      <cc:Work
         rdf:about="">
        <dc:format>image/svg+xml</dc:format>
        <dc:type
           rdf:resource="http://purl.org/dc/dcmitype/StillImage" />
      </cc:Work>
    </rdf:RDF>
  </metadata>
  <defs
     id="defs2">
    <rect
       x="-63.476398"
       y="44.300949"
       width="73.809937"
       height="47.361069"
       id="rect25170" />
    <rect
       x="-63.476398"
       y="44.300949"
       width="73.809937"
       height="47.361069"
       id="rect25170-2" />
    <rect
       x="-63.476398"
       y="44.300949"
       width="73.809937"
       height="47.361069"
       id="rect25170-2-4" />
    <rect
       x="-63.476398"
       y="44.300949"
       width="73.809937"
       height="47.361069"
       id="rect25170-2-4-2" />
    <rect
       x="-63.476398"
       y="44.300949"
       width="73.809937"
       height="47.361069"
       id="rect25170-2-4-2-8" />
    <rect
       x="-63.476398"
       y="44.300949"
       width="73.809937"
       height="47.361069"
       id="rect25170-4" />
    <rect
       x="-63.476398"
       y="44.300949"
       width="73.809937"
       height="47.361069"
       id="rect25170-2-8" />
    <rect
       x="-63.476398"
       y="44.300949"
       width="73.809937"
       height="47.361069"
       id="rect25170-2-4-1" />
    <rect
       x="-63.476398"
       y="44.300949"
       width="73.809937"
       height="47.361069"
       id="rect25170-2-4-2-2" />
    <rect
       x="-63.476398"
       y="44.300949"
       width="73.809937"
       height="47.361069"
       id="rect25170-2-4-2-8-9" />
  </defs>
  <path
     style="font-variation-settings:normal;fill:none;fill-opacity:0.933333;stroke:#000000;stroke-width:0.0147986;stroke-linecap:round;stroke-linejoin:miter;stroke-miterlimit:4;stroke-dasharray:none;stroke-dashoffset:0;stroke-opacity:1;stop-color:#000000"
     d="m 0.11521545,0.55277611 c 9.6349e-4,0.009637 0.0674623,0.0385499 0.39609993,0.0375861 0.32863762,-9.6349e-4 0.353695,-0.0173475 0.38549859,-0.02313"
     id="path933-8-2" />
  <path
     style="font-variation-settings:normal;fill:none;fill-opacity:0.933333;stroke:#000000;stroke-width:0.0147986;stroke-linecap:round;stroke-linejoin:miter;stroke-miterlimit:4;stroke-dasharray:none;stroke-dashoffset:0;stroke-opacity:1;stop-color:#000000"
     d="m 0.49204041,0.5874709 c 0.00771,-0.0250574 0.008674,-0.0279486 0.008674,-0.0279486"
     id="path935-7-9" />
  <path
     style="font-variation-settings:normal;fill:none;fill-opacity:0.933333;stroke:#000000;stroke-width:0.0147986;stroke-linecap:round;stroke-linejoin:miter;stroke-miterlimit:4;stroke-dasharray:none;stroke-dashoffset:0;stroke-opacity:1;stop-color:#000000"
     d="m 0.49096657,0.58925366 c 0.002517,-0.0138648 0.005413,-0.0230512 0.008699,-0.0261413 0.003287,-0.00309 0.40340173,-0.004054 0.40492212,-0.0346905"
     id="path176-2-1" />
  <path
     style="font-variation-settings:normal;fill:none;fill-opacity:0.933333;stroke:#000000;stroke-width:0.0147986;stroke-linecap:round;stroke-linejoin:miter;stroke-miterlimit:4;stroke-dasharray:none;stroke-dashoffset:0;stroke-opacity:1;stop-color:#000000"
     d="m 0.14193399,0.63976522 c 0.0300585,0.0774545 0.0964817,0.14785623 0.14717155,0.14723327 0.0506897,-6.231e-4 0.40021123,-0.003031 0.43679537,-0.001301 0.0365843,0.00173 0.13945016,-0.0488218 0.14100545,-0.12874064"
     id="path325-0-9" />
  <path
     style="font-variation-settings:normal;fill:none;fill-opacity:0.933333;stroke:#000000;stroke-width:0.0147986;stroke-linecap:round;stroke-linejoin:miter;stroke-miterlimit:4;stroke-dasharray:none;stroke-dashoffset:0;stroke-opacity:1;stop-color:#000000"
     d="m 0.2249582,0.71943883 c 0.0129765,0.017619 0.0414857,0.035214 0.0710955,0.0337238 0.0296096,-0.00149 0.052009,-0.0149094 0.056241,-0.0268293"
     id="path545-3-4" />
  <path
     style="font-variation-settings:normal;fill:none;fill-opacity:0.933333;stroke:#000000;stroke-width:0.0147986;stroke-linecap:round;stroke-linejoin:miter;stroke-miterlimit:4;stroke-dasharray:none;stroke-dashoffset:0;stroke-opacity:1;stop-color:#000000"
     d="m 0.28898366,0.75146785 c 4.7597e-4,-0.0567727 0.004782,-0.11205716 0.001151,-0.11742317 -0.003631,-0.005366 -0.007391,-0.001049 -0.0109753,-0.0128624 -0.003585,-0.0118132 0.003548,-0.0250835 0.0106434,-0.0217517 0.007095,0.003332 0.0170024,0.008788 0.009339,0.0225214 -0.007663,0.0137339 -0.008123,0.007043 -0.007506,0.01013"
     id="path547-7-7" />
  <path
     style="font-variation-settings:normal;fill:none;fill-opacity:0.933333;stroke:#000000;stroke-width:0.0147986;stroke-linecap:round;stroke-linejoin:miter;stroke-miterlimit:4;stroke-dasharray:none;stroke-dashoffset:0;stroke-opacity:1;stop-color:#000000"
     d="m 0.26393132,0.62873694 c 0.0180738,2.6684e-4 0.0297415,0.001794 0.0441383,0.002557"
     id="path549-5-8" />
  <path
     style="font-variation-settings:normal;fill:none;fill-opacity:0.933333;stroke:#000000;stroke-width:0.0147986;stroke-linecap:round;stroke-linejoin:miter;stroke-miterlimit:4;stroke-dasharray:none;stroke-dashoffset:0;stroke-opacity:1;stop-color:#000000"
     d="m 0.11328802,0.55373989 c 0.0134924,0.0578248 0.011565,0.0742085 0.0221662,0.0828821 0.0106012,0.008674 0.19274936,0.0289124 0.37682496,0.026985 0.1840756,-0.001928 0.35465865,-0.0106012 0.3642962,-0.0202386 0.009637,-0.009638 0.0192748,-0.0655349 0.0289124,-0.11372222"
     id="path939-9-3" />
</svg>
