<?xml version="1.0" encoding="UTF-8" standalone="no"?>
<svg
   xmlns:dc="http://purl.org/dc/elements/1.1/"
   xmlns:cc="http://creativecommons.org/ns#"
   xmlns:rdf="http://www.w3.org/1999/02/22-rdf-syntax-ns#"
   xmlns:svg="http://www.w3.org/2000/svg"
   xmlns="http://www.w3.org/2000/svg"
   id="svg5"
   version="1.1"
   viewBox="0 0 1 1"
   height="1mm"
   width="1mm">
  <metadata
     id="metadata5437">
    <rdf:RDF>
      <cc:Work
         rdf:about="">
        <dc:format>image/svg+xml</dc:format>
        <dc:type
           rdf:resource="http://purl.org/dc/dcmitype/StillImage" />
        <dc:title></dc:title>
      </cc:Work>
    </rdf:RDF>
  </metadata>
  <defs
     id="defs2" />
  <g
     id="layer1"
     transform="matrix(0.08579828,0,0,0.08579828,0.08412624,-24.593852)">
    <path
       style="fill:none;stroke:#c3c3c3;stroke-width:0.565;stroke-linecap:butt;stroke-linejoin:miter;stroke-miterlimit:4;stroke-dasharray:none;stroke-opacity:1"
       d="m 2.5191424,288.44078 c 0.971211,1.24697 2.1725083,2.72403 3.2605612,4.08785"
       id="path3742" />
    <path
       style="fill:none;stroke:#c3c3c3;stroke-width:0.565;stroke-linecap:butt;stroke-linejoin:miter;stroke-miterlimit:4;stroke-dasharray:none;stroke-opacity:1"
       d="m 2.6726952,288.55299 c -0.083522,0.51227 -0.1670434,1.02453 -0.2505651,1.5368 0.729423,0.97999 1.4588461,1.95998 2.1882691,2.93997"
       id="path3744" />
    <path
       style="fill:none;stroke:#c3c3c3;stroke-width:0.66500002;stroke-linecap:butt;stroke-linejoin:miter;stroke-miterlimit:4;stroke-dasharray:none;stroke-opacity:1"
       d="m 2.7395125,289.29932 c 0.8352173,1.04681 1.6704346,2.09361 2.5056519,3.14042"
       id="path3746" />
    <path
       style="fill:none;stroke:#c3c3c3;stroke-width:0.66500002;stroke-linecap:butt;stroke-linejoin:miter;stroke-miterlimit:4;stroke-dasharray:none;stroke-opacity:1"
       d="m 2.5557648,289.75869 c 0.042988,0.0548 0.085975,0.10959 0.1289632,0.16438 0.7476846,0.95304 1.4953693,1.90607 2.2430539,2.85911"
       id="path3746-3" />
    <path
       style="fill:none;stroke:#606060;stroke-width:0.36500001;stroke-linecap:butt;stroke-linejoin:miter;stroke-miterlimit:4;stroke-dasharray:none;stroke-opacity:1"
       d="m 2.8753477,289.21664 c 0.6472116,1.11543 1.4739242,2.09623 2.3720172,3.02349"
       id="path3746-6" />
    <path
       style="fill:none;stroke:#986136;stroke-width:0.565;stroke-linecap:butt;stroke-linejoin:miter;stroke-miterlimit:4;stroke-dasharray:none;stroke-opacity:1"
       d="m 3.8419995,293.77609 c 0.1316795,-0.0658 2.3881084,-1.96246 2.8063299,-2.17157"
       id="path3748" />
  </g>
</svg>
