<?xml version="1.0" encoding="UTF-8" standalone="no"?>
<svg
   id="svg5"
   version="1.1"
   viewBox="0 0 1 1"
   height="1mm"
   width="1mm"
   sodipodi:docname="drawing_lamp.svg"
   inkscape:version="1.1.2 (1:1.1+202202050950+0a00cf5339)"
   xmlns:inkscape="http://www.inkscape.org/namespaces/inkscape"
   xmlns:sodipodi="http://sodipodi.sourceforge.net/DTD/sodipodi-0.dtd"
   xmlns="http://www.w3.org/2000/svg"
   xmlns:svg="http://www.w3.org/2000/svg"
   xmlns:rdf="http://www.w3.org/1999/02/22-rdf-syntax-ns#"
   xmlns:cc="http://creativecommons.org/ns#"
   xmlns:dc="http://purl.org/dc/elements/1.1/">
  <sodipodi:namedview
     id="namedview3781"
     pagecolor="#ffffff"
     bordercolor="#666666"
     borderopacity="1.0"
     inkscape:pageshadow="2"
     inkscape:pageopacity="0.0"
     inkscape:pagecheckerboard="0"
     inkscape:document-units="mm"
     showgrid="false"
     inkscape:zoom="111.65417"
     inkscape:cx="1.8405045"
     inkscape:cy="2.9689891"
     inkscape:window-width="1848"
     inkscape:window-height="1016"
     inkscape:window-x="72"
     inkscape:window-y="27"
     inkscape:window-maximized="1"
     inkscape:current-layer="svg5" />
  <metadata
     id="metadata6530">
    <rdf:RDF>
      <cc:Work
         rdf:about="">
        <dc:format>image/svg+xml</dc:format>
        <dc:type
           rdf:resource="http://purl.org/dc/dcmitype/StillImage" />
      </cc:Work>
    </rdf:RDF>
  </metadata>
  <defs
     id="defs2">
    <rect
       x="-63.476398"
       y="44.300949"
       width="73.809937"
       height="47.361069"
       id="rect25170" />
    <rect
       x="-63.476398"
       y="44.300949"
       width="73.809937"
       height="47.361069"
       id="rect25170-2" />
    <rect
       x="-63.476398"
       y="44.300949"
       width="73.809937"
       height="47.361069"
       id="rect25170-2-4" />
    <rect
       x="-63.476398"
       y="44.300949"
       width="73.809937"
       height="47.361069"
       id="rect25170-2-4-2" />
    <rect
       x="-63.476398"
       y="44.300949"
       width="73.809937"
       height="47.361069"
       id="rect25170-2-4-2-8" />
    <rect
       x="-63.476398"
       y="44.300949"
       width="73.809937"
       height="47.361069"
       id="rect25170-4" />
    <rect
       x="-63.476398"
       y="44.300949"
       width="73.809937"
       height="47.361069"
       id="rect25170-2-8" />
    <rect
       x="-63.476398"
       y="44.300949"
       width="73.809937"
       height="47.361069"
       id="rect25170-2-4-1" />
    <rect
       x="-63.476398"
       y="44.300949"
       width="73.809937"
       height="47.361069"
       id="rect25170-2-4-2-2" />
    <rect
       x="-63.476398"
       y="44.300949"
       width="73.809937"
       height="47.361069"
       id="rect25170-2-4-2-8-9" />
  </defs>
  <path
     style="font-variation-settings:normal;vector-effect:none;fill:none;fill-opacity:1;stroke:#5d5955;stroke-width:0.0252993;stroke-linecap:round;stroke-linejoin:miter;stroke-miterlimit:4;stroke-dasharray:none;stroke-dashoffset:0;stroke-opacity:1;-inkscape-stroke:none;stop-color:#000000"
     d="m 0.44366766,0.51110997 c 0.040488,0.07597 0.046638,0.07019 0.047798,0.09074 0.0012,0.02054 0.085807,0.01285 0.098876,0.0099 0.01307,-0.003 0.0094,-0.01239 0.009,-0.02056 -4.25e-4,-0.0082 0.038658,-0.05894 0.043298,-0.07073"
     id="path53808-0" />
  <path
     style="font-variation-settings:normal;fill:none;fill-opacity:1;stroke:#eacd46;stroke-width:0.0209994;stroke-linecap:round;stroke-linejoin:miter;stroke-miterlimit:4;stroke-dasharray:none;stroke-dashoffset:0;stroke-opacity:1;stop-color:#000000"
     d="m 0.71088273,0.19427297 c -0.029789,-0.03113 -0.29419497,-0.0089 -0.31616707,0.0056 -0.027799,0.01827 -0.1821296,0.233643 -0.1550627,0.276513 0.027069,0.04287 0.57315467,0.03916 0.59422477,0.01022 0.021069,-0.02895 -0.1047947,-0.288241 -0.1047947,-0.288241"
     id="path52838-6" />
  <path
     style="font-variation-settings:normal;vector-effect:none;fill:none;fill-opacity:1;stroke:#fcf3c6;stroke-width:0.0209994;stroke-linecap:round;stroke-linejoin:miter;stroke-miterlimit:4;stroke-dasharray:none;stroke-dashoffset:0;stroke-opacity:1;-inkscape-stroke:none;stop-color:#000000"
     d="m 0.62985303,0.22063297 c 0.077527,0.0047 0.091366,-0.01425 0.093816,0.01747 0.0021,0.02761 -0.081787,8.8e-5 -0.078367,0.02757 0.0036,0.02917 0.081717,-0.02077 0.087816,0.008 0.0058,0.02754 -0.081097,0.01394 -0.073777,0.04112 0.0079,0.0294 0.082337,-0.0307 0.091336,-0.0016 0.01023,0.03307 -0.097996,0.02437 -0.086736,0.0571 0.0095,0.0277 0.078097,-0.03475 0.087587,-0.007 0.0075,0.02194 -0.065987,0.01628 -0.058188,0.03812 0.009,0.02533 0.070817,-0.03374 0.080237,-0.0085 0.016359,0.04378 -0.1522088,0.05193 -0.1150013,0.08021 0.020679,0.01572 0.1271848,-0.02221 0.1271848,-0.02221"
     id="path54109-2" />
</svg>
