<svg version="1.1" xmlns="http://www.w3.org/2000/svg" xmlns:xlink="http://www.w3.org/1999/xlink" width="702" height="702"><g fill="none" fill-rule="nonzero" stroke="none" stroke-width="none" stroke-linecap="round" stroke-linejoin="round" stroke-miterlimit="4" stroke-dasharray="" stroke-dashoffset="0" font-family="none" font-weight="none" font-size="none" text-anchor="none" style="mix-blend-mode: normal"><path d="M332.63708,153.6293c-10.17366,13.89883 -70.373,25.32128 -76.04386,29.27207c-5.58371,3.88978 -13.07503,40.31684 -6.34397,46.33467c6.73078,6.01754 32.7278,-7.35127 49.89163,7.28816c40.92934,34.90983 52.23631,73.13796 104.75155,-5.21024c4.77781,-4.94278 44.28244,9.41614 47.82522,4.61003c3.54159,-4.80519 11.39578,-37.72358 -0.87539,-44.65654c-12.26843,-6.93295 -73.92189,-25.16452 -78.86551,-34.78347c-4.94278,-9.61887 1.97473,-24.39836 -18.98271,-24.88127c-20.95989,-0.48278 -16.11392,6.0379 -17.84042,16.11715" data-paper-data="{&quot;fixed&quot;:true}" id="path25603-0 1" stroke="#f0d3a7" stroke-width="22.7038"/><path d="M351.89862,159.72826c-0.92875,18.32683 -79.37065,26.00552 -71.03221,50.20641c62.79881,6.79045 61.62086,87.00681 119.21518,23.48639c6.44436,-7.21993 26.96986,-17.75892 25.2541,-20.22876c-1.71428,-2.46964 -73.25506,-37.15159 -71.00008,-41.56065" data-paper-data="{&quot;fixed&quot;:true}" id="path25656-6 1" stroke="#f0d3a7" stroke-width="49.77243"/><path d="M349.98781,216.26397c-20.45024,14.30634 -11.50578,60.65968 -7.06991,61.08713c4.43383,0.428 15.50732,-49.41336 15.96734,-56.51683c0.46112,-7.10354 -31.49362,2.83257 -30.83556,7.28304" data-paper-data="{&quot;fixed&quot;:true}" id="path25660-5 1" stroke="#f0d3a7" stroke-width="89.24737"/><path d="M232.42663,209.8219c-2.48368,14.66675 -2.54194,29.41843 0.70481,29.06231c3.24675,-0.35641 -1.04668,-17.66787 4.26605,-18.2918c5.31203,-0.62399 2.53071,16.71553 5.76974,14.89279c3.23833,-1.82239 -0.52107,-14.44828 6.16918,-9.74537c6.69076,4.7027 6.68304,12.88479 13.79135,7.00736c7.1088,-5.87714 7.65103,-6.36293 9.96103,-4.28431" data-paper-data="{&quot;fixed&quot;:true}" id="path27328-4 1" stroke="#0071d1" stroke-width="18.1924"/><path d="M271.54921,246.78293c51.70518,-4.8073 46.53474,-4.94699 61.01272,7.96187c10.293,9.1776 76.2203,57.78639 73.0752,65.83293c-3.14496,8.04667 -4.9133,15.35253 -33.72408,12.54425c-28.81085,-2.808 -73.59543,-2.22534 -75.57793,-8.97781c-1.98245,-6.75254 -18.95863,-68.22148 -16.13786,-67.98421c2.82064,0.23742 35.44405,3.07476 44.34134,10.52417c8.89736,7.44934 66.86269,48.20093 64.07098,51.05239c-2.79185,2.85152 -73.24732,4.0358 -77.55688,-0.23629c-4.30958,-4.27167 -20.84428,-38.33615 -14.69398,-43.94562c6.15022,-5.60968 65.90116,36.2001 64.45876,36.2001c-1.44261,0 -33.4887,0.15846 -38.63141,-2.1776c-5.14285,-2.33626 -11.07321,-12.6327 -9.24871,-17.19865c1.8245,-4.91681 12.244,12.82961 16.21395,10.9392" data-paper-data="{&quot;fixed&quot;:true}" id="path27330-7 1" stroke="#0071d1" stroke-width="18.1924"/><path d="M368.34869,258.1538c21.07636,-16.85523 38.60017,-21.01269 50.02059,-17.61859c17.17464,5.10424 -0.08459,62.13662 -2.91611,63.64276c-2.80519,1.49175 -32.65479,-33.54156 -34.44784,-37.48884c-1.79291,-3.94735 26.21338,-21.07572 27.22356,-16.19409c1.01018,4.88171 3.70024,32.55357 0.88312,30.95602c-2.81713,-1.59775 -19.38777,-11.66001 -13.31652,-16.73027c6.0709,-5.07055 4.62829,-2.59038 5.66865,1.20604" data-paper-data="{&quot;fixed&quot;:true}" id="path27332-6 1" stroke="#0071d1" stroke-width="18.1924"/><path d="M436.1993,225.06969c30.04279,-15.90704 37.33805,-26.43227 35.51186,-21.50352c-1.8266,4.92874 -5.98385,13.08303 -9.03614,15.07208c-3.0523,1.98877 -0.01692,11.10543 -6.04984,11.85081c-6.03439,0.74552 -18.83557,1.10425 -14.91497,-2.26886c3.92067,-3.37381 9.02926,-0.24644 12.98335,-4.69217" data-paper-data="{&quot;fixed&quot;:true}" id="path27334-5 1" stroke="#0071d1" stroke-width="18.1924"/><path d="M295.06387,345.21551c36.87971,3.73604 60.64241,5.58371 74.55394,4.49069c13.9116,-1.09231 35.11179,-1.59073 41.55335,-4.83187" data-paper-data="{&quot;fixed&quot;:true}" id="path27336-6 1" stroke="#0071d1" stroke-width="18.1924"/><path d="M236.17057,192.75112c2.85854,10.68023 3.04387,25.67024 34.6821,30.56522c31.63858,4.89434 39.19062,3.80484 54.57215,13.06036c15.38138,9.25545 82.34554,67.5701 88.41438,78.2704c13.78672,24.30872 -10.69637,26.38039 -40.73306,27.78642c-29.86462,1.39487 -81.48857,-6.77711 -85.92834,-8.75345c-4.44085,-1.97473 -17.98145,-78.71233 -22.13904,-90.9506" data-paper-data="{&quot;fixed&quot;:true}" id="path553-6-9 1" stroke="#00095e" stroke-width="10.06619"/><path d="M238.06752,189.485c-7.61165,8.7995 -17.74768,22.75912 -16.74495,27.37344c1.00737,4.61425 -2.1776,14.70044 2.77852,15.90648c4.95612,1.20674 1.09582,16.13273 6.05756,17.38615c4.96103,1.25307 24.36333,-8.55071 51.39398,-14.36847c27.03079,-5.81747 27.96087,-4.57423 37.76676,-0.71393" data-paper-data="{&quot;fixed&quot;:true}" id="path555-0-3 1" stroke="#00095e" stroke-width="10.06619"/><path d="M354.0474,256.3772c14.1611,-12.50311 25.52725,-26.06954 44.76486,-28.34802c19.23754,-2.27799 38.5874,3.14075 39.80242,19.26513c1.21797,16.12459 -18.0852,74.65675 -20.92381,83.5796" data-paper-data="{&quot;fixed&quot;:true}" id="path557-6-7 1" stroke="#00095e" stroke-width="10.06619"/><path d="M418.97462,226.75533c44.47331,-25.60145 46.37244,-24.84617 52.87794,-31.33679" data-paper-data="{&quot;fixed&quot;:true}" id="path559-2-4 1" stroke="#00095e" stroke-width="10.06619"/><path d="M471.26356,194.50838c9.38553,3.79291 21.24371,-3.09582 14.18173,8.52256c-7.06254,11.61866 -7.89364,5.49455 -8.08543,15.65488c-0.19115,10.16075 -7.86984,1.50579 -8.88648,11.71498c-1.0172,10.21059 -7.4273,16.1128 -32.33314,9.39051" data-paper-data="{&quot;fixed&quot;:true}" id="path561-6-5 1" stroke="#00095e" stroke-width="10.06619"/><path d="M284.86992,332.46872c5.59283,23.37927 3.02702,23.21135 9.58413,24.95666c6.55879,1.74447 111.64882,2.702 118.78399,-3.44752c11.828,-10.19318 7.6346,-15.05207 2.29414,-20.96102" data-paper-data="{&quot;fixed&quot;:true}" id="path563-1-2 1" stroke="#00095e" stroke-width="10.06619"/></g></svg>