<svg version="1.1" xmlns="http://www.w3.org/2000/svg" xmlns:xlink="http://www.w3.org/1999/xlink" width="702" height="702"><g fill="none" fill-rule="nonzero" stroke="none" stroke-width="none" stroke-linecap="round" stroke-linejoin="round" stroke-miterlimit="none" stroke-dasharray="" stroke-dashoffset="0" font-family="none" font-weight="none" font-size="none" text-anchor="none" style="mix-blend-mode: normal"><path d="M387.05,431c-0.2476,34.66416 -0.05,69.33473 -0.05,104" data-paper-data="{&quot;fixed&quot;:true}" stroke="#363636" stroke-width="32" vector-effect="non-scaling-stroke" stroke-miterlimit="10"/><path d="M305.05,432c-0.37773,45.32796 -0.05,90.6705 -0.05,136" data-paper-data="{&quot;fixed&quot;:true}" stroke="#363636" stroke-width="32" vector-effect="non-scaling-stroke" stroke-miterlimit="10"/><path d="M403.13824,357.30817c0.95248,6.01568 4.74665,8.17327 6.36,13.6c4.91016,16.51598 6.93156,33.34325 9.10376,50.14153" data-paper-data="{&quot;fixed&quot;:true}" stroke-opacity="0.7" stroke="#aecaf2" stroke-width="30" vector-effect="non-scaling-stroke" stroke-miterlimit="10"/><path d="M268.50941,426.20188c6.57428,-12.61748 14.04216,-24.75595 17.78883,-38.49372c1.61446,-5.91967 4.64854,-12.87184 7.2,-18.4c0.6516,-1.4118 0.84508,-4 2.4,-4c1.35974,0 -0.54942,2.66355 -0.8,4c-0.54944,2.93036 -0.8769,5.90759 -1.6,8.8c-1.31987,5.27946 -2.68013,10.72054 -4,16c-3.02207,12.08827 -6.44184,24.1685 -11.1803,35.65084" data-paper-data="{&quot;fixed&quot;:true}" stroke-opacity="0.7" stroke="#aecaf2" stroke-width="30" vector-effect="non-scaling-stroke" stroke-miterlimit="10"/><path d="M277.5104,429.42934c0.25281,-0.2928 0.51534,-0.59913 0.78784,-0.92117c9.45124,-11.16964 16.95726,-23.53417 23.2,-36.8c2.81052,-5.97235 4.42728,-12.39244 7.2,-18.4c0.85105,-1.84395 2.4,-7.63087 2.4,-5.6c0,7.43467 -3.96681,15.32286 -5.6,22.4c-1.85031,8.01803 -3.09112,16.62007 -4,24.8c-0.39289,3.53602 -1.46389,6.96759 -2.4,10.4c-0.42679,1.56491 -0.50984,3.20409 -0.8,4.8c-0.24324,1.33781 -0.37001,5.28996 -0.8,4c-4.89135,-14.67405 4.31287,-33.98218 9.6,-47.2c2.20544,-5.51359 4.52905,-9.85809 7.2,-15.2c0.8,-1.6 1.13509,-6.06491 2.4,-4.8c3.37988,3.37988 -1.07854,14.08841 -1.6,16.8c-2.94309,15.30406 -5.28856,30.50997 -9.6,45.6c-0.2114,0.73991 -1.1889,3.52506 -2.5524,6.79739" data-paper-data="{&quot;fixed&quot;:true}" stroke-opacity="0.7" stroke="#aecaf2" stroke-width="30" vector-effect="non-scaling-stroke" stroke-miterlimit="10"/><path d="M292.7484,435.01689c0.34707,-1.58636 0.65639,-2.81035 0.74984,-3.30873c3.0321,-16.17122 7.9669,-29.86703 16.8,-44c0.38159,-0.61054 7.85531,-12.94469 11.2,-9.6c3.21109,3.21109 0.8,9.05883 0.8,13.6c0,14.37436 1.04255,29.08938 -0.23564,43.44402" data-paper-data="{&quot;fixed&quot;:true}" stroke-opacity="0.7" stroke="#aecaf2" stroke-width="30" vector-effect="non-scaling-stroke" stroke-miterlimit="10"/><path d="M321.51649,435.20535c0.1268,-18.05513 0.93832,-35.94976 3.18175,-53.89719c0.50596,-4.04772 1.22785,-8.09282 2.4,-12c0.41264,-1.37548 0.23765,-4.45412 1.6,-4c1.06949,0.3565 0.8,8.2857 0.8,12.8c0,17.92369 0.97641,35.00514 2.4,52.8c0.08128,1.01596 0.14681,2.03293 0.2023,3.05054" data-paper-data="{&quot;fixed&quot;:true}" stroke-opacity="0.7" stroke="#aecaf2" stroke-width="30" vector-effect="non-scaling-stroke" stroke-miterlimit="10"/><path d="M336.92121,433.2583c4.2663,-16.07215 11.33291,-32.2178 16.57702,-47.95014c0.57529,-1.72586 6.0246,-23.8123 6.4,-24c1.19257,-0.59628 0.08869,2.66962 0,4c-0.37629,5.64433 -1.69835,11.18683 -2.4,16.8c-1.07309,8.58475 -1.16785,17.75699 -1.6,26.4c-0.17363,3.47257 -0.48522,6.93737 -0.8,10.4c-0.14486,1.59343 0,3.2 0,4.8c0,1.33333 0.2192,5.31519 0,4c-2.59989,-15.59935 -2.69479,-31.53749 -4,-47.2c-0.46716,-5.60591 -1.19921,-11.18896 -1.6,-16.8c-0.09688,-1.35628 -0.6647,-2.64701 -0.8,-4c-0.13267,-1.32672 0.59628,-5.19257 0,-4c-4.91637,9.83273 -4.85983,28.41109 -3.2,39.2c1.41326,9.18618 6.67636,16.97456 7.2,26.4c0.20377,3.66784 -0.04167,6.58891 -0.61472,9.35615" data-paper-data="{&quot;fixed&quot;:true}" stroke-opacity="0.7" stroke="#aecaf2" stroke-width="30" vector-effect="non-scaling-stroke" stroke-miterlimit="10"/><path d="M349.29476,431.17658c2.9485,-13.63086 8.27013,-26.89504 12.20348,-40.26841c0.78557,-2.67095 1.68265,-5.30992 2.4,-8c0.26859,-1.00722 1.05683,-8 3.2,-8c3.26392,0 4.35796,8.51652 4.8,13.6c0.88856,10.21846 0.8,20.95247 0.8,31.2c0,2.30985 0.04624,4.62098 0.08866,6.93201" data-paper-data="{&quot;fixed&quot;:true}" stroke-opacity="0.7" stroke="#aecaf2" stroke-width="30" vector-effect="non-scaling-stroke" stroke-miterlimit="10"/><path d="M370.05221,427.17782c-0.56939,-14.82407 0.49792,-33.23293 1.84602,-42.66965c0.61391,-4.29739 1.58774,-8.53565 2.4,-12.8c0.26183,-1.37459 1.73842,-9.15894 2.4,-9.6c1.13137,-0.75425 0.58793,2.6569 0.8,4c0.93831,5.94265 1.99766,11.92671 4,17.6c4.56241,12.92682 8.2124,26.10414 12.92916,38.9892" data-paper-data="{&quot;fixed&quot;:true}" stroke-opacity="0.7" stroke="#aecaf2" stroke-width="30" vector-effect="non-scaling-stroke" stroke-miterlimit="10"/><path d="M399.09824,422.03338c0,-8.24174 0,-16.48348 0,-24.72521c0,-5.77581 -0.52275,-11.84977 0,-17.6c0.31531,-3.4684 2.4015,-8 0.8,-8c-1.43763,0 -7.52115,9.83187 -8,11.2c-4.73387,13.52534 -6.32352,27.73711 -8.79586,41.75636" data-paper-data="{&quot;fixed&quot;:true}" stroke-opacity="0.7" stroke="#aecaf2" stroke-width="30" vector-effect="non-scaling-stroke" stroke-miterlimit="10"/><path d="M315.83074,435.67676c2.17674,-8.34883 5.0985,-16.33991 8.06749,-23.1686c3.06532,-7.05023 5.72276,-14.15331 9.6,-20.8c0.78348,-1.34311 1.75657,-2.58445 2.4,-4c0.6979,-1.53538 1.6,-6.48655 1.6,-4.8c0,12.82845 -8.69496,32.13066 -12,44.8c-0.6285,2.40925 -1.22631,4.83289 -1.74743,7.27144" data-paper-data="{&quot;fixed&quot;:true}" stroke-opacity="0.7" stroke="#aecaf2" stroke-width="30" vector-effect="non-scaling-stroke" stroke-miterlimit="10"/><path d="M481.05,218c26.41616,5.30978 49.3886,23.29824 65.95,44c4.02943,5.03679 12.18098,27.72853 8,34c-3.14692,4.72038 -13.1462,6.6132 -18,8" data-paper-data="{&quot;fixed&quot;:true}" stroke="#f2d7ae" stroke-width="33" vector-effect="non-scaling-stroke" stroke-miterlimit="10"/><path d="M232.16717,225.29375c-7.67675,1.52015 -12.3716,5.1116 -18.06,10.8c-19.87963,19.87963 -16.6253,30.45557 -18,55.2c-0.26718,4.80922 -1.82298,9.62382 -1.2,14.4c0.5816,4.45894 14.30784,35.02157 19.2,36c2.4807,0.49614 4.8,-1.6 7.2,-2.4" data-paper-data="{&quot;fixed&quot;:true}" stroke="#f2d7ae" stroke-width="33" vector-effect="non-scaling-stroke" stroke-miterlimit="10"/><path d="M332.63708,153.6293c-10.17366,13.89883 -70.373,25.32128 -76.04386,29.27207c-5.58371,3.88978 -13.07503,40.31684 -6.34397,46.33467c6.73078,6.01754 32.7278,-7.35127 49.89163,7.28816c40.92934,34.90983 52.23631,73.13796 104.75155,-5.21024c4.77781,-4.94278 44.28244,9.41614 47.82522,4.61003c3.54159,-4.80519 11.39578,-37.72358 -0.87539,-44.65654c-12.26843,-6.93295 -73.92189,-25.16452 -78.86551,-34.78347c-4.94278,-9.61887 1.97473,-24.39836 -18.98271,-24.88127c-20.95989,-0.48278 -16.11392,6.0379 -17.84042,16.11715" data-paper-data="{&quot;fixed&quot;:true}" id="path25603-0 1" stroke="#f0d3a7" stroke-width="22.7038" stroke-miterlimit="4"/><path d="M351.89862,159.72826c-0.92875,18.32683 -79.37065,26.00552 -71.03221,50.20641c62.79881,6.79045 61.62086,87.00681 119.21518,23.48639c6.44436,-7.21993 26.96986,-17.75892 25.2541,-20.22876c-1.71428,-2.46964 -73.25506,-37.15159 -71.00008,-41.56065" data-paper-data="{&quot;fixed&quot;:true}" id="path25656-6 1" stroke="#f0d3a7" stroke-width="49.77243" stroke-miterlimit="4"/><path d="M349.98781,216.26397c-20.45024,14.30634 -11.50578,60.65968 -7.06991,61.08713c4.43383,0.428 15.50732,-49.41336 15.96734,-56.51683c0.46112,-7.10354 -31.49362,2.83257 -30.83556,7.28304" data-paper-data="{&quot;fixed&quot;:true}" id="path25660-5 1" stroke="#f0d3a7" stroke-width="89.24737" stroke-miterlimit="4"/><path d="M232.42663,209.8219c-2.48368,14.66675 -2.54194,29.41843 0.70481,29.06231c3.24675,-0.35641 -1.04668,-17.66787 4.26605,-18.2918c5.31203,-0.62399 2.53071,16.71553 5.76974,14.89279c3.23833,-1.82239 -0.52107,-14.44828 6.16918,-9.74537c6.69076,4.7027 6.68304,12.88479 13.79135,7.00736c7.1088,-5.87714 7.65103,-6.36293 9.96103,-4.28431" data-paper-data="{&quot;fixed&quot;:true}" id="path27328-4 1" stroke="#0071d1" stroke-width="18.1924" stroke-miterlimit="4"/><path d="M271.54921,246.78293c51.70518,-4.8073 46.53474,-4.94699 61.01272,7.96187c10.293,9.1776 76.2203,57.78639 73.0752,65.83293c-3.14496,8.04667 -4.9133,15.35253 -33.72408,12.54425c-28.81085,-2.808 -73.59543,-2.22534 -75.57793,-8.97781c-1.98245,-6.75254 -18.95863,-68.22148 -16.13786,-67.98421c2.82064,0.23742 35.44405,3.07476 44.34134,10.52417c8.89736,7.44934 66.86269,48.20093 64.07098,51.05239c-2.79185,2.85152 -73.24732,4.0358 -77.55688,-0.23629c-4.30958,-4.27167 -20.84428,-38.33615 -14.69398,-43.94562c6.15022,-5.60968 65.90116,36.2001 64.45876,36.2001c-1.44261,0 -33.4887,0.15846 -38.63141,-2.1776c-5.14285,-2.33626 -11.07321,-12.6327 -9.24871,-17.19865c1.8245,-4.91681 12.244,12.82961 16.21395,10.9392" data-paper-data="{&quot;fixed&quot;:true}" id="path27330-7 1" stroke="#0071d1" stroke-width="18.1924" stroke-miterlimit="4"/><path d="M368.34869,258.1538c21.07636,-16.85523 38.60017,-21.01269 50.02059,-17.61859c17.17464,5.10424 -0.08459,62.13662 -2.91611,63.64276c-2.80519,1.49175 -32.65479,-33.54156 -34.44784,-37.48884c-1.79291,-3.94735 26.21338,-21.07572 27.22356,-16.19409c1.01018,4.88171 3.70024,32.55357 0.88312,30.95602c-2.81713,-1.59775 -19.38777,-11.66001 -13.31652,-16.73027c6.0709,-5.07055 4.62829,-2.59038 5.66865,1.20604" data-paper-data="{&quot;fixed&quot;:true}" id="path27332-6 1" stroke="#0071d1" stroke-width="18.1924" stroke-miterlimit="4"/><path d="M436.1993,225.06969c30.04279,-15.90704 37.33805,-26.43227 35.51186,-21.50352c-1.8266,4.92874 -5.98385,13.08303 -9.03614,15.07208c-3.0523,1.98877 -0.01692,11.10543 -6.04984,11.85081c-6.03439,0.74552 -18.83557,1.10425 -14.91497,-2.26886c3.92067,-3.37381 9.02926,-0.24644 12.98335,-4.69217" data-paper-data="{&quot;fixed&quot;:true}" id="path27334-5 1" stroke="#0071d1" stroke-width="18.1924" stroke-miterlimit="4"/><path d="M295.06387,345.21551c36.87971,3.73604 60.64241,5.58371 74.55394,4.49069c13.9116,-1.09231 35.11179,-1.59073 41.55335,-4.83187" data-paper-data="{&quot;fixed&quot;:true}" id="path27336-6 1" stroke="#0071d1" stroke-width="18.1924" stroke-miterlimit="4"/><path d="M236.17057,192.75112c2.85854,10.68023 3.04387,25.67024 34.6821,30.56522c31.63858,4.89434 39.19062,3.80484 54.57215,13.06036c15.38138,9.25545 82.34554,67.5701 88.41438,78.2704c13.78672,24.30872 -10.69637,26.38039 -40.73306,27.78642c-29.86462,1.39487 -81.48857,-6.77711 -85.92834,-8.75345c-4.44085,-1.97473 -17.98145,-78.71233 -22.13904,-90.9506" data-paper-data="{&quot;fixed&quot;:true}" id="path553-6-9 1" stroke="#00095e" stroke-width="10.06619" stroke-miterlimit="4"/><path d="M238.06752,189.485c-7.61165,8.7995 -17.74768,22.75912 -16.74495,27.37344c1.00737,4.61425 -2.1776,14.70044 2.77852,15.90648c4.95612,1.20674 1.09582,16.13273 6.05756,17.38615c4.96103,1.25307 24.36333,-8.55071 51.39398,-14.36847c27.03079,-5.81747 27.96087,-4.57423 37.76676,-0.71393" data-paper-data="{&quot;fixed&quot;:true}" id="path555-0-3 1" stroke="#00095e" stroke-width="10.06619" stroke-miterlimit="4"/><path d="M354.0474,256.3772c14.1611,-12.50311 25.52725,-26.06954 44.76486,-28.34802c19.23754,-2.27799 38.5874,3.14075 39.80242,19.26513c1.21797,16.12459 -18.0852,74.65675 -20.92381,83.5796" data-paper-data="{&quot;fixed&quot;:true}" id="path557-6-7 1" stroke="#00095e" stroke-width="10.06619" stroke-miterlimit="4"/><path d="M418.97462,226.75533c44.47331,-25.60145 46.37244,-24.84617 52.87794,-31.33679" data-paper-data="{&quot;fixed&quot;:true}" id="path559-2-4 1" stroke="#00095e" stroke-width="10.06619" stroke-miterlimit="4"/><path d="M471.26356,194.50838c9.38553,3.79291 21.24371,-3.09582 14.18173,8.52256c-7.06254,11.61866 -7.89364,5.49455 -8.08543,15.65488c-0.19115,10.16075 -7.86984,1.50579 -8.88648,11.71498c-1.0172,10.21059 -7.4273,16.1128 -32.33314,9.39051" data-paper-data="{&quot;fixed&quot;:true}" id="path561-6-5 1" stroke="#00095e" stroke-width="10.06619" stroke-miterlimit="4"/><path d="M284.86992,332.46872c5.59283,23.37927 3.02702,23.21135 9.58413,24.95666c6.55879,1.74447 111.64882,2.702 118.78399,-3.44752c11.828,-10.19318 7.6346,-15.05207 2.29414,-20.96102" data-paper-data="{&quot;fixed&quot;:true}" id="path563-1-2 1" stroke="#00095e" stroke-width="10.06619" stroke-miterlimit="4"/></g></svg>