<svg version="1.1" xmlns="http://www.w3.org/2000/svg" xmlns:xlink="http://www.w3.org/1999/xlink" width="956" height="956"><g fill="none" fill-rule="nonzero" stroke="none" stroke-width="none" stroke-linecap="round" stroke-linejoin="round" stroke-miterlimit="none" stroke-dasharray="" stroke-dashoffset="0" font-family="none" font-weight="none" font-size="none" text-anchor="none" style="mix-blend-mode: normal"><path d="M455.03485,456.97672c17.59508,127.13017 14.57489,185.42923 18.9309,268.43067" data-paper-data="{&quot;fixed&quot;:true}" id="path6204-9 1" stroke="#6b6b6b" stroke-width="28.68" stroke-miterlimit="4"/><path d="M303.32468,675.44748c59.5436,-37.24423 89.15015,-43.90134 162.83682,-78.45395c47.35584,6.70252 146.59328,5.17578 177.7785,-3.68634" data-paper-data="{&quot;fixed&quot;:true}" id="path6701-0 1" stroke="#6b6b6b" stroke-width="28.68" stroke-miterlimit="4"/><path d="M322.14634,529.51207c-13.60464,82.60003 -26.95174,164.50221 -40.25544,246.28644" data-paper-data="{&quot;fixed&quot;:true}" id="path6089 1" stroke="#939393" stroke-width="28.68" stroke-miterlimit="4"/><path d="M537.30429,535.69372c17.59508,127.13017 14.57489,185.42923 18.9309,268.43067" data-paper-data="{&quot;fixed&quot;:true}" id="path6204 1" stroke="#939393" stroke-width="28.68" stroke-miterlimit="4"/><path d="M640.06259,464.25297c7.06484,99.72959 12.87321,182.3853 18.9309,268.43067" data-paper-data="{&quot;fixed&quot;:true}" id="path6204-3 1" stroke="#939393" stroke-width="28.68" stroke-miterlimit="4"/><path d="M303.32468,675.44748c77.17281,18.88941 161.36777,8.62886 245.10626,0.26305c47.20068,-20.64922 78.26485,-38.11467 101.97199,-61.78724" data-paper-data="{&quot;fixed&quot;:true}" id="path6701 1" stroke="#939393" stroke-width="28.68" stroke-miterlimit="4"/><path d="M568.13352,535.20602c3.23224,6.51036 104.49435,-86.35682 84.52713,-118.42575c-15.12153,-24.28642 -177.6226,-33.13047 -235.04944,-6.74171c-48.40945,22.24488 -141.19132,74.53272 -127.6169,107.34953c13.57444,32.8168 280.84965,20.47714 278.13918,17.81821" data-paper-data="{&quot;fixed&quot;:true}" id="path4651 1" stroke="#88201c" stroke-width="28.68" stroke-miterlimit="4"/><path d="M596.91833,432.32983c-42.87029,-5.46545 -87.63375,-7.22545 -131.91583,-9.92749c-27.50202,7.20155 -102.61752,61.29834 -120.11538,74.59945c55.96768,3.38233 180.27487,-50.75633 224.73194,-23.21885" data-paper-data="{&quot;fixed&quot;:true}" id="path7896 1" stroke="#f00000" stroke-width="95.6" stroke-miterlimit="4"/><path d="M349.08599,518.47009c144.18227,19.50144 252.08438,3.81731 277.25099,-74.29344" data-paper-data="{&quot;fixed&quot;:true}" id="path7356 1" stroke="#661815" stroke-width="47.8" stroke-miterlimit="4"/><path d="M443.05,376c-0.17072,-20.48664 -4.61487,-41.65668 -3.05,-62c1.87424,-24.36509 7.77268,-47.7951 11,-72c3.53933,-26.54498 15.07768,-59.46215 37,-77c19.713,-15.7704 54.57657,-14.90391 78,-11c12.21162,2.03527 26.07951,9.53975 37,15c6.57264,3.28632 15.75737,6.17485 21,12c27.32924,30.36582 27.35041,74.28761 31,112c0.95085,9.82549 4.30862,19.27459 6,29c1.62753,9.35832 0,21.53466 0,31c0,17.60777 3.56515,38.58711 -3,55" data-paper-data="{&quot;fixed&quot;:true}" stroke="#181818" stroke-width="30" stroke-miterlimit="10"/><path d="M619.05,374c-31.55827,0 -63.61928,-6.81714 -95.05,-10c-20.3275,-2.05848 -40.65245,-4.15022 -61,-6c-1.65982,-0.15089 -6.66298,0.11087 -5,0c40.30413,-2.68694 80.73347,-4.37392 121,-7c6.65253,-0.43386 13.53238,1.6169 20,0c5.18419,-1.29605 -10.66449,-0.70358 -16,-1c-22.05671,-1.22537 -44.03957,-3.60432 -66,-6c-8.97143,-0.9787 -17.99292,-1.43706 -27,-2c-1.66342,-0.10396 -5,0 -5,0c0,0 3.33333,0 5,0c26,0 52.00614,0.56508 78,0c17.67506,-0.38424 35.32887,-1.46451 53,-2c4.33135,-0.13125 16.06413,3.06413 13,0c-3.56682,-3.56682 -10.06619,-0.95025 -15,-2c-10.75422,-2.28813 -21.24578,-5.71187 -32,-8c-33.34066,-7.09376 -65.30757,-13.4799 -99,-17c-9.96794,-1.04143 -20.18846,0.04407 -30,-2c-2.18907,-0.45606 3.81954,-2.50444 6,-3c5.24118,-1.19118 10.62871,-1.80468 16,-2c12.99141,-0.47242 26,0 39,0c6.1902,0 50.86447,1.29907 60,-3c3.10523,-1.46128 -5.65183,-4.24666 -9,-5c-19.08752,-4.29469 -38.6628,-6.02505 -58,-9c-3.96719,-0.61034 -7.99168,-0.78904 -12,-1c-2.33011,-0.12264 -8.86667,-1.4 -7,0c3.04047,2.28035 7.22195,2.58678 11,3c46.77126,5.11561 61.46743,3.98867 109,5c12.66818,0.26954 25.33148,0.74663 38,1c3.9992,0.07998 15.12348,2.49878 12,0c-4.58896,-3.67117 -26.07386,-4.8838 -32,-5c-19.99616,-0.39208 -40,0 -60,0c-9.33333,0 -18.66667,0 -28,0c-3.66667,0 -7.33333,0 -11,0c-2,0 -7.32873,1.49482 -6,0c4.10073,-4.61332 35.84976,-20.5602 37,-21c3.43898,-1.3149 7.59553,0.40184 11,-1c2.61538,-1.07692 8,-4 6,-6c-5.07718,-5.07718 -13.28805,-5.44946 -20,-8c-32.31971,-12.28149 -35.00685,-13.32973 -72,-22c-7.25691,-1.70084 -14.72393,-2.3831 -22,-4c-1.75231,-0.3894 -6.16821,-0.63709 -5,-2c3.29675,-3.84621 27.79405,-9.6899 29,-10c22.44955,-5.77274 53.24748,-20.40594 74,-23c2.2188,-0.27735 -3.96436,2.07471 -6,3c-1.63416,0.7428 -3.34561,1.30342 -5,2c-7.04929,2.96812 -36.78203,17.21797 -44,10c-3.01846,-3.01846 4.16023,-8.13497 8,-10c16.07802,-7.80933 44.58046,-8.68644 61,-10c5.32672,-0.42614 10.66053,-0.78642 16,-1c2.9976,-0.1199 6.37135,-1.44576 9,0c4.54357,2.49897 7.20915,7.46187 11,11c2.84183,2.65238 7.44019,3.07451 10,6c3.15681,3.60778 2,29.9048 2,35c0,2.78002 0.33939,34.88687 -6,37c-2.72029,0.90676 -3.91812,-4.34448 -5,-7c-2.62606,-6.44579 -3.48741,-13.50914 -6,-20c-3.84067,-9.92173 -23.45928,-44.50954 -32,-50c-6.39981,-4.11416 -10.73785,-2.78964 -18,-4c-6.21007,-1.03501 -11.40712,-4.43976 -18,-1c-20.74619,10.8241 -26.9873,35.91112 -30,57c-1.46017,10.22121 -1.32856,20.97137 -3,31c-0.29511,1.77063 -0.21881,5.22265 -2,5c-8.74866,-1.09358 -8.46425,-20.16861 -7,-30c2.00115,-13.43627 19.54148,-47.48828 24,-56c2.78834,-5.32319 6.55392,-10.07703 10,-15c0.95577,-1.36539 4.17851,-5.17851 3,-4c-34.50587,34.50587 -54.66208,81.80615 -77,124c-5.60959,10.59589 -27.10731,40.18797 -11,52c10.09727,7.40467 25.26698,6.90316 36,1c5.87471,-3.23109 9.22708,-12.50521 17,-14c16.19431,-3.11429 31.76357,-1.26198 48,-2c6.4311,-0.29232 11.73067,-5.53716 18,-7c10.08395,-2.35292 20.67568,-1.20582 31,-2" data-paper-data="{&quot;fixed&quot;:true}" stroke="#ac0404" stroke-width="30" stroke-miterlimit="10"/></g></svg>