<svg version="1.1" xmlns="http://www.w3.org/2000/svg" xmlns:xlink="http://www.w3.org/1999/xlink" width="956" height="956"><g fill="none" fill-rule="nonzero" stroke="none" stroke-width="none" stroke-linecap="round" stroke-linejoin="round" stroke-miterlimit="none" stroke-dasharray="" stroke-dashoffset="0" font-family="none" font-weight="none" font-size="none" text-anchor="none" style="mix-blend-mode: normal"><path d="M388.38358,448.56476c38.70653,72.656 44.58593,67.1112 45.69489,86.7092c1.14816,19.598 82.03149,12.3324 94.52546,9.56c12.49482,-2.868 8.9864,-11.8544 8.604,-19.6936c-0.40724,-7.648 36.95705,-56.3084 41.39289,-67.5892" data-paper-data="{&quot;fixed&quot;:true}" id="path53808-0 1" stroke="#5d5955" stroke-width="24.18613" stroke-miterlimit="4"/><path d="M643.8412,145.67528c-28.47828,-29.7316 -281.25041,-8.604 -302.25573,5.736c-26.57584,17.4948 -174.11591,223.35984 -148.23995,264.34356c25.87796,41.0124 547.93586,37.4752 568.0789,9.7512c20.36567,-27.6284 -89.76209,-273.7028 -100.18374,-275.55744" data-paper-data="{&quot;fixed&quot;:true}" id="path52838-6 1" stroke="#eacd46" stroke-width="20.07543" stroke-miterlimit="4"/><path d="M566.3768,170.87544c74.11581,4.78 87.3459,-13.6708 89.6881,16.73c2.00856,26.3856 -78.18837,0.08604 -74.91885,26.3856c3.4416,27.9152 78.12145,-19.8848 83.9521,7.648c5.5448,26.29 -77.52873,13.2884 -70.53081,39.2916c7.5524,28.1064 78.71417,-29.3492 87.31722,-1.912c9.77998,31.6436 -93.68418,23.3264 -82.91962,54.5876c9.082,26.4812 74.66073,-33.2688 83.73317,-6.692c7.17,20.9364 -63.08357,15.5828 -55.62773,36.4236c8.604,24.1868 67.70105,-32.2172 76.70657,-8.604c15.6392,41.8728 -145.51163,49.6164 -109.94125,76.6712c16.99261,16.252 108.3399,-15.4872 121.58868,-21.2232" data-paper-data="{&quot;fixed&quot;:true}" id="path54109-2 1" stroke="#fcf3c6" stroke-width="20.07543" stroke-miterlimit="4"/><path d="M421.05,553c-12.05148,9.54573 -26.62847,15.12748 -39.05,24c-12.62063,9.01473 -26.65383,27.03073 -32,42c-7.67167,21.48067 -15.64777,45.01214 -17,68c-0.68315,11.6135 0.38508,20.66866 3,32c6.40661,27.76196 16.07961,49.07961 36,69c10.40078,10.40078 31.75165,13.56524 45,17c34.13719,8.85038 50.07904,13.90872 85,15c8.35588,0.26112 16.65856,2.5561 25,2c6.45783,-0.43052 12.5469,-3.50361 19,-4c24.76915,-1.90532 54.89269,2.51646 78,-10c39.49256,-21.39181 45.24239,-46.15524 63,-85c1.80695,-3.9527 5.50382,-6.91952 7,-11c5.15034,-14.04639 5.65073,-34.14345 4,-49c-2.89135,-26.02214 -17.82885,-49.16008 -32,-70c-8.52662,-12.53915 -18.94352,-33.96772 -33,-42c-5.12844,-2.93053 -11.54213,-2.74157 -17,-5c-10.07042,-4.16707 -19.88098,-8.95239 -30,-13c-16.42036,-6.56814 -32.75535,-11.74679 -49,-2" data-paper-data="{&quot;fixed&quot;:true}" stroke="#060606" stroke-width="30" stroke-miterlimit="10"/></g></svg>