<svg version="1.1" xmlns="http://www.w3.org/2000/svg" xmlns:xlink="http://www.w3.org/1999/xlink" width="872" height="872"><g fill="none" fill-rule="nonzero" stroke="none" stroke-width="none" stroke-linecap="round" stroke-linejoin="round" stroke-miterlimit="4" stroke-dasharray="" stroke-dashoffset="0" font-family="none" font-weight="none" font-size="none" text-anchor="none" style="mix-blend-mode: normal"><path d="M354.25783,409.15112c35.30554,66.272 40.66834,61.2144 41.67986,79.0904c1.04727,17.876 74.8237,11.2488 86.21987,8.72c11.39695,-2.616 8.1968,-10.8128 7.848,-17.9632c-0.37145,-6.976 33.70978,-51.3608 37.75586,-61.6504" data-paper-data="{&quot;fixed&quot;:true}" id="path53808-0 1" stroke="#5d5955" stroke-width="22.06099"/><path d="M587.26938,132.87536c-25.97601,-27.1192 -256.53803,-7.848 -275.69769,5.232c-24.24073,15.9576 -158.81702,203.73408 -135.21468,241.11672c23.60417,37.4088 499.79087,34.1824 518.16402,8.8944c18.57622,-25.2008 -81.87504,-249.6536 -91.38099,-251.34528" data-paper-data="{&quot;fixed&quot;:true}" id="path52838-6 1" stroke="#eacd46" stroke-width="18.31148"/><path d="M516.61147,155.86128c67.60354,4.36 79.67115,-12.4696 81.80755,15.26c1.83207,24.0672 -71.31826,0.07848 -68.33602,24.0672c3.1392,25.4624 71.25722,-18.1376 76.57555,6.976c5.0576,23.98 -70.71658,12.1208 -64.33354,35.8392c6.8888,25.6368 71.79786,-26.7704 79.64499,-1.744c8.92065,28.8632 -85.45251,21.2768 -75.63379,49.7912c8.284,24.1544 68.10058,-30.3456 76.37586,-6.104c6.54,19.0968 -57.54066,14.2136 -50.73994,33.2232c7.848,22.0616 61.75242,-29.3864 69.96666,-7.848c14.26505,38.1936 -132.72609,45.2568 -100.28114,69.9344c15.49954,14.824 98.8205,-14.1264 110.90515,-19.3584" data-paper-data="{&quot;fixed&quot;:true}" id="path54109-2 1" stroke="#fcf3c6" stroke-width="18.31148"/></g></svg>