<svg version="1.1" xmlns="http://www.w3.org/2000/svg" xmlns:xlink="http://www.w3.org/1999/xlink" width="872" height="872"><g fill="none" fill-rule="nonzero" stroke="none" stroke-width="none" stroke-linecap="round" stroke-linejoin="round" stroke-miterlimit="4" stroke-dasharray="" stroke-dashoffset="0" font-family="none" font-weight="none" font-size="none" text-anchor="none" style="mix-blend-mode: normal"><path d="M415.05271,416.82395c16.04907,115.95974 13.29425,169.13629 17.26752,244.84471" data-paper-data="{&quot;fixed&quot;:true}" id="path6204-9 1" stroke="#6b6b6b" stroke-width="26.16"/><path d="M276.67272,616.09854c54.31174,-33.97172 81.31688,-40.0439 148.52898,-71.56051c43.19487,6.11359 133.7127,4.72101 162.15779,-3.36243" data-paper-data="{&quot;fixed&quot;:true}" id="path6701-0 1" stroke="#6b6b6b" stroke-width="26.16"/><path d="M293.8406,482.98591c-12.40926,75.34228 -24.5836,150.04804 -36.71835,224.64621" data-paper-data="{&quot;fixed&quot;:true}" id="path6089 1" stroke="#939393" stroke-width="26.16"/><path d="M490.09346,488.6244c16.04907,115.95974 13.29425,169.13629 17.26752,244.84471" data-paper-data="{&quot;fixed&quot;:true}" id="path6204 1" stroke="#939393" stroke-width="26.16"/><path d="M583.82278,423.46087c6.44408,90.96673 11.74209,166.35981 17.26752,244.84471" data-paper-data="{&quot;fixed&quot;:true}" id="path6204-3 1" stroke="#939393" stroke-width="26.16"/><path d="M276.67272,616.09854c70.39194,17.22967 147.18901,7.87067 223.56973,0.23994c43.05334,-18.83485 71.38802,-34.76568 93.01211,-56.35823" data-paper-data="{&quot;fixed&quot;:true}" id="path6701 1" stroke="#939393" stroke-width="26.16"/><path d="M518.21383,488.17955c2.94823,5.93832 95.31284,-78.76898 77.10006,-108.02014c-13.79286,-22.15246 -162.01559,-30.21942 -214.39656,-6.14934c-44.1559,20.29031 -128.78539,67.98382 -116.4037,97.91714c12.3817,29.93332 256.17248,18.67789 253.70017,16.2526" data-paper-data="{&quot;fixed&quot;:true}" id="path4651 1" stroke="#88201c" stroke-width="26.16"/><path d="M544.46944,394.34269c-39.10344,-4.98522 -79.93371,-6.59058 -120.3249,-9.0552c-25.08552,6.56878 -93.60092,55.91229 -109.56131,68.04469c51.05002,3.08514 164.43482,-46.29657 204.98562,-21.1787" data-paper-data="{&quot;fixed&quot;:true}" id="path7896 1" stroke="#f00000" stroke-width="87.2"/><path d="M318.41316,472.91414c131.51353,17.78793 229.93471,3.4819 252.89003,-67.76556" data-paper-data="{&quot;fixed&quot;:true}" id="path7356 1" stroke="#661815" stroke-width="43.6"/></g></svg>