<svg version="1.1" xmlns="http://www.w3.org/2000/svg" xmlns:xlink="http://www.w3.org/1999/xlink" width="956" height="956"><g fill="none" fill-rule="nonzero" stroke="#000000" stroke-width="25.29413" stroke-linecap="round" stroke-linejoin="round" stroke-miterlimit="4" stroke-dasharray="" stroke-dashoffset="0" font-family="none" font-weight="none" font-size="none" text-anchor="none" style="mix-blend-mode: normal"><path d="M125.57627,362.55085c346.34746,66.83893 739.27964,8.1021 739.27964,-10.127c0,-18.22872 -95.19494,-101.27123 -198.49151,-62.78807" data-paper-data="{&quot;fixed&quot;:true}" id="path6470 1"/><path d="M315.9661,405.08473c-14.17796,192.41526 -44.55935,386.85594 6.07634,403.05933c50.63559,16.20344 263.30509,-36.45763 301.78814,-131.65255c38.48302,-95.19494 40.50849,-135.70338 40.50849,-135.70338" data-paper-data="{&quot;fixed&quot;:true}" id="path6472 1"/><path d="M660.28813,415.21186c76.96613,-14.17796 101.27118,-30.38139 97.22032,10.1271c-4.05057,40.50849 -18.22882,56.71183 -44.55935,105.32202c-26.33053,48.61021 16.20334,72.91527 -26.33053,48.61021" data-paper-data="{&quot;fixed&quot;:true}" id="path6474 1"/><path d="M399.00846,480.02543c-16.20344,52.66097 -56.71183,133.67795 -52.66097,139.75422c4.05057,6.07634 52.66097,10.127 66.83903,0" data-paper-data="{&quot;fixed&quot;:true}" id="path6476 1"/><path d="M334.1949,463.82203c34.43225,2.02576 2.02576,10.127 44.55935,6.07634" data-paper-data="{&quot;fixed&quot;:true}" id="path6478 1"/><path d="M467.64473,486.53789c34.43225,2.02576 2.02576,10.127 44.55935,6.07634" data-paper-data="{&quot;fixed&quot;:true}" id="path6478-5 1"/><path d="M364.57628,684.59322c86.28321,10.93702 97.21166,-0.93006 101.22186,-4.94061" data-paper-data="{&quot;fixed&quot;:true}" id="path6495 1"/></g></svg>