<svg version="1.1" xmlns="http://www.w3.org/2000/svg" xmlns:xlink="http://www.w3.org/1999/xlink" width="471" height="471"><g fill="none" fill-rule="nonzero" stroke="none" stroke-width="none" stroke-linecap="round" stroke-linejoin="round" stroke-miterlimit="4" stroke-dasharray="" stroke-dashoffset="0" font-family="none" font-weight="none" font-size="none" text-anchor="none" style="mix-blend-mode: normal"><path d="M142.2258,269.09172c96.90992,31.7925 198.72408,20.3943 200.16522,6.6411c1.45727,-13.7532 -102.38728,-50.06259 -183.53906,-20.5827" data-paper-data="{&quot;fixed&quot;:true}" id="path27410-0-4 1" stroke="#5d5955" stroke-width="10.84506"/><path d="M245.92259,272.18148c-4.36381,-53.93421 -8.41861,-107.91552 0,-163.76199" data-paper-data="{&quot;fixed&quot;:true}" id="path31436-4 1" stroke="#a57213" stroke-width="16.88917"/><path d="M248.07097,176.61087c19.51654,-15.2133 37.41699,-15.2604 40.90635,-14.13" data-paper-data="{&quot;fixed&quot;:true}" id="path32263-7 1" stroke="#a57213" stroke-width="6.4299"/><path d="M235.79609,204.92739c-28.23023,-15.1662 -25.09535,-41.3538 -44.61298,-39.6582" data-paper-data="{&quot;fixed&quot;:true}" id="path32265-6 1" stroke="#a57213" stroke-width="6.4299"/><path d="M249.96651,108.22167c0.77056,-26.0463 24.80635,-37.6329 32.57342,-43.2378" data-paper-data="{&quot;fixed&quot;:true}" id="path32267-3 1" stroke="#a57213" stroke-width="8.31598"/><path d="M245.92259,108.41949c-13.47696,-21.2892 -19.9452,-24.2565 -28.07231,-26.9883" data-paper-data="{&quot;fixed&quot;:true}" id="path32426-1 1" stroke="#a57213" stroke-width="8.31598"/><path d="M217.84966,81.40764c0,0 1.84302,-7.9599 -0.7715,-10.362c-2.61499,-2.355 -6.91409,-5.0868 -6.91409,-5.0868" data-paper-data="{&quot;fixed&quot;:true}" id="path32428-7 1" stroke="#a57213" stroke-width="4.0294"/><path d="M217.84966,81.40764c-25.15781,7.7715 -25.98516,9.2787 -26.33667,11.0685" data-paper-data="{&quot;fixed&quot;:true}" id="path32430-5 1" stroke="#a57213" stroke-width="4.0294"/><path d="M288.97954,162.45732c0,0 -1.84302,-7.9599 0.77009,-10.362c2.61499,-2.355 6.91409,-5.0868 6.91409,-5.0868" data-paper-data="{&quot;fixed&quot;:true}" id="path32428-3-9 1" stroke="#a57213" stroke-width="4.0294"/><path d="M288.97954,162.45732c25.15781,7.7715 25.98474,9.2787 26.33625,11.0685" data-paper-data="{&quot;fixed&quot;:true}" id="path32430-8-6 1" stroke="#a57213" stroke-width="4.0294"/><path d="M282.53816,64.99329c0,0 7.90432,2.826 11.29496,1.884c3.38602,-0.942 6.82399,2.355 6.82399,2.355" data-paper-data="{&quot;fixed&quot;:true}" id="path32428-9-2 1" stroke="#a57213" stroke-width="4.0294"/><path d="M245.92259,108.41949c0,0 6.91409,-9.0903 10.30473,-10.1265c3.38602,-0.942 9.59328,1.884 9.59328,1.884" data-paper-data="{&quot;fixed&quot;:true}" id="path32428-9-8-1 1" stroke="#a57213" stroke-width="4.0294"/><path d="M282.53816,64.99329c5.83805,-25.6695 -17.42031,-13.5648 -18.8092,-14.7423" data-paper-data="{&quot;fixed&quot;:true}" id="path32430-6-7 1" stroke="#a57213" stroke-width="4.0294"/><path d="M235.94824,145.6332c0,0 -0.85722,-8.9961 -3.42935,-11.3982c-2.61499,-2.355 -6.91395,-5.0868 -6.91395,-5.0868" data-paper-data="{&quot;fixed&quot;:true}" id="path32428-5-8 1" stroke="#a57213" stroke-width="4.0294"/><path d="M191.6298,164.36487c0,0 1.84302,-7.9599 -0.7715,-10.362c-2.61499,-2.355 -6.91409,-5.0868 -6.91409,-5.0868" data-paper-data="{&quot;fixed&quot;:true}" id="path32428-5-4-5 1" stroke="#a57213" stroke-width="4.0294"/><path d="M191.6298,164.36487c-18.48345,16.1082 -24.8663,10.6446 -26.33239,11.0685" data-paper-data="{&quot;fixed&quot;:true}" id="path32430-0-7 1" stroke="#a57213" stroke-width="4.0294"/><path d="M159.55326,178.21698c-3.8151,10.1736 -12.79966,22.2312 -21.37695,24.492" data-paper-data="{&quot;fixed&quot;:true}" id="path34239-4 1" stroke="#1d810f" stroke-width="7.28722"/><path d="M159.55326,178.21698c-26.67103,7.7244 -21.81846,24.0681 -21.37695,24.492" data-paper-data="{&quot;fixed&quot;:true}" id="path34241-1 1" stroke="#1d810f" stroke-width="7.28722"/><path d="M163.67708,177.0018c-17.69038,11.5866 -22.9759,19.0284 -25.50079,25.7166" data-paper-data="{&quot;fixed&quot;:true}" id="path34237-8 1" stroke="#5ae733" stroke-width="2.57195"/><path d="M159.45437,172.85229c-10.2369,3.768 -25.2245,4.71 -32.49259,-0.46158" data-paper-data="{&quot;fixed&quot;:true}" id="path34239-5-9 1" stroke="#1d810f" stroke-width="7.28722"/><path d="M159.45437,172.85229c-23.15097,-15.3546 -32.44987,-0.942 -32.49259,-0.46158" data-paper-data="{&quot;fixed&quot;:true}" id="path34241-6-7 1" stroke="#1d810f" stroke-width="7.28722"/><path d="M165.29541,175.42866c-12.73744,-6.4527 -30.11466,-5.6049 -36.09061,-2.826" data-paper-data="{&quot;fixed&quot;:true}" id="path34237-1-5 1" stroke="#5ae733" stroke-width="2.57195"/><path d="M185.67445,89.89977c-10.23686,3.768 -25.2245,4.71 -32.49255,-0.46158" data-paper-data="{&quot;fixed&quot;:true}" id="path34239-5-3-8 1" stroke="#1d810f" stroke-width="7.28722"/><path d="M185.67445,89.89977c-23.15092,-15.3546 -32.44987,-0.942 -32.49255,-0.46158" data-paper-data="{&quot;fixed&quot;:true}" id="path34241-6-0-3 1" stroke="#1d810f" stroke-width="7.28722"/><path d="M191.51549,92.47614c-20.28263,-5.9817 -29.37495,-5.2281 -36.09061,-2.826" data-paper-data="{&quot;fixed&quot;:true}" id="path34237-1-4-1 1" stroke="#5ae733" stroke-width="2.57195"/><path d="M186.61362,96.56442c-1.26887,10.7859 -7.07546,24.6333 -14.85374,28.9194" data-paper-data="{&quot;fixed&quot;:true}" id="path34239-5-3-4-4 1" stroke="#1d810f" stroke-width="7.28722"/><path d="M186.61362,96.56442c-24.02303,13.9416 -15.38856,28.5897 -14.85374,28.9194" data-paper-data="{&quot;fixed&quot;:true}" id="path34241-6-0-7-3 1" stroke="#1d810f" stroke-width="7.28722"/><path d="M191.51523,92.47614c-14.38043,15.4959 -17.72029,24.021 -18.56272,31.086" data-paper-data="{&quot;fixed&quot;:true}" id="path34237-1-4-6-3 1" stroke="#5ae733" stroke-width="2.57195"/><path d="M177.6214,148.09653c-8.78735,6.4056 -22.89875,11.5395 -31.3045,8.7135" data-paper-data="{&quot;fixed&quot;:true}" id="path34239-1-3 1" stroke="#1d810f" stroke-width="7.28722"/><path d="M177.6214,148.09653c-26.53774,-8.1954 -31.43737,8.1012 -31.3045,8.7135" data-paper-data="{&quot;fixed&quot;:true}" id="path34241-5-8 1" stroke="#1d810f" stroke-width="7.28722"/><path d="M183.95174,148.91607c-21.14969,-0.02826 -29.65416,3.297 -35.41977,7.4889" data-paper-data="{&quot;fixed&quot;:true}" id="path34237-9-6 1" stroke="#5ae733" stroke-width="2.57195"/><path d="M180.48485,143.55609c-10.56354,-2.355 -23.61005,-9.9852 -26.89523,-18.2277" data-paper-data="{&quot;fixed&quot;:true}" id="path34239-5-4-4 1" stroke="#1d810f" stroke-width="7.28722"/><path d="M180.48485,143.55609c-10.9256,-25.5282 -26.52008,-18.7458 -26.89523,-18.2277" data-paper-data="{&quot;fixed&quot;:true}" id="path34241-6-8-8 1" stroke="#1d810f" stroke-width="7.28722"/><path d="M181.37815,146.68353c-12.75336,-14.3184 -21.39371,-19.9233 -28.6083,-22.1841" data-paper-data="{&quot;fixed&quot;:true}" id="path34237-1-1-8 1" stroke="#5ae733" stroke-width="2.57195"/><path d="M203.84125,65.1393c-8.78735,6.4056 -22.89875,11.5395 -31.30454,8.7135" data-paper-data="{&quot;fixed&quot;:true}" id="path34239-1-4-89 1" stroke="#1d810f" stroke-width="7.28722"/><path d="M203.84125,65.1393c-26.53769,-8.1954 -31.43741,8.1012 -31.30454,8.7135" data-paper-data="{&quot;fixed&quot;:true}" id="path34241-5-1-7 1" stroke="#1d810f" stroke-width="7.28722"/><path d="M210.17162,65.96355c-21.14978,-0.02826 -29.65416,3.297 -35.41981,7.4889" data-paper-data="{&quot;fixed&quot;:true}" id="path34237-9-8-76 1" stroke="#5ae733" stroke-width="2.57195"/><path d="M206.70472,60.60357c-10.56354,-2.355 -23.61005,-9.9852 -26.89528,-18.2277" data-paper-data="{&quot;fixed&quot;:true}" id="path34239-5-4-9-3 1" stroke="#1d810f" stroke-width="7.28722"/><path d="M206.70472,60.60357c-10.92565,-25.5282 -26.52013,-18.7458 -26.89523,-18.2277" data-paper-data="{&quot;fixed&quot;:true}" id="path34241-6-8-7-0 1" stroke="#1d810f" stroke-width="7.28722"/><path d="M210.1719,65.96355c-13.65763,-16.1553 -21.68423,-20.4885 -28.6083,-22.1841" data-paper-data="{&quot;fixed&quot;:true}" id="path34237-1-1-5-30 1" stroke="#5ae733" stroke-width="2.57195"/><path d="M257.39937,49.42674c-8.78735,6.4056 -22.8987,11.5395 -31.30454,8.7135" data-paper-data="{&quot;fixed&quot;:true}" id="path34239-1-4-2-9 1" stroke="#1d810f" stroke-width="7.28722"/><path d="M257.39937,49.42674c-26.53774,-8.1954 -31.43741,8.1012 -31.30454,8.7135" data-paper-data="{&quot;fixed&quot;:true}" id="path34241-5-1-1-2 1" stroke="#1d810f" stroke-width="7.28722"/><path d="M263.73015,50.25099c-21.14978,-0.02826 -29.65416,3.297 -35.41981,7.4889" data-paper-data="{&quot;fixed&quot;:true}" id="path34237-9-8-0-5 1" stroke="#5ae733" stroke-width="2.57195"/><path d="M260.2628,44.89101c-10.56354,-2.355 -23.6101,-9.9852 -26.89523,-18.2277" data-paper-data="{&quot;fixed&quot;:true}" id="path34239-5-4-9-1-0 1" stroke="#1d810f" stroke-width="7.28722"/><path d="M260.2628,44.89101c-10.92565,-25.5282 -26.52013,-18.7458 -26.89523,-18.2277" data-paper-data="{&quot;fixed&quot;:true}" id="path34241-6-8-7-1-5 1" stroke="#1d810f" stroke-width="7.28722"/><path d="M263.72999,50.25099c-13.65768,-16.1553 -21.68423,-20.4885 -28.6083,-22.1841" data-paper-data="{&quot;fixed&quot;:true}" id="path34237-1-1-5-0-9 1" stroke="#5ae733" stroke-width="2.57195"/><path d="M319.38816,178.43835c-0.71922,10.833 2.4671,25.5282 9.33993,31.1331" data-paper-data="{&quot;fixed&quot;:true}" id="path34239-1-4-8-6 1" stroke="#1d810f" stroke-width="7.28722"/><path d="M319.38816,178.43835c21.08318,18.0864 9.92275,30.8976 9.33993,31.1331" data-paper-data="{&quot;fixed&quot;:true}" id="path34241-5-1-9-92 1" stroke="#1d810f" stroke-width="7.28722"/><path d="M315.31359,173.52111c11.31441,17.8509 13.05136,26.847 12.5903,33.9591" data-paper-data="{&quot;fixed&quot;:true}" id="path34237-9-8-7-2 1" stroke="#5ae733" stroke-width="2.57195"/><path d="M321.69684,173.59176c7.8081,7.5831 21.0618,14.601 29.77968,12.9996" data-paper-data="{&quot;fixed&quot;:true}" id="path34239-5-4-9-6-4 1" stroke="#1d810f" stroke-width="7.28722"/><path d="M321.69684,173.59176c27.42115,-4.239 29.99634,12.4344 29.77968,12.9996" data-paper-data="{&quot;fixed&quot;:true}" id="path34241-6-8-7-4-7 1" stroke="#1d810f" stroke-width="7.28722"/><path d="M315.31359,173.52111c20.94688,2.826 28.90315,7.3947 34.03003,12.3402" data-paper-data="{&quot;fixed&quot;:true}" id="path34237-1-1-5-3-7 1" stroke="#5ae733" stroke-width="2.57195"/><path d="M304.7312,74.21547c-0.71922,10.833 2.4671,25.5282 9.33993,31.1331" data-paper-data="{&quot;fixed&quot;:true}" id="path34239-1-4-8-4-4 1" stroke="#1d810f" stroke-width="7.28722"/><path d="M304.7312,74.21547c21.08318,18.0864 9.92275,30.9447 9.33993,31.1331" data-paper-data="{&quot;fixed&quot;:true}" id="path34241-5-1-9-7-8 1" stroke="#1d810f" stroke-width="7.28722"/><path d="M300.65663,69.30294c11.31441,17.8509 13.05136,26.847 12.5903,33.9591" data-paper-data="{&quot;fixed&quot;:true}" id="path34237-9-8-7-7-1 1" stroke="#5ae733" stroke-width="2.57195"/><path d="M307.0399,69.37359c7.8081,7.5831 21.06185,14.601 29.77973,12.9996" data-paper-data="{&quot;fixed&quot;:true}" id="path34239-5-4-9-6-5-2 1" stroke="#1d810f" stroke-width="7.28722"/><path d="M307.0399,69.37359c27.42115,-4.239 29.99629,12.4344 29.77973,12.9996" data-paper-data="{&quot;fixed&quot;:true}" id="path34241-6-8-7-4-4-8 1" stroke="#1d810f" stroke-width="7.28722"/><path d="M300.65663,69.30294c20.94688,2.826 28.90315,7.3947 34.03003,12.3402" data-paper-data="{&quot;fixed&quot;:true}" id="path34237-1-1-5-3-8-9 1" stroke="#5ae733" stroke-width="2.57195"/><path d="M266.89052,106.6815c-6.04519,9.0432 -10.62364,23.3616 -7.4726,31.6512" data-paper-data="{&quot;fixed&quot;:true}" id="path34239-1-4-8-2-6 1" stroke="#1d810f" stroke-width="7.28722"/><path d="M266.89052,106.6815c9.22204,26.1876 -6.86289,31.7454 -7.47265,31.6512" data-paper-data="{&quot;fixed&quot;:true}" id="path34241-5-1-9-8-8 1" stroke="#1d810f" stroke-width="7.28722"/><path d="M265.8187,100.38894c0.86381,21.1479 -2.11008,29.7672 -6.06596,35.7018" data-paper-data="{&quot;fixed&quot;:true}" id="path34237-9-8-7-9-0 1" stroke="#5ae733" stroke-width="2.57195"/><path d="M271.31163,103.63884c2.98096,10.4562 10.92842,23.2203 19.28769,26.1405" data-paper-data="{&quot;fixed&quot;:true}" id="path34239-5-4-9-6-3-2 1" stroke="#1d810f" stroke-width="7.28722"/><path d="M271.31163,103.63884c25.94296,9.891 19.76552,25.7637 19.28769,26.1405" data-paper-data="{&quot;fixed&quot;:true}" id="path34241-6-8-7-4-6-1 1" stroke="#1d810f" stroke-width="7.28722"/><path d="M265.8187,100.38894c16.67712,12.9996 21.33305,20.8653 23.29731,27.6948" data-paper-data="{&quot;fixed&quot;:true}" id="path34237-1-1-5-3-80-0 1" stroke="#5ae733" stroke-width="2.57195"/><path d="M300.25183,141.73332c-1.71491,-10.7388 0.05528,-25.6224 6.36952,-31.8867" data-paper-data="{&quot;fixed&quot;:true}" id="path34239-1-4-8-5-5 1" stroke="#1d810f" stroke-width="7.28722"/><path d="M300.25183,141.73332c19.28933,-19.9704 6.96976,-31.6983 6.36952,-31.8867" data-paper-data="{&quot;fixed&quot;:true}" id="path34241-5-1-9-9-1 1" stroke="#1d810f" stroke-width="7.28722"/><path d="M296.65754,147.00852c9.58461,-18.84 10.47193,-27.9303 9.34031,-34.9953" data-paper-data="{&quot;fixed&quot;:true}" id="path34237-9-8-7-4-1 1" stroke="#5ae733" stroke-width="2.57195"/><path d="M303.00591,146.3397c7.05977,-8.2896 19.59369,-16.5321 28.42386,-15.7314" data-paper-data="{&quot;fixed&quot;:true}" id="path34239-5-4-9-6-6-0 1" stroke="#1d810f" stroke-width="7.28722"/><path d="M303.00591,146.3397c27.71232,1.884 28.69393,-15.2133 28.42386,-15.7314" data-paper-data="{&quot;fixed&quot;:true}" id="path34241-6-8-7-4-9-8 1" stroke="#1d810f" stroke-width="7.28722"/><path d="M296.65754,147.00852c20.57964,-4.8984 28.08093,-10.0794 32.71919,-15.4959" data-paper-data="{&quot;fixed&quot;:true}" id="path34237-1-1-5-3-2-5 1" stroke="#5ae733" stroke-width="2.57195"/><path d="M219.2518,128.31924c-8.78731,6.4056 -22.8988,11.5395 -31.30454,8.7135" data-paper-data="{&quot;fixed&quot;:true}" id="path34239-1-4-8-0-0 1" stroke="#1d810f" stroke-width="7.28722"/><path d="M219.2518,128.31924c-26.53817,-8.1954 -31.43741,8.1012 -31.30454,8.7135" data-paper-data="{&quot;fixed&quot;:true}" id="path34241-5-1-9-3-6 1" stroke="#1d810f" stroke-width="7.28722"/><path d="M225.58258,129.13878c-21.14974,-0.02826 -29.65416,3.297 -35.41977,7.4889" data-paper-data="{&quot;fixed&quot;:true}" id="path34237-9-8-7-0-4 1" stroke="#5ae733" stroke-width="2.57195"/><path d="M222.11519,124.6737c-10.56199,-2.826 -23.61034,-9.9852 -26.89353,-18.2277" data-paper-data="{&quot;fixed&quot;:true}" id="path34239-5-4-9-6-9-6 1" stroke="#1d810f" stroke-width="7.28722"/><path d="M222.11519,123.7788c-10.9264,-25.5282 -26.52055,-18.7458 -26.89353,-18.2277" data-paper-data="{&quot;fixed&quot;:true}" id="path34241-6-8-7-4-2-2 1" stroke="#1d810f" stroke-width="7.28722"/><path d="M224.24261,127.35369c-13.65702,-16.1553 -21.68559,-20.4885 -28.60821,-22.1841" data-paper-data="{&quot;fixed&quot;:true}" id="path34237-1-1-5-3-5-5 1" stroke="#5ae733" stroke-width="2.57195"/><path d="M161.74026,290.57403c83.43089,31.1331 153.82946,17.6625 159.62231,15.4488" data-paper-data="{&quot;fixed&quot;:true}" id="path37562-8 1" stroke="#d74619" stroke-width="17.04102"/></g></svg>