<svg version="1.1" xmlns="http://www.w3.org/2000/svg" xmlns:xlink="http://www.w3.org/1999/xlink" width="872" height="872"><g fill="none" fill-rule="nonzero" stroke="#000000" stroke-width="12.90438" stroke-linecap="round" stroke-linejoin="round" stroke-miterlimit="4" stroke-dasharray="" stroke-dashoffset="0" font-family="none" font-weight="none" font-size="none" text-anchor="none" style="mix-blend-mode: normal"><path d="M100.46787,482.02077c0.84016,8.40346 58.82713,33.61551 345.39914,32.77508c286.572,-0.84016 308.42204,-15.12702 336.15477,-20.16936" data-paper-data="{&quot;fixed&quot;:true}" id="path933-8-2 1"/><path d="M429.05924,512.27462c6.72312,-21.85005 7.56373,-24.37118 7.56373,-24.37118" data-paper-data="{&quot;fixed&quot;:true}" id="path935-7-9 1"/><path d="M428.12285,513.82919c2.19482,-12.09011 4.72014,-20.10065 7.58553,-22.79521c2.86626,-2.69448 351.76631,-3.53509 353.09209,-30.25012" data-paper-data="{&quot;fixed&quot;:true}" id="path176-2-1 1"/><path d="M123.76644,557.87527c26.21101,67.54032 84.13204,128.93063 128.33359,128.38741c44.20142,-0.54334 348.98419,-2.64303 380.88556,-1.13447c31.90151,1.50856 121.60054,-42.57261 122.95675,-112.26184" data-paper-data="{&quot;fixed&quot;:true}" id="path325-0-9 1"/><path d="M196.16355,627.35066c11.31551,15.36377 36.17553,30.70661 61.99528,29.40715c25.81957,-1.29928 45.35185,-13.001 49.04215,-23.39515" data-paper-data="{&quot;fixed&quot;:true}" id="path545-3-4 1"/><path d="M251.99375,655.27997c0.41505,-49.50579 4.1699,-97.71384 1.00367,-102.393c-3.16623,-4.67915 -6.44495,-0.91473 -9.57046,-11.21601c-3.12612,-10.30111 3.09386,-21.87281 9.28104,-18.96748c6.18684,2.9055 14.82609,7.66314 8.14361,19.63866c-6.68214,11.97596 -7.08326,6.1415 -6.54523,8.83336" data-paper-data="{&quot;fixed&quot;:true}" id="path547-7-7 1"/><path d="M230.14811,548.25861c15.76035,0.23268 25.93459,1.56437 38.4886,2.2297" data-paper-data="{&quot;fixed&quot;:true}" id="path549-5-8 1"/><path d="M98.78715,482.86118c11.76537,50.42323 10.08468,64.70981 19.32893,72.27319c9.24425,7.56373 168.07744,25.21161 328.59137,23.53092c160.51392,-1.68122 309.26234,-9.24425 317.66629,-17.64806c8.40346,-8.40434 16.80763,-57.14643 25.21161,-99.16578" data-paper-data="{&quot;fixed&quot;:true}" id="path939-9-3 1"/></g></svg>