<svg version="1.1" xmlns="http://www.w3.org/2000/svg" xmlns:xlink="http://www.w3.org/1999/xlink" width="471" height="471"><g fill="none" fill-rule="nonzero" stroke="none" stroke-width="none" stroke-linecap="round" stroke-linejoin="round" stroke-miterlimit="none" stroke-dasharray="" stroke-dashoffset="0" font-family="none" font-weight="none" font-size="none" text-anchor="none" style="mix-blend-mode: normal"><path d="M191.34798,220.99791c19.06985,35.796 21.9665,33.0642 22.51286,42.7197c0.56567,9.6555 40.4151,6.0759 46.5706,4.71c6.15592,-1.413 4.4274,-5.8404 4.239,-9.7026c-0.20064,-3.768 18.20792,-27.7419 20.39336,-33.2997" data-paper-data="{&quot;fixed&quot;:true}" id="path53808-0 1" stroke="#5d5955" stroke-width="11.91597" stroke-miterlimit="4"/><path d="M317.20628,71.77098c-14.03062,-14.6481 -138.56584,-4.239 -148.91469,2.826c-13.09333,8.6193 -85.78305,110.04444 -73.03454,130.23621c12.7495,20.2059 269.95585,18.4632 279.87988,4.8042c10.03371,-13.6119 -44.22379,-134.8473 -49.35831,-135.76104" data-paper-data="{&quot;fixed&quot;:true}" id="path52838-6 1" stroke="#eacd46" stroke-width="9.89072" stroke-miterlimit="4"/><path d="M279.04129,84.18654c36.51522,2.355 43.03339,-6.7353 44.18734,8.2425c0.98957,12.9996 -38.52168,0.04239 -36.91086,12.9996c1.6956,13.7532 38.48871,-9.7968 41.36134,3.768c2.7318,12.9525 -38.19669,6.5469 -34.74897,19.3581c3.7209,13.8474 38.78073,-14.4597 43.01926,-0.942c4.81838,15.5901 -46.15612,11.4924 -40.85266,26.8941c4.4745,13.0467 36.78369,-16.3908 41.25348,-3.297c3.5325,10.3149 -31.07988,7.6773 -27.40655,17.9451c4.239,11.9163 33.35481,-15.8727 37.79163,-4.239c7.70509,20.6298 -71.69035,24.4449 -54.16562,37.7742c8.37188,8.007 53.37667,-7.6302 59.90405,-10.4562" data-paper-data="{&quot;fixed&quot;:true}" id="path54109-2 1" stroke="#fcf3c6" stroke-width="9.89072" stroke-miterlimit="4"/><path d="M242.55,272.83333c-0.10966,13.15924 2.13751,25.00016 2.95,38c1.23928,19.82847 0.20522,39.43655 3,59c2.20227,15.41586 -1.91114,32.22214 4,47" data-paper-data="{&quot;fixed&quot;:true}" stroke="#595451" stroke-width="14" stroke-miterlimit="10"/><path d="M212.55,420.83333c9.86916,0 20.06214,-3.79779 29.95,-2c8.36703,1.52128 15.25514,4 24,4c6.33333,0 12.66667,0 19,0c1.66667,0 3.33333,0 5,0c1.66667,0 6.66667,0 5,0c-0.84036,0 -14.15964,2 -15,2c-2.4267,0 -4.60631,-1.60105 -7,-2c-7.26935,-1.21156 -14.87698,1 -22,1c-8.57791,0 -18.33247,-2.73351 -27,-1c-3.72678,0.74536 -7.19942,3 -11,3c-1.69967,0 3.33333,-0.66667 5,-1c5.286,-1.0572 10.79924,-1.58161 16,-3c14.08951,-3.84259 27.56155,-5.7968 42,-7c1.52417,-0.12701 17,-1 17,-1c0,0 -16.82276,0.98637 -17,1c-18.38061,1.41389 -37.73732,-2.90507 -55,4" data-paper-data="{&quot;fixed&quot;:true}" stroke="#595451" stroke-width="14" stroke-miterlimit="10"/></g></svg>