<svg version="1.1" xmlns="http://www.w3.org/2000/svg" xmlns:xlink="http://www.w3.org/1999/xlink" width="471" height="471"><g fill="none" fill-rule="nonzero" stroke="none" stroke-width="none" stroke-linecap="round" stroke-linejoin="round" stroke-miterlimit="none" stroke-dasharray="" stroke-dashoffset="0" font-family="none" font-weight="none" font-size="none" text-anchor="none" style="mix-blend-mode: normal"><path d="M61.86864,178.62076c170.63771,32.93006 364.22668,3.99173 364.22668,-4.98935c0,-8.98089 -46.90044,-49.89409 -97.79236,-30.93429" data-paper-data="{&quot;fixed&quot;:true}" id="path6470 1" stroke="#000000" stroke-width="12.46186" stroke-miterlimit="4"/><path d="M155.66949,199.57626c-6.98517,94.79873 -21.9534,190.59534 2.99368,198.57839c24.94703,7.98307 129.72458,-17.96187 148.68432,-64.86229c18.95973,-46.90044 19.95764,-66.85804 19.95764,-66.85804" data-paper-data="{&quot;fixed&quot;:true}" id="path6472 1" stroke="#000000" stroke-width="12.46186" stroke-miterlimit="4"/><path d="M325.30932,204.56568c37.9195,-6.98517 49.89407,-14.96824 47.8983,4.9894c-1.99563,19.95764 -8.98093,27.94066 -21.9534,51.88983c-12.97247,23.94917 7.98303,35.92374 -12.97247,23.94917" data-paper-data="{&quot;fixed&quot;:true}" id="path6474 1" stroke="#000000" stroke-width="12.46186" stroke-miterlimit="4"/><path d="M196.58262,236.49788c-7.98307,25.94489 -27.94066,65.86016 -25.94489,68.8538c1.99563,2.99368 25.94489,4.98935 32.93011,0" data-paper-data="{&quot;fixed&quot;:true}" id="path6476 1" stroke="#000000" stroke-width="12.46186" stroke-miterlimit="4"/><path d="M164.65042,228.51483c16.96401,0.99805 0.99805,4.98935 21.9534,2.99368" data-paper-data="{&quot;fixed&quot;:true}" id="path6478 1" stroke="#000000" stroke-width="12.46186" stroke-miterlimit="4"/><path d="M230.39819,239.70643c16.96401,0.99805 0.99805,4.98935 21.9534,2.99368" data-paper-data="{&quot;fixed&quot;:true}" id="path6478-5 1" stroke="#000000" stroke-width="12.46186" stroke-miterlimit="4"/><path d="M179.61865,337.2839c42.50982,5.38843 47.89403,-0.45822 49.86977,-2.43413" data-paper-data="{&quot;fixed&quot;:true}" id="path6495 1" stroke="#000000" stroke-width="12.46186" stroke-miterlimit="4"/><path d="M56.55,176.46666c6.72669,-5.80721 13.28519,-12.40111 20.95,-17c6.94955,-4.16973 11.78194,-3.77906 19,-6c4.56156,-1.40356 8.65518,-4.02508 13,-6c6.36158,-2.89163 13.49352,-2.83117 20,-5c9.17847,-3.05949 17.61853,-6.44142 27,-9c11.22755,-3.06206 23.42983,-10 35,-10" data-paper-data="{&quot;fixed&quot;:true}" stroke="#363636" stroke-width="14" stroke-miterlimit="10"/><path d="M188.55,127.46666c-0.10767,-15.07416 -4.02412,-18.80708 -9.05,-32c-1.58319,-4.15587 -1.6608,-8.75921 -3,-13c-0.67335,-2.13228 -3.88083,-3.94473 -3,-6c0.79871,-1.86365 4.03295,-0.50824 6,-1c7.5494,-1.88735 15.26101,-3.18537 23,-4c26.22434,-2.76046 51.88939,0.08794 78,-1c11.61811,-0.48409 22.57523,-3.4767 34,-5c9.79086,-1.30545 20.43337,-0.60834 30,-3c1.37052,-0.34263 15.98103,-6.07587 17,-2c1.19367,4.77466 -5.34468,8.36512 -7,13c-4.11984,11.53556 -10.93135,20.84897 -16,32c-3.21912,7.08206 -4.52748,15.58244 -7,23" data-paper-data="{&quot;fixed&quot;:true}" stroke="#363636" stroke-width="14" stroke-miterlimit="10"/><path d="M147.55,199.46666c-4.92674,-0.44586 -33.18998,-3.63202 -37.05,1c-3.91333,4.696 6.43669,13.39449 8,16c10.41356,17.35593 15.11793,38.64781 22,57" data-paper-data="{&quot;fixed&quot;:true}" stroke="#363636" stroke-width="14" stroke-miterlimit="10"/></g></svg>