<svg version="1.1" xmlns="http://www.w3.org/2000/svg" xmlns:xlink="http://www.w3.org/1999/xlink" width="393" height="393"><g fill="none" fill-rule="nonzero" stroke="none" stroke-width="none" stroke-linecap="round" stroke-linejoin="round" stroke-miterlimit="none" stroke-dasharray="" stroke-dashoffset="0" font-family="none" font-weight="none" font-size="none" text-anchor="none" style="mix-blend-mode: normal"><path d="M45.27967,217.24101c0.37865,3.78734 26.51268,15.15011 155.66727,14.77134c129.15458,-0.37865 139.00213,-6.81757 151.50095,-9.09009" data-paper-data="{&quot;fixed&quot;:true}" id="path933-8-2 1" stroke="#000000" stroke-width="5.81585" stroke-miterlimit="4"/><path d="M193.37188,230.87606c3.03003,-9.84756 3.40888,-10.9838 3.40888,-10.9838" data-paper-data="{&quot;fixed&quot;:true}" id="path935-7-9 1" stroke="#000000" stroke-width="5.81585" stroke-miterlimit="4"/><path d="M192.94986,231.57669c0.98918,-5.44887 2.12731,-9.05912 3.41871,-10.27353c1.29179,-1.21437 158.53688,-1.59322 159.13439,-13.63337" data-paper-data="{&quot;fixed&quot;:true}" id="path176-2-1 1" stroke="#000000" stroke-width="5.81585" stroke-miterlimit="4"/><path d="M55.78006,251.42773c11.81299,30.43962 37.91731,58.1075 57.83842,57.86268c19.92105,-0.24488 157.28301,-1.19118 171.66058,-0.51129c14.37763,0.67989 54.80391,-19.18697 55.41514,-50.59507" data-paper-data="{&quot;fixed&quot;:true}" id="path325-0-9 1" stroke="#000000" stroke-width="5.81585" stroke-miterlimit="4"/><path d="M88.40857,282.73946c5.09976,6.92427 16.30388,13.8391 27.94053,13.25345c11.63657,-0.58557 20.43954,-5.85939 22.10271,-10.54391" data-paper-data="{&quot;fixed&quot;:true}" id="path545-3-4 1" stroke="#000000" stroke-width="5.81585" stroke-miterlimit="4"/><path d="M113.57058,295.32687c0.18706,-22.31167 1.87933,-44.03846 0.45234,-46.14731c-1.42698,-2.10884 -2.90466,-0.41226 -4.31329,-5.05492c-1.40891,-4.64259 1.39436,-9.85782 4.18286,-8.54842c2.78834,1.30948 6.68194,3.45368 3.67023,8.85091c-3.01156,5.39742 -3.19234,2.7679 -2.94986,3.98109" data-paper-data="{&quot;fixed&quot;:true}" id="path547-7-7 1" stroke="#000000" stroke-width="5.81585" stroke-miterlimit="4"/><path d="M103.72501,247.09362c7.103,0.10487 11.68841,0.70504 17.34635,1.0049" data-paper-data="{&quot;fixed&quot;:true}" id="path549-5-8 1" stroke="#000000" stroke-width="5.81585" stroke-miterlimit="4"/><path d="M44.52219,217.61978c5.30251,22.72515 4.54505,29.16394 8.71132,32.57267c4.16627,3.40888 75.7505,11.36257 148.09221,10.60511c72.34171,-0.7577 139.38085,-4.16627 143.16841,-7.95377c3.78734,-3.78773 7.575,-25.75522 11.36257,-44.69283" data-paper-data="{&quot;fixed&quot;:true}" id="path939-9-3 1" stroke="#000000" stroke-width="5.81585" stroke-miterlimit="4"/><path d="M170.91365,221.30682c-1.49685,-19.73816 -3.91268,-39.62088 -5.14091,-59.27274" data-paper-data="{&quot;fixed&quot;:true}" stroke="#181818" stroke-width="5" stroke-miterlimit="10"/><path d="M170.55,221.30682c1.24596,3.82551 2.62767,7.61976 4.31365,11.27277" data-paper-data="{&quot;fixed&quot;:true}" stroke="#181818" stroke-width="5" stroke-miterlimit="10"/><path d="M90.91364,172.21591c31.51335,-18.596 77.86371,-20.76181 111.58636,-7.27274c18.47268,7.38908 27.33936,18.35667 48.36366,24.36365" data-paper-data="{&quot;fixed&quot;:true}" stroke="#181818" stroke-width="5" stroke-miterlimit="10"/><path d="M89.4591,159.12503c1.86864,-15.04962 2.23461,-35.95243 -1.50455,-50.90912c-2.40938,-9.63754 -8.04375,-16.65614 -8.72727,-26.90909c-0.59275,-8.89128 -0.29579,-17.67153 0,-26.54547c0.06057,-1.81717 -1.39676,-4.29056 0,-5.45453c1.95737,-1.63114 24.78303,3.572 27.63637,4c27.06613,4.05993 55.97247,0.72726 83.27273,0.72726c16.85939,0 34.12128,1.68656 50.90909,0.72726c5.53927,-0.31653 26.02546,-9.20209 26.54547,-2.18182c0.17629,2.3799 -6.2572,19.54772 -6.90909,23.27274c-3.69099,21.0912 -8.11865,42.42887 -10.9091,63.63638c-1.56875,11.92255 -3.37122,26.92169 1.45454,38.18179" data-paper-data="{&quot;fixed&quot;:true}" stroke="#181818" stroke-width="5" stroke-miterlimit="10"/><path d="M157.09546,50.76135c-1.36878,-7.41642 -1.86201,-14.8844 -3.68637,-22.18179" data-paper-data="{&quot;fixed&quot;:true}" stroke="#181818" stroke-width="5" stroke-miterlimit="10"/><path d="M252.36819,188.94318c5.42355,5.0292 4.08469,9.86006 8.67726,15.27274c5.93477,6.99455 14.09356,12.43257 20.36368,19.27277" data-paper-data="{&quot;fixed&quot;:true}" stroke="#181818" stroke-width="5" stroke-miterlimit="10"/><path d="M93.09546,170.39774c-9.88615,13.84665 -16.18666,30.36401 -24.77726,45.09094" data-paper-data="{&quot;fixed&quot;:true}" stroke="#181818" stroke-width="5" stroke-miterlimit="10"/><path d="M159.64091,29.67044c-1.86676,-5.45041 -2.56814,-10.80667 -4.05,-16.36363" data-paper-data="{&quot;fixed&quot;:true}" stroke="#181818" stroke-width="5" stroke-miterlimit="10"/><path d="M148.36819,10.03409c9.29743,3.27665 15.93617,11.66605 26.49546,9.81818c3.02881,-0.53004 27.27272,-15.50997 27.27272,-3.63637c0,3.55873 -6.80283,5.58458 -8.72728,6.18182c-9.69555,3.00897 -18.10952,5.96386 -27.27272,10.54546" data-paper-data="{&quot;fixed&quot;:true}" stroke="#181818" stroke-width="5" stroke-miterlimit="10"/><path d="M149.45909,40.57956c1.01456,-8.1709 -0.2763,-14.2226 -1.86818,-22.18184" data-paper-data="{&quot;fixed&quot;:true}" stroke="#181818" stroke-width="5" stroke-miterlimit="10"/></g></svg>