<svg version="1.1" xmlns="http://www.w3.org/2000/svg" xmlns:xlink="http://www.w3.org/1999/xlink" width="471" height="471"><g fill="none" fill-rule="nonzero" stroke="none" stroke-width="none" stroke-linecap="round" stroke-linejoin="round" stroke-miterlimit="none" stroke-dasharray="" stroke-dashoffset="0" font-family="none" font-weight="none" font-size="none" text-anchor="none" style="mix-blend-mode: normal"><path d="M54.26648,260.35755c0.4538,4.53903 31.77474,18.157 186.56307,17.70305c154.78832,-0.4538 166.59035,-8.17067 181.56984,-10.89423" data-paper-data="{&quot;fixed&quot;:true}" id="path933-8-2 1" stroke="#000000" stroke-width="6.97014" stroke-miterlimit="4"/><path d="M231.75103,276.69879c3.63141,-11.80204 4.08545,-13.16379 4.08545,-13.16379" data-paper-data="{&quot;fixed&quot;:true}" id="path935-7-9 1" stroke="#000000" stroke-width="6.97014" stroke-miterlimit="4"/><path d="M231.24525,277.53847c1.18551,-6.53032 2.54952,-10.85712 4.09723,-12.31255c1.54818,-1.45539 190.00221,-1.90943 190.71832,-16.33923" data-paper-data="{&quot;fixed&quot;:true}" id="path176-2-1 1" stroke="#000000" stroke-width="6.97014" stroke-miterlimit="4"/><path d="M66.85091,301.32942c14.15755,36.48107 45.44288,69.64028 69.3178,69.34687c23.87485,-0.29348 188.49949,-1.4276 205.73062,-0.61277c17.23121,0.81483 65.68103,-22.99507 66.41357,-60.63684" data-paper-data="{&quot;fixed&quot;:true}" id="path325-0-9 1" stroke="#000000" stroke-width="6.97014" stroke-miterlimit="4"/><path d="M105.95531,338.85569c6.11193,8.29855 19.53976,16.58579 33.48598,15.88391c13.94612,-0.70179 24.49624,-7.02233 26.48951,-12.6366" data-paper-data="{&quot;fixed&quot;:true}" id="path545-3-4 1" stroke="#000000" stroke-width="6.97014" stroke-miterlimit="4"/><path d="M136.1113,353.94136c0.22418,-26.73994 2.25232,-52.77892 0.54212,-55.30631c-1.7102,-2.52739 -3.48116,-0.49408 -5.16937,-6.05819c-1.68854,-5.56402 1.67111,-11.81433 5.01304,-10.24505c3.34175,1.56937 8.00813,4.13915 4.39867,10.60758c-3.60927,6.46867 -3.82593,3.31725 -3.53533,4.77123" data-paper-data="{&quot;fixed&quot;:true}" id="path547-7-7 1" stroke="#000000" stroke-width="6.97014" stroke-miterlimit="4"/><path d="M124.31165,296.1351c8.51276,0.12568 14.00825,0.84497 20.78914,1.20435" data-paper-data="{&quot;fixed&quot;:true}" id="path549-5-8 1" stroke="#000000" stroke-width="6.97014" stroke-miterlimit="4"/><path d="M53.35866,260.81149c6.35492,27.23548 5.44712,34.9522 10.44028,39.03747c4.99317,4.08545 90.78495,13.61774 177.48456,12.70994c86.69961,-0.90809 167.04422,-4.99317 171.58351,-9.53238c4.53903,-4.5395 9.07843,-30.86694 13.61774,-53.56317" data-paper-data="{&quot;fixed&quot;:true}" id="path939-9-3 1" stroke="#000000" stroke-width="6.97014" stroke-miterlimit="4"/><path d="M330.55,257.46666c-0.08648,-10.37735 1.32574,-21.68197 -0.05,-32c-1.41613,-10.62095 -4.96569,-21.3121 -6,-32c-2.92284,-30.2027 -0.50654,-63.1944 3,-93c1.40741,-11.96297 0,-24.94099 0,-37c0,-4 3.69231,-10.46154 0,-12c-0.58913,-0.24547 -20.39981,3.5555 -22,4c-8.42997,2.34166 -11.9258,7.75548 -19,12c-11.74639,7.04783 -26.35805,11.48644 -37,20c-7.85979,6.28783 -13.52681,13.60207 -20,21c-1.87203,2.13946 -6.8658,4.50606 -9,6c-1.74855,1.22398 -6.83021,2.90187 -5,4c15.56504,9.33902 55.87186,8.7625 76,13c12.55703,2.64359 21.3475,13.4695 34,16" data-paper-data="{&quot;fixed&quot;:true}" stroke="#190000" stroke-width="14" stroke-miterlimit="10"/></g></svg>