<svg version="1.1" xmlns="http://www.w3.org/2000/svg" xmlns:xlink="http://www.w3.org/1999/xlink" width="471" height="471"><g fill="none" fill-rule="nonzero" stroke="none" stroke-width="none" stroke-linecap="round" stroke-linejoin="round" stroke-miterlimit="none" stroke-dasharray="" stroke-dashoffset="0" font-family="none" font-weight="none" font-size="none" text-anchor="none" style="mix-blend-mode: normal"><path d="M184.75511,158.58824c-18.84104,21.24502 -34.86064,43.846 -34.86064,43.846c0,0 15.94523,-17.32258 21.83532,-11.66954c5.89009,5.65322 -22.65482,28.47171 -18.27461,32.67614c4.3803,4.20462 32.20288,54.57022 34.78142,63.01188" data-paper-data="{&quot;fixed&quot;:true}" id="path51862-6 1" stroke-opacity="0.93333" stroke="#000000" stroke-width="4.71" stroke-miterlimit="4"/><path d="M274.47554,146.68456c49.58153,44.45133 44.38304,37.83576 44.34903,40.32518c-0.03651,2.48971 -18.6728,-5.50575 -16.17551,-2.55989c2.49771,2.94563 26.31265,25.22733 24.4376,28.23419c-1.87505,3.00686 -105.60539,93.37984 -115.86092,96.14861c-10.25551,2.76854 -31.69152,8.32737 -37.16642,7.13301c-5.47528,-1.19446 93.48935,-138.47547 94.75781,-144.13412c1.2684,-5.65831 4.7822,-29.50033 4.7822,-29.50033" data-paper-data="{&quot;fixed&quot;:true}" id="path51864-1 1" stroke-opacity="0.93333" stroke="#000000" stroke-width="4.71" stroke-miterlimit="4"/><path d="M214.60122,244.9036c-13.87455,-43.21267 -23.9025,-82.9895 -28.66366,-85.85118" data-paper-data="{&quot;fixed&quot;:true}" id="path51866-0 1" stroke-opacity="0.93333" stroke="#000000" stroke-width="4.71" stroke-miterlimit="4"/><path d="M158.64937,187.43805c-43.53731,22.97844 -59.37323,31.73292 -59.86097,37.82347c-0.48749,6.09055 29.16164,80.7697 37.32232,88.72748c8.1605,7.95783 159.43089,8.45417 171.71631,-0.14533c12.28552,-8.59919 68.20788,-87.66077 64.83279,-95.00333c-3.37801,-7.34251 -46.27584,-26.0252 -55.68482,-31.3174" data-paper-data="{&quot;fixed&quot;:true}" id="path51868-6 1" stroke-opacity="0.93333" stroke="#000000" stroke-width="4.71" stroke-miterlimit="4"/><path d="M179.22133,319.94235c10.43171,11.09671 20.60065,20.40923 16.54835,25.87627c-4.05295,5.46727 -33.60345,25.12484 -33.60345,32.57003c0,7.44467 5.13018,30.31262 28.64971,37.02286c23.51967,6.71241 60.3514,13.89629 91.49224,-2.69506c27.6892,-14.75059 25.85055,-32.14401 18.79643,-44.46028c-5.34161,-9.32538 -26.05986,-19.1795 -27.62222,-21.99184c-1.56278,-2.81187 -3.47315,-16.18045 8.28687,-27.16544" data-paper-data="{&quot;fixed&quot;:true}" id="path51870-3 1" stroke-opacity="0.93333" stroke="#000000" stroke-width="4.71" stroke-miterlimit="4"/><path d="M187.55,157.46666c2.02771,-6.8736 4.95,-12.92319 4.95,-20" data-paper-data="{&quot;fixed&quot;:true}" stroke="#190000" stroke-width="5" stroke-miterlimit="10"/><path d="M272.55,142.46666c-1.66858,-7.32547 -2.25644,-12.6774 -6.05,-19" data-paper-data="{&quot;fixed&quot;:true}" stroke="#190000" stroke-width="5" stroke-miterlimit="10"/><path d="M192.55,140.46666c-0.03351,-3.35149 -0.39269,-6.71343 -1.05,-10" data-paper-data="{&quot;fixed&quot;:true}" stroke="#190000" stroke-width="5" stroke-miterlimit="10"/><path d="M190.55,133.46666c-36.83412,-14.58777 -31.78963,-72.26037 -8.05,-96c7.35862,-7.35862 18.99595,-5.7258 28,-9c8.77568,-3.19116 16.50759,-9.75379 25,-14c8.39231,-4.19616 16.15943,-3.19631 25,-4c4.73312,-0.43028 5.16459,-1.87917 10,-1c9.57655,1.74119 13.48615,8.49169 21,13c4.9724,2.98344 11.53167,4.93789 16,9c9.32219,8.47472 13.65809,38.35477 9,50c-7.34189,18.35474 -30.0707,22.7845 -41,41" data-paper-data="{&quot;fixed&quot;:true}" stroke="#190000" stroke-width="5" stroke-miterlimit="10"/><path d="M272.5,125.46666c0.01667,0 0.03333,0 0.05,0" data-paper-data="{&quot;fixed&quot;:true}" stroke="#190000" stroke-width="5" stroke-miterlimit="10"/><path d="M217.55,50.46666c-0.60376,1.47259 -5.05392,8.24951 0.95,9c2.82125,0.35266 13.54895,-12.91171 3,-5" data-paper-data="{&quot;fixed&quot;:true}" stroke="#190000" stroke-width="5" stroke-miterlimit="10"/><path d="M251.55,48.46666c2.98826,3.7826 12.58093,8.84124 5.95,0" data-paper-data="{&quot;fixed&quot;:true}" stroke="#190000" stroke-width="5" stroke-miterlimit="10"/><path d="M197.55,93.46666c16.66219,0 31.62874,-0.0325 47.95,-3c7.99672,-1.45395 18.68048,1 27,1" data-paper-data="{&quot;fixed&quot;:true}" stroke="#190000" stroke-width="5" stroke-miterlimit="10"/></g></svg>