<svg version="1.1" xmlns="http://www.w3.org/2000/svg" xmlns:xlink="http://www.w3.org/1999/xlink" width="471" height="471"><g fill="none" fill-rule="nonzero" stroke="none" stroke-width="none" stroke-linecap="round" stroke-linejoin="round" stroke-miterlimit="none" stroke-dasharray="" stroke-dashoffset="0" font-family="none" font-weight="none" font-size="none" text-anchor="none" style="mix-blend-mode: normal"><path d="M237.9677,-5.30654c-11.73628,102.37041 -45.47326,196.89923 -52.67821,238.52541c-7.21346,41.67625 -5.85726,109.93626 -11.23594,123.65611c-5.47787,13.97297 -41.46651,43.44688 -78.82257,45.72426" data-paper-data="{&quot;fixed&quot;:true}" id="path631 1" stroke="#c4784d" stroke-width="29.57296" stroke-miterlimit="4"/><path d="M262.09342,3.86229c-13.78843,77.56078 -46.3104,206.2504 -51.95171,257.56349c-5.6414,51.31309 -6.54271,107.01032 -18.67115,115.11555c-12.12849,8.10525 -17.32022,15.83276 -49.45273,19.82929" data-paper-data="{&quot;fixed&quot;:true}" id="path15535 1" stroke="#c4784d" stroke-width="29.57296" stroke-miterlimit="4"/><path d="M282.12396,-3.43129c-13.78843,77.56077 -31.13418,169.72569 -36.77549,221.03877c-5.6414,51.31309 -41.74949,150.82861 -53.87793,158.93384c-12.12849,8.1052 -17.32022,15.83276 -49.45273,19.82929" data-paper-data="{&quot;fixed&quot;:true}" id="path15535-7 1" stroke="#c4784d" stroke-width="29.57296" stroke-miterlimit="4"/><path d="M93.01637,401.5715c37.35755,5.0283 96.88193,2.62111 102.0911,-4.70482c5.20907,-7.32626 45.6317,-146.57358 60.02188,-159.24216c19.92631,-17.54254 55.57622,-15.28513 59.5186,-34.74228c7.61838,-37.59984 -25.96227,-62.51998 -25.19991,-95.38797c0.76161,-32.86789 12.60905,-110.28636 12.60905,-110.28636" data-paper-data="{&quot;fixed&quot;:true}" id="path4202 1" stroke="#c4784d" stroke-width="29.57296" stroke-miterlimit="4"/><path d="M93.01648,401.57143c37.35755,5.0283 96.88192,2.62112 102.0911,-4.70482c5.20907,-7.32626 41.69108,-110.51363 56.08124,-123.18221c19.92631,-17.54253 84.00442,-40.07118 87.9468,-59.52832c7.61838,-37.59984 -50.44983,-73.7939 -49.6875,-106.66188c0.76161,-32.86789 30.21945,-108.71677 30.21945,-108.71677" data-paper-data="{&quot;fixed&quot;:true}" id="path18681 1" stroke="#c4784d" stroke-width="29.57296" stroke-miterlimit="4"/><path d="M273.95443,143.37641c19.85006,50.2058 -5.61738,57.06752 -5.61738,57.06752" data-paper-data="{&quot;fixed&quot;:true}" id="path18859 1" stroke="#c4784d" stroke-width="46.07364" stroke-miterlimit="4"/><path d="M295.38304,114.3111c-49.69694,19.0374 -98.38569,28.17272 -99.56365,37.71113c-1.17797,9.53841 39.57187,57.75899 35.11013,66.68888c-4.46178,8.92988 -50.67919,19.14163 -52.45567,28.89886c-1.77661,9.75724 50.83035,41.47786 65.43189,58.99012" data-paper-data="{&quot;fixed&quot;:true}" id="path567-6 1" stroke="#211108" stroke-width="22.23925" stroke-miterlimit="4"/><path d="M325.50485,159.66635c-79.09859,61.18049 -77.25124,52.77872 -78.10937,61.37502c-0.85816,8.59622 21.86523,28.82732 33.65808,41.50471" data-paper-data="{&quot;fixed&quot;:true}" id="path569-2 1" stroke="#211108" stroke-width="22.23925" stroke-miterlimit="4"/><path d="M294.97382,112.28409c36.21825,46.02866 60.15058,66.58832 55.43423,100.99738c-5.73442,41.8369 -86.87114,38.97963 -106.28667,92.3853" data-paper-data="{&quot;fixed&quot;:true}" id="path24733 1" stroke="#211108" stroke-width="22.23925" stroke-miterlimit="4"/><path d="M359.55,203.46666c-2.47087,6.02651 -2.44284,12.10709 -4.05,18c-2.25971,8.28559 -7.43219,16.37702 -9,25c-4.37381,24.05596 -4.27611,77.96283 -2,103c0.54287,5.97158 3.54929,9.68075 5,15c4.04858,14.8448 6,34.42711 6,50" data-paper-data="{&quot;fixed&quot;:true}" stroke="#190000" stroke-width="14" stroke-miterlimit="10"/><path d="M355.55,414.46666c-19.13901,0 -38.05483,-4.27317 -57.05,-6c-4.22647,-0.38422 -17.61885,2.41511 -21,0c-5.7461,-4.10436 2.04112,-29.24674 3,-35c1.94255,-11.65529 5.90669,-22.97363 7,-35c1.9393,-21.33225 0.79363,-42.96813 5,-64" data-paper-data="{&quot;fixed&quot;:true}" stroke="#190000" stroke-width="14" stroke-miterlimit="10"/><path d="M297.55,271.46666c-0.08278,8.27818 1.49131,16.97721 2.95,25c0.37712,2.07418 -0.10819,6 2,6c2.02759,0 0.83162,-3.97942 1,-6c0.60083,-7.20996 0,-14.7679 0,-22c0,-1.66667 -1.38675,-5.9245 0,-5c0.95243,0.63495 4.5873,11.48676 5,13c0.44721,1.63978 -0.52023,5.76012 1,5c1.63437,-0.81718 0.76441,-20.2331 1,-22c0.27863,-2.08969 0.19225,-7.08465 2,-6c2.71163,1.62698 2.37983,5.89913 3,9c0.39223,1.96116 -1.83829,5.21216 0,6c9.45105,4.05045 7,-8.97101 7,-11c0,-1.66667 -1.49071,-5.74536 0,-5c7.35338,3.67669 -3.10844,8.91325 2,13c5.78983,4.63186 6.84504,-14.29547 7,-16c0.15089,-1.65982 0,-6.66667 0,-5c0,19.88492 -5,39.16109 -5,59c0,7.51726 -1.38148,14.5778 -2,22c-0.16609,1.99309 0,4 0,6c0,1.66667 0,6.66667 0,5c0,-12.67309 1.24771,-25.52295 0,-38c-0.22563,-2.25627 1.04807,-10.19039 -3,-11c-1.7602,-0.35204 -1.2572,3.36584 -2,5c-1.79844,3.95658 -5.05635,7.1127 -7,11c-1.08525,2.17051 0.4267,7 -2,7c-0.81299,0 2.38514,-24.00138 -3,-10c-2.79352,7.26315 -2.27422,16.74218 -3,24c-0.16912,1.69124 0.20185,6.20185 -1,5c-2.34816,-2.34816 -1,-13.69404 -1,-17c0,-2.33333 -2.087,-8.0435 0,-7c4.64973,2.32487 4.21175,11.97681 4,16c-0.52105,9.90002 -2.18677,19.24119 -3,29c-0.44883,5.38591 -0.46356,10.63562 -1,16c-0.16584,1.6584 0.40423,6.6169 0,5c-1.55866,-6.23463 -5.61307,-17.54772 -4,-24c0.41223,-1.64893 -0.52023,5.76012 1,5c2.27058,-1.13529 2.3459,-4.54712 3,-7c1.20672,-4.52522 1,-8.49319 1,-13c0,-2.33333 -2.21359,-6.26214 0,-7c1.24486,-0.41495 7.21315,17.70263 9,20c2.27083,2.91964 19.18848,8.32113 21,5c1.32481,-2.42883 -0.51621,-15.61344 -1,-19c-0.28674,-2.00721 0.43372,-7.43372 -1,-6c-2.94188,2.94188 1.91698,14.0217 3,17c4.33333,11.91665 1.84003,23.12017 4,35c0.70331,3.86821 5.24402,10.85326 4,15c-2.14054,7.13513 -9.45001,6 -15,6c-8.45014,0 -38.85042,-0.39243 -43,-8c-5.17027,-9.47883 1.33937,-24.63284 5,-33c0.11988,-0.27401 4.36063,-9.59016 6,-10c8.80337,-2.20084 4.20221,15.01104 5,19c1.0128,5.064 12.26653,18.48017 11,20c-1.15091,1.38109 -16.28251,1.07623 -17,0c-4.33571,-6.50356 9.72464,-15.96619 12,-19c2.77849,-3.70465 3.02911,-9.61747 7,-12c1.42915,-0.85749 3.71963,-1.06697 5,0c2.61145,2.17621 1.10557,6.72043 2,10c2.2667,8.31122 9,14.57376 9,23" data-paper-data="{&quot;fixed&quot;:true}" stroke="#190000" stroke-width="21" stroke-miterlimit="10"/></g></svg>