<svg version="1.1" xmlns="http://www.w3.org/2000/svg" xmlns:xlink="http://www.w3.org/1999/xlink" width="471" height="471"><g fill="none" fill-rule="nonzero" stroke="none" stroke-width="none" stroke-linecap="round" stroke-linejoin="round" stroke-miterlimit="none" stroke-dasharray="" stroke-dashoffset="0" font-family="none" font-weight="none" font-size="none" text-anchor="none" style="mix-blend-mode: normal"><path d="M54.26648,260.35755c0.4538,4.53903 31.77474,18.157 186.56307,17.70305c154.78832,-0.4538 166.59035,-8.17067 181.56984,-10.89423" data-paper-data="{&quot;fixed&quot;:true}" id="path933-8-2 1" stroke="#000000" stroke-width="6.97014" stroke-miterlimit="4"/><path d="M231.75103,276.69879c3.63141,-11.80204 4.08545,-13.16379 4.08545,-13.16379" data-paper-data="{&quot;fixed&quot;:true}" id="path935-7-9 1" stroke="#000000" stroke-width="6.97014" stroke-miterlimit="4"/><path d="M231.24525,277.53847c1.18551,-6.53032 2.54952,-10.85712 4.09723,-12.31255c1.54818,-1.45539 190.00221,-1.90943 190.71832,-16.33923" data-paper-data="{&quot;fixed&quot;:true}" id="path176-2-1 1" stroke="#000000" stroke-width="6.97014" stroke-miterlimit="4"/><path d="M66.85091,301.32942c14.15755,36.48107 45.44288,69.64028 69.3178,69.34687c23.87485,-0.29348 188.49949,-1.4276 205.73062,-0.61277c17.23121,0.81483 65.68103,-22.99507 66.41357,-60.63684" data-paper-data="{&quot;fixed&quot;:true}" id="path325-0-9 1" stroke="#000000" stroke-width="6.97014" stroke-miterlimit="4"/><path d="M105.95531,338.85569c6.11193,8.29855 19.53976,16.58579 33.48598,15.88391c13.94612,-0.70179 24.49624,-7.02233 26.48951,-12.6366" data-paper-data="{&quot;fixed&quot;:true}" id="path545-3-4 1" stroke="#000000" stroke-width="6.97014" stroke-miterlimit="4"/><path d="M136.1113,353.94136c0.22418,-26.73994 2.25232,-52.77892 0.54212,-55.30631c-1.7102,-2.52739 -3.48116,-0.49408 -5.16937,-6.05819c-1.68854,-5.56402 1.67111,-11.81433 5.01304,-10.24505c3.34175,1.56937 8.00813,4.13915 4.39867,10.60758c-3.60927,6.46867 -3.82593,3.31725 -3.53533,4.77123" data-paper-data="{&quot;fixed&quot;:true}" id="path547-7-7 1" stroke="#000000" stroke-width="6.97014" stroke-miterlimit="4"/><path d="M124.31165,296.1351c8.51276,0.12568 14.00825,0.84497 20.78914,1.20435" data-paper-data="{&quot;fixed&quot;:true}" id="path549-5-8 1" stroke="#000000" stroke-width="6.97014" stroke-miterlimit="4"/><path d="M53.35866,260.81149c6.35492,27.23548 5.44712,34.9522 10.44028,39.03747c4.99317,4.08545 90.78495,13.61774 177.48456,12.70994c86.69961,-0.90809 167.04422,-4.99317 171.58351,-9.53238c4.53903,-4.5395 9.07843,-30.86694 13.61774,-53.56317" data-paper-data="{&quot;fixed&quot;:true}" id="path939-9-3 1" stroke="#000000" stroke-width="6.97014" stroke-miterlimit="4"/><path d="M228.55,276.46666c-4.4772,-46.90396 -14.35462,-93.63373 -11.05,-141c1.27005,-18.20404 5.94497,-36.00926 9,-54c0.90844,-5.34969 2.01193,-10.66444 3,-16c0.67861,-3.66448 5.53553,-12.17851 2,-11c-7.38241,2.4608 -11.15814,10.85916 -17,16c-8.28396,7.28988 -17.07756,12.09972 -24,21c-6.8793,8.84482 -10.38877,19.95306 -17,29c-5.77608,7.90411 -17.18414,9.86572 -24,16c-1.78666,1.60799 -4.58298,3.66807 -4,6c0.51131,2.04524 3.89974,1.81737 6,2c5.64536,0.4909 11.34773,-0.40373 17,0c20.45816,1.4613 40.30571,-0.78275 61,-3c4.35937,-0.46707 8.66824,-1.32316 13,-2c12.71726,-1.98707 16.91431,-3.69286 28,-3c4.29791,0.26862 16.0717,4.57132 20,3c1.80463,-0.72185 3,-3.05635 3,-5c0,-10.62586 -23.50944,-20.80324 -29,-31c-5.23309,-9.7186 -9.17901,-17.17901 -17,-25c-1.17851,-1.17851 -1.45254,-4.61898 -3,-4c-1.9574,0.78296 -1.83831,3.89802 -2,6c-0.8181,10.63525 0,21.33333 0,32c0,2.33333 -0.86658,4.83355 0,7c0.61898,1.54746 3,1.66667 4,3c1.07703,1.43604 2.35204,6.7602 2,5c-2.37958,-11.89789 -6.98633,-23.2467 -10,-35c-1.1854,-4.62305 -1.6286,-9.42867 -3,-14c-0.64253,-2.14176 -1.30225,-7.45521 -3,-6c-5.68655,4.87418 -4,23.19715 -4,28c0,4.33333 -0.24037,8.67334 0,13c0.09428,1.69706 0.78918,6.68655 1,5c0.85156,-6.81246 -0.6965,-21.62646 -1,-28c-0.06397,-1.34347 -2.33731,-16 -2,-16c6.15939,0 10.55761,6.46414 13,11c1.20355,2.23516 1.78439,4.77138 3,7c0.79809,1.46316 4.17851,5.17851 3,4c-4.59021,-4.59021 -10.05272,-11.67132 -12,-18c-0.69317,-2.25279 -0.61251,-4.67505 -1,-7c-0.27942,-1.67655 -2.67655,-5.27942 -1,-5c4.36841,0.72807 14.15322,15.64516 15,17c2.60845,4.17351 4.50465,8.7579 7,13c0.84503,1.43656 3.85749,5.42915 3,4c-6.23409,-10.39015 -16.82994,-23.06469 -19,-35c-1.02344,-5.62892 -1.86213,-11 -1,-11c1.69967,0 0.55279,3.36022 1,5c1.05975,3.88576 2.92777,7.54629 5,11c7.25809,12.09682 11.33457,22.78127 16,36c1.48842,4.21718 8.48069,8.27896 6,12c-1.33333,2 -4.21334,-2.39201 -6,-4c-4.77001,-4.29301 -7.1117,-11.3351 -9,-17c-0.64118,-1.92354 -2.21655,-7.62207 -1,-6c0.98173,1.30897 7.62794,20.00783 8,21c1.20501,3.21337 2.94087,6.2545 5,9c1,1.33333 4.06697,2.71963 3,4c-3.40922,4.09107 -16.89968,2.44984 -22,5c-1.90695,0.95348 -23.40488,12.95707 -25,12c-2.92614,-1.75568 6.69047,-14.40177 9,-17c1.418,-1.59525 5.68477,-3.68962 4,-5c-5.23124,-4.06874 -15.32047,-2.0284 -21,0c-2.1058,0.75207 -4.16814,1.7177 -6,3c-1.54476,1.08133 -5.33333,5.33333 -4,4c3.66667,-3.66667 7.53112,-7.14569 11,-11c1.74159,-1.9351 7.32857,-4.83572 5,-6c-4.67594,-2.33797 -25.2152,16.02955 -28,19c-2.10188,2.242 -3.82693,9.17307 -6,7c-5.24025,-5.24025 9,-10.92434 9,-14c0,-1.66667 -3.43368,-0.56957 -5,0c-4.89335,1.7794 -7.06036,11.64655 -12,10c-2.40832,-0.80277 1.86471,-4.72942 3,-7c1.20185,-2.4037 2.57567,-4.72107 4,-7c2.18772,-3.50036 9.79426,-15 11,-15c2.4037,0 -2.60288,4.04403 -4,6c-1.93746,2.71244 -4.11772,5.24898 -6,8c-3.45541,5.05021 -6.72739,10.31848 -9,16c-0.66667,1.66667 -1.43235,3.29706 -2,5c-0.76739,2.30217 -3.51595,8.89494 -2,7c2.79372,-3.49215 3.67473,-8.17991 6,-12c5.00594,-8.22404 12.72352,-16.08529 18,-24c4.97859,-7.46788 9.66425,-15.14145 14,-23c1.01842,-1.84588 1.25977,-7.97396 2,-6c4.26764,11.38038 -0.26709,19.89077 -7,29c-2.38581,3.22785 -6.35685,4.97926 -9,8c-2.07077,2.3666 -8.14466,8 -5,8c3.33333,0 3.93452,-5.38372 6,-8c5.78703,-7.33024 11.63026,-14.74605 16,-23c0.83988,-1.58645 0.85083,-6.379 2,-5c7.93825,9.52591 -1.58072,29.59698 -5,39c-1.01888,2.80192 -2.92973,5.2173 -4,8c-0.61015,1.58638 -1.53748,6.61245 -1,5c5.0463,-15.13891 9.47938,-30.03347 11,-46c0.28443,-2.98649 0,-9 0,-9c0,0 -0.51432,13.21917 -1,15c-0.47231,1.7318 -2,6.79505 -2,5c0,-3.72678 1.23224,-7.35316 2,-11c0.56627,-2.68978 4.69536,-8.53907 2,-8c-1.58943,0.31789 -13.57147,16.14294 -15,19c-0.94281,1.88562 -1.62288,3.92582 -2,6c-0.29814,1.63978 -1.28993,6.0554 0,5c7.14641,-5.84706 14.83903,-17.63578 17,-27c0.61808,-2.67835 1.24486,-5.35702 2,-8c0.57916,-2.02707 2,-8.10819 2,-6c0,18.42554 -9.1409,33.81298 -18,49c-0.88976,1.52531 -8.71293,11.85883 -7,14c1.58585,1.98231 4.72942,-1.86471 7,-3c7.41584,-3.70792 12.64033,-11.65469 20,-15c1.84585,-0.83902 4.56628,0.43372 6,-1c1.17851,-1.17851 -3.45254,-0.61898 -5,0c-1.98172,0.79269 -3.36033,2.63361 -5,4c-2.36088,1.9674 -4.66667,4 -7,6" data-paper-data="{&quot;fixed&quot;:true}" stroke="#190000" stroke-width="14" stroke-miterlimit="10"/><path d="M276.5,128.46666c0.01667,0 0.03333,0 0.05,0" data-paper-data="{&quot;fixed&quot;:true}" stroke="#190000" stroke-width="14" stroke-miterlimit="10"/><path d="M276.55,128.46666c-1.35,-1.33333 -2.7768,-2.59315 -4.05,-4c-14.24726,-15.74283 6.90801,5.93101 11,9" data-paper-data="{&quot;fixed&quot;:true}" stroke="#190000" stroke-width="14" stroke-miterlimit="10"/></g></svg>