<svg version="1.1" xmlns="http://www.w3.org/2000/svg" xmlns:xlink="http://www.w3.org/1999/xlink" width="393" height="393"><g fill="none" fill-rule="nonzero" stroke="none" stroke-width="none" stroke-linecap="round" stroke-linejoin="round" stroke-miterlimit="none" stroke-dasharray="" stroke-dashoffset="0" font-family="none" font-weight="none" font-size="none" text-anchor="none" style="mix-blend-mode: normal"><path d="M186.2199,86.00614c-5.69551,7.78097 -39.39685,14.17559 -42.57156,16.38735c-3.12592,2.17761 -7.31978,22.57054 -3.55154,25.93949c3.76808,3.3688 18.32197,-4.11546 27.93079,4.08013c22.91343,19.54354 29.24341,40.94476 58.64296,-2.91685c2.67476,-2.76711 24.7906,5.27143 26.77395,2.58083c1.98269,-2.69008 6.37969,-21.11876 -0.49007,-25.00003c-6.86823,-3.88127 -41.38362,-14.08783 -44.1512,-19.4728c-2.76711,-5.38493 1.10551,-13.65891 -10.62707,-13.92926c-11.73396,-0.27027 -9.02104,3.38019 -9.98758,9.02285" data-paper-data="{&quot;fixed&quot;:true}" id="path25603-0 1" stroke="#f0d3a7" stroke-width="12.71025" stroke-miterlimit="4"/><path d="M197.00307,89.42052c-0.51994,10.25989 -44.43399,14.55865 -39.76589,28.10701c35.1566,3.80149 34.49715,48.70894 66.74012,13.14837c3.60774,-4.04193 15.09851,-9.94196 14.13798,-11.32465c-0.95971,-1.38257 -41.01031,-20.79854 -39.74791,-23.26686" data-paper-data="{&quot;fixed&quot;:true}" id="path25656-6 1" stroke="#f0d3a7" stroke-width="27.86405" stroke-miterlimit="4"/><path d="M195.93335,121.07085c-11.44864,8.0091 -6.44127,33.95905 -3.95794,34.19835c2.48219,0.23961 8.68145,-27.66303 8.93898,-31.63976c0.25815,-3.97677 -17.63104,1.58576 -17.26264,4.07726" data-paper-data="{&quot;fixed&quot;:true}" id="path25660-5 1" stroke="#f0d3a7" stroke-width="49.96327" stroke-miterlimit="4"/><path d="M130.11918,117.4644c-1.39043,8.21087 -1.42305,16.46929 0.39457,16.26992c1.81762,-0.19953 -0.58596,-9.89098 2.38826,-10.24028c2.97383,-0.34933 1.41676,9.35784 3.23007,8.33742c1.81291,-1.02023 -0.29171,-8.08857 3.45368,-5.45574c3.74568,2.63271 3.74136,7.21328 7.7208,3.92293c3.97971,-3.2902 4.28327,-3.56215 5.57647,-2.39848" data-paper-data="{&quot;fixed&quot;:true}" id="path27328-4 1" stroke="#0071d1" stroke-width="10.18463" stroke-miterlimit="4"/><path d="M152.02114,138.15626c28.94606,-2.69126 26.0515,-2.76947 34.15669,4.45729c5.76232,5.13789 42.67034,32.3505 40.90962,36.85519c-1.76064,4.50476 -2.75061,8.59479 -18.87972,7.02263c-16.12915,-1.572 -41.20086,-1.24581 -42.31072,-5.02604c-1.10983,-3.78027 -10.61359,-38.19237 -9.03444,-38.05953c1.57907,0.13291 19.84261,1.72134 24.82357,5.89174c4.981,4.17036 37.43168,26.98428 35.8688,28.58061c-1.56296,1.59637 -41.00598,2.25936 -43.41859,-0.13228c-2.41263,-2.3914 -11.66923,-21.46169 -8.22612,-24.60204c3.44307,-3.14046 36.89339,20.26587 36.08589,20.26587c-0.80761,0 -18.74795,0.08871 -21.62699,-1.21909c-2.87912,-1.3079 -6.1991,-7.07215 -5.1777,-9.6283c1.02141,-2.75257 6.85455,7.18239 9.07704,6.12408" data-paper-data="{&quot;fixed&quot;:true}" id="path27330-7 1" stroke="#0071d1" stroke-width="10.18463" stroke-miterlimit="4"/><path d="M206.2123,144.522c11.79916,-9.43605 21.6095,-11.76351 28.00298,-9.8634c9.61486,2.8575 -0.04736,34.78588 -1.63252,35.62907c-1.57043,0.83513 -18.2811,-18.77754 -19.2849,-20.98734c-1.00372,-2.20984 14.67501,-11.7988 15.24054,-9.06592c0.56553,2.73292 2.0715,18.22443 0.49439,17.33008c-1.57711,-0.89447 -10.85383,-6.52761 -7.45497,-9.36609c3.39866,-2.83864 2.59105,-1.45017 3.17348,0.67517" data-paper-data="{&quot;fixed&quot;:true}" id="path27332-6 1" stroke="#0071d1" stroke-width="10.18463" stroke-miterlimit="4"/><path d="M244.19705,126.00055c16.81883,-8.90522 20.90292,-14.79755 19.88057,-12.0383c-1.02259,2.75925 -3.34993,7.32426 -5.0587,8.43779c-1.70876,1.11337 -0.00947,6.21714 -3.38687,6.63443c-3.37823,0.41737 -10.5447,0.61819 -8.34984,-1.27018c2.1949,-1.88876 5.05484,-0.13796 7.26846,-2.62681" data-paper-data="{&quot;fixed&quot;:true}" id="path27334-5 1" stroke="#0071d1" stroke-width="10.18463" stroke-miterlimit="4"/><path d="M165.18533,193.26167c20.64633,2.09155 33.94938,3.12592 41.73746,2.51402c7.78812,-0.61151 19.6566,-0.89054 23.26277,-2.70502" data-paper-data="{&quot;fixed&quot;:true}" id="path27336-6 1" stroke="#0071d1" stroke-width="10.18463" stroke-miterlimit="4"/><path d="M132.21515,107.90768c1.6003,5.9791 1.70405,14.37095 19.41605,17.1113c17.7122,2.74 21.94005,2.13006 30.55107,7.31157c8.61094,5.18147 46.09943,37.8277 49.49694,43.81804c7.71821,13.60873 -5.98814,14.76851 -22.80355,15.55565c-16.71908,0.78089 -45.61967,-3.79402 -48.10518,-4.90043c-2.48612,-1.10551 -10.06654,-44.06545 -12.39408,-50.91679" data-paper-data="{&quot;fixed&quot;:true}" id="path553-6-9 1" stroke="#00095e" stroke-width="5.63534" stroke-miterlimit="4"/><path d="M133.27712,106.07921c-4.26122,4.92622 -9.93567,12.74122 -9.37431,15.32445c0.56396,2.58319 -1.21909,8.22973 1.55549,8.90491c2.77458,0.67557 0.61347,9.03157 3.3912,9.73327c2.77733,0.7015 13.6393,-4.78694 28.77184,-8.04388c15.13262,-3.25679 15.65331,-2.56079 21.14293,-0.39968" data-paper-data="{&quot;fixed&quot;:true}" id="path555-0-3 1" stroke="#00095e" stroke-width="5.63534" stroke-miterlimit="4"/><path d="M198.20602,143.52741c7.92779,-6.99961 14.29089,-14.59449 25.06067,-15.87005c10.76973,-1.27528 21.60235,1.75828 22.28255,10.78518c0.68186,9.02701 -10.12462,41.79502 -11.71376,46.79029" data-paper-data="{&quot;fixed&quot;:true}" id="path557-6-7 1" stroke="#00095e" stroke-width="5.63534" stroke-miterlimit="4"/><path d="M234.55417,126.94422c24.89745,-14.33243 25.96064,-13.90961 29.60261,-17.54324" data-paper-data="{&quot;fixed&quot;:true}" id="path559-2-4 1" stroke="#00095e" stroke-width="5.63534" stroke-miterlimit="4"/><path d="M263.82703,108.89144c5.25429,2.12338 11.89285,-1.73313 7.93935,4.77118c-3.95382,6.50446 -4.41909,3.07601 -4.52646,8.76406c-0.10701,5.68828 -4.40577,0.84298 -4.97491,6.55838c-0.56946,5.71618 -4.15802,9.02041 -18.10103,5.25708" data-paper-data="{&quot;fixed&quot;:true}" id="path561-6-5 1" stroke="#00095e" stroke-width="5.63534" stroke-miterlimit="4"/><path d="M159.47846,186.12565c3.13103,13.08839 1.69462,12.99439 5.36547,13.97146c3.6718,0.9766 62.50426,1.51266 66.49873,-1.93002c6.62166,-5.70644 4.27407,-8.42659 1.28432,-11.73459" data-paper-data="{&quot;fixed&quot;:true}" id="path563-1-2 1" stroke="#00095e" stroke-width="5.63534" stroke-miterlimit="4"/><path d="M172.00455,205.67044c-8.89319,46.73835 -18.12726,85.1159 -44.77727,125.09094" data-paper-data="{&quot;fixed&quot;:true}" stroke="#363636" stroke-width="5" stroke-miterlimit="10"/><path d="M165.45909,187.48868c-2.97884,6.22302 -4.17443,12.80925 -7.32272,18.90906c-17.29365,33.50641 -42.19482,62.57413 -68,89.45453c-8.47011,8.82304 -16.36989,14.82833 -22.9091,25.45453c-0.90002,1.46253 -5.44548,7.0942 -4.36364,9.45459c1.34812,2.94137 10.13036,5.22708 12.36364,5.81824c14.5398,3.84875 29.94135,1.09082 44.72727,1.09082" data-paper-data="{&quot;fixed&quot;:true}" stroke="#363636" stroke-width="5" stroke-miterlimit="10"/><path d="M129.82274,331.48862c20.65609,5.96048 45.12803,8.21503 66.49546,3.63641" data-paper-data="{&quot;fixed&quot;:true}" stroke="#363636" stroke-width="5" stroke-miterlimit="10"/><path d="M196.36819,217.30682c-6.34511,24.81174 -5.45035,49.81314 -9.14091,74.90909c-2.03481,13.83678 -7.2428,32.65022 -3.27274,46.54547c2.33786,8.18254 9.4463,6.54541 16.36365,6.54541c12.75084,0 36.35298,-0.42695 41.81818,-14.54541c4.22094,-10.90413 -1.10629,-25.63576 -4.36363,-36.00003c-6.58312,-20.94629 -11.07972,-41.55815 -14.18182,-63.27267" data-paper-data="{&quot;fixed&quot;:true}" stroke="#363636" stroke-width="5" stroke-miterlimit="10"/><path d="M242.18637,200.21591c5.37939,10.97434 6.09183,24.05865 10.85909,35.63635c5.73839,13.93618 14.34169,26.37748 20.72726,40c2.91514,6.21893 13.19118,18.63884 8.36365,26.18182c-3.77721,5.90187 -23.67648,12.19825 -30.54546,17.81818" data-paper-data="{&quot;fixed&quot;:true}" stroke="#363636" stroke-width="5" stroke-miterlimit="10"/><path d="M248.36819,186.39774c12.00697,15.86924 26.86817,28.72225 41.40453,42.18185c7.74466,7.17098 13.35603,15.90138 20.72729,23.27267c8.60014,8.60018 22.81718,20.61579 10.90912,33.09091c-8.55172,8.95895 -23.53609,9.05748 -34.5455,12.72726" data-paper-data="{&quot;fixed&quot;:true}" stroke="#363636" stroke-width="5" stroke-miterlimit="10"/><path d="M253.45912,316.94321c-1.35,1.45453 -2.7,2.90906 -4.05,4.36359" data-paper-data="{&quot;fixed&quot;:true}" stroke="#363636" stroke-width="5" stroke-miterlimit="10"/><path d="M263.64093,321.67044c-6.71026,1.7401 -13.38521,3.5503 -20.05002,5.45459" data-paper-data="{&quot;fixed&quot;:true}" stroke="#363636" stroke-width="5" stroke-miterlimit="10"/><path d="M90.91364,320.57962c1.16337,-2.5798 10.55852,-20.57559 12.67727,-20.36371c7.7639,0.77641 2.13835,23.05144 14.18182,13.81818c5.98356,-4.58737 10.54251,-18.37079 13.45455,-25.09091c0.73408,-1.69404 0.4066,-5.59811 2.18181,-5.09091c1.05047,0.30013 0.08015,10.82896 -0.36363,11.27274c-1.203,1.203 0.02056,-3.42457 0.36363,-5.09091c0.51038,-2.47899 1.42297,-4.85819 2.18182,-7.27274c1.77172,-5.63729 3.95295,-11.13158 5.81818,-16.72726c3.55038,-10.65114 9.9894,-19.73962 13.81819,-30.18182c0.31608,-0.86204 2.60225,-9.63168 3.63635,-10.90909c2.15984,-2.66803 5.46267,-4.25233 7.63637,-6.90909" data-paper-data="{&quot;fixed&quot;:true}" stroke="#6c9eff" stroke-width="21" stroke-miterlimit="10"/><path d="M153.82274,321.67044c1.6803,0 3.3606,0 5.0409,0" data-paper-data="{&quot;fixed&quot;:true}" stroke="#6c9eff" stroke-width="21" stroke-miterlimit="10"/><path d="M142.55,324.94321c7.48425,-3.39126 11.10816,-4.45075 19.22274,-4" data-paper-data="{&quot;fixed&quot;:true}" stroke="#6c9eff" stroke-width="21" stroke-miterlimit="10"/><path d="M164.68184,323.85226c0.01667,0 0.03333,0 0.05,0" data-paper-data="{&quot;fixed&quot;:true}" stroke="#6c9eff" stroke-width="21" stroke-miterlimit="10"/><path d="M154.91363,311.85226c18.26991,-24.73781 23.85353,-59.79228 30.13182,-89.09091" data-paper-data="{&quot;fixed&quot;:true}" stroke="#6c9eff" stroke-width="21" stroke-miterlimit="10"/><path d="M208.36819,226.03409c-7.38624,20.12787 -6.65523,41.80814 -8.41365,62.90909c-0.69562,8.34741 -3.2201,19.78734 -1.09088,28.00003c0.45912,1.7709 3.50949,7.87142 5.45453,8.72723c6.08565,2.67768 23.4424,-3.66049 26.54547,-9.09082c5.81739,-10.18035 -2.27054,-25.0851 -5.81821,-34.54553c-5.93182,-15.81819 -9.45454,-36.20882 -9.45454,-53.09091" data-paper-data="{&quot;fixed&quot;:true}" stroke="#6c9eff" stroke-width="21" stroke-miterlimit="10"/><path d="M260.00455,303.48862c-0.1795,-20.88716 -10.34041,-36.42019 -14.23181,-56.36362c-1.90692,-9.77299 -2.95818,-19.05389 -5.45454,-28.72726c-0.49306,-1.91058 0.85542,-6.14253 -1.09091,-5.81815c-5.47083,0.91179 -4,19.59386 -4,22.54541c0,20.00819 2.4843,42.87684 8,62.18182" data-paper-data="{&quot;fixed&quot;:true}" stroke="#6c9eff" stroke-width="21" stroke-miterlimit="10"/><path d="M261.09546,214.76135c0.75225,13.95298 18.65325,45.42998 30.49547,53.81824c2.63745,1.8682 16.11167,11.45011 19.27271,6.18176c3.03951,-5.0658 -5.8306,-12.99322 -8.36362,-15.63635c-10.02457,-10.46036 -22.07462,-19.22951 -27.27274,-33.09091" data-paper-data="{&quot;fixed&quot;:true}" stroke="#6c9eff" stroke-width="21" stroke-miterlimit="10"/></g></svg>