<svg version="1.1" xmlns="http://www.w3.org/2000/svg" xmlns:xlink="http://www.w3.org/1999/xlink" width="471" height="471"><g fill="none" fill-rule="nonzero" stroke="none" stroke-width="none" stroke-linecap="round" stroke-linejoin="round" stroke-miterlimit="none" stroke-dasharray="" stroke-dashoffset="0" font-family="none" font-weight="none" font-size="none" text-anchor="none" style="mix-blend-mode: normal"><path d="M191.34798,220.99791c19.06985,35.796 21.9665,33.0642 22.51286,42.7197c0.56567,9.6555 40.4151,6.0759 46.5706,4.71c6.15592,-1.413 4.4274,-5.8404 4.239,-9.7026c-0.20064,-3.768 18.20792,-27.7419 20.39336,-33.2997" data-paper-data="{&quot;fixed&quot;:true}" id="path53808-0 1" stroke="#5d5955" stroke-width="11.91597" stroke-miterlimit="4"/><path d="M317.20628,71.77098c-14.03062,-14.6481 -138.56584,-4.239 -148.91469,2.826c-13.09333,8.6193 -85.78305,110.04444 -73.03454,130.23621c12.7495,20.2059 269.95585,18.4632 279.87988,4.8042c10.03371,-13.6119 -44.22379,-134.8473 -49.35831,-135.76104" data-paper-data="{&quot;fixed&quot;:true}" id="path52838-6 1" stroke="#eacd46" stroke-width="9.89072" stroke-miterlimit="4"/><path d="M279.04129,84.18654c36.51522,2.355 43.03339,-6.7353 44.18734,8.2425c0.98957,12.9996 -38.52168,0.04239 -36.91086,12.9996c1.6956,13.7532 38.48871,-9.7968 41.36134,3.768c2.7318,12.9525 -38.19669,6.5469 -34.74897,19.3581c3.7209,13.8474 38.78073,-14.4597 43.01926,-0.942c4.81838,15.5901 -46.15612,11.4924 -40.85266,26.8941c4.4745,13.0467 36.78369,-16.3908 41.25348,-3.297c3.5325,10.3149 -31.07988,7.6773 -27.40655,17.9451c4.239,11.9163 33.35481,-15.8727 37.79163,-4.239c7.70509,20.6298 -71.69035,24.4449 -54.16562,37.7742c8.37188,8.007 53.37667,-7.6302 59.90405,-10.4562" data-paper-data="{&quot;fixed&quot;:true}" id="path54109-2 1" stroke="#fcf3c6" stroke-width="9.89072" stroke-miterlimit="4"/><path d="M214.55,271.46666c-0.07449,7.44859 1.45529,14.57936 1.95,22c1.03967,15.5951 -1.11352,31.41074 0,47c1.26646,17.73044 4.08993,34.53959 7,52" data-paper-data="{&quot;fixed&quot;:true}" stroke="#5f5a5a" stroke-width="14" stroke-miterlimit="10"/><path d="M258.55,273.46666c-0.10658,17.05253 2.20147,32.75639 5.95,49c2.32377,10.06966 -0.57351,21.7722 1,32c1.52666,9.92332 2,18.87012 2,29" data-paper-data="{&quot;fixed&quot;:true}" stroke="#5f5a5a" stroke-width="14" stroke-miterlimit="10"/><path d="M268.55,384.46666c0.625,3.28949 0.95,6.65166 0.95,10" data-paper-data="{&quot;fixed&quot;:true}" stroke="#5f5a5a" stroke-width="14" stroke-miterlimit="10"/><path d="M177.55,399.46666c22.27447,-2.48877 53.59074,-5.43989 75.95,-2c5.03973,0.77534 9.90803,2.732 15,3c9.39282,0.49436 19.57885,0.67294 29,0c4.76048,-0.34003 9.47231,-1.49077 14,-3c2,-0.66667 8.10819,-2 6,-2c-2.4267,0 -4.60152,1.631 -7,2c-8.6528,1.3312 -18.42359,-1.22033 -27,-2c-15.6178,-1.4198 -27.86898,-7.74442 -44,-3c-15.41444,4.53366 -30.43462,9.33756 -46,13c-3.8858,0.91431 -13.92368,3.09159 -14,3c-8.4085,-10.0902 13.80006,-11 19,-11c26.44367,0 54.22636,1.52292 80,-4c7.39563,-1.58478 16.45359,-1.75464 24,-1c1.69124,0.16912 5,-0.69967 5,1c0,1.66667 -3.34018,0.15089 -5,0c-6.95657,-0.63242 -11.45217,-4.12919 -18,-6c-14.65356,-4.18673 -33.90061,-3.83885 -49,-3c-15.47463,0.8597 -27.88827,11 -44,11c-4.01386,0 -8.05088,0.28198 -12,1c-1.67226,0.30405 -5.41223,2.64893 -5,1c2.11345,-8.45379 27.96946,-12.1238 32,-13c21.46949,-4.66728 45.87829,-6 68,-6c7.52983,0 14.596,0.32691 22,1c1.99179,0.18107 4,0 6,0c2,0 7.78885,0.89443 6,0c-7.83081,-3.91541 -13.14218,0.71416 -20,2c-8.84585,1.6586 -18.00849,-0.39094 -27,0c-16.35316,0.71101 -31.12674,2.33694 -47,6c-8.01431,1.84946 -15.06525,7.91307 -21,13c-1.43167,1.22714 -4.23388,2.12894 -4,4c0.70307,5.62456 21.38286,4.51673 25,4c8.12673,-1.16096 16.08861,-6.17429 24,-8c12.01129,-2.77184 24.77164,0.31589 37,-4c7.33249,-2.58794 12.12367,-6.01546 20,-7c10.5019,-1.31274 21.43849,-2.24561 32,-3c1.99492,-0.14249 6,0 6,0c0,0 -4,0 -6,0c-6.67499,0 -13.37655,-0.17207 -20,-1c-15.49369,-1.93671 -33.50349,-2.47586 -49,-1c-11.29812,1.07601 -21.5208,4.28255 -33,5c-7.51426,0.46964 -14.72718,1.67767 -22,3c-1.7661,0.32111 -5,0.20495 -5,2c0,3.55604 24.66355,11.28505 28,12c24.2799,5.20284 50.51757,1.36014 75,0c6.4852,-0.36029 11.68871,-2 18,-2c1.66667,0 3.82149,1.17851 5,0c1.62871,-1.62871 -1.91356,-11.83947 -2,-12c-7.65005,-14.20724 -27.58999,-6 -40,-6c-13.7808,0 -38.3403,1.86911 -51,-3c-7.14509,-2.74811 -13.62187,-7.39375 -22,-5c-5.59743,1.59927 -10.37514,5.50004 -16,7c-13.72305,3.65948 -28.8755,0.65463 -22,23c2.42691,7.88746 6.76386,8.93253 14,11c19.73572,5.63878 31.83048,-6.26226 50,-12c3.23695,-1.02219 14.0569,-2.76805 18,-3c19.33957,-1.13762 38.56558,-2 58,-2c2.31689,0 17.52314,1.1791 18,-2c1.54263,-10.28418 -1.89003,-23.02199 -12,-21" data-paper-data="{&quot;fixed&quot;:true}" stroke="#5f5a5a" stroke-width="14" stroke-miterlimit="10"/><path d="M215.55,274.46666c2.0646,17.38608 1.61327,34.62254 2.95,52c0.5413,7.03686 2.95879,14.05862 4,21c1.0151,6.76735 -0.09189,15.30594 2,22c1.57205,5.03055 3.96638,9.83189 5,15" data-paper-data="{&quot;fixed&quot;:true}" stroke="#5f5a5a" stroke-width="14" stroke-miterlimit="10"/><path d="M227.55,285.46666c-0.20561,28.78575 -0.22609,60.20128 7.95,88c2.90152,9.86516 5.13974,19.67692 6,30c0.3045,3.654 1.31626,14.42227 0,11c-6.33984,-16.4836 -12.50167,-52.97992 -11,-71c0.72547,-8.70562 4.94328,-16.03888 4,-25c-1.06721,-10.13846 -2.32122,-19.81824 -3,-30c-0.17876,-2.68147 -0.79388,-5.3205 -1,-8c-0.12783,-1.66176 -1.04116,-6.30145 0,-5c4.49946,5.62432 3.77066,12.68355 6,19c1.89574,5.37128 4.95029,10.40156 6,16c1.36764,7.2941 0.83518,17.07258 3,24c3.43133,10.98025 8,23.98139 8,36c0,1.69967 -0.64387,-3.33806 -1,-5c-0.64392,-3.00496 -1.73377,-5.93837 -2,-9c-0.40427,-4.64912 0.38755,-9.34945 0,-14c-1.2797,-15.35641 -2,-30.42152 -2,-46c0,-4.05518 -0.93301,-8.08771 -2,-12c-0.44721,-1.63978 -2.52023,-5.76012 -1,-5c2.41673,1.20836 4.68579,12.74314 5,14c3.2179,12.8716 2.56602,26.01876 5,39c2.00754,10.70691 1,22.15214 1,33c0,2.33333 2.33333,7 0,7c-2.53859,0 -1.93618,-4.69506 -3,-7c-4.31186,-9.34236 -7.34061,-18.48559 -11,-28c-0.69773,-1.8141 -1.11438,-5.4714 -3,-5c-1.33085,0.33271 -1,21.37319 -1,24c0,2.96812 -0.29383,17.45496 2,10c4.24363,-13.7918 3.69358,-28.62935 5,-43c0.63215,-6.95368 -0.60311,-13 -1,-13c-1.94365,0 -2.61882,3.09409 -3,5c-0.35865,1.79324 -1.18964,26.88791 -3,29c-1.74895,2.04044 -3.12393,-4.45939 -4,-7c-2.47791,-7.18594 -5.38155,-14.42403 -6,-22c-1.55442,-19.04163 6.61597,-37.90496 6,-57c-0.02391,-0.7413 -12.12373,-2.37118 -11,1c0.94281,2.82843 5.35896,2.6166 8,4c4.35972,2.28366 8.44482,5.13652 13,7c3.17618,1.29935 9.96758,2.57606 14,2c3.04229,-0.43461 11.88816,-0.94976 9,-2c-6.29654,-2.28965 -13.31982,-1.48614 -20,-2c-0.15523,-0.01194 -11,0.7535 -11,-2c0,-4.83025 7.16097,-5.52683 10,-6c2.32495,-0.38749 4.66667,-0.66667 7,-1" data-paper-data="{&quot;fixed&quot;:true}" stroke="#5f5a5a" stroke-width="14" stroke-miterlimit="10"/></g></svg>