<svg version="1.1" xmlns="http://www.w3.org/2000/svg" xmlns:xlink="http://www.w3.org/1999/xlink" width="393" height="393"><g fill="none" fill-rule="nonzero" stroke="none" stroke-width="none" stroke-linecap="round" stroke-linejoin="round" stroke-miterlimit="4" stroke-dasharray="" stroke-dashoffset="0" font-family="none" font-weight="none" font-size="none" text-anchor="none" style="mix-blend-mode: normal"><path d="M187.05931,187.85758c7.23313,52.26167 5.99156,76.22771 7.78226,110.34859" data-paper-data="{&quot;fixed&quot;:true}" id="path6204-9 1" stroke="#6b6b6b" stroke-width="11.79"/><path d="M124.6931,277.66826c24.47765,-15.31065 36.64855,-18.04731 66.94024,-32.25147c19.46741,2.75532 60.26272,2.1277 73.08258,-1.51541" data-paper-data="{&quot;fixed&quot;:true}" id="path6701-0 1" stroke="#6b6b6b" stroke-width="11.79"/><path d="M132.43045,217.67599c-5.5927,33.95587 -11.07953,67.62486 -16.54852,101.24537" data-paper-data="{&quot;fixed&quot;:true}" id="path6089 1" stroke="#939393" stroke-width="11.79"/><path d="M220.87928,220.21719c7.23313,52.26167 5.99156,76.22771 7.78226,110.34859" data-paper-data="{&quot;fixed&quot;:true}" id="path6204 1" stroke="#939393" stroke-width="11.79"/><path d="M263.12197,190.84876c2.90427,40.99762 5.29202,74.97638 7.78226,110.34859" data-paper-data="{&quot;fixed&quot;:true}" id="path6204-3 1" stroke="#939393" stroke-width="11.79"/><path d="M124.6931,277.66826c31.72481,7.76521 66.33633,3.54722 100.76021,0.10814c19.40363,-8.48864 32.17373,-15.66848 41.91945,-25.39998" data-paper-data="{&quot;fixed&quot;:true}" id="path6701 1" stroke="#939393" stroke-width="11.79"/><path d="M233.55279,220.0167c1.32873,2.67633 42.95636,-35.50024 34.74808,-48.68339c-6.21628,-9.98385 -73.0185,-13.61953 -96.62597,-2.77144c-19.90054,9.1446 -58.04204,30.6395 -52.46176,44.13009c5.58029,13.49059 115.45388,8.4179 114.33964,7.32485" data-paper-data="{&quot;fixed&quot;:true}" id="path4651 1" stroke="#88201c" stroke-width="11.79"/><path d="M245.38588,177.72555c-17.62346,-2.24678 -36.02517,-2.97029 -54.229,-4.08107c-11.30575,2.96047 -42.18482,25.199 -49.37797,30.66693c23.00763,1.39043 74.10881,-20.86531 92.38457,-9.54499" data-paper-data="{&quot;fixed&quot;:true}" id="path7896 1" stroke="#f00000" stroke-width="39.3"/><path d="M143.50502,213.13676c59.27158,8.01681 103.62883,1.56925 113.97452,-30.54113" data-paper-data="{&quot;fixed&quot;:true}" id="path7356 1" stroke="#661815" stroke-width="19.65"/></g></svg>