<svg version="1.1" xmlns="http://www.w3.org/2000/svg" xmlns:xlink="http://www.w3.org/1999/xlink" width="393" height="393"><g fill="none" fill-rule="nonzero" stroke="#000000" stroke-width="5.81585" stroke-linecap="round" stroke-linejoin="round" stroke-miterlimit="4" stroke-dasharray="" stroke-dashoffset="0" font-family="none" font-weight="none" font-size="none" text-anchor="none" style="mix-blend-mode: normal"><path d="M45.27967,217.24101c0.37865,3.78734 26.51268,15.15011 155.66727,14.77134c129.15458,-0.37865 139.00213,-6.81757 151.50095,-9.09009" data-paper-data="{&quot;fixed&quot;:true}" id="path933-8-2 1"/><path d="M193.37188,230.87606c3.03003,-9.84756 3.40888,-10.9838 3.40888,-10.9838" data-paper-data="{&quot;fixed&quot;:true}" id="path935-7-9 1"/><path d="M192.94986,231.57669c0.98918,-5.44887 2.12731,-9.05912 3.41871,-10.27353c1.29179,-1.21437 158.53688,-1.59322 159.13439,-13.63337" data-paper-data="{&quot;fixed&quot;:true}" id="path176-2-1 1"/><path d="M55.78006,251.42773c11.81299,30.43962 37.91731,58.1075 57.83842,57.86268c19.92105,-0.24488 157.28301,-1.19118 171.66058,-0.51129c14.37763,0.67989 54.80391,-19.18697 55.41514,-50.59507" data-paper-data="{&quot;fixed&quot;:true}" id="path325-0-9 1"/><path d="M88.40857,282.73946c5.09976,6.92427 16.30388,13.8391 27.94053,13.25345c11.63657,-0.58557 20.43954,-5.85939 22.10271,-10.54391" data-paper-data="{&quot;fixed&quot;:true}" id="path545-3-4 1"/><path d="M113.57058,295.32687c0.18706,-22.31167 1.87933,-44.03846 0.45234,-46.14731c-1.42698,-2.10884 -2.90466,-0.41226 -4.31329,-5.05492c-1.40891,-4.64259 1.39436,-9.85782 4.18286,-8.54842c2.78834,1.30948 6.68194,3.45368 3.67023,8.85091c-3.01156,5.39742 -3.19234,2.7679 -2.94986,3.98109" data-paper-data="{&quot;fixed&quot;:true}" id="path547-7-7 1"/><path d="M103.72501,247.09362c7.103,0.10487 11.68841,0.70504 17.34635,1.0049" data-paper-data="{&quot;fixed&quot;:true}" id="path549-5-8 1"/><path d="M44.52219,217.61978c5.30251,22.72515 4.54505,29.16394 8.71132,32.57267c4.16627,3.40888 75.7505,11.36257 148.09221,10.60511c72.34171,-0.7577 139.38085,-4.16627 143.16841,-7.95377c3.78734,-3.78773 7.575,-25.75522 11.36257,-44.69283" data-paper-data="{&quot;fixed&quot;:true}" id="path939-9-3 1"/></g></svg>