<svg version="1.1" xmlns="http://www.w3.org/2000/svg" xmlns:xlink="http://www.w3.org/1999/xlink" width="393" height="393"><g fill="none" fill-rule="nonzero" stroke="none" stroke-width="none" stroke-linecap="round" stroke-linejoin="round" stroke-miterlimit="none" stroke-dasharray="" stroke-dashoffset="0" font-family="none" font-weight="none" font-size="none" text-anchor="none" style="mix-blend-mode: normal"><path d="M51.62288,149.04025c142.37924,27.47667 303.90889,3.33067 303.90889,-4.16309c0,-7.49361 -39.13349,-41.63137 -81.59745,-25.81141" data-paper-data="{&quot;fixed&quot;:true}" id="path6470 1" stroke="#000000" stroke-width="10.39811" stroke-miterlimit="4"/><path d="M129.88983,166.52542c-5.82839,79.09958 -18.31781,159.03178 2.49791,165.6928c20.81568,6.66104 108.24153,-14.98729 124.06144,-54.12076c15.8199,-39.13349 16.65255,-55.78601 16.65255,-55.78601" data-paper-data="{&quot;fixed&quot;:true}" id="path6472 1" stroke="#000000" stroke-width="10.39811" stroke-miterlimit="4"/><path d="M271.43644,170.68856c31.63984,-5.82839 41.63135,-12.48942 39.9661,4.16313c-1.66514,16.65255 -7.49365,23.31355 -18.31781,43.29661c-10.82416,19.98307 6.661,29.97458 -10.82416,19.98307" data-paper-data="{&quot;fixed&quot;:true}" id="path6474 1" stroke="#000000" stroke-width="10.39811" stroke-miterlimit="4"/><path d="M164.02754,197.33263c-6.66104,21.64829 -23.31355,54.95338 -21.64829,57.45126c1.66514,2.49791 21.64829,4.16309 27.47671,0" data-paper-data="{&quot;fixed&quot;:true}" id="path6476 1" stroke="#000000" stroke-width="10.39811" stroke-miterlimit="4"/><path d="M137.38347,190.67161c14.15468,0.83277 0.83277,4.16309 18.31781,2.49791" data-paper-data="{&quot;fixed&quot;:true}" id="path6478 1" stroke="#000000" stroke-width="10.39811" stroke-miterlimit="4"/><path d="M192.24308,200.00982c14.15468,0.83277 0.83277,4.16309 18.31781,2.49791" data-paper-data="{&quot;fixed&quot;:true}" id="path6478-5 1" stroke="#000000" stroke-width="10.39811" stroke-miterlimit="4"/><path d="M149.87288,281.42796c35.46998,4.49608 39.96254,-0.38234 41.61108,-2.03102" data-paper-data="{&quot;fixed&quot;:true}" id="path6495 1" stroke="#000000" stroke-width="10.39811" stroke-miterlimit="4"/><path d="M46.91364,139.85226c16.58149,-15.26471 42.95288,-20.72723 65.04091,-20.72723" data-paper-data="{&quot;fixed&quot;:true}" stroke="#181818" stroke-width="30" stroke-miterlimit="10"/><path d="M129.82274,122.39774c2.66897,-21.49538 11.24347,-41.6104 14.13181,-63.27271c0.17374,-1.30305 1.74122,-16.62115 2.90909,-16.72731c1.84264,-0.16749 2.01945,3.105 2.9091,4.72731c2.23079,4.0679 4.29449,8.41822 7.63635,11.63632c6.83411,6.58103 15.64849,9.64847 25.09091,8.72726c25.31512,-2.46974 29.48201,-25.74147 46.90912,-39.99998" data-paper-data="{&quot;fixed&quot;:true}" stroke="#181818" stroke-width="30" stroke-miterlimit="10"/><path d="M239.64091,21.67044c1.13644,6.35214 3.68614,12.47727 4.31363,18.90912c2.99101,30.6579 -3.35641,60.39804 21.81818,83.63638" data-paper-data="{&quot;fixed&quot;:true}" stroke="#181818" stroke-width="30" stroke-miterlimit="10"/><path d="M134.18637,128.57953c16.52604,6.67159 34.42391,5.45456 51.95,5.45456c28.48575,0 56.39053,-1.01722 84.72726,-4" data-paper-data="{&quot;fixed&quot;:true}" stroke="#181818" stroke-width="30" stroke-miterlimit="10"/></g></svg>