<svg version="1.1" xmlns="http://www.w3.org/2000/svg" xmlns:xlink="http://www.w3.org/1999/xlink" width="393" height="393"><g fill="none" fill-rule="nonzero" stroke="none" stroke-width="none" stroke-linecap="round" stroke-linejoin="round" stroke-miterlimit="none" stroke-dasharray="" stroke-dashoffset="0" font-family="none" font-weight="none" font-size="none" text-anchor="none" style="mix-blend-mode: normal"><path d="M51.62288,149.04025c142.37924,27.47667 303.90889,3.33067 303.90889,-4.16309c0,-7.49361 -39.13349,-41.63137 -81.59745,-25.81141" data-paper-data="{&quot;fixed&quot;:true}" id="path6470 1" stroke="#000000" stroke-width="10.39811" stroke-miterlimit="4"/><path d="M129.88983,166.52542c-5.82839,79.09958 -18.31781,159.03178 2.49791,165.6928c20.81568,6.66104 108.24153,-14.98729 124.06144,-54.12076c15.8199,-39.13349 16.65255,-55.78601 16.65255,-55.78601" data-paper-data="{&quot;fixed&quot;:true}" id="path6472 1" stroke="#000000" stroke-width="10.39811" stroke-miterlimit="4"/><path d="M271.43644,170.68856c31.63984,-5.82839 41.63135,-12.48942 39.9661,4.16313c-1.66514,16.65255 -7.49365,23.31355 -18.31781,43.29661c-10.82416,19.98307 6.661,29.97458 -10.82416,19.98307" data-paper-data="{&quot;fixed&quot;:true}" id="path6474 1" stroke="#000000" stroke-width="10.39811" stroke-miterlimit="4"/><path d="M164.02754,197.33263c-6.66104,21.64829 -23.31355,54.95338 -21.64829,57.45126c1.66514,2.49791 21.64829,4.16309 27.47671,0" data-paper-data="{&quot;fixed&quot;:true}" id="path6476 1" stroke="#000000" stroke-width="10.39811" stroke-miterlimit="4"/><path d="M137.38347,190.67161c14.15468,0.83277 0.83277,4.16309 18.31781,2.49791" data-paper-data="{&quot;fixed&quot;:true}" id="path6478 1" stroke="#000000" stroke-width="10.39811" stroke-miterlimit="4"/><path d="M192.24308,200.00982c14.15468,0.83277 0.83277,4.16309 18.31781,2.49791" data-paper-data="{&quot;fixed&quot;:true}" id="path6478-5 1" stroke="#000000" stroke-width="10.39811" stroke-miterlimit="4"/><path d="M149.87288,281.42796c35.46998,4.49608 39.96254,-0.38234 41.61108,-2.03102" data-paper-data="{&quot;fixed&quot;:true}" id="path6495 1" stroke="#000000" stroke-width="10.39811" stroke-miterlimit="4"/><path d="M50.91364,135.48865c22.29951,-10.63985 45.56427,-17.45456 70.49547,-17.45456" data-paper-data="{&quot;fixed&quot;:true}" stroke="#181818" stroke-width="5" stroke-miterlimit="10"/><path d="M65.82273,130.39774c-7.82751,3.87567 -12.47509,6.36619 -15.32273,14.90909" data-paper-data="{&quot;fixed&quot;:true}" stroke="#181818" stroke-width="5" stroke-miterlimit="10"/><path d="M129.09546,131.48865c2.70101,-8.29308 3.24727,-16.77196 5.76818,-25.09091c3.18601,-10.51377 7.75261,-20.51477 10.18182,-31.27271c1.62322,-7.18854 1.29544,-14.86348 1.81818,-22.18185c0.0643,-0.90027 -0.91887,-9.45454 2.54546,-9.45454c4.20765,0 5.45235,6.41667 8.36365,9.45454c5.07411,5.29471 11.25345,11.53293 17.81818,14.90909c18.70095,9.61766 33.8174,-1.97394 52,-3.27274" data-paper-data="{&quot;fixed&quot;:true}" stroke="#181818" stroke-width="5" stroke-miterlimit="10"/><path d="M184.00455,59.12503c6.31871,-5.46981 13.15719,-9.4226 20.67728,-13.09094c11.96226,-5.83526 48.03933,-12.5754 55.63637,4c2.53672,5.53467 0.57331,16.37691 1.45453,22.54544c3.60937,25.26569 1.19475,38.80522 17.09091,60" data-paper-data="{&quot;fixed&quot;:true}" stroke="#181818" stroke-width="5" stroke-miterlimit="10"/><path d="M268.00455,118.03409c-29.3581,4.67165 -58.07634,3.16872 -87.68635,2.18185c-8.91528,-0.29714 -18.4895,1.63582 -27.27274,0.72723c-5.59386,-0.57866 -10.17808,-2.54544 -16,-2.54544" data-paper-data="{&quot;fixed&quot;:true}" stroke="#181818" stroke-width="5" stroke-miterlimit="10"/><path d="M121.09546,131.48865c23.09256,7.75668 46.68526,9.14672 70.85909,9.81818c13.18082,0.36611 25.95421,4.7125 39.27274,3.27271c12.84543,-1.38865 26.01532,-5.5947 38.54544,-8.72726" data-paper-data="{&quot;fixed&quot;:true}" stroke="#181818" stroke-width="5" stroke-miterlimit="10"/></g></svg>