<svg version="1.1" xmlns="http://www.w3.org/2000/svg" xmlns:xlink="http://www.w3.org/1999/xlink" width="393" height="393"><g fill="none" fill-rule="nonzero" stroke-opacity="0.93333" stroke="#000000" stroke-width="3.93" stroke-linecap="round" stroke-linejoin="round" stroke-miterlimit="4" stroke-dasharray="" stroke-dashoffset="0" font-family="none" font-weight="none" font-size="none" text-anchor="none" style="mix-blend-mode: normal"><path d="M154.15873,132.32522c-15.72086,17.72674 -29.08754,36.58488 -29.08754,36.58488c0,0 13.30462,-14.45387 18.21928,-9.73701c4.91466,4.71702 -18.90306,23.75665 -15.24824,27.26481c3.6549,3.50831 26.86992,45.53312 29.02144,52.57679" data-paper-data="{&quot;fixed&quot;:true}" id="path51862-6 1"/><path d="M229.02099,122.39285c41.37058,37.08996 37.03298,31.56997 37.0046,33.64713c-0.03047,2.0774 -15.58049,-4.59397 -13.49676,-2.13595c2.08408,2.45782 21.95514,21.04955 20.39061,23.55846c-1.56453,2.50891 -88.1166,77.91566 -96.67376,80.22591c-8.55714,2.31005 -26.44324,6.94832 -31.01147,5.95175c-4.56855,-0.99665 78.00704,-115.54323 79.06543,-120.26477c1.05835,-4.72127 3.99025,-24.61493 3.99025,-24.61493" data-paper-data="{&quot;fixed&quot;:true}" id="path51864-1 1"/><path d="M179.06217,204.34632c-11.57686,-36.05643 -19.94413,-69.24602 -23.91681,-71.63378" data-paper-data="{&quot;fixed&quot;:true}" id="path51866-0 1"/><path d="M132.37623,156.39736c-36.32731,19.17309 -49.54072,26.47779 -49.94769,31.55971c-0.40676,5.08192 24.33232,67.39383 31.14156,74.03376c6.80908,6.63997 133.02832,7.05411 143.27922,-0.12126c10.25097,-7.17512 56.91231,-73.1437 54.09615,-79.27029c-2.8186,-6.12656 -38.61233,-21.71529 -46.46313,-26.13108" data-paper-data="{&quot;fixed&quot;:true}" id="path51868-6 1"/><path d="M149.54136,266.95827c8.70416,9.25904 17.18907,17.02936 13.80786,21.59103c-3.38176,4.56187 -28.03855,20.96403 -28.03855,27.17626c0,6.2118 4.2806,25.29269 23.90517,30.89169c19.62469,5.6008 50.3569,11.59499 76.34065,-2.24875c23.10372,-12.30782 21.56957,-26.8208 15.68365,-37.09743c-4.45701,-7.78105 -21.74422,-16.00327 -23.04784,-18.34988c-1.30397,-2.34621 -2.89798,-13.50089 6.91452,-22.66671" data-paper-data="{&quot;fixed&quot;:true}" id="path51870-3 1"/></g></svg>