<svg version="1.1" xmlns="http://www.w3.org/2000/svg" xmlns:xlink="http://www.w3.org/1999/xlink" width="393" height="393"><g fill="none" fill-rule="nonzero" stroke="none" stroke-width="none" stroke-linecap="round" stroke-linejoin="round" stroke-miterlimit="none" stroke-dasharray="" stroke-dashoffset="0" font-family="none" font-weight="none" font-size="none" text-anchor="none" style="mix-blend-mode: normal"><path d="M154.15873,132.32522c-15.72086,17.72674 -29.08754,36.58488 -29.08754,36.58488c0,0 13.30462,-14.45387 18.21928,-9.73701c4.91466,4.71702 -18.90306,23.75665 -15.24824,27.26481c3.6549,3.50831 26.86992,45.53312 29.02144,52.57679" data-paper-data="{&quot;fixed&quot;:true}" id="path51862-6 1" stroke-opacity="0.93333" stroke="#000000" stroke-width="3.93" stroke-miterlimit="4"/><path d="M229.02099,122.39285c41.37058,37.08996 37.03298,31.56997 37.0046,33.64713c-0.03047,2.0774 -15.58049,-4.59397 -13.49676,-2.13595c2.08408,2.45782 21.95514,21.04955 20.39061,23.55846c-1.56453,2.50891 -88.1166,77.91566 -96.67376,80.22591c-8.55714,2.31005 -26.44324,6.94832 -31.01147,5.95175c-4.56855,-0.99665 78.00704,-115.54323 79.06543,-120.26477c1.05835,-4.72127 3.99025,-24.61493 3.99025,-24.61493" data-paper-data="{&quot;fixed&quot;:true}" id="path51864-1 1" stroke-opacity="0.93333" stroke="#000000" stroke-width="3.93" stroke-miterlimit="4"/><path d="M179.06217,204.34632c-11.57686,-36.05643 -19.94413,-69.24602 -23.91681,-71.63378" data-paper-data="{&quot;fixed&quot;:true}" id="path51866-0 1" stroke-opacity="0.93333" stroke="#000000" stroke-width="3.93" stroke-miterlimit="4"/><path d="M132.37623,156.39736c-36.32731,19.17309 -49.54072,26.47779 -49.94769,31.55971c-0.40676,5.08192 24.33232,67.39383 31.14156,74.03376c6.80908,6.63997 133.02832,7.05411 143.27922,-0.12126c10.25097,-7.17512 56.91231,-73.1437 54.09615,-79.27029c-2.8186,-6.12656 -38.61233,-21.71529 -46.46313,-26.13108" data-paper-data="{&quot;fixed&quot;:true}" id="path51868-6 1" stroke-opacity="0.93333" stroke="#000000" stroke-width="3.93" stroke-miterlimit="4"/><path d="M149.54136,266.95827c8.70416,9.25904 17.18907,17.02936 13.80786,21.59103c-3.38176,4.56187 -28.03855,20.96403 -28.03855,27.17626c0,6.2118 4.2806,25.29269 23.90517,30.89169c19.62469,5.6008 50.3569,11.59499 76.34065,-2.24875c23.10372,-12.30782 21.56957,-26.8208 15.68365,-37.09743c-4.45701,-7.78105 -21.74422,-16.00327 -23.04784,-18.34988c-1.30397,-2.34621 -2.89798,-13.50089 6.91452,-22.66671" data-paper-data="{&quot;fixed&quot;:true}" id="path51870-3 1" stroke-opacity="0.93333" stroke="#000000" stroke-width="3.93" stroke-miterlimit="4"/><path d="M162.55,146.76135c4.66723,-5.20552 14.18696,-19.16829 7.58637,-26.54541c-6.05758,-6.77023 -18.78754,-1.62069 -24.72728,-11.27277c-4.4376,-7.2111 -4.60679,-20.86141 -5.0909,-29.09091c-1.57702,-26.80846 4.92283,-52.79243 33.0909,-62.18182c12.09206,-4.0307 33.40193,-9.01977 45.81819,-4.36363c17.75259,6.65728 27.18902,37.42573 22.90909,54.54546c-4.90182,19.60726 -15.63637,29.43984 -15.63637,51.27277" data-paper-data="{&quot;fixed&quot;:true}" stroke="#181818" stroke-width="14" stroke-miterlimit="10"/><path d="M154.5,58.03409c0.01667,0 0.03333,0 0.05,0" data-paper-data="{&quot;fixed&quot;:true}" stroke="#181818" stroke-width="14" stroke-miterlimit="10"/><path d="M186.13637,54.03409c0.01667,0 0.03333,0 0.05,0" data-paper-data="{&quot;fixed&quot;:true}" stroke="#181818" stroke-width="14" stroke-miterlimit="10"/><path d="M172.73184,63.12503c-1.11571,1.3416 -11.91165,12.41505 -10.9591,15.27271c1.14904,3.44714 13.19753,3.07167 15.63635,2.90909" data-paper-data="{&quot;fixed&quot;:true}" stroke="#181818" stroke-width="5" stroke-miterlimit="10"/><path d="M169.45909,99.48862c7.25382,1.56981 13.5705,0.08505 19.95,-3.63635" data-paper-data="{&quot;fixed&quot;:true}" stroke="#181818" stroke-width="5" stroke-miterlimit="10"/><path d="M210.18637,62.39774c12.71855,2.75236 11.30618,18.84646 2.49546,25.45453" data-paper-data="{&quot;fixed&quot;:true}" stroke="#181818" stroke-width="5" stroke-miterlimit="10"/><path d="M157.09546,27.48863c9.56754,14.03413 19.77546,-0.27686 31.95,3.63638c4.99117,1.60431 7.64707,6.4633 12.36363,8.72725c5.38709,2.5858 10.00976,0.30219 15.27274,2.18182c3.81416,1.3622 10.64905,6.02163 14.18184,8c9.09221,5.09166 3.30541,23.73444 6.18179,32.36365" data-paper-data="{&quot;fixed&quot;:true}" stroke="#181818" stroke-width="5" stroke-miterlimit="10"/></g></svg>