<svg version="1.1" xmlns="http://www.w3.org/2000/svg" xmlns:xlink="http://www.w3.org/1999/xlink" width="393" height="393"><g fill="none" fill-rule="nonzero" stroke="none" stroke-width="none" stroke-linecap="round" stroke-linejoin="round" stroke-miterlimit="none" stroke-dasharray="" stroke-dashoffset="0" font-family="none" font-weight="none" font-size="none" text-anchor="none" style="mix-blend-mode: normal"><path d="M51.62288,149.04025c142.37924,27.47667 303.90889,3.33067 303.90889,-4.16309c0,-7.49361 -39.13349,-41.63137 -81.59745,-25.81141" data-paper-data="{&quot;fixed&quot;:true}" id="path6470 1" stroke="#000000" stroke-width="10.39811" stroke-miterlimit="4"/><path d="M129.88983,166.52542c-5.82839,79.09958 -18.31781,159.03178 2.49791,165.6928c20.81568,6.66104 108.24153,-14.98729 124.06144,-54.12076c15.8199,-39.13349 16.65255,-55.78601 16.65255,-55.78601" data-paper-data="{&quot;fixed&quot;:true}" id="path6472 1" stroke="#000000" stroke-width="10.39811" stroke-miterlimit="4"/><path d="M271.43644,170.68856c31.63984,-5.82839 41.63135,-12.48942 39.9661,4.16313c-1.66514,16.65255 -7.49365,23.31355 -18.31781,43.29661c-10.82416,19.98307 6.661,29.97458 -10.82416,19.98307" data-paper-data="{&quot;fixed&quot;:true}" id="path6474 1" stroke="#000000" stroke-width="10.39811" stroke-miterlimit="4"/><path d="M164.02754,197.33263c-6.66104,21.64829 -23.31355,54.95338 -21.64829,57.45126c1.66514,2.49791 21.64829,4.16309 27.47671,0" data-paper-data="{&quot;fixed&quot;:true}" id="path6476 1" stroke="#000000" stroke-width="10.39811" stroke-miterlimit="4"/><path d="M137.38347,190.67161c14.15468,0.83277 0.83277,4.16309 18.31781,2.49791" data-paper-data="{&quot;fixed&quot;:true}" id="path6478 1" stroke="#000000" stroke-width="10.39811" stroke-miterlimit="4"/><path d="M192.24308,200.00982c14.15468,0.83277 0.83277,4.16309 18.31781,2.49791" data-paper-data="{&quot;fixed&quot;:true}" id="path6478-5 1" stroke="#000000" stroke-width="10.39811" stroke-miterlimit="4"/><path d="M149.87288,281.42796c35.46998,4.49608 39.96254,-0.38234 41.61108,-2.03102" data-paper-data="{&quot;fixed&quot;:true}" id="path6495 1" stroke="#000000" stroke-width="10.39811" stroke-miterlimit="4"/><path d="M53.45909,138.76135c17.62727,-13.98737 49.09044,-18.18182 71.22274,-18.18182" data-paper-data="{&quot;fixed&quot;:true}" stroke="#181818" stroke-width="5" stroke-miterlimit="10"/><path d="M126.91364,142.03409c9.87129,-20.04883 20.88348,-42.07327 27.94999,-63.27274c1.07023,-3.21069 6.30415,-25.33372 8.72728,-26.18182c2.69971,-0.9449 10.83954,14.61514 16.36363,16.72729c11.74013,4.48889 27.35353,-1.16497 36,-9.09091" data-paper-data="{&quot;fixed&quot;:true}" stroke="#181818" stroke-width="5" stroke-miterlimit="10"/><path d="M186.18637,62.03409c4.80289,-5.54345 9.47164,-8.79636 15.58637,-12.72726c5.43928,-3.49668 10.31179,-6.63916 16.72726,-8.00002c15.02984,-3.18815 29.21194,3.99944 34.18182,18.9091c2.29662,6.88987 0.88444,13.33227 1.45454,20.36362c1.38905,17.13163 8.05168,32.27547 24,39.63641" data-paper-data="{&quot;fixed&quot;:true}" stroke="#181818" stroke-width="5" stroke-miterlimit="10"/><path d="M124.73183,121.67044c3.61153,-0.24298 7.2474,-0.24077 10.85908,0" data-paper-data="{&quot;fixed&quot;:true}" stroke="#181818" stroke-width="5" stroke-miterlimit="10"/><path d="M57.09546,135.85226c-1.35,1.81819 -2.7,3.63637 -4.05,5.45456" data-paper-data="{&quot;fixed&quot;:true}" stroke="#181818" stroke-width="5" stroke-miterlimit="10"/><path d="M145.77274,124.57953c0.01667,0 0.03333,0 0.05,0" data-paper-data="{&quot;fixed&quot;:true}" stroke="#181818" stroke-width="5" stroke-miterlimit="10"/><path d="M125.82273,127.12503c12.48073,0 24.26428,-3.74732 36.67727,-4.72729c14.28198,-1.12753 28.60593,-0.39391 42.90909,-2.18179c5.63005,-0.70375 10.20537,-3.17567 15.63637,-4.36368c13.14806,-2.87609 26.30342,-2.54544 39.63638,-2.54544" data-paper-data="{&quot;fixed&quot;:true}" stroke="#181818" stroke-width="5" stroke-miterlimit="10"/><path d="M115.27727,139.85226c16.21794,3.43922 33.94699,1.90179 50.49546,1.45456c35.06419,-0.94763 71.43678,-5.53649 103.27272,-21.45456" data-paper-data="{&quot;fixed&quot;:true}" stroke="#181818" stroke-width="5" stroke-miterlimit="10"/></g></svg>