<svg version="1.1" xmlns="http://www.w3.org/2000/svg" xmlns:xlink="http://www.w3.org/1999/xlink" width="393" height="393"><g fill="none" fill-rule="nonzero" stroke="none" stroke-width="none" stroke-linecap="round" stroke-linejoin="round" stroke-miterlimit="none" stroke-dasharray="" stroke-dashoffset="0" font-family="none" font-weight="none" font-size="none" text-anchor="none" style="mix-blend-mode: normal"><path d="M154.15873,132.32522c-15.72086,17.72674 -29.08754,36.58488 -29.08754,36.58488c0,0 13.30462,-14.45387 18.21928,-9.73701c4.91466,4.71702 -18.90306,23.75665 -15.24824,27.26481c3.6549,3.50831 26.86992,45.53312 29.02144,52.57679" data-paper-data="{&quot;fixed&quot;:true}" id="path51862-6 1" stroke-opacity="0.93333" stroke="#000000" stroke-width="3.93" stroke-miterlimit="4"/><path d="M229.02099,122.39285c41.37058,37.08996 37.03298,31.56997 37.0046,33.64713c-0.03047,2.0774 -15.58049,-4.59397 -13.49676,-2.13595c2.08408,2.45782 21.95514,21.04955 20.39061,23.55846c-1.56453,2.50891 -88.1166,77.91566 -96.67376,80.22591c-8.55714,2.31005 -26.44324,6.94832 -31.01147,5.95175c-4.56855,-0.99665 78.00704,-115.54323 79.06543,-120.26477c1.05835,-4.72127 3.99025,-24.61493 3.99025,-24.61493" data-paper-data="{&quot;fixed&quot;:true}" id="path51864-1 1" stroke-opacity="0.93333" stroke="#000000" stroke-width="3.93" stroke-miterlimit="4"/><path d="M179.06217,204.34632c-11.57686,-36.05643 -19.94413,-69.24602 -23.91681,-71.63378" data-paper-data="{&quot;fixed&quot;:true}" id="path51866-0 1" stroke-opacity="0.93333" stroke="#000000" stroke-width="3.93" stroke-miterlimit="4"/><path d="M132.37623,156.39736c-36.32731,19.17309 -49.54072,26.47779 -49.94769,31.55971c-0.40676,5.08192 24.33232,67.39383 31.14156,74.03376c6.80908,6.63997 133.02832,7.05411 143.27922,-0.12126c10.25097,-7.17512 56.91231,-73.1437 54.09615,-79.27029c-2.8186,-6.12656 -38.61233,-21.71529 -46.46313,-26.13108" data-paper-data="{&quot;fixed&quot;:true}" id="path51868-6 1" stroke-opacity="0.93333" stroke="#000000" stroke-width="3.93" stroke-miterlimit="4"/><path d="M149.54136,266.95827c8.70416,9.25904 17.18907,17.02936 13.80786,21.59103c-3.38176,4.56187 -28.03855,20.96403 -28.03855,27.17626c0,6.2118 4.2806,25.29269 23.90517,30.89169c19.62469,5.6008 50.3569,11.59499 76.34065,-2.24875c23.10372,-12.30782 21.56957,-26.8208 15.68365,-37.09743c-4.45701,-7.78105 -21.74422,-16.00327 -23.04784,-18.34988c-1.30397,-2.34621 -2.89798,-13.50089 6.91452,-22.66671" data-paper-data="{&quot;fixed&quot;:true}" id="path51870-3 1" stroke-opacity="0.93333" stroke="#000000" stroke-width="3.93" stroke-miterlimit="4"/><path d="M154.91363,148.94318c5.09426,-5.68181 9.05483,-12.5453 12.67728,-19.27274" data-paper-data="{&quot;fixed&quot;:true}" stroke="#181818" stroke-width="5" stroke-miterlimit="10"/><path d="M160.00455,138.39774c7.05855,-15.42856 1.39493,-36.65646 -7.68635,-50.54547c-6.35239,-9.7154 -13.4286,-18.15099 -8.72728,-30.54544c8.96473,-23.6344 38.66795,-27.27274 60,-27.27274c8.18777,0 20.73411,-1.80906 26.18182,5.45454c16.79399,22.39196 -3.27274,58.32568 -3.27274,84.36363" data-paper-data="{&quot;fixed&quot;:true}" stroke="#181818" stroke-width="5" stroke-miterlimit="10"/><path d="M161.45909,63.48862c2.16515,0.12122 4.3303,0.24243 6.49546,0.36365" data-paper-data="{&quot;fixed&quot;:true}" stroke="#181818" stroke-width="5" stroke-miterlimit="10"/><path d="M191.64091,59.48862c3.83524,0.4549 7.75813,0.51045 11.58637,0" data-paper-data="{&quot;fixed&quot;:true}" stroke="#181818" stroke-width="5" stroke-miterlimit="10"/><path d="M167.2273,77.67044c0.01667,0 0.03333,0 0.05,0" data-paper-data="{&quot;fixed&quot;:true}" stroke="#181818" stroke-width="5" stroke-miterlimit="10"/><path d="M191.22728,75.85226c0.01667,0 0.03333,0 0.05,0" data-paper-data="{&quot;fixed&quot;:true}" stroke="#181818" stroke-width="5" stroke-miterlimit="10"/><path d="M180.36819,84.94318c-5.81023,12.30674 -6.98366,21.85517 8.31363,25.45456" data-paper-data="{&quot;fixed&quot;:true}" stroke="#181818" stroke-width="5" stroke-miterlimit="10"/><path d="M182.91365,136.21594c1.80151,0 3.60303,0 5.40454,0" data-paper-data="{&quot;fixed&quot;:true}" stroke="#181818" stroke-width="5" stroke-miterlimit="10"/><path d="M153.45909,44.57956c-12.80661,-21.0232 8.31376,-19.54553 21.04091,-21.81821c5.99385,-1.07032 8.95538,-6.31683 15.27274,-6.90909c7.2836,-0.68284 9.66178,5.51403 16.72726,4c4.71368,-1.01008 9.28791,-7.45013 14.90912,-5.81818c7.42247,2.15489 10.33484,17.748 12.72725,18.54547c5.37068,1.79023 9.82273,-7.8308 16.36363,-2.18184c4.111,3.55041 6.10809,18.14605 6.90913,23.27272c0.48652,3.11375 -1.15456,6.78498 -3.6364,8.72729c-1.37667,1.0774 -4.96103,1.2662 -4.36362,2.90909c0.67432,1.85439 3.88551,0.69301 5.81816,1.09091c6.768,1.39341 19.41452,3.28497 16.36365,13.45453c-1.66457,5.54854 -7.69656,10.39156 -12.72729,12.72726c-3.25579,1.51163 -10.54544,-1.40777 -10.54544,2.18182c0,1.7142 3.40165,0.43601 5.09093,0.72726c5.08539,0.87679 11.75496,1.57318 15.63634,5.45456c5.82494,5.82494 6.45281,16.42693 4.36368,24c-0.46152,1.673 -2.95799,3.17499 -2.18185,4.72726c1.71418,3.4284 7.92719,1.22792 10.90909,3.63638c7.32618,5.91732 2.58156,14.6731 -1.45453,20.72726" data-paper-data="{&quot;fixed&quot;:true}" stroke="#181818" stroke-width="5" stroke-miterlimit="10"/></g></svg>