<svg version="1.1" xmlns="http://www.w3.org/2000/svg" xmlns:xlink="http://www.w3.org/1999/xlink" width="471" height="471"><g fill="none" fill-rule="nonzero" stroke="none" stroke-width="none" stroke-linecap="round" stroke-linejoin="round" stroke-miterlimit="none" stroke-dasharray="" stroke-dashoffset="0" font-family="none" font-weight="none" font-size="none" text-anchor="none" style="mix-blend-mode: normal"><path d="M224.18558,225.1423c8.66871,62.63422 7.18072,91.35687 9.32684,132.24984" data-paper-data="{&quot;fixed&quot;:true}" id="path6204-9 1" stroke="#6b6b6b" stroke-width="14.13" stroke-miterlimit="4"/><path d="M149.44134,332.77799c29.33581,-18.34941 43.9223,-21.62921 80.22609,-38.65252c23.33117,3.30218 72.22326,2.54999 87.58752,-1.81618" data-paper-data="{&quot;fixed&quot;:true}" id="path6701-0 1" stroke="#6b6b6b" stroke-width="14.13" stroke-miterlimit="4"/><path d="M158.71436,260.87886c-6.70271,40.6952 -13.27853,81.04659 -19.83296,121.33987" data-paper-data="{&quot;fixed&quot;:true}" id="path6089 1" stroke="#939393" stroke-width="14.13" stroke-miterlimit="4"/><path d="M264.71791,263.92442c8.66871,62.63422 7.18072,91.35687 9.32684,132.24984" data-paper-data="{&quot;fixed&quot;:true}" id="path6204 1" stroke="#939393" stroke-width="14.13" stroke-miterlimit="4"/><path d="M315.34465,228.72714c3.48069,49.13456 6.34234,89.85719 9.32684,132.24984" data-paper-data="{&quot;fixed&quot;:true}" id="path6204-3 1" stroke="#939393" stroke-width="14.13" stroke-miterlimit="4"/><path d="M149.44134,332.77799c38.02133,9.30639 79.50232,4.25125 120.75842,0.1296c23.25473,-10.17341 38.55936,-18.77825 50.23934,-30.4412" data-paper-data="{&quot;fixed&quot;:true}" id="path6701 1" stroke="#939393" stroke-width="14.13" stroke-miterlimit="4"/><path d="M279.90678,263.68414c1.59245,3.20751 51.48205,-42.54609 41.64464,-58.34574c-7.45004,-11.96538 -87.51072,-16.32265 -115.80364,-3.32149c-23.85026,10.95956 -69.56183,36.72062 -62.87402,52.88873c6.68782,16.16811 138.36839,10.08863 137.033,8.77864" data-paper-data="{&quot;fixed&quot;:true}" id="path4651 1" stroke="#88201c" stroke-width="14.13" stroke-miterlimit="4"/><path d="M294.08842,212.99932c-21.12124,-2.69271 -43.1752,-3.55982 -64.992,-4.89105c-13.54963,3.54804 -50.55738,30.20033 -59.17818,36.7535c27.57404,1.6664 88.81743,-25.00652 110.72044,-11.43941" data-paper-data="{&quot;fixed&quot;:true}" id="path7896 1" stroke="#f00000" stroke-width="47.1" stroke-miterlimit="4"/><path d="M171.98693,255.43872c71.03541,9.60793 124.19638,1.8807 136.59542,-36.60273" data-paper-data="{&quot;fixed&quot;:true}" id="path7356 1" stroke="#661815" stroke-width="23.55" stroke-miterlimit="4"/><path d="M406.5,292.83333c0.01667,0 0.03333,0 0.05,0" data-paper-data="{&quot;fixed&quot;:true}" stroke="#181818" stroke-width="30" stroke-miterlimit="10"/></g></svg>