<svg version="1.1" xmlns="http://www.w3.org/2000/svg" xmlns:xlink="http://www.w3.org/1999/xlink" width="724" height="724"><g fill="none" fill-rule="nonzero" stroke="none" stroke-width="none" stroke-linecap="round" stroke-linejoin="round" stroke-miterlimit="4" stroke-dasharray="" stroke-dashoffset="0" font-family="none" font-weight="none" font-size="none" text-anchor="none" style="mix-blend-mode: normal"><path d="M218.62309,413.63568c148.96556,48.87 305.4697,31.3492 307.68496,10.2084c2.24006,-21.1408 -157.38512,-76.95396 -282.12798,-31.6388" data-paper-data="{&quot;fixed&quot;:true}" id="path27410-0-4 1" stroke="#5d5955" stroke-width="16.67056"/><path d="M378.02114,418.38512c-6.70786,-82.90524 -12.9407,-165.88288 0,-251.72756" data-paper-data="{&quot;fixed&quot;:true}" id="path31436-4 1" stroke="#a57213" stroke-width="25.96125"/><path d="M381.32353,271.47828c29.99995,-23.3852 57.51572,-23.4576 62.8794,-21.72" data-paper-data="{&quot;fixed&quot;:true}" id="path32263-7 1" stroke="#a57213" stroke-width="9.88374"/><path d="M362.45514,315.00516c-43.39424,-23.3128 -38.57544,-63.5672 -68.57706,-60.9608" data-paper-data="{&quot;fixed&quot;:true}" id="path32265-6 1" stroke="#a57213" stroke-width="9.88374"/><path d="M384.23727,166.35348c1.18446,-40.0372 38.1312,-57.8476 50.07039,-66.4632" data-paper-data="{&quot;fixed&quot;:true}" id="path32267-3 1" stroke="#a57213" stroke-width="12.78291"/><path d="M378.02114,166.65756c-20.71617,-32.7248 -30.65887,-37.286 -43.15149,-41.4852" data-paper-data="{&quot;fixed&quot;:true}" id="path32426-1 1" stroke="#a57213" stroke-width="12.78291"/><path d="M334.86869,125.13616c0,0 2.83301,-12.2356 -1.18591,-15.928c-4.01965,-3.62 -10.62803,-7.8192 -10.62803,-7.8192" data-paper-data="{&quot;fixed&quot;:true}" id="path32428-7 1" stroke="#a57213" stroke-width="6.19381"/><path d="M334.86869,125.13616c-38.67145,11.946 -39.94322,14.2628 -40.48355,17.014" data-paper-data="{&quot;fixed&quot;:true}" id="path32430-5 1" stroke="#a57213" stroke-width="6.19381"/><path d="M444.20635,249.72208c0,0 -2.83301,-12.2356 1.18374,-15.928c4.01965,-3.62 10.62803,-7.8192 10.62803,-7.8192" data-paper-data="{&quot;fixed&quot;:true}" id="path32428-3-9 1" stroke="#a57213" stroke-width="6.19381"/><path d="M444.20635,249.72208c38.67145,11.946 39.94257,14.2628 40.48289,17.014" data-paper-data="{&quot;fixed&quot;:true}" id="path32430-8-6 1" stroke="#a57213" stroke-width="6.19381"/><path d="M434.30495,99.90476c0,0 12.15017,4.344 17.3621,2.896c5.20484,-1.448 10.48953,3.62 10.48953,3.62" data-paper-data="{&quot;fixed&quot;:true}" id="path32428-9-2 1" stroke="#a57213" stroke-width="6.19381"/><path d="M378.02114,166.65756c0,0 10.62803,-13.9732 15.83996,-15.566c5.20484,-1.448 14.74636,2.896 14.74636,2.896" data-paper-data="{&quot;fixed&quot;:true}" id="path32428-9-8-1 1" stroke="#a57213" stroke-width="6.19381"/><path d="M434.30495,99.90476c8.97398,-39.458 -26.77772,-20.8512 -28.91265,-22.6612" data-paper-data="{&quot;fixed&quot;:true}" id="path32430-6-7 1" stroke="#a57213" stroke-width="6.19381"/><path d="M362.68902,223.8608c0,0 -1.31768,-13.8284 -5.27144,-17.5208c-4.01965,-3.62 -10.62781,-7.8192 -10.62781,-7.8192" data-paper-data="{&quot;fixed&quot;:true}" id="path32428-5-8 1" stroke="#a57213" stroke-width="6.19381"/><path d="M294.56471,252.65428c0,0 2.83301,-12.2356 -1.18591,-15.928c-4.01965,-3.62 -10.62803,-7.8192 -10.62803,-7.8192" data-paper-data="{&quot;fixed&quot;:true}" id="path32428-5-4-5 1" stroke="#a57213" stroke-width="6.19381"/><path d="M294.56471,252.65428c-28.41193,24.7608 -38.22336,16.3624 -40.47696,17.014" data-paper-data="{&quot;fixed&quot;:true}" id="path32430-0-7 1" stroke="#a57213" stroke-width="6.19381"/><path d="M245.25809,273.94712c-5.8644,15.6384 -19.67506,34.1728 -32.85968,37.648" data-paper-data="{&quot;fixed&quot;:true}" id="path34239-4 1" stroke="#1d810f" stroke-width="11.2016"/><path d="M245.25809,273.94712c-40.99751,11.8736 -33.53836,36.9964 -32.85968,37.648" data-paper-data="{&quot;fixed&quot;:true}" id="path34241-1 1" stroke="#1d810f" stroke-width="11.2016"/><path d="M251.59704,272.0792c-27.19286,17.8104 -35.31752,29.2496 -39.19866,39.5304" data-paper-data="{&quot;fixed&quot;:true}" id="path34237-8 1" stroke="#5ae733" stroke-width="3.95349"/><path d="M245.10609,265.70076c-15.73571,5.792 -38.77396,7.24 -49.94615,-0.70952" data-paper-data="{&quot;fixed&quot;:true}" id="path34239-5-9 1" stroke="#1d810f" stroke-width="11.20155"/><path d="M245.10609,265.70076c-35.58663,-23.6024 -49.88049,-1.448 -49.94615,-0.70952" data-paper-data="{&quot;fixed&quot;:true}" id="path34241-6-7 1" stroke="#1d810f" stroke-width="11.20155"/><path d="M254.08466,269.66104c-19.57942,-9.9188 -46.29089,-8.6156 -55.47686,-4.344" data-paper-data="{&quot;fixed&quot;:true}" id="path34237-1-5 1" stroke="#5ae733" stroke-width="3.95349"/><path d="M285.4104,138.18988c-15.73563,5.792 -38.77396,7.24 -49.94608,-0.70952" data-paper-data="{&quot;fixed&quot;:true}" id="path34239-5-3-8 1" stroke="#1d810f" stroke-width="11.20155"/><path d="M285.4104,138.18988c-35.58655,-23.6024 -49.88049,-1.448 -49.94608,-0.70952" data-paper-data="{&quot;fixed&quot;:true}" id="path34241-6-0-3 1" stroke="#1d810f" stroke-width="11.20155"/><path d="M294.38899,142.15016c-31.17754,-9.1948 -45.15385,-8.0364 -55.47686,-4.344" data-paper-data="{&quot;fixed&quot;:true}" id="path34237-1-4-1 1" stroke="#5ae733" stroke-width="3.95349"/><path d="M286.85406,148.43448c-1.95046,16.5796 -10.87607,37.8652 -22.8325,44.4536" data-paper-data="{&quot;fixed&quot;:true}" id="path34239-5-3-4-4 1" stroke="#1d810f" stroke-width="11.20155"/><path d="M286.85406,148.43448c-36.92711,21.4304 -23.6546,43.9468 -22.8325,44.4536" data-paper-data="{&quot;fixed&quot;:true}" id="path34241-6-0-7-3 1" stroke="#1d810f" stroke-width="11.20155"/><path d="M294.38859,142.15016c-22.10495,23.8196 -27.23883,36.924 -28.53378,47.784" data-paper-data="{&quot;fixed&quot;:true}" id="path34237-1-4-6-3 1" stroke="#5ae733" stroke-width="3.95349"/><path d="M273.03161,227.64732c-13.50752,9.8464 -35.19893,17.738 -48.11986,13.394" data-paper-data="{&quot;fixed&quot;:true}" id="path34239-1-3 1" stroke="#1d810f" stroke-width="11.2016"/><path d="M273.03161,227.64732c-40.79262,-12.5976 -48.3241,12.4528 -48.11986,13.394" data-paper-data="{&quot;fixed&quot;:true}" id="path34241-5-8 1" stroke="#1d810f" stroke-width="11.2016"/><path d="M282.76234,228.90708c-32.51035,-0.04344 -45.58304,5.068 -54.44567,11.5116" data-paper-data="{&quot;fixed&quot;:true}" id="path34237-9-6 1" stroke="#5ae733" stroke-width="3.95349"/><path d="M277.43319,220.66796c-16.2378,-3.62 -36.29231,-15.3488 -41.34214,-28.0188" data-paper-data="{&quot;fixed&quot;:true}" id="path34239-5-4-4 1" stroke="#1d810f" stroke-width="11.20155"/><path d="M277.43319,220.66796c-16.79434,-39.2408 -40.76547,-28.8152 -41.34214,-28.0188" data-paper-data="{&quot;fixed&quot;:true}" id="path34241-6-8-8 1" stroke="#1d810f" stroke-width="11.20155"/><path d="M278.80633,225.47532c-19.60389,-22.0096 -32.88546,-30.6252 -43.9754,-34.1004" data-paper-data="{&quot;fixed&quot;:true}" id="path34237-1-1-8 1" stroke="#5ae733" stroke-width="3.95349"/><path d="M313.3356,100.1292c-13.50752,9.8464 -35.19893,17.738 -48.11994,13.394" data-paper-data="{&quot;fixed&quot;:true}" id="path34239-1-4-89 1" stroke="#1d810f" stroke-width="11.2016"/><path d="M313.3356,100.1292c-40.79255,-12.5976 -48.32418,12.4528 -48.11994,13.394" data-paper-data="{&quot;fixed&quot;:true}" id="path34241-5-1-7 1" stroke="#1d810f" stroke-width="11.2016"/><path d="M323.06635,101.3962c-32.5105,-0.04344 -45.58304,5.068 -54.44574,11.5116" data-paper-data="{&quot;fixed&quot;:true}" id="path34237-9-8-76 1" stroke="#5ae733" stroke-width="3.95349"/><path d="M317.7372,93.15708c-16.2378,-3.62 -36.29231,-15.3488 -41.34221,-28.0188" data-paper-data="{&quot;fixed&quot;:true}" id="path34239-5-4-9-3 1" stroke="#1d810f" stroke-width="11.20155"/><path d="M317.7372,93.15708c-16.79441,-39.2408 -40.76554,-28.8152 -41.34214,-28.0188" data-paper-data="{&quot;fixed&quot;:true}" id="path34241-6-8-7-0 1" stroke="#1d810f" stroke-width="11.20155"/><path d="M323.06678,101.3962c-20.9939,-24.8332 -33.33202,-31.494 -43.9754,-34.1004" data-paper-data="{&quot;fixed&quot;:true}" id="path34237-1-1-5-30 1" stroke="#5ae733" stroke-width="3.95349"/><path d="M395.66273,75.97656c-13.50752,9.8464 -35.19885,17.738 -48.11994,13.394" data-paper-data="{&quot;fixed&quot;:true}" id="path34239-1-4-2-9 1" stroke="#1d810f" stroke-width="11.2016"/><path d="M395.66273,75.97656c-40.79262,-12.5976 -48.32418,12.4528 -48.11994,13.394" data-paper-data="{&quot;fixed&quot;:true}" id="path34241-5-1-1-2 1" stroke="#1d810f" stroke-width="11.2016"/><path d="M405.39412,77.24356c-32.5105,-0.04344 -45.58304,5.068 -54.44574,11.5116" data-paper-data="{&quot;fixed&quot;:true}" id="path34237-9-8-0-5 1" stroke="#5ae733" stroke-width="3.95349"/><path d="M400.06426,69.00444c-16.2378,-3.62 -36.29238,-15.3488 -41.34214,-28.0188" data-paper-data="{&quot;fixed&quot;:true}" id="path34239-5-4-9-1-0 1" stroke="#1d810f" stroke-width="11.20155"/><path d="M400.06426,69.00444c-16.79441,-39.2408 -40.76554,-28.8152 -41.34214,-28.0188" data-paper-data="{&quot;fixed&quot;:true}" id="path34241-6-8-7-1-5 1" stroke="#1d810f" stroke-width="11.20155"/><path d="M405.39387,77.24356c-20.99397,-24.8332 -33.33202,-31.494 -43.9754,-34.1004" data-paper-data="{&quot;fixed&quot;:true}" id="path34237-1-1-5-0-9 1" stroke="#5ae733" stroke-width="3.95349"/><path d="M490.94911,274.2874c-1.10555,16.652 3.79231,39.2408 14.35692,47.8564" data-paper-data="{&quot;fixed&quot;:true}" id="path34239-1-4-8-6 1" stroke="#1d810f" stroke-width="11.20155"/><path d="M490.94911,274.2874c32.40812,27.8016 15.2528,47.4944 14.35692,47.8564" data-paper-data="{&quot;fixed&quot;:true}" id="path34241-5-1-9-92 1" stroke="#1d810f" stroke-width="11.20155"/><path d="M484.68586,266.72884c17.392,27.4396 20.06197,41.268 19.35324,52.2004" data-paper-data="{&quot;fixed&quot;:true}" id="path34237-9-8-7-2 1" stroke="#5ae733" stroke-width="3.95349"/><path d="M494.4979,266.83744c12.00225,11.6564 32.37525,22.444 45.77599,19.9824" data-paper-data="{&quot;fixed&quot;:true}" id="path34239-5-4-9-6-4 1" stroke="#1d810f" stroke-width="11.20155"/><path d="M494.4979,266.83744c42.15056,-6.516 46.10903,19.1136 45.77599,19.9824" data-paper-data="{&quot;fixed&quot;:true}" id="path34241-6-8-7-4-7 1" stroke="#1d810f" stroke-width="11.20155"/><path d="M484.68586,266.72884c32.1986,4.344 44.42862,11.3668 52.30943,18.9688" data-paper-data="{&quot;fixed&quot;:true}" id="path34237-1-1-5-3-7 1" stroke="#5ae733" stroke-width="3.95349"/><path d="M468.41909,114.08068c-1.10555,16.652 3.79231,39.2408 14.35692,47.8564" data-paper-data="{&quot;fixed&quot;:true}" id="path34239-1-4-8-4-4 1" stroke="#1d810f" stroke-width="11.20155"/><path d="M468.41909,114.08068c32.40812,27.8016 15.2528,47.5668 14.35692,47.8564" data-paper-data="{&quot;fixed&quot;:true}" id="path34241-5-1-9-7-8 1" stroke="#1d810f" stroke-width="11.20155"/><path d="M462.15584,106.52936c17.392,27.4396 20.06197,41.268 19.35324,52.2004" data-paper-data="{&quot;fixed&quot;:true}" id="path34237-9-8-7-7-1 1" stroke="#5ae733" stroke-width="3.95349"/><path d="M471.96792,106.63796c12.00225,11.6564 32.37533,22.444 45.77606,19.9824" data-paper-data="{&quot;fixed&quot;:true}" id="path34239-5-4-9-6-5-2 1" stroke="#1d810f" stroke-width="11.20155"/><path d="M471.96792,106.63796c42.15056,-6.516 46.10895,19.1136 45.77606,19.9824" data-paper-data="{&quot;fixed&quot;:true}" id="path34241-6-8-7-4-4-8 1" stroke="#1d810f" stroke-width="11.20155"/><path d="M462.15584,106.52936c32.1986,4.344 44.42862,11.3668 52.30943,18.9688" data-paper-data="{&quot;fixed&quot;:true}" id="path34237-1-1-5-3-8-9 1" stroke="#5ae733" stroke-width="3.95349"/><path d="M410.25209,163.986c-9.2924,13.9008 -16.33018,35.9104 -11.48655,48.6528" data-paper-data="{&quot;fixed&quot;:true}" id="path34239-1-4-8-2-6 1" stroke="#1d810f" stroke-width="11.20155"/><path d="M410.25209,163.986c14.1757,40.2544 -10.54933,48.7976 -11.48662,48.6528" data-paper-data="{&quot;fixed&quot;:true}" id="path34241-5-1-9-8-8 1" stroke="#1d810f" stroke-width="11.20155"/><path d="M408.60454,154.31336c1.32782,32.5076 -3.24352,45.7568 -9.32432,54.8792" data-paper-data="{&quot;fixed&quot;:true}" id="path34237-9-8-7-9-0 1" stroke="#5ae733" stroke-width="3.95349"/><path d="M417.04803,159.30896c4.5822,16.0728 16.79868,35.6932 29.64816,40.182" data-paper-data="{&quot;fixed&quot;:true}" id="path34239-5-4-9-6-3-2 1" stroke="#1d810f" stroke-width="11.20155"/><path d="M417.04803,159.30896c39.87835,15.204 30.38266,39.6028 29.64816,40.182" data-paper-data="{&quot;fixed&quot;:true}" id="path34241-6-8-7-4-6-1 1" stroke="#1d810f" stroke-width="11.20155"/><path d="M408.60454,154.31336c25.63532,19.9824 32.7922,32.0732 35.81157,42.5712" data-paper-data="{&quot;fixed&quot;:true}" id="path34237-1-1-5-3-80-0 1" stroke="#5ae733" stroke-width="3.95349"/><path d="M461.5336,217.86608c-2.63608,-16.5072 0.08498,-39.3856 9.79094,-49.0148" data-paper-data="{&quot;fixed&quot;:true}" id="path34239-1-4-8-5-5 1" stroke="#1d810f" stroke-width="11.2016"/><path d="M461.5336,217.86608c29.6507,-30.6976 10.71361,-48.7252 9.79094,-49.0148" data-paper-data="{&quot;fixed&quot;:true}" id="path34241-5-1-9-9-1 1" stroke="#1d810f" stroke-width="11.2016"/><path d="M456.00862,225.97488c14.73304,-28.96 16.09698,-42.9332 14.3575,-53.7932" data-paper-data="{&quot;fixed&quot;:true}" id="path34237-9-8-7-4-1 1" stroke="#5ae733" stroke-width="3.95349"/><path d="M465.76704,224.9468c10.85196,-12.7424 30.11854,-25.4124 43.69188,-24.1816" data-paper-data="{&quot;fixed&quot;:true}" id="path34239-5-4-9-6-6-0 1" stroke="#1d810f" stroke-width="11.2016"/><path d="M465.76704,224.9468c42.59813,2.896 44.10702,-23.3852 43.69188,-24.1816" data-paper-data="{&quot;fixed&quot;:true}" id="path34241-6-8-7-4-9-8 1" stroke="#1d810f" stroke-width="11.2016"/><path d="M456.00862,225.97488c31.63409,-7.5296 43.16474,-15.4936 50.29447,-23.8196" data-paper-data="{&quot;fixed&quot;:true}" id="path34237-1-1-5-3-2-5 1" stroke="#5ae733" stroke-width="3.95349"/><path d="M337.024,197.24656c-13.50745,9.8464 -35.199,17.738 -48.11994,13.394" data-paper-data="{&quot;fixed&quot;:true}" id="path34239-1-4-8-0-0 1" stroke="#1d810f" stroke-width="11.2016"/><path d="M337.024,197.24656c-40.79327,-12.5976 -48.32418,12.4528 -48.11994,13.394" data-paper-data="{&quot;fixed&quot;:true}" id="path34241-5-1-9-3-6 1" stroke="#1d810f" stroke-width="11.2016"/><path d="M346.75539,198.50632c-32.51042,-0.04344 -45.58304,5.068 -54.44567,11.5116" data-paper-data="{&quot;fixed&quot;:true}" id="path34237-9-8-7-0-4 1" stroke="#5ae733" stroke-width="3.95349"/><path d="M341.42547,191.6428c-16.23541,-4.344 -36.29274,-15.3488 -41.33953,-28.0188" data-paper-data="{&quot;fixed&quot;:true}" id="path34239-5-4-9-6-9-6 1" stroke="#1d810f" stroke-width="11.2016"/><path d="M341.42547,190.2672c-16.79557,-39.2408 -40.7662,-28.8152 -41.33953,-28.0188" data-paper-data="{&quot;fixed&quot;:true}" id="path34241-6-8-7-4-2-2 1" stroke="#1d810f" stroke-width="11.2016"/><path d="M344.69564,195.76236c-20.99296,-24.8332 -33.33412,-31.494 -43.97525,-34.1004" data-paper-data="{&quot;fixed&quot;:true}" id="path34237-1-1-5-3-5-5 1" stroke="#5ae733" stroke-width="3.95349"/><path d="M248.61984,446.65732c128.2462,47.8564 236.45972,27.15 245.36422,23.7472" data-paper-data="{&quot;fixed&quot;:true}" id="path37562-8 1" stroke="#d74619" stroke-width="26.19465"/></g></svg>