<svg version="1.1" xmlns="http://www.w3.org/2000/svg" xmlns:xlink="http://www.w3.org/1999/xlink" width="724" height="724"><g fill="none" fill-rule="nonzero" stroke="none" stroke-width="none" stroke-linecap="round" stroke-linejoin="round" stroke-miterlimit="4" stroke-dasharray="" stroke-dashoffset="0" font-family="none" font-weight="none" font-size="none" text-anchor="none" style="mix-blend-mode: normal"><path d="M344.60799,346.0786c13.32515,96.2785 11.03789,140.42967 14.33679,203.2885" data-paper-data="{&quot;fixed&quot;:true}" id="path6204-9 1" stroke="#6b6b6b" stroke-width="21.72"/><path d="M229.71451,511.53135c45.09369,-28.20588 67.51539,-33.24746 123.31993,-59.41492c35.86363,5.07596 111.01834,3.91974 134.6356,-2.79174" data-paper-data="{&quot;fixed&quot;:true}" id="path6701-0 1" stroke="#6b6b6b" stroke-width="21.72"/><path d="M243.96857,401.01123c-10.3031,62.55483 -20.41115,124.58117 -30.48634,186.51818" data-paper-data="{&quot;fixed&quot;:true}" id="path6089 1" stroke="#939393" stroke-width="21.72"/><path d="M406.91246,405.69273c13.32515,96.2785 11.03789,140.42967 14.33679,203.2885" data-paper-data="{&quot;fixed&quot;:true}" id="path6204 1" stroke="#939393" stroke-width="21.72"/><path d="M484.73359,351.58907c5.35036,75.52743 9.74917,138.12443 14.33679,203.2885" data-paper-data="{&quot;fixed&quot;:true}" id="path6204-3 1" stroke="#939393" stroke-width="21.72"/><path d="M229.71451,511.53135c58.44468,14.30537 122.20739,6.53482 185.62441,0.19922c35.74612,-15.63811 59.27171,-28.86508 77.22565,-46.79284" data-paper-data="{&quot;fixed&quot;:true}" id="path6701 1" stroke="#939393" stroke-width="21.72"/><path d="M430.26011,405.32339c2.44784,4.93044 79.13589,-65.39993 64.01427,-89.68645c-11.45187,-18.39264 -134.51753,-25.09044 -178.00815,-5.10565c-36.66155,16.84654 -106.92732,56.44528 -96.64711,81.29818c10.28022,24.85289 212.69366,15.50779 210.64097,13.49413" data-paper-data="{&quot;fixed&quot;:true}" id="path4651 1" stroke="#88201c" stroke-width="21.72"/><path d="M452.05949,327.41297c-32.46662,-4.13911 -66.36698,-5.47199 -99.90278,-7.51831c-20.82789,5.45389 -77.71452,46.42259 -90.96604,56.49582c42.38557,2.56151 136.52616,-38.4389 170.19448,-17.58415" data-paper-data="{&quot;fixed&quot;:true}" id="path7896 1" stroke="#f00000" stroke-width="72.4"/><path d="M264.37056,392.6489c109.19243,14.76888 190.90909,2.89093 209.96833,-56.26407" data-paper-data="{&quot;fixed&quot;:true}" id="path7356 1" stroke="#661815" stroke-width="36.2"/></g></svg>