<svg version="1.1" xmlns="http://www.w3.org/2000/svg" xmlns:xlink="http://www.w3.org/1999/xlink" width="626" height="626"><g fill="none" fill-rule="nonzero" stroke="none" stroke-width="none" stroke-linecap="round" stroke-linejoin="round" stroke-miterlimit="4" stroke-dasharray="" stroke-dashoffset="0" font-family="none" font-weight="none" font-size="none" text-anchor="none" style="mix-blend-mode: normal"><path d="M296.62509,136.99706c-9.07224,12.39411 -62.75427,22.57995 -67.81119,26.10301c-4.9792,3.46867 -11.6595,35.95206 -5.65716,41.31838c6.00209,5.36607 29.18462,-6.55541 44.49026,6.49913c36.49824,31.13042 46.5811,65.21989 93.41092,-4.64617c4.26056,-4.40767 39.48833,8.39673 42.64756,4.11094c3.15817,-4.28497 10.16205,-33.63955 -0.78062,-39.82193c-10.94023,-6.18238 -65.91895,-22.44016 -70.32736,-31.01774c-4.40767,-8.57751 1.76094,-21.75694 -16.9276,-22.18757c-18.69073,-0.43051 -14.36939,5.38423 -15.90898,14.37227" data-paper-data="{&quot;fixed&quot;:true}" id="path25603-0 1" stroke="#f0d3a7" stroke-width="20.24584"/><path d="M313.80133,142.43575c-0.8282,16.34273 -70.77781,23.19011 -63.34211,44.77096c56.00008,6.0553 54.94965,77.58727 106.30869,20.94371c5.74668,-6.43828 24.05004,-15.8363 22.52004,-18.03875c-1.52869,-2.20227 -65.32431,-33.12948 -63.31346,-37.0612" data-paper-data="{&quot;fixed&quot;:true}" id="path25656-6 1" stroke="#f0d3a7" stroke-width="44.38396"/><path d="M312.0974,192.85077c-18.23626,12.7575 -10.26014,54.09253 -6.30451,54.47371c3.95382,0.38167 13.82847,-44.06376 14.23868,-50.3982c0.4112,-6.33449 -28.08405,2.52591 -27.49724,6.49456" data-paper-data="{&quot;fixed&quot;:true}" id="path25660-5 1" stroke="#f0d3a7" stroke-width="79.58526"/><path d="M207.26364,187.10614c-2.21479,13.07889 -2.26675,26.23353 0.6285,25.91596c2.89525,-0.31782 -0.93337,-15.75511 3.8042,-16.31149c4.73694,-0.55643 2.25673,14.90587 5.14509,13.28046c2.88774,-1.6251 -0.46466,-12.88408 5.50129,-8.69032c5.96641,4.19357 5.95952,11.48985 12.29827,6.24873c6.33919,-5.24087 6.82271,-5.67406 8.88263,-3.82048" data-paper-data="{&quot;fixed&quot;:true}" id="path27328-4 1" stroke="#0071d1" stroke-width="16.22285"/><path d="M242.15072,220.06569c46.10747,-4.28685 41.49679,-4.41142 54.40735,7.0999c9.17866,8.18401 67.96853,51.53032 65.16393,58.70572c-2.80448,7.17552 -4.38137,13.69043 -30.07304,11.18618c-25.69173,-2.504 -65.62783,-1.98442 -67.3957,-8.00585c-1.76782,-6.02149 -16.90613,-60.83568 -14.39074,-60.62409c2.51527,0.21171 31.6068,2.74188 39.54085,9.3848c7.93411,6.64286 59.624,42.9826 57.13452,45.52535c-2.4896,2.54281 -65.31741,3.59887 -69.1604,-0.21071c-3.84301,-3.80921 -18.58763,-34.1858 -13.10318,-39.18798c5.48439,-5.00237 58.76656,32.281 57.48032,32.281c-1.28643,0 -29.86314,0.14131 -34.44909,-1.94185c-4.58608,-2.08333 -9.8744,-11.26506 -8.24742,-15.33669c1.62697,-4.3845 10.91844,11.44065 14.4586,9.7549" data-paper-data="{&quot;fixed&quot;:true}" id="path27330-7 1" stroke="#0071d1" stroke-width="16.22285"/><path d="M328.47049,230.20553c18.79459,-15.03045 34.42124,-18.73781 44.60525,-15.71116c15.31528,4.55165 -0.07543,55.40958 -2.6004,56.75266c-2.5015,1.33025 -29.11952,-29.91028 -30.71845,-33.43022c-1.5988,-3.52 23.37547,-18.79402 24.27628,-14.44088c0.90081,4.3532 3.29965,29.02925 0.78751,27.60466c-2.51214,-1.42478 -17.28881,-10.39767 -11.87484,-14.91902c5.41365,-4.5216 4.12722,-2.30994 5.05495,1.07547" data-paper-data="{&quot;fixed&quot;:true}" id="path27332-6 1" stroke="#0071d1" stroke-width="16.22285"/><path d="M388.97545,200.70317c26.7903,-14.18491 33.29575,-23.57065 31.66727,-19.17551c-1.62885,4.39515 -5.33602,11.66664 -8.05787,13.44035c-2.72185,1.77346 -0.01509,9.90313 -5.39487,10.56782c-5.3811,0.66481 -16.79639,0.9847 -13.30025,-2.02323c3.49621,-3.00856 8.05174,-0.21976 11.57774,-4.18418" data-paper-data="{&quot;fixed&quot;:true}" id="path27334-5 1" stroke="#0071d1" stroke-width="16.22285"/><path d="M263.11964,307.84175c32.88704,3.33157 54.07714,4.9792 66.48258,4.00452c12.4055,-0.97406 31.31052,-1.41852 37.05469,-4.30876" data-paper-data="{&quot;fixed&quot;:true}" id="path27336-6 1" stroke="#0071d1" stroke-width="16.22285"/><path d="M210.60224,171.88348c2.54907,9.52396 2.71434,22.89113 30.92734,27.25617c28.21332,4.36447 34.94776,3.39292 48.66405,11.64642c13.71616,8.25343 73.43064,60.25482 78.84245,69.79668c12.29414,21.677 -9.53836,23.52439 -36.32321,24.77821c-26.63142,1.24386 -72.66645,-6.0434 -76.62556,-7.80578c-3.96008,-1.76094 -16.03474,-70.19076 -19.74222,-81.1041" data-paper-data="{&quot;fixed&quot;:true}" id="path553-6-9 1" stroke="#00095e" stroke-width="8.9764"/><path d="M212.29383,168.97095c-6.78759,7.84685 -15.82628,20.29517 -14.9321,24.40993c0.89831,4.1147 -1.94185,13.10894 2.47771,14.18441c4.41956,1.07609 0.97719,14.38617 5.40175,15.50389c4.42394,1.11741 21.72571,-7.62499 45.82996,-12.81291c24.10438,-5.18766 24.93377,-4.07902 33.67805,-0.63664" data-paper-data="{&quot;fixed&quot;:true}" id="path555-0-3 1" stroke="#00095e" stroke-width="8.9764"/><path d="M315.71748,228.62127c12.62799,-11.1495 22.76361,-23.2472 39.91852,-25.27901c17.15484,-2.03137 34.40984,2.80072 35.49332,17.17944c1.08611,14.37891 -16.12726,66.57425 -18.65856,74.5311" data-paper-data="{&quot;fixed&quot;:true}" id="path557-6-7 1" stroke="#00095e" stroke-width="8.9764"/><path d="M373.61555,202.20632c39.65854,-22.82978 41.35206,-22.15627 47.15326,-27.9442" data-paper-data="{&quot;fixed&quot;:true}" id="path559-2-4 1" stroke="#00095e" stroke-width="8.9764"/><path d="M420.24357,173.45049c8.36943,3.38228 18.94382,-2.76066 12.64639,7.59989c-6.29794,10.3608 -7.03906,4.8997 -7.21008,13.96005c-0.17046,9.06072 -7.01784,1.34277 -7.92441,10.44669c-0.90707,9.10517 -6.62321,14.36839 -28.83268,8.37388" data-paper-data="{&quot;fixed&quot;:true}" id="path561-6-5 1" stroke="#00095e" stroke-width="8.9764"/><path d="M254.0293,296.47495c4.98734,20.84818 2.69931,20.69844 8.54653,22.2548c5.84872,1.55561 99.56149,2.40947 105.92418,-3.07429c10.54747,-9.08965 6.80806,-13.4225 2.04577,-18.69173" data-paper-data="{&quot;fixed&quot;:true}" id="path563-1-2 1" stroke="#00095e" stroke-width="8.9764"/></g></svg>