<svg version="1.1" xmlns="http://www.w3.org/2000/svg" xmlns:xlink="http://www.w3.org/1999/xlink" width="626" height="626"><g fill="none" fill-rule="nonzero" stroke="none" stroke-width="none" stroke-linecap="round" stroke-linejoin="round" stroke-miterlimit="none" stroke-dasharray="" stroke-dashoffset="0" font-family="none" font-weight="none" font-size="none" text-anchor="none" style="mix-blend-mode: normal"><path d="M296.62509,136.99706c-9.07224,12.39411 -62.75427,22.57995 -67.81119,26.10301c-4.9792,3.46867 -11.6595,35.95206 -5.65716,41.31838c6.00209,5.36607 29.18462,-6.55541 44.49026,6.49913c36.49824,31.13042 46.5811,65.21989 93.41092,-4.64617c4.26056,-4.40767 39.48833,8.39673 42.64756,4.11094c3.15817,-4.28497 10.16205,-33.63955 -0.78062,-39.82193c-10.94023,-6.18238 -65.91895,-22.44016 -70.32736,-31.01774c-4.40767,-8.57751 1.76094,-21.75694 -16.9276,-22.18757c-18.69073,-0.43051 -14.36939,5.38423 -15.90898,14.37227" data-paper-data="{&quot;fixed&quot;:true}" id="path25603-0 1" stroke="#f0d3a7" stroke-width="20.24584" stroke-miterlimit="4"/><path d="M313.80133,142.43575c-0.8282,16.34273 -70.77781,23.19011 -63.34211,44.77096c56.00008,6.0553 54.94965,77.58727 106.30869,20.94371c5.74668,-6.43828 24.05004,-15.8363 22.52004,-18.03875c-1.52869,-2.20227 -65.32431,-33.12948 -63.31346,-37.0612" data-paper-data="{&quot;fixed&quot;:true}" id="path25656-6 1" stroke="#f0d3a7" stroke-width="44.38396" stroke-miterlimit="4"/><path d="M312.0974,192.85077c-18.23626,12.7575 -10.26014,54.09253 -6.30451,54.47371c3.95382,0.38167 13.82847,-44.06376 14.23868,-50.3982c0.4112,-6.33449 -28.08405,2.52591 -27.49724,6.49456" data-paper-data="{&quot;fixed&quot;:true}" id="path25660-5 1" stroke="#f0d3a7" stroke-width="79.58526" stroke-miterlimit="4"/><path d="M207.26364,187.10614c-2.21479,13.07889 -2.26675,26.23353 0.6285,25.91596c2.89525,-0.31782 -0.93337,-15.75511 3.8042,-16.31149c4.73694,-0.55643 2.25673,14.90587 5.14509,13.28046c2.88774,-1.6251 -0.46466,-12.88408 5.50129,-8.69032c5.96641,4.19357 5.95952,11.48985 12.29827,6.24873c6.33919,-5.24087 6.82271,-5.67406 8.88263,-3.82048" data-paper-data="{&quot;fixed&quot;:true}" id="path27328-4 1" stroke="#0071d1" stroke-width="16.22285" stroke-miterlimit="4"/><path d="M242.15072,220.06569c46.10747,-4.28685 41.49679,-4.41142 54.40735,7.0999c9.17866,8.18401 67.96853,51.53032 65.16393,58.70572c-2.80448,7.17552 -4.38137,13.69043 -30.07304,11.18618c-25.69173,-2.504 -65.62783,-1.98442 -67.3957,-8.00585c-1.76782,-6.02149 -16.90613,-60.83568 -14.39074,-60.62409c2.51527,0.21171 31.6068,2.74188 39.54085,9.3848c7.93411,6.64286 59.624,42.9826 57.13452,45.52535c-2.4896,2.54281 -65.31741,3.59887 -69.1604,-0.21071c-3.84301,-3.80921 -18.58763,-34.1858 -13.10318,-39.18798c5.48439,-5.00237 58.76656,32.281 57.48032,32.281c-1.28643,0 -29.86314,0.14131 -34.44909,-1.94185c-4.58608,-2.08333 -9.8744,-11.26506 -8.24742,-15.33669c1.62697,-4.3845 10.91844,11.44065 14.4586,9.7549" data-paper-data="{&quot;fixed&quot;:true}" id="path27330-7 1" stroke="#0071d1" stroke-width="16.22285" stroke-miterlimit="4"/><path d="M328.47049,230.20553c18.79459,-15.03045 34.42124,-18.73781 44.60525,-15.71116c15.31528,4.55165 -0.07543,55.40958 -2.6004,56.75266c-2.5015,1.33025 -29.11952,-29.91028 -30.71845,-33.43022c-1.5988,-3.52 23.37547,-18.79402 24.27628,-14.44088c0.90081,4.3532 3.29965,29.02925 0.78751,27.60466c-2.51214,-1.42478 -17.28881,-10.39767 -11.87484,-14.91902c5.41365,-4.5216 4.12722,-2.30994 5.05495,1.07547" data-paper-data="{&quot;fixed&quot;:true}" id="path27332-6 1" stroke="#0071d1" stroke-width="16.22285" stroke-miterlimit="4"/><path d="M388.97545,200.70317c26.7903,-14.18491 33.29575,-23.57065 31.66727,-19.17551c-1.62885,4.39515 -5.33602,11.66664 -8.05787,13.44035c-2.72185,1.77346 -0.01509,9.90313 -5.39487,10.56782c-5.3811,0.66481 -16.79639,0.9847 -13.30025,-2.02323c3.49621,-3.00856 8.05174,-0.21976 11.57774,-4.18418" data-paper-data="{&quot;fixed&quot;:true}" id="path27334-5 1" stroke="#0071d1" stroke-width="16.22285" stroke-miterlimit="4"/><path d="M263.11964,307.84175c32.88704,3.33157 54.07714,4.9792 66.48258,4.00452c12.4055,-0.97406 31.31052,-1.41852 37.05469,-4.30876" data-paper-data="{&quot;fixed&quot;:true}" id="path27336-6 1" stroke="#0071d1" stroke-width="16.22285" stroke-miterlimit="4"/><path d="M210.60224,171.88348c2.54907,9.52396 2.71434,22.89113 30.92734,27.25617c28.21332,4.36447 34.94776,3.39292 48.66405,11.64642c13.71616,8.25343 73.43064,60.25482 78.84245,69.79668c12.29414,21.677 -9.53836,23.52439 -36.32321,24.77821c-26.63142,1.24386 -72.66645,-6.0434 -76.62556,-7.80578c-3.96008,-1.76094 -16.03474,-70.19076 -19.74222,-81.1041" data-paper-data="{&quot;fixed&quot;:true}" id="path553-6-9 1" stroke="#00095e" stroke-width="8.9764" stroke-miterlimit="4"/><path d="M212.29383,168.97095c-6.78759,7.84685 -15.82628,20.29517 -14.9321,24.40993c0.89831,4.1147 -1.94185,13.10894 2.47771,14.18441c4.41956,1.07609 0.97719,14.38617 5.40175,15.50389c4.42394,1.11741 21.72571,-7.62499 45.82996,-12.81291c24.10438,-5.18766 24.93377,-4.07902 33.67805,-0.63664" data-paper-data="{&quot;fixed&quot;:true}" id="path555-0-3 1" stroke="#00095e" stroke-width="8.9764" stroke-miterlimit="4"/><path d="M315.71748,228.62127c12.62799,-11.1495 22.76361,-23.2472 39.91852,-25.27901c17.15484,-2.03137 34.40984,2.80072 35.49332,17.17944c1.08611,14.37891 -16.12726,66.57425 -18.65856,74.5311" data-paper-data="{&quot;fixed&quot;:true}" id="path557-6-7 1" stroke="#00095e" stroke-width="8.9764" stroke-miterlimit="4"/><path d="M373.61555,202.20632c39.65854,-22.82978 41.35206,-22.15627 47.15326,-27.9442" data-paper-data="{&quot;fixed&quot;:true}" id="path559-2-4 1" stroke="#00095e" stroke-width="8.9764" stroke-miterlimit="4"/><path d="M420.24357,173.45049c8.36943,3.38228 18.94382,-2.76066 12.64639,7.59989c-6.29794,10.3608 -7.03906,4.8997 -7.21008,13.96005c-0.17046,9.06072 -7.01784,1.34277 -7.92441,10.44669c-0.90707,9.10517 -6.62321,14.36839 -28.83268,8.37388" data-paper-data="{&quot;fixed&quot;:true}" id="path561-6-5 1" stroke="#00095e" stroke-width="8.9764" stroke-miterlimit="4"/><path d="M254.0293,296.47495c4.98734,20.84818 2.69931,20.69844 8.54653,22.2548c5.84872,1.55561 99.56149,2.40947 105.92418,-3.07429c10.54747,-9.08965 6.80806,-13.4225 2.04577,-18.69173" data-paper-data="{&quot;fixed&quot;:true}" id="path563-1-2 1" stroke="#00095e" stroke-width="8.9764" stroke-miterlimit="4"/><path d="M255.05,322c-4.76722,4.70836 -16.8031,15.89773 -20.05,21c-7.41012,11.64447 -10.12153,26.07177 -14,39c-2.62734,8.75779 -6.76806,17.07225 -9,26c-7.28612,29.14447 -11.23381,60.0553 -23,88c-6.01972,14.29684 -13.47888,28.75855 -23,41c-3.31727,4.26506 -6.44435,7.9629 -11,11c-1.61722,1.07814 -5.86923,1.26155 -5,3c0.90676,1.81353 3.98074,-0.81643 6,-1c3.65161,-0.33196 7.34047,-0.22872 11,0c20.2591,1.26619 39.94258,7.83304 60,11c53.04278,8.37518 106.65253,17.113 160,10c29.46304,-3.92841 39.90439,0.82171 65,-18" data-paper-data="{&quot;fixed&quot;:true}" stroke="#273582" stroke-width="30" stroke-miterlimit="10"/><path d="M372.05,308c28.12754,16.18851 27.55847,42.3016 29.95,71c1.22382,14.68587 3.73965,30.87182 7,45c1.60639,6.96101 1.94811,16.46023 5,23c9.97167,21.36787 36.50553,50.44936 54,66c5.91826,5.26067 13.54762,10.33844 21,13c2.28533,0.81619 5.91475,-0.17051 7,2c1.66667,3.33333 -7.74221,0.19012 -11,2c-12.03224,6.68458 -16.1581,9.23162 -30,12" data-paper-data="{&quot;fixed&quot;:true}" stroke="#273582" stroke-width="30" stroke-miterlimit="10"/><path d="M262.05,325c17.29687,3.49432 34.81247,11.59108 52.95,9c16.52534,-2.36076 32.05939,-10 49,-10" data-paper-data="{&quot;fixed&quot;:true}" stroke="#273582" stroke-width="30" stroke-miterlimit="10"/><path d="M255.05,340c-0.08582,8.58238 -4.95636,12.32332 -7.05,20c-4.3257,15.86091 -3.10222,34.52074 -11,49c-0.36957,0.67754 -6.74001,16 -7,16c-2.01329,0 -1.34756,-6.36585 1,-12c7.24404,-17.38569 17.55881,-32.07344 21,-51c1.02601,-5.64306 2.35575,-11.51918 4,-17c0.51581,-1.71935 2.99572,-6.49358 2,-5c-6.27105,9.40657 -12.95066,21.47172 -17,32c-1.8226,4.73877 -4,9.33333 -6,14c-0.83045,1.93773 -0.50929,7.49071 -2,6c-2.19371,-2.19371 3.27573,-11.55146 4,-13c2.95017,-5.90035 18.01136,-36.67424 23,-40c2.73158,-1.82105 -0.81507,9.79623 -4,9c-1.64893,-0.41223 -0.66667,-3.33333 -1,-5" data-paper-data="{&quot;fixed&quot;:true}" stroke="#6f83e8" stroke-width="6" stroke-miterlimit="10"/><path d="M269.05,335c-10.47799,6.22455 -14.69978,26.24889 -17.05,38c-0.4164,2.08199 -3.19471,15.39824 -5,16c-1.61245,0.53748 -1.1211,-3.30465 -1,-5c0.21896,-3.06537 1.25464,-6.01858 2,-9c2.50129,-10.00515 5.76304,-19.93368 8,-30c0.51131,-2.30089 0.42834,-4.71335 1,-7c0.43536,-1.74146 3.2693,-3.7307 2,-5c-1.17851,-1.17851 -2.20191,2.53684 -3,4c-1.21561,2.22862 -1.80537,4.76007 -3,7c-4.48676,8.41267 -9.43485,16.08712 -13,25" data-paper-data="{&quot;fixed&quot;:true}" stroke="#152fb8" stroke-width="13" stroke-miterlimit="10"/><path d="M254.05,350c-0.10432,14.60425 -5.68053,27.78319 -8.05,42c-0.77498,4.64991 -1.2832,9.34077 -2,14c-0.25845,1.67991 -1.98791,6.38308 -1,5c10.80956,-15.13338 19.4242,-37.34331 25,-55c0.64601,-2.0457 2.35007,-10.75033 3,-14c0.33333,-1.66667 2.41421,-4.05719 1,-5c-1.38675,-0.9245 -2.65211,2.01971 -4,3c-2.319,1.68655 -4.7272,3.25169 -7,5c-7.80021,6.00016 -13.87348,11.4558 -19,20c-0.89622,1.49371 -7.57032,15.64258 -9,16c-1.64893,0.41223 -1.15388,-3.30731 -1,-5c0.5267,-5.79371 3.83032,-12.15159 5,-18c0.66667,-3.33333 -1.39935,-10 2,-10c0.57874,0 0.19525,4.82849 -1,12c-1.64051,9.84304 -4.06387,19.45758 -7,29c-7.90191,25.68121 -17,48.58999 -17,76c0,1.66667 0.13841,-3.33909 0,-5c-0.39148,-4.69776 0.18691,-9.64857 2,-14c0.69041,-1.65697 1.33333,-3.33333 2,-5c0.66667,-1.66667 1.56464,-6.74146 2,-5c1.82367,7.29468 -3.88791,19.31172 -6,26c-6.57787,20.82993 -14.64492,40.76914 -25,60c-2.91466,5.41294 -4.13804,6.59663 -9,10c-1.5923,1.11461 -5,1.05635 -5,3c0,1.69967 3.31524,0.77536 5,1c3.32057,0.44274 6.68784,0.49816 10,1c16.77671,2.54193 33.76139,5.0035 50,10c22.46041,6.9109 42.57301,17.39585 66,21c27.43405,4.22062 69.95038,-4.69656 96,-14c11.89077,-4.2467 35.03898,-8.38531 43,-19c7.52406,-10.03208 -21.82918,-20.3518 -27,-27c-10.48495,-13.48065 -14.41994,-43.20644 -19,-60c-8.27524,-30.34253 -2.79892,-62.18486 -5,-93c-0.16796,-2.35148 -1.32654,-30.16327 -3,-31c-2.42195,-1.21098 -14.37805,8.45935 -16,9c-17.30087,5.76696 -36.98901,4 -55,4c-8.73536,0 -17.3357,0.27798 -26,1c-2.02058,0.16838 -3.98074,0.81643 -6,1c-1.65982,0.15089 -6.17851,1.17851 -5,0c2.13482,-2.13482 11.18868,-0.418 13,0c14.77461,3.40952 29.0105,7.27464 44,10c9.49388,1.72616 18.84212,3.25264 28,6c3.20868,0.9626 11.49815,-1.99629 10,1c-2.54065,5.0813 -15.20987,6.20165 -20,7c-18.70384,3.11731 -38.05722,2 -57,2c-5.34374,0 -10.672,-0.59015 -16,-1c-2.65881,-0.20452 -5.33333,0 -8,0c-2,0 -8,0 -6,0c29.1253,0 59.68977,8.78556 88,15c11.37207,2.49631 22.67866,5.28288 34,8c2.67284,0.64148 5.28323,1.58203 8,2c1.64729,0.25343 6.38675,-0.9245 5,0c-9.09651,6.06434 -45.86389,1.15532 -56,2c-23.59673,1.96639 -47.40888,6.30387 -71,9c-10.31447,1.1788 -20.67543,1.9132 -31,3c-2.01645,0.21226 -3.97942,0.83162 -6,1c-1.99309,0.16609 -6.89443,-1.78885 -6,0c1.08525,2.17051 4.6719,1.31527 7,2c13.34421,3.92477 26.71913,7.87835 40,12c10.44302,3.24094 21.09405,7.32216 32,9c3.311,0.50939 10,4.34996 10,1c0,-1.79505 -3.41613,-1.15527 -5,-2c-3.42997,-1.82932 -6.76557,-3.84371 -10,-6c-10.1216,-6.74773 -22.98613,-14.97457 -29,-26c-1.21561,-2.22862 -2.19723,-4.59168 -3,-7c-0.53748,-1.61245 -2.20185,-6.20185 -1,-5c2.10819,2.10819 2.48836,5.43021 4,8c1.82809,3.10775 4.85982,5.57947 6,9c0.52705,1.58114 -2.3657,-2.67314 -4,-3c-1.98821,-0.39764 -4.2894,-0.08856 -6,1c-15.52011,9.87643 -31.30567,42.94894 -40,59c-2.34408,4.32753 -4.70778,8.64478 -7,13c-1.04144,1.97874 -2.07471,3.96436 -3,6c-0.7428,1.63416 -2.49314,6.72599 -2,5c4.40863,-15.43022 13.06103,-29.15259 19,-44c2.09973,-5.24932 2.75369,-12 3,-12c1.43916,0 1.04047,18.02867 1,19c-0.7611,18.26643 -3.94748,43.93435 -16,59c-1.40434,1.75543 -11.29992,9.68755 -14,8c-5.02326,-3.13953 -3.59165,-9.91289 1,-12c11.4224,-5.192 30.18653,22.62694 26,31c-4.88897,9.77793 -18.8947,0.1053 -23,-4c-1.50923,-1.50923 -3.49077,-2.49077 -5,-4c-1.17851,-1.17851 -4.49071,-4.74536 -3,-4c5.07718,2.53859 8.5007,7.539 13,11c14.15007,10.88467 30.0726,21.84458 47,28c9.78936,3.55977 22.0916,-1.41715 32,-2c28.65771,-1.68575 52.74446,-1.45813 78,-17c4.18271,-2.57397 22.31628,-11.84653 23,-18c0.77216,-6.94948 -7.27176,-16.76402 -10,-23c-4.55475,-10.41087 -6.67237,-21.61368 -11,-32c-2.61493,-6.27582 -6.19582,-12.38467 -8,-19c-2.67695,-9.8155 -3.7395,-20.91602 -5,-31c-0.33333,-2.66667 -0.59136,-5.34383 -1,-8c-0.25845,-1.67991 0.20185,-6.20185 -1,-5c-4.42813,4.42813 -2.68853,15.17215 -3,20c-1.62251,25.14898 -2,49.73235 -2,75c0,9.43568 -0.72693,19.54989 0,29c0.26072,3.38933 -1.2249,11.07497 2,10c2,-0.66667 1.55827,-3.93861 2,-6c2.46316,-11.49474 2,-23.34012 2,-35c0,-3.66667 -3.66667,-11 0,-11c4.02768,0 3.19877,7.39753 5,11c2.57487,5.14973 11.92789,26.69592 15,29c3.62487,2.71865 6.73317,0.18794 10,-1c9.94445,-3.61616 25.86814,-16.10618 22,-29c-2.4583,-8.19435 -10.63859,-13.62653 -17,-18c-19.39204,-13.33203 -43.74416,-20.39532 -62,-35c-10.78419,-8.62735 -9.32161,-18.41208 -11,-31c-0.78292,-5.87191 -3.37836,-12.37836 -3,-12c4.25246,4.25246 7.62046,20.48186 9,26c3.54735,14.18941 12.98746,49.37932 9,64c-2.84265,10.42305 -12.41373,20.06307 -17,30c-2.74451,5.94644 -2.9943,10.81766 6,10c2.09953,-0.19087 3.92582,-1.62288 6,-2c1.63978,-0.29814 4.7643,1.64992 5,0c0.38006,-2.66041 -2.75302,-4.6194 -4,-7c-4.01246,-7.66015 -8.29816,-15.185 -12,-23c-6.04911,-12.77034 -12.10138,-27.35483 -16,-41c-1.11657,-3.90798 -1.60073,-11.80037 -6,-14c-4.20094,-2.10047 -24.05945,-1 -30,-1c-4.09535,0 -15.38586,-1.71061 -19,1c-3.87371,2.90528 -1.58473,25.60152 -2,31c-1.31087,17.0413 -7.10923,43.56308 -3,60c1.39515,5.58059 11.46903,15.6531 18,15c7.93854,-0.79385 7.21872,-9.11882 5,-14c-8.07513,-17.76528 -15.41586,-31.50486 -12,-52c1.05042,-6.30252 3.85281,-10.09522 6,-16c0.72046,-1.98126 -0.10819,-6 2,-6c3.87375,0 10.91949,15.29872 12,18c6.34947,15.87368 6.71909,31.59544 10,48c0.34045,1.70226 7.98692,19.99782 8,20c5.22255,0.87042 4.20329,-8.78025 4,-10c-1.41142,-8.46853 -6.87675,-16.50698 -9,-25c-1.99454,-7.97817 -1.54435,-15.99392 -3,-24c-0.28023,-1.54125 -3.73896,-16.65221 -2,-17c1.34315,-0.26863 7.0049,7.6732 8,9c7.13923,9.51898 12.66421,27.32473 16,39" data-paper-data="{&quot;fixed&quot;:true}" stroke="#152fb8" stroke-width="32" stroke-miterlimit="10"/><path d="M253.05,312c-18.61546,7.37246 -26.65209,25.40576 -33.05,43c-6.22779,17.12643 -9.23854,34.54132 -14,52c-1.74202,6.38739 -7.70315,9.25787 -10,15c-2.74543,6.86358 -2.33822,15.79896 -4,23c-3.00136,13.00589 -6.39029,25.95145 -9,39c-2.2227,11.11349 -15.94142,46.57657 -27,51c-3.15621,1.26249 -7.17157,0.11438 -10,2c-6.64361,4.42907 -10.9886,14.26283 -5,21c4.03176,4.53573 11.61533,6.56409 17,8c13.53345,3.60892 28.77555,7.42245 43,6c9.49976,-0.94998 20.40213,-4.39947 30,-2c7.87072,1.96768 14.01248,9.4025 22,11c10.64041,2.12808 19.76385,-2.97638 30,-4c9.93406,-0.99341 16.73036,3.31461 26,5c12.70652,2.31028 24.22372,-5.27763 37,-4c7.42228,0.74223 13.83432,5.20858 21,7c13.9384,3.4846 30.86992,1.00929 45,0c6.37445,-0.45532 14.30243,-0.83469 20,-4c6.32728,-3.51515 6.35108,-7.45036 14,-10c7.5809,-2.52697 13.89352,2.13831 15,2c10.08465,-1.26058 7.65299,-22.16325 15,-24c3.29785,-0.82446 6.6124,2.2823 10,2c7.33083,-0.6109 22.60951,-7.17148 19,-18c-2.23991,-6.71972 -14.68736,-6.87494 -20,-9c-5.33878,-2.13551 -12.69174,-9.45115 -16,-14c-6.41607,-8.82209 -8.74975,-20.54955 -14,-30c-7.00861,-12.6155 -15.40563,-21.62252 -19,-36c-5.43302,-21.7321 -7.5548,-44.21922 -13,-66c-3.37139,-13.48554 -2.79651,-28.99127 -8,-42c-2.28889,-5.72223 -21.8654,-24.30048 -28,-22c-5.82965,2.18612 -2.92205,12.58302 -1,16c11.70102,20.80181 14,26.55372 14,50c0,17.34446 12.18359,30.10155 15,47c3.78978,22.73869 1.34312,43.01761 13,64c5.61127,10.10028 14.21947,23.47965 24,30c3.50737,2.33825 11.64295,5.21347 11,11c-0.17214,1.54926 -6.30085,7.30085 -7,8c-8.84438,8.84438 -17.34419,15.21903 -28,22c-0.49459,0.31474 -8.77789,5.61105 -10,5c-4.4233,-2.21165 3.37522,-11.70912 4,-14c2.83958,-10.4118 -0.09121,-23.22803 -4,-33" data-paper-data="{&quot;fixed&quot;:true}" stroke="#152fb8" stroke-width="32" stroke-miterlimit="10"/><path d="M187,538c0.01667,0 0.03333,0 0.05,0" data-paper-data="{&quot;fixed&quot;:true}" stroke="#91a0ee" stroke-width="21" stroke-miterlimit="10"/><path d="M229,452c0.01667,0 0.03333,0 0.05,0" data-paper-data="{&quot;fixed&quot;:true}" stroke="#91a0ee" stroke-width="21" stroke-miterlimit="10"/></g></svg>