<svg version="1.1" xmlns="http://www.w3.org/2000/svg" xmlns:xlink="http://www.w3.org/1999/xlink" width="412.00003" height="412.00003"><g fill="none" fill-rule="nonzero" stroke="none" stroke-width="none" stroke-linecap="round" stroke-linejoin="round" stroke-miterlimit="4" stroke-dasharray="" stroke-dashoffset="0" font-family="none" font-weight="none" font-size="none" text-anchor="none" style="mix-blend-mode: normal"><path d="M195.22291,90.16421c-5.97087,8.15715 -41.30154,14.86092 -44.62973,17.17962c-3.27705,2.28289 -7.67367,23.66174 -3.72324,27.19357c3.95026,3.53166 19.20777,-4.31442 29.28113,4.27738c24.02121,20.48839 30.65721,42.92428 61.47812,-3.05786c2.80407,-2.90089 25.98913,5.52628 28.06837,2.7056c2.07854,-2.82014 6.68812,-22.13977 -0.51376,-26.20868c-7.20028,-4.06891 -43.38436,-14.76892 -46.28574,-20.41423c-2.90089,-5.64527 1.15896,-14.31927 -11.14085,-14.60268c-12.30125,-0.28334 -9.45717,3.54361 -10.47045,9.45907" data-paper-data="{&quot;fixed&quot;:true}" id="path25603-0 1" stroke="#f0d3a7" stroke-width="13.32474"/><path d="M206.52741,93.74366c-0.54508,10.75592 -46.58221,15.2625 -41.68842,29.46587c36.85629,3.98528 36.16495,51.06383 69.96675,13.78404c3.78216,-4.23734 15.82846,-10.42261 14.8215,-11.87215c-1.0061,-1.44942 -42.993,-21.80407 -41.66957,-24.39172" data-paper-data="{&quot;fixed&quot;:true}" id="path25656-6 1" stroke="#f0d3a7" stroke-width="29.21117"/><path d="M205.40597,126.92416c-12.00214,8.39631 -6.75268,35.60084 -4.14929,35.85171c2.60219,0.25119 9.10116,-29.00043 9.37115,-33.16942c0.27063,-4.16903 -18.48343,1.66242 -18.09722,4.27438" data-paper-data="{&quot;fixed&quot;:true}" id="path25660-5 1" stroke="#f0d3a7" stroke-width="52.3788"/><path d="M136.40994,123.14335c-1.45766,8.60783 -1.49185,17.26552 0.41365,17.05651c1.9055,-0.20917 -0.61429,-10.36918 2.50372,-10.73536c3.1176,-0.36621 1.48526,9.81026 3.38623,8.7405c1.90056,-1.06955 -0.30582,-8.47962 3.62066,-5.71951c3.92677,2.75999 3.92224,7.56201 8.09407,4.11258c4.17212,-3.44926 4.49035,-3.73437 5.84607,-2.51444" data-paper-data="{&quot;fixed&quot;:true}" id="path27328-4 1" stroke="#0071d1" stroke-width="10.67702"/><path d="M159.37077,144.83558c30.34549,-2.82138 27.31099,-2.90336 35.80804,4.67278c6.04091,5.38628 44.73329,33.91452 42.88744,38.63699c-1.84576,4.72255 -2.88359,9.01032 -19.79248,7.36215c-16.90893,-1.648 -43.19276,-1.30604 -44.35628,-5.26903c-1.16349,-3.96303 -11.12672,-40.03882 -9.47122,-39.89957c1.65542,0.13934 20.80192,1.80456 26.02369,6.17658c5.22181,4.37198 39.24135,28.28887 37.60291,29.96237c-1.63852,1.67354 -42.98846,2.36859 -45.51771,-0.13868c-2.52927,-2.50702 -12.23339,-22.49928 -8.62382,-25.79145c3.60953,-3.29229 38.67704,21.24565 37.8305,21.24565c-0.84666,0 -19.65434,0.093 -22.67257,-1.27802c-3.01831,-1.37114 -6.49881,-7.41406 -5.42802,-10.09379c1.07079,-2.88565 7.18594,7.52963 9.51588,6.42016" data-paper-data="{&quot;fixed&quot;:true}" id="path27330-7 1" stroke="#0071d1" stroke-width="10.67702"/><path d="M216.18187,151.50908c12.3696,-9.89224 22.65423,-12.33223 29.35681,-10.34025c10.0797,2.99565 -0.04965,36.46765 -1.71145,37.35159c-1.64635,0.8755 -19.16492,-19.68536 -20.21725,-22.002c-1.05225,-2.31668 15.38449,-12.36923 15.97736,-9.50422c0.59287,2.86505 2.17165,19.10551 0.5183,18.16792c-1.65336,-0.93771 -11.37858,-6.8432 -7.81539,-9.81891c3.56298,-2.97588 2.71632,-1.52028 3.3269,0.70782" data-paper-data="{&quot;fixed&quot;:true}" id="path27332-6 1" stroke="#0071d1" stroke-width="10.67702"/><path d="M256.00303,132.09219c17.63195,-9.33576 21.9135,-15.51295 20.84172,-12.6203c-1.07202,2.89265 -3.51189,7.67836 -5.30326,8.84572c-1.79138,1.1672 -0.00993,6.51772 -3.55062,6.95518c-3.54155,0.43754 -11.0545,0.64808 -8.75352,-1.33158c2.30102,-1.98007 5.29923,-0.14463 7.61986,-2.75381" data-paper-data="{&quot;fixed&quot;:true}" id="path27334-5 1" stroke="#0071d1" stroke-width="10.67702"/><path d="M173.1714,202.60513c21.6445,2.19266 35.59071,3.27705 43.75531,2.63556c8.16465,-0.64107 20.60692,-0.93359 24.38744,-2.8358" data-paper-data="{&quot;fixed&quot;:true}" id="path27336-6 1" stroke="#0071d1" stroke-width="10.67702"/><path d="M138.60724,113.1246c1.67766,6.26817 1.78643,15.06573 20.35474,17.93856c18.56851,2.87246 23.00077,2.23304 32.0281,7.66505c9.02725,5.43197 48.32816,39.65653 51.88992,45.93647c8.09135,14.26665 -6.27764,15.48251 -23.90601,16.3077c-17.52739,0.81864 -47.82521,-3.97745 -50.43088,-5.13735c-2.60631,-1.15896 -10.55322,-46.19584 -12.99329,-53.37842" data-paper-data="{&quot;fixed&quot;:true}" id="path553-6-9 1" stroke="#00095e" stroke-width="5.90779"/><path d="M139.72055,111.20773c-4.46723,5.16438 -10.41602,13.35721 -9.82752,16.06532c0.59122,2.70808 -1.27802,8.62761 1.6307,9.33543c2.90872,0.70823 0.64313,9.46821 3.55515,10.20384c2.9116,0.73542 14.29871,-5.01837 30.16285,-8.43278c15.86423,-3.41424 16.41008,-2.68459 22.16511,-0.419" data-paper-data="{&quot;fixed&quot;:true}" id="path555-0-3 1" stroke="#00095e" stroke-width="5.90779"/><path d="M207.78852,150.4664c8.31107,-7.33801 14.9818,-15.30007 26.27225,-16.6373c11.29041,-1.33694 22.64674,1.84329 23.35982,11.3066c0.71482,9.46343 -10.61411,43.81565 -12.28007,49.05242" data-paper-data="{&quot;fixed&quot;:true}" id="path557-6-7 1" stroke="#00095e" stroke-width="5.90779"/><path d="M245.89396,133.08149c26.10115,-15.02535 27.21573,-14.58208 31.03378,-18.39139" data-paper-data="{&quot;fixed&quot;:true}" id="path559-2-4 1" stroke="#00095e" stroke-width="5.90779"/><path d="M276.58205,114.15592c5.50832,2.22604 12.46782,-1.81692 8.32318,5.00185c-4.14497,6.81893 -4.63273,3.22472 -4.74529,9.18777c-0.11219,5.96329 -4.61877,0.88374 -5.21543,6.87546c-0.59699,5.99254 -4.35904,9.45651 -18.97614,5.51124" data-paper-data="{&quot;fixed&quot;:true}" id="path561-6-5 1" stroke="#00095e" stroke-width="5.90779"/><path d="M167.18862,195.1241c3.2824,13.72117 1.77654,13.62262 5.62487,14.64693c3.84932,1.02382 65.5261,1.58579 69.71368,-2.02333c6.94179,-5.98232 4.48071,-8.83398 1.34642,-12.30191" data-paper-data="{&quot;fixed&quot;:true}" id="path563-1-2 1" stroke="#00095e" stroke-width="5.90779"/></g></svg>