<svg version="1.1" xmlns="http://www.w3.org/2000/svg" xmlns:xlink="http://www.w3.org/1999/xlink" width="412.00003" height="412.00003"><g fill="none" fill-rule="nonzero" stroke="none" stroke-width="none" stroke-linecap="round" stroke-linejoin="round" stroke-miterlimit="none" stroke-dasharray="" stroke-dashoffset="0" font-family="none" font-weight="none" font-size="none" text-anchor="none" style="mix-blend-mode: normal"><path d="M208.15859,-4.64181c-10.26613,89.54695 -39.77704,172.23458 -46.07946,208.64644c-6.30986,36.45566 -5.12355,96.16505 -9.82847,108.16629c-4.79168,12.22264 -36.27219,38.00449 -68.94883,39.99659" data-paper-data="{&quot;fixed&quot;:true}" id="path631 1" stroke="#c4784d" stroke-width="25.86849" stroke-miterlimit="4"/><path d="M229.2622,3.37848c-12.06122,67.8451 -40.50931,180.41438 -45.44396,225.29971c-4.93473,44.88534 -5.72313,93.60564 -16.3323,100.69556c-10.60921,7.08994 -15.1506,13.84946 -43.25802,17.34537" data-paper-data="{&quot;fixed&quot;:true}" id="path15535 1" stroke="#c4784d" stroke-width="25.86849" stroke-miterlimit="4"/><path d="M246.78361,-3.00147c-12.06122,67.8451 -27.23415,148.46494 -32.16879,193.35028c-4.93473,44.88534 -36.51972,131.93502 -47.1289,139.02494c-10.60921,7.0899 -15.1506,13.84946 -43.25802,17.34537" data-paper-data="{&quot;fixed&quot;:true}" id="path15535-7 1" stroke="#c4784d" stroke-width="25.86849" stroke-miterlimit="4"/><path d="M81.36465,351.26852c32.67795,4.39843 84.74598,2.29278 89.30262,-4.11547c4.55656,-6.40854 39.91563,-128.21299 52.50322,-139.29464c17.43024,-15.34506 48.61445,-13.37043 52.06299,-30.39028c6.66406,-32.88988 -22.7101,-54.6884 -22.04324,-83.43916c0.6662,-28.75068 11.02957,-96.4713 11.02957,-96.4713" data-paper-data="{&quot;fixed&quot;:true}" id="path4202 1" stroke="#c4784d" stroke-width="25.86849" stroke-miterlimit="4"/><path d="M81.36474,351.26845c32.67795,4.39843 84.74598,2.29278 89.30262,-4.11547c4.55656,-6.40854 36.46864,-96.67011 49.0562,-107.75175c17.43024,-15.34506 73.48158,-35.05165 76.93012,-52.07148c6.66406,-32.88988 -44.13021,-64.55008 -43.46337,-93.30084c0.6662,-28.75068 26.434,-95.09832 26.434,-95.09832" data-paper-data="{&quot;fixed&quot;:true}" id="path18681 1" stroke="#c4784d" stroke-width="25.86849" stroke-miterlimit="4"/><path d="M239.63744,125.41632c17.36354,43.91676 -4.91372,49.91894 -4.91372,49.91894" data-paper-data="{&quot;fixed&quot;:true}" id="path18859 1" stroke="#c4784d" stroke-width="40.30221" stroke-miterlimit="4"/><path d="M258.38179,99.99188c-43.47164,16.65267 -86.06137,24.64366 -87.09178,32.98724c-1.03041,8.34358 34.61488,50.52379 30.71205,58.33508c-3.90288,7.81127 -44.33084,16.74385 -45.88479,25.27884c-1.55406,8.53499 44.46307,36.28212 57.23555,51.6007" data-paper-data="{&quot;fixed&quot;:true}" id="path567-6 1" stroke="#211108" stroke-width="19.45345" stroke-miterlimit="4"/><path d="M284.73038,139.66569c-69.19028,53.5167 -67.57434,46.16737 -68.32498,53.68686c-0.75066,7.51941 19.12628,25.21626 29.44189,36.30561" data-paper-data="{&quot;fixed&quot;:true}" id="path569-2 1" stroke="#211108" stroke-width="19.45345" stroke-miterlimit="4"/><path d="M258.02383,98.21878c31.68136,40.26287 52.6158,58.24711 48.49024,88.34591c-5.0161,36.59619 -75.9892,34.09683 -92.97264,80.81263" data-paper-data="{&quot;fixed&quot;:true}" id="path24733 1" stroke="#211108" stroke-width="19.45345" stroke-miterlimit="4"/><path d="M304.76967,185.63872c-3.01439,19.92563 -4.81736,40.07995 -8.03886,59.96051c-2.41286,14.89024 -8.46709,29.11616 -10.84213,43.97113c-2.39312,14.96801 -2.17031,30.06048 -3.42383,45.11313" data-paper-data="{&quot;fixed&quot;:true}" stroke="#181818" stroke-width="15" stroke-miterlimit="10"/><path d="M269.39021,230.75185c6.53306,29.18307 16.16859,56.83817 21.06353,86.229" data-paper-data="{&quot;fixed&quot;:true}" stroke="#181818" stroke-width="15" stroke-miterlimit="10"/><path d="M228.87509,266.72816c-6.92171,25.8682 -11.92212,57.01413 -28.01117,79.3764c-12.64141,17.57038 -61.26014,36.51191 -82.17162,31.40784c-14.99087,-3.65897 -23.41007,-15.57001 -32.52625,-26.83948" data-paper-data="{&quot;fixed&quot;:true}" stroke="#181818" stroke-width="15" stroke-miterlimit="10"/></g></svg>