<svg version="1.1" xmlns="http://www.w3.org/2000/svg" xmlns:xlink="http://www.w3.org/1999/xlink" width="661" height="661"><g fill="none" fill-rule="nonzero" stroke="none" stroke-width="none" stroke-linecap="round" stroke-linejoin="round" stroke-miterlimit="4" stroke-dasharray="" stroke-dashoffset="0" font-family="none" font-weight="none" font-size="none" text-anchor="none" style="mix-blend-mode: normal"><path d="M268.53719,310.14781c26.76257,50.236 30.82772,46.4022 31.59448,59.9527c0.79386,13.5505 56.71843,8.5269 65.35704,6.61c8.6392,-1.983 6.2134,-8.1964 5.949,-13.6166c-0.28157,-5.288 25.55294,-38.9329 28.61998,-46.7327" data-paper-data="{&quot;fixed&quot;:true}" id="path53808-0 1" stroke="#5d5955" stroke-width="16.72284"/><path d="M445.16635,100.72318c-19.69053,-20.5571 -194.46289,-5.949 -208.98644,3.966c-18.37514,12.0963 -120.38767,154.43604 -102.49645,182.77311c17.89261,28.3569 378.85524,25.9112 392.78259,6.7422c14.08128,-19.1029 -62.06354,-189.2443 -69.2693,-190.52664" data-paper-data="{&quot;fixed&quot;:true}" id="path52838-6 1" stroke="#eacd46" stroke-width="13.8806"/><path d="M391.60572,118.14714c51.24535,3.305 60.39293,-9.4523 62.01238,11.5675c1.38876,18.2436 -54.06121,0.05949 -51.80059,18.2436c2.3796,19.3012 54.01494,-13.7488 58.04638,5.288c3.8338,18.1775 -53.60512,9.1879 -48.7666,27.1671c5.2219,19.4334 54.42476,-20.2927 60.3731,-1.322c6.7621,21.8791 -64.77536,16.1284 -57.3325,37.7431c6.2795,18.3097 51.62212,-23.0028 57.89501,-4.627c4.9575,14.4759 -43.61741,10.7743 -38.46227,25.1841c5.949,16.7233 46.81004,-22.2757 53.03666,-5.949c10.8133,28.9518 -100.61003,34.3059 -76.01587,53.0122c11.74908,11.237 74.90866,-10.7082 84.06916,-14.6742" data-paper-data="{&quot;fixed&quot;:true}" id="path54109-2 1" stroke="#fcf3c6" stroke-width="13.8806"/></g></svg>