<svg version="1.1" xmlns="http://www.w3.org/2000/svg" xmlns:xlink="http://www.w3.org/1999/xlink" width="471" height="471"><g fill="none" fill-rule="nonzero" stroke="none" stroke-width="none" stroke-linecap="round" stroke-linejoin="round" stroke-miterlimit="none" stroke-dasharray="" stroke-dashoffset="0" font-family="none" font-weight="none" font-size="none" text-anchor="none" style="mix-blend-mode: normal"><path d="M54.26648,260.35755c0.4538,4.53903 31.77474,18.157 186.56307,17.70305c154.78832,-0.4538 166.59035,-8.17067 181.56984,-10.89423" data-paper-data="{&quot;fixed&quot;:true}" id="path933-8-2 1" stroke="#000000" stroke-width="6.97014" stroke-miterlimit="4"/><path d="M231.75103,276.69879c3.63141,-11.80204 4.08545,-13.16379 4.08545,-13.16379" data-paper-data="{&quot;fixed&quot;:true}" id="path935-7-9 1" stroke="#000000" stroke-width="6.97014" stroke-miterlimit="4"/><path d="M231.24525,277.53847c1.18551,-6.53032 2.54952,-10.85712 4.09723,-12.31255c1.54818,-1.45539 190.00221,-1.90943 190.71832,-16.33923" data-paper-data="{&quot;fixed&quot;:true}" id="path176-2-1 1" stroke="#000000" stroke-width="6.97014" stroke-miterlimit="4"/><path d="M66.85091,301.32942c14.15755,36.48107 45.44288,69.64028 69.3178,69.34687c23.87485,-0.29348 188.49949,-1.4276 205.73062,-0.61277c17.23121,0.81483 65.68103,-22.99507 66.41357,-60.63684" data-paper-data="{&quot;fixed&quot;:true}" id="path325-0-9 1" stroke="#000000" stroke-width="6.97014" stroke-miterlimit="4"/><path d="M105.95531,338.85569c6.11193,8.29855 19.53976,16.58579 33.48598,15.88391c13.94612,-0.70179 24.49624,-7.02233 26.48951,-12.6366" data-paper-data="{&quot;fixed&quot;:true}" id="path545-3-4 1" stroke="#000000" stroke-width="6.97014" stroke-miterlimit="4"/><path d="M136.1113,353.94136c0.22418,-26.73994 2.25232,-52.77892 0.54212,-55.30631c-1.7102,-2.52739 -3.48116,-0.49408 -5.16937,-6.05819c-1.68854,-5.56402 1.67111,-11.81433 5.01304,-10.24505c3.34175,1.56937 8.00813,4.13915 4.39867,10.60758c-3.60927,6.46867 -3.82593,3.31725 -3.53533,4.77123" data-paper-data="{&quot;fixed&quot;:true}" id="path547-7-7 1" stroke="#000000" stroke-width="6.97014" stroke-miterlimit="4"/><path d="M124.31165,296.1351c8.51276,0.12568 14.00825,0.84497 20.78914,1.20435" data-paper-data="{&quot;fixed&quot;:true}" id="path549-5-8 1" stroke="#000000" stroke-width="6.97014" stroke-miterlimit="4"/><path d="M53.35866,260.81149c6.35492,27.23548 5.44712,34.9522 10.44028,39.03747c4.99317,4.08545 90.78495,13.61774 177.48456,12.70994c86.69961,-0.90809 167.04422,-4.99317 171.58351,-9.53238c4.53903,-4.5395 9.07843,-30.86694 13.61774,-53.56317" data-paper-data="{&quot;fixed&quot;:true}" id="path939-9-3 1" stroke="#000000" stroke-width="6.97014" stroke-miterlimit="4"/><path d="M330.55,260.83333c-0.06655,-18.6333 -2.45745,-35.63094 -3.05,-54c-0.81633,-25.30636 0.32458,-51.06564 -3,-76c-0.94509,-7.08817 -2,-23.84811 -2,-31c0,-0.56534 1.08231,-18 1,-18c-3.60555,0 -6.0149,3.97783 -9,6c-7.34835,4.97791 -14.89945,9.67459 -22,15c-9.08234,6.81175 -17.63114,14.32855 -26,22c-4.16997,3.82248 -7.75828,8.2573 -12,12c-4.68792,4.1364 -10.85202,4.14798 -10,5c1.43372,1.43372 3.97757,-0.85554 6,-1c9.72137,-0.69438 18.41525,-3.72203 28,-5c5.77267,-0.76969 14.17622,-1.83197 20,-1c2.72111,0.38873 5.2956,2.49171 8,2c1.63978,-0.29814 3,-2.33333 3,-4c0,-4.21842 -8.35756,-6.10412 -10,-7c-5.57864,-3.04289 -6,-5.43821 -6,-13c0,-2.10819 4.10819,-6 2,-6c-2.23607,0 -3,3.76393 -3,6c0,1.66667 1.75432,-2.89273 3,-4c3.54089,-3.14746 7.65004,-5.65004 11,-9" data-paper-data="{&quot;fixed&quot;:true}" stroke="#181818" stroke-width="30" stroke-miterlimit="10"/></g></svg>