<svg version="1.1" xmlns="http://www.w3.org/2000/svg" xmlns:xlink="http://www.w3.org/1999/xlink" width="412" height="412"><g fill="none" fill-rule="nonzero" stroke-opacity="0.93333" stroke="#000000" stroke-width="4.12" stroke-linecap="round" stroke-linejoin="round" stroke-miterlimit="4" stroke-dasharray="" stroke-dashoffset="0" font-family="none" font-weight="none" font-size="none" text-anchor="none" style="mix-blend-mode: normal"><path d="M161.61169,138.72262c-16.48091,18.58375 -30.49381,38.35362 -30.49381,38.35362c0,0 13.94785,-15.15266 19.10011,-10.20775c5.15227,4.94507 -19.81695,24.90519 -15.98544,28.58295c3.8316,3.67792 28.16898,47.73446 30.42451,55.11867" data-paper-data="{&quot;fixed&quot;:true}" id="path51862-6 1"/><path d="M240.09326,128.31006c43.37068,38.88312 38.82338,33.09625 38.79363,35.27383c-0.03194,2.17783 -16.33374,-4.81607 -14.14927,-2.23922c2.18484,2.57665 23.01659,22.06721 21.37641,24.69742c-1.64017,2.63021 -92.37669,81.68258 -101.34756,84.10452c-8.97085,2.42174 -27.72167,7.28424 -32.51076,6.23949c-4.78942,-1.04483 81.77837,-121.12929 82.88794,-126.0791c1.10952,-4.94952 4.18316,-25.80496 4.18316,-25.80496" data-paper-data="{&quot;fixed&quot;:true}" id="path51864-1 1"/><path d="M187.71912,214.22566c-12.13655,-37.79962 -20.90834,-72.59379 -25.0731,-75.097" data-paper-data="{&quot;fixed&quot;:true}" id="path51866-0 1"/><path d="M138.7761,163.95855c-38.08359,20.10004 -51.93582,27.75788 -52.36246,33.0855c-0.42642,5.32761 25.50869,70.65205 32.64713,77.613c7.13827,6.96099 139.45971,7.39515 150.2062,-0.12712c10.74657,-7.52201 59.66379,-76.67991 56.71148,-83.1027c-2.95486,-6.42275 -40.47908,-22.76514 -48.70944,-27.39442" data-paper-data="{&quot;fixed&quot;:true}" id="path51868-6 1"/><path d="M156.7711,279.86465c9.12498,9.70668 18.0201,17.85266 14.47541,22.63487c-3.54526,4.78241 -29.3941,21.97756 -29.3941,28.49013c0,6.51211 4.48755,26.5155 25.06089,32.38518c20.57347,5.87158 52.79146,12.15557 80.03142,-2.35746c24.2207,-12.90285 22.61237,-28.11748 16.44189,-38.89095c-4.67249,-8.15723 -22.79547,-16.77697 -24.16211,-19.23702c-1.36702,-2.45964 -3.03809,-14.1536 7.24881,-23.76255" data-paper-data="{&quot;fixed&quot;:true}" id="path51870-3 1"/></g></svg>