<svg version="1.1" xmlns="http://www.w3.org/2000/svg" xmlns:xlink="http://www.w3.org/1999/xlink" width="661" height="661"><g fill="none" fill-rule="nonzero" stroke="none" stroke-width="none" stroke-linecap="round" stroke-linejoin="round" stroke-miterlimit="none" stroke-dasharray="" stroke-dashoffset="0" font-family="none" font-weight="none" font-size="none" text-anchor="none" style="mix-blend-mode: normal"><path d="M268.53719,310.14781c11.81828,22.18408 19.21037,33.82411 23.84684,41.07336" data-paper-data="{&quot;fixed&quot;:true}" id="path53808-0 1 1" stroke="#5d5955" stroke-width="16.72284" stroke-miterlimit="4"/><path d="M378.6291,349.46695c7.80756,-12.02632 19.43375,-28.03268 21.42858,-33.10574" data-paper-data="{&quot;fixed&quot;:true}" id="path53808-0 1 1" stroke="#5d5955" stroke-width="16.72284" stroke-miterlimit="4"/><path d="M445.16635,100.72318c-19.69053,-20.5571 -194.46289,-5.949 -208.98644,3.966c-18.37514,12.0963 -120.38767,154.43604 -102.49645,182.77311c17.89261,28.3569 378.85524,25.9112 392.78259,6.7422c14.08128,-19.1029 -62.06354,-189.2443 -69.2693,-190.52664" data-paper-data="{&quot;fixed&quot;:true}" id="path52838-6 1" stroke="#eacd46" stroke-width="13.8806" stroke-miterlimit="4"/><path d="M391.60572,118.14714c51.24535,3.305 60.39293,-9.4523 62.01238,11.5675c1.38876,18.2436 -54.06121,0.05949 -51.80059,18.2436c2.3796,19.3012 54.01494,-13.7488 58.04638,5.288c3.8338,18.1775 -53.60512,9.1879 -48.7666,27.1671c5.2219,19.4334 54.42476,-20.2927 60.3731,-1.322c6.7621,21.8791 -64.77536,16.1284 -57.3325,37.7431c6.2795,18.3097 51.62212,-23.0028 57.89501,-4.627c4.9575,14.4759 -43.61741,10.7743 -38.46227,25.1841c5.949,16.7233 46.81004,-22.2757 53.03666,-5.949c10.8133,28.9518 -100.61003,34.3059 -76.01587,53.0122c11.74908,11.237 74.90866,-10.7082 84.06916,-14.6742" data-paper-data="{&quot;fixed&quot;:true}" id="path54109-2 1" stroke="#fcf3c6" stroke-width="13.8806" stroke-miterlimit="4"/><path d="M293.55,358c10.27843,2.07645 12.26696,16.21131 20.95,22c5.3759,3.58393 34.20494,6.57558 40,4c3.29479,-1.46435 6.11556,-3.83667 9,-6c4.92827,-3.6962 6.82076,-13.55189 9,-19" data-paper-data="{&quot;fixed&quot;:true}" stroke-opacity="0.59" stroke="#181818" stroke-width="15" stroke-miterlimit="10"/><path d="M333.55,391c-0.16058,16.05835 3.27891,32.05303 1.95,48c-1.55279,18.63345 -5,37.22399 -5,56" data-paper-data="{&quot;fixed&quot;:true}" stroke-opacity="0.59" stroke="#142367" stroke-width="15" stroke-miterlimit="10"/><path d="M324.55,393c-0.27741,27.74087 -2.05,55.13522 -2.05,83c0,4.89189 0.48649,10.13514 0,15c-0.16912,1.69124 -1.84327,3.52427 -1,5c0.8906,1.55854 3.43084,1.12824 5,2c1.45693,0.8094 2.33333,3 4,3c8.95312,0 9.24296,-20.07924 10,-25c2.27752,-14.8039 4.50886,-30.91138 3,-46c-1.21678,-12.16785 -4.48071,-22.59644 -2,-35" data-paper-data="{&quot;fixed&quot;:true}" stroke-opacity="0.59" stroke="#142367" stroke-width="15" stroke-miterlimit="10"/><path d="M320.55,500c-11.63703,-8.62002 -24.05865,-4.36206 -37.05,-2c-4.38535,0.79734 -17.01379,-1.1807 -20,3c-1.50462,2.10646 1.00154,8.50231 2,10c7.68905,11.53357 21.99659,11 34,11c28.2789,0 46.63424,10.16256 74,-2c3.44067,-1.52919 12.64301,-2.70021 15,-6c6.81371,-9.53919 -14.61874,-14.20341 -19,-15c-12.4979,-2.27235 -24.44098,-5.7441 -37,-7c-10.1285,-1.01285 -20.76585,1 -31,1c-5.72436,0 -24.04227,-1.8098 -26,7c-1.27462,5.73581 7.56758,8.62703 11,10c14.87316,5.94927 37.04337,2 53,2c8.33333,0 16.66667,0 25,0c3.66667,0 11,3.66667 11,0c0,-6.71299 -11.67353,-8.82005 -16,-10c-14.13293,-3.85444 -30.27823,-2 -45,-2c-5.90496,0 -9.45535,1.89107 -15,3c-1.6343,0.32686 -4.47295,-1.58114 -5,0c-0.52705,1.58114 2.41886,2.47295 4,3c5.87357,1.95786 14.80392,-0.44258 21,0c10.24211,0.73158 21.86037,2.76535 32,0c4.37724,-1.19379 12.28747,-1.56267 11,-8c-2.30884,-11.54418 -15.22556,-8 -23,-8c-19.17353,0 -37.69267,4 -57,4c-7.52287,0 -20.90428,-1.95717 -22,9c-0.97649,9.76486 17.16915,16.58457 24,20c24.02573,12.01287 52.43284,9 79,9c6.97627,0 24.53113,-4.59338 27,-12c6.36467,-19.09402 -7.91133,-22.76453 -21,-28c-16.67386,-6.66954 -33.4677,-5.59385 -51,-4c-10.04476,0.91316 -20.01786,-0.81494 -30,1c-10.73662,1.95211 -27.61104,5.11041 -29,19c-1.22206,12.22059 14.01761,19.27753 24,22c9.59714,2.6174 21.12394,1 31,1c20.63201,0 49.95972,1.61611 69,-6" data-paper-data="{&quot;fixed&quot;:true}" stroke-opacity="0.59" stroke="#142367" stroke-width="15" stroke-miterlimit="10"/><path d="M251.55,506c-0.10087,10.08702 3.04595,21.71216 -0.05,31" data-paper-data="{&quot;fixed&quot;:true}" stroke-opacity="0.59" stroke="#142367" stroke-width="5" stroke-miterlimit="10"/><path d="M397.55,512c-0.09495,9.49528 -1.18863,20.69316 -3.05,30" data-paper-data="{&quot;fixed&quot;:true}" stroke-opacity="0.59" stroke="#142367" stroke-width="5" stroke-miterlimit="10"/><path d="M250.55,541c8.19241,6.22208 17.71331,11.95266 27.95,14c17.94872,3.58974 38.05128,-3.58974 56,0c7.4073,1.48146 13.15569,4 21,4c8.58807,0 18.98883,-0.43948 27,-4c3.04604,-1.35379 8.80845,-2.76619 8,-6c-0.41223,-1.64893 -3.32774,-1.30405 -5,-1c-0.39307,0.07147 -32.39484,10.63948 -16,9c1.78615,-0.17861 3.31302,-1.38655 5,-2c1.98126,-0.72046 4.11438,-1.05719 6,-2c3.06956,-1.53478 5.81358,-3.72543 9,-5" data-paper-data="{&quot;fixed&quot;:true}" stroke-opacity="0.59" stroke="#142367" stroke-width="5" stroke-miterlimit="10"/><path d="M392.5,548c0.01667,0 0.03333,0 0.05,0" data-paper-data="{&quot;fixed&quot;:true}" stroke-opacity="0.59" stroke="#142367" stroke-width="5" stroke-miterlimit="10"/><path d="M392.55,541c0.31667,1.66667 0.63333,3.33333 0.95,5" data-paper-data="{&quot;fixed&quot;:true}" stroke-opacity="0.59" stroke="#142367" stroke-width="5" stroke-miterlimit="10"/><path d="M254.55,531c8.40118,21.54148 26.04512,14 43.95,14c10.13627,0 19.95872,3.08716 30,4c8.97854,0.81623 17.99375,-1 27,-1c6.6123,0 32.37825,0.2435 36,-7c0.80277,-1.60555 -0.29706,-4.43235 -2,-5c-3.16228,-1.05409 -5.08614,4.38119 -8,6c-6.69851,3.7214 -12.59106,4 -20,4c-16.3719,0 -33.70437,1.62956 -50,0c-8.98439,-0.89844 -16.96111,-5.17828 -26,-6c-5.16865,-0.46988 -10.01173,1 -15,1c-3.31226,0 -20.88909,-12.48121 -19,-15c3.64003,-4.85337 17.09824,13.09824 19,15c6.77628,6.77628 18.90731,10.27219 28,13c9.55075,2.86522 21.32214,0.96779 31,0c13.36138,-1.33614 26.52392,3.34761 40,2c5.06943,-0.50694 18.6817,-11.54642 18,-17c-0.76094,-6.08748 -7.48779,-1.45366 -9,-1c-8.57746,2.57324 -17.99702,7.0997 -27,8c-19.41567,1.94157 -38.87009,-2 -58,-2" data-paper-data="{&quot;fixed&quot;:true}" stroke-opacity="0.59" stroke="#b2a31d" stroke-width="12" stroke-miterlimit="10"/><path d="M251.55,544c16.26345,13.14218 34.15289,13.02029 53.95,15c6.87309,0.68731 13.01386,4.30139 20,5c9.77486,0.97749 20.13969,0 30,0c6.2684,0 30.6799,-5.68784 34,-11c4.52408,-7.23853 2.64949,-24.12372 7,-35" data-paper-data="{&quot;fixed&quot;:true}" stroke-opacity="0.59" stroke="#1d28b2" stroke-width="9" stroke-miterlimit="10"/><path d="M252.55,544c-0.08367,-8.36699 3.59305,-16.78473 1.95,-25c-0.70408,-3.52039 -0.59412,-11.13529 -4,-10c-1.50872,0.50291 -0.80706,9.84235 -1,11c-2.11977,12.71864 -1.87332,19.81669 3,32" data-paper-data="{&quot;fixed&quot;:true}" stroke-opacity="0.59" stroke="#1d28b2" stroke-width="9" stroke-miterlimit="10"/><path d="M253.55,552c10.56257,4.2677 19.85933,4.89093 30.95,6c13.55409,1.35541 25.96026,7 40,7" data-paper-data="{&quot;fixed&quot;:true}" stroke-opacity="0.59" stroke="#1d28b2" stroke-width="9" stroke-miterlimit="10"/><path d="M398.55,524c12.75091,0 33.31609,-4.90848 44.95,-2c7.05724,1.76431 14.99547,8.62104 20,13c9.28047,8.12041 42.90884,24.03799 55,19c12.88322,-5.36801 17.01252,-26.48122 10,-37c-4.34118,-6.51178 -12.55469,-7.33204 -17,-14c-9.86523,-14.79785 2.57269,-25.83565 16,-31c7.244,-2.78615 15.42503,-2.73751 23,-4" data-paper-data="{&quot;fixed&quot;:true}" stroke-opacity="0.59" stroke="#0f0f11" stroke-width="4" stroke-miterlimit="10"/></g></svg>