<svg version="1.1" xmlns="http://www.w3.org/2000/svg" xmlns:xlink="http://www.w3.org/1999/xlink" width="661" height="661"><g fill="none" fill-rule="nonzero" stroke="none" stroke-width="none" stroke-linecap="round" stroke-linejoin="round" stroke-miterlimit="none" stroke-dasharray="" stroke-dashoffset="0" font-family="none" font-weight="none" font-size="none" text-anchor="none" style="mix-blend-mode: normal"><path d="M259.28478,222.56226c-26.44145,29.8152 -48.92332,61.53335 -48.92332,61.53335c0,0 22.37749,-24.31046 30.64363,-16.377c8.26614,7.93372 -31.7937,39.95712 -25.64654,45.8576c6.1473,5.90075 45.19343,76.58369 48.81214,88.43068" data-paper-data="{&quot;fixed&quot;:true}" id="path51862-6 1" stroke-opacity="0.93333" stroke="#000000" stroke-width="6.61" stroke-miterlimit="4"/><path d="M385.19816,205.85667c69.58258,62.38287 62.28702,53.09859 62.2393,56.59224c-0.05124,3.49405 -26.20535,-7.72676 -22.70066,-3.59253c3.50528,4.13389 36.9271,35.40395 34.29565,39.62378c-2.63144,4.21982 -148.20629,131.04899 -162.59887,134.93468c-14.39255,3.88536 -44.47578,11.68661 -52.15925,10.01045c-7.68399,-1.6763 131.20268,-194.33607 132.98283,-202.27739c1.78007,-7.94086 6.71133,-41.40068 6.71133,-41.40068" data-paper-data="{&quot;fixed&quot;:true}" id="path51864-1 1" stroke-opacity="0.93333" stroke="#000000" stroke-width="6.61" stroke-miterlimit="4"/><path d="M301.17072,343.69699c-19.47151,-60.64454 -33.5447,-116.46722 -40.2265,-120.48329" data-paper-data="{&quot;fixed&quot;:true}" id="path51866-0 1" stroke-opacity="0.93333" stroke="#000000" stroke-width="6.61" stroke-miterlimit="4"/><path d="M222.64806,263.05001c-61.10013,32.24788 -83.32421,44.53388 -84.0087,53.08134c-0.68413,8.54746 40.92535,113.35196 52.37804,124.51988c11.45242,11.16799 223.74483,11.86455 240.98616,-0.20395c17.24146,-12.06808 95.72273,-123.02287 90.98614,-133.32739c-4.74069,-10.30446 -64.94338,-36.52369 -78.14791,-43.95075" data-paper-data="{&quot;fixed&quot;:true}" id="path51868-6 1" stroke-opacity="0.93333" stroke="#000000" stroke-width="6.61" stroke-miterlimit="4"/><path d="M251.51868,449.00614c14.63983,15.57309 28.91088,28.64225 23.2239,36.31468c-5.68791,7.67276 -47.15898,35.26012 -47.15898,45.70868c0,10.44783 7.19968,42.54064 40.20691,51.95777c33.00743,9.42018 84.69697,19.50201 128.39993,-3.78224c38.85893,-20.70093 36.27859,-45.1108 26.37886,-62.39543c-7.4964,-13.08721 -36.57234,-26.91645 -38.76494,-30.86328c-2.1932,-3.94617 -4.87421,-22.7076 11.62977,-38.1239" data-paper-data="{&quot;fixed&quot;:true}" id="path51870-3 1" stroke-opacity="0.93333" stroke="#000000" stroke-width="6.61" stroke-miterlimit="4"/><path d="M272.55,235c4.01671,-10.29925 10.56214,-19.12732 14.95,-29c3.99009,-8.97769 2,-21.43967 2,-31" data-paper-data="{&quot;fixed&quot;:true}" stroke-opacity="0.59" stroke="#0f0f11" stroke-width="4" stroke-miterlimit="10"/><path d="M377.55,206c-2.34293,-11.1568 -6.05,-19.26894 -6.05,-31c0,-3.33333 -3.33333,-10 0,-10c2.5879,0 0.18418,17.97405 0,20c-0.71511,7.86622 4.36171,17.80855 6,26" data-paper-data="{&quot;fixed&quot;:true}" stroke-opacity="0.59" stroke="#0f0f11" stroke-width="4" stroke-miterlimit="10"/><path d="M263.55,176c14.89128,-3.00834 25.80988,-4.11593 38.95,-12" data-paper-data="{&quot;fixed&quot;:true}" stroke-opacity="0.59" stroke="#0f0f11" stroke-width="4" stroke-miterlimit="10"/><path d="M264.55,177c-4.66539,-0.92384 -14.81228,-6.43028 -16.05,-12c-0.71217,-3.20478 4.46428,-5.75004 4,-9c-0.4714,-3.29983 -6.50929,-3.01858 -8,-6c-0.2517,-0.50339 -0.19615,-8.67369 -0.11464,-15.59413" data-paper-data="{&quot;fixed&quot;:true}" stroke-opacity="0.59" stroke="#0f0f11" stroke-width="4" stroke-miterlimit="10"/><path d="M244.49725,125.52737c0.00178,-0.21632 0.00275,-0.39358 0.00275,-0.52737" data-paper-data="{&quot;fixed&quot;:true}" stroke-opacity="0.59" stroke="#0f0f11" stroke-width="4" stroke-miterlimit="10"/><path d="M385.89456,100.03232c0.0004,1.28072 -0.1209,2.59936 -0.39456,3.96768c-1.35932,6.7966 -7.90072,13.80143 -11,20" data-paper-data="{&quot;fixed&quot;:true}" stroke-opacity="0.59" stroke="#0f0f11" stroke-width="4" stroke-miterlimit="10"/><path d="M373.55,125c-2.60468,12.40323 -2.59163,24.70814 -5.05,37" data-paper-data="{&quot;fixed&quot;:true}" stroke-opacity="0.59" stroke="#0f0f11" stroke-width="4" stroke-miterlimit="10"/><path d="M244.55,127c-1.95573,0.77455 -18.05,10 -18.05,10c0,0 3.43084,-1.12824 5,-2c5.99449,-3.33027 7.58909,-8.52727 11,0" data-paper-data="{&quot;fixed&quot;:true}" stroke-opacity="0.59" stroke="#0f0f11" stroke-width="4" stroke-miterlimit="10"/><path d="M223.55,137c7.12826,-9.66543 10.53848,-21.11797 17.95,-31" data-paper-data="{&quot;fixed&quot;:true}" stroke-opacity="0.59" stroke="#0f0f11" stroke-width="4" stroke-miterlimit="10"/><path d="M228.55,130c-1.01667,1.33333 -1.45673,4.52238 -3.05,4c-1.58372,-0.51925 0,-5 0,-5c0,0 -3,13 -3,1c0,-1.11765 8.98039,-12.01961 10,-11c0.53838,0.53838 -13.40682,13.49432 -8,18c1.28037,1.06697 3.33333,0 5,0" data-paper-data="{&quot;fixed&quot;:true}" stroke-opacity="0.59" stroke="#0f0f11" stroke-width="4" stroke-miterlimit="10"/><path d="M230.55,122c-0.07324,-7.32397 4.20919,-11.69439 9.95,-16" data-paper-data="{&quot;fixed&quot;:true}" stroke-opacity="0.59" stroke="#0f0f11" stroke-width="4" stroke-miterlimit="10"/><path d="M236.55,109c3.51505,-5.95771 7.66645,-12.83548 6.95,-20c-1.01503,-10.15028 -9.5805,-24.69386 -5,-35c3.5829,-8.06154 23.47502,-16.65557 31,-20c4.79244,-2.12997 8.69346,-5.40804 14,-7c17.13476,-5.14043 36.3459,-3 54,-3c6.15387,0 14.1551,-1.33796 20,1c4.84798,1.93919 9.68539,5.12359 14,8c5.08942,3.39294 14.55853,5.49365 18,11c2.31191,3.69906 5.11025,15.55123 6,20c1.20423,6.02113 1.51436,19.3427 -1,25c-1.35379,3.04604 -4.38119,5.08614 -6,8c-1.89477,3.41058 -1.24118,8.24118 -4,11c-0.3971,0.3971 3.6029,-8.6029 4,-9c1.17851,-1.17851 5.17851,-4.17851 4,-3c-2.76361,2.76361 -6.59974,5.95938 -10.16986,9.41569" data-paper-data="{&quot;fixed&quot;:true}" stroke-opacity="0.59" stroke="#0f0f11" stroke-width="4" stroke-miterlimit="10"/><path d="M380.42927,107.31332c-2.99231,3.0922 -5.59822,6.35907 -6.92927,9.68668c-4.75065,11.87662 -6.54305,45.28473 -4,58" data-paper-data="{&quot;fixed&quot;:true}" stroke-opacity="0.59" stroke="#0f0f11" stroke-width="4" stroke-miterlimit="10"/><path d="M251.55,93c6.36079,-1.06904 15.04029,0.62654 20.95,-2c1.52302,-0.6769 4.40423,-1.3831 4,-3c-0.41223,-1.64893 -3.33333,-0.66667 -5,-1c-3.33861,-0.66772 -23.90283,-4.22265 -23,3c1.29797,10.38376 20.09404,2.60397 24,0c1.61722,-1.07814 5,-1.05635 5,-3c0,-1.69967 -3.30876,-0.83088 -5,-1c-2.994,-0.2994 -18.54006,-3.37983 -20,1c-1.24329,3.72986 13,7.65472 13,5c0,-3.08792 -19.39296,-1.5607 -5,-3c1.6584,-0.16584 3.33333,0 5,0" data-paper-data="{&quot;fixed&quot;:true}" stroke-opacity="0.59" stroke="#0f0f11" stroke-width="4" stroke-miterlimit="10"/><path d="M323.55,83c1.64888,-1.66975 5.22209,-3.92462 9.3633,-5.7945" data-paper-data="{&quot;fixed&quot;:true}" stroke-opacity="0.59" stroke="#0f0f11" stroke-width="4" stroke-miterlimit="10"/><path d="M339.95802,74.65174c5.1801,-1.38348 10.12015,-1.47721 12.54198,1.34826c3.87752,4.52377 3.06499,14.67504 2,20c-0.00549,0.02745 -0.01099,0.05492 -0.01649,0.0824" data-paper-data="{&quot;fixed&quot;:true}" stroke-opacity="0.59" stroke="#0f0f11" stroke-width="4" stroke-miterlimit="10"/><path d="M353.86693,99.07989c-2.94344,13.85062 -7.89747,29.82622 -23.36693,32.92011" data-paper-data="{&quot;fixed&quot;:true}" stroke-opacity="0.59" stroke="#0f0f11" stroke-width="4" stroke-miterlimit="10"/><path d="M324.55,92c-3.05413,14.54346 10.76047,22.97382 3.95,40" data-paper-data="{&quot;fixed&quot;:true}" stroke-opacity="0.59" stroke="#0f0f11" stroke-width="4" stroke-miterlimit="10"/><path d="M328.55,121c-0.6993,3.33002 -1.38268,6.66342 -2.05,10" data-paper-data="{&quot;fixed&quot;:true}" stroke-opacity="0.59" stroke="#0f0f11" stroke-width="4" stroke-miterlimit="10"/><path d="M325.55,95c-0.01667,-1.66667 -0.03333,-3.33333 -0.05,-5" data-paper-data="{&quot;fixed&quot;:true}" stroke-opacity="0.59" stroke="#0f0f11" stroke-width="4" stroke-miterlimit="10"/><path d="M326.55,102c1.65,0.66667 3.92252,0.54699 4.95,2c1.92457,2.72161 -3.33333,10 0,10c1.20308,0 1.12138,-9.80579 1,-10c-1.03013,-1.64821 -3.13832,-2.4415 -5,-3c-1.59638,-0.47891 -6.17851,1.17851 -5,0c2.69847,-2.69847 13.40825,-2.32575 14,3c0.4316,3.88439 -4.82514,11.10019 -7,14" data-paper-data="{&quot;fixed&quot;:true}" stroke-opacity="0.59" stroke="#0f0f11" stroke-width="4" stroke-miterlimit="10"/><path d="M326.55,104c0.31667,2 0.63333,4 0.95,6" data-paper-data="{&quot;fixed&quot;:true}" stroke-opacity="0.59" stroke="#0f0f11" stroke-width="4" stroke-miterlimit="10"/><path d="M326.55,85c1.04167,0 2.03251,-0.00766 2.98827,-0.00853" data-paper-data="{&quot;fixed&quot;:true}" stroke-opacity="0.59" stroke="#0f0f11" stroke-width="4" stroke-miterlimit="10"/><path d="M347.37274,101.66169c0.08156,1.09003 0.12726,2.19867 0.12726,3.33831" data-paper-data="{&quot;fixed&quot;:true}" stroke-opacity="0.59" stroke="#0f0f11" stroke-width="4" stroke-miterlimit="10"/><path d="M252.55,46c7.91979,0 13.57951,3.78885 20.95,6c20.99095,6.29729 44,6.76582 44,34" data-paper-data="{&quot;fixed&quot;:true}" stroke-opacity="0.59" stroke="#0f0f11" stroke-width="4" stroke-miterlimit="10"/><path d="M319.55,88c1.65,0.66667 3.3,1.33333 4.95,2" data-paper-data="{&quot;fixed&quot;:true}" stroke-opacity="0.59" stroke="#0f0f11" stroke-width="4" stroke-miterlimit="10"/><path d="M357.55,98c5.69314,3.82732 10.20792,6.65158 16.95,8" data-paper-data="{&quot;fixed&quot;:true}" stroke-opacity="0.59" stroke="#0f0f11" stroke-width="4" stroke-miterlimit="10"/><path d="M356.55,105c3.38207,9.17171 8.05281,19.51406 9.95,29" data-paper-data="{&quot;fixed&quot;:true}" stroke-opacity="0.59" stroke="#0f0f11" stroke-width="4" stroke-miterlimit="10"/><path d="M359.55,104c4.44608,7.87913 9.95,14.74865 9.95,24" data-paper-data="{&quot;fixed&quot;:true}" stroke-opacity="0.59" stroke="#0f0f11" stroke-width="4" stroke-miterlimit="10"/><path d="M273.55,40c7.23093,1.8191 11.79593,1.34963 18.95,2c6.03287,0.54844 10.82277,3.48523 17,4c5.335,0.44458 11.83601,-1.291 17,0c7.97655,1.99414 13.58261,7.58261 19,13c2.35702,2.35702 6,3.33333 8,6c9.40632,12.54176 8.35777,27.46772 11,42c1.0765,5.92075 2.35671,9.52236 4,15c0.47891,1.59638 1.17851,6.17851 0,5c-3.77863,-3.77863 -1.90401,-14.71597 0,-19c0.30838,-0.69386 5.5115,-8.4885 8,-6c2.68742,2.68742 0.39935,12.69967 -3,11c-2.45512,-1.22756 8.45167,-17.23049 10,-19c2.56463,-2.931 2.57929,-13.85976 6,-15c1.58114,-0.52705 0,3.33333 0,5c0,1.66667 0.52705,6.58114 0,5c-2.06057,-6.18172 0.37826,-15.31087 -7,-19c-9.31941,-4.65971 -17.24929,7.84816 -20,15c-0.87114,2.26495 -1.60105,4.60631 -2,7c-0.274,1.64399 -1.17851,6.17851 0,5c4.37713,-4.37713 -1.0466,-9.86818 6,-13c7.09976,-3.15545 5.98358,10.77009 6,11c0.11875,1.66243 -0.61898,6.54746 0,5c1.45689,-3.64223 2.6869,-12.53518 2,-17c-0.32056,-2.08367 -0.11438,-6.94281 -2,-6c-3.87585,1.93793 0,8.66667 0,13c0,3.33333 -1.49071,12.98142 0,10c1.96073,-3.92145 -2.07073,-11.37171 2,-13c3.28995,-1.31598 5.49445,9.50555 8,7c1.79376,-1.79376 -1.60789,-21.20263 -4,-22c-5.6,-1.86667 -4,8.61333 -4,9c0,1.66667 0,6.66667 0,5c0,-14.4214 -7.24578,-23.5955 -17,-34c-1.45979,-1.55711 -3.22409,-5.18394 -5,-4c-2.23607,1.49071 0.90029,6.09971 -1,8c-1.2693,1.2693 -4.19723,-3.60555 -5,-2c-0.84327,1.68655 2.95405,2.43107 4,4c1.6538,2.48069 2.09134,5.70961 4,8c1.53881,1.84657 4.40307,2.20345 6,4c2.38514,2.68328 0.40989,10 4,10c7.63124,0 0.16565,-22.21164 -1,-26c-0.5279,-1.71568 -3.2693,-3.7307 -2,-5c2.74211,-2.74211 15.61778,12.15704 17,14c1,1.33333 4.38675,4.9245 3,4c-3.61712,-2.41142 -20.11312,-22.56812 -6,-21c10.45904,1.16212 6.37897,17.10269 9,23c0.6769,1.52302 2.3231,2.47698 3,4c0.6903,1.55318 -0.69967,5 1,5c1.66667,0 0,-3.33333 0,-5c0,-3.33333 0,-10 0,-10l1,15c0,0 -4.15973,-18.19909 -5,-21c-0.01049,-0.03496 -4.12946,-9.43527 -3,-10c5.40967,-2.70483 5.52781,16.58342 6,18c0.52705,1.58114 1.61325,4.9245 3,4c1.6641,-1.1094 0.48507,-4.05971 0,-6c-1.51108,-6.04432 -6.51846,-8.35795 -10,-13c-2.73466,-3.64621 -5.57907,-9.00669 -9,-12c-5.50236,-4.81457 -14.18749,-4.6375 -21,-6c-24.1998,-4.83996 -34.33077,-5.24266 -59,-3c-9.38815,0.85347 -15.82794,7.73118 -24,11c-3.33333,1.33333 -11.13529,0.59412 -10,4c0.52705,1.58114 3.33333,0 5,0c4.53118,0 5.57713,-0.32686 10,1c13.64631,4.09389 27.98734,8.36392 39,18c6.60974,5.78352 6.83133,10.0482 9,18c0.5547,2.0339 1.62288,3.92582 2,6c0.29814,1.63978 -1.17851,6.17851 0,5c7.97178,-7.97178 -3.76113,-23.67166 14,-29c0.22203,-0.06661 9.58807,-2.23578 10,-1c0.15208,0.45625 -14.84927,8.05024 -12,9c2.91548,0.97183 5.95771,-1.56539 9,-2c3.29983,-0.4714 8.50929,2.98142 10,0c0.43335,-0.8667 -5.04925,-6.04925 -8,-9c-7.54293,-7.54293 -17.12101,-5.10191 -27,-6c-3.71147,-0.33741 -8.76393,-4.98142 -11,-2c-3.17146,4.22862 15.97276,18.02724 19,15c3.61892,-3.61892 -9.28395,-14.57408 -9,-15c0.08424,-0.12637 22.07209,6.54652 23,5c1.33945,-2.23241 -2.7242,-4.73567 -5,-6c-3.96327,-2.20182 -8.6796,-2.62533 -13,-4c-3.01342,-0.95881 -10.41421,-0.17157 -9,-3c0.60563,-1.21125 15.37833,-1 18,-1c1.66667,0 6.33333,1 5,0c-2.52982,-1.89737 -5.95939,-2.13126 -9,-3c-1.63428,-0.46694 -6.64893,-1.41223 -5,-1c10.22829,2.55707 20.40161,6.24297 31,7c2.65989,0.18999 6.11438,1.88562 8,0c2.87711,-2.87711 -10,-2.93115 -10,-7c0,-2.10819 4.01874,1.27954 6,2c1.68698,0.61345 6.79505,2 5,2c-8.76096,0 -19.03733,-7.58507 -28,-4c-1.66667,0.66667 6.79505,2 5,2c-4.05518,0 -7.95618,-1.69671 -12,-2c-9.31313,-0.69848 -18.66324,-0.78287 -28,-1c-4.99865,-0.11625 -10.00624,0.24969 -15,0c-1.69755,-0.08488 -6.41421,-0.05719 -5,-1c9.1319,-6.08793 31.89299,3.13838 41,2c4.18381,-0.52298 7.78363,-4 12,-4c1.66667,0 6.58114,0.52705 5,0c-3.71712,-1.23904 -11.26355,-2.47364 -16,-2c-1.69124,0.16912 -6.61245,1.53748 -5,1c26.83876,-8.94625 66.73069,-6.96246 70,29c0.65496,7.20458 -2.73274,15.19822 -5,22" data-paper-data="{&quot;fixed&quot;:true}" stroke-opacity="0.93" stroke="#0f0f11" stroke-width="11" stroke-miterlimit="10"/><path d="M249.55,45c1.65,0 3.3,0 4.95,0" data-paper-data="{&quot;fixed&quot;:true}" stroke-opacity="0.93" stroke="#0f0f11" stroke-width="11" stroke-miterlimit="10"/></g></svg>