<svg version="1.1" xmlns="http://www.w3.org/2000/svg" xmlns:xlink="http://www.w3.org/1999/xlink" width="661" height="661"><g fill="none" fill-rule="nonzero" stroke="none" stroke-width="none" stroke-linecap="round" stroke-linejoin="round" stroke-miterlimit="none" stroke-dasharray="" stroke-dashoffset="0" font-family="none" font-weight="none" font-size="none" text-anchor="none" style="mix-blend-mode: normal"><path d="M313.20956,144.65664c-9.57948,13.08707 -66.2629,23.8424 -71.60255,27.56244c-5.25759,3.6626 -12.31139,37.96216 -5.97346,43.62851c6.33767,5.66609 30.81635,-6.92193 46.97773,6.8625c38.53888,32.87094 49.18547,68.86637 98.63358,-4.90594c4.49877,-4.6541 41.69614,8.86619 45.03201,4.34079c3.33474,-4.52454 10.73021,-35.52036 -0.82427,-42.04839c-11.5519,-6.52804 -69.60452,-23.6948 -74.2594,-32.75196c-4.6541,-9.05709 1.85939,-22.97339 -17.87403,-23.42809c-19.73574,-0.45458 -15.17279,5.68526 -16.79846,15.17583" data-paper-data="{&quot;fixed&quot;:true}" id="path25603-0 1" stroke="#f0d3a7" stroke-width="21.3778" stroke-miterlimit="4"/><path d="M331.34613,150.39941c-0.8745,17.25646 -74.73504,24.48668 -66.8836,47.27413c59.13108,6.39385 58.02192,81.92522 112.25247,22.11468c6.06798,-6.79825 25.39469,-16.72171 23.77914,-19.04731c-1.61416,-2.3254 -68.97663,-34.98177 -66.85335,-39.13332" data-paper-data="{&quot;fixed&quot;:true}" id="path25656-6 1" stroke="#f0d3a7" stroke-width="46.86549" stroke-miterlimit="4"/><path d="M329.54693,203.63317c-19.25586,13.47078 -10.83379,57.11688 -6.657,57.51936c4.17488,0.40301 14.60162,-46.52739 15.03478,-53.21599c0.43419,-6.68866 -29.65424,2.66714 -29.03462,6.85768" data-paper-data="{&quot;fixed&quot;:true}" id="path25660-5 1" stroke="#f0d3a7" stroke-width="84.03491" stroke-miterlimit="4"/><path d="M218.85186,197.56735c-2.33862,13.81014 -2.39348,27.70026 0.66364,27.36494c3.05712,-0.33559 -0.98555,-16.63598 4.0169,-17.22348c5.00179,-0.58754 2.38291,15.73927 5.43276,14.02298c3.04919,-1.71596 -0.49064,-13.60444 5.80887,-9.1762c6.29999,4.42804 6.29272,12.13226 12.98587,6.5981c6.69362,-5.53389 7.20417,-5.9913 9.37926,-4.03408" data-paper-data="{&quot;fixed&quot;:true}" id="path27328-4 1" stroke="#0071d1" stroke-width="17.12988" stroke-miterlimit="4"/><path d="M255.68949,232.36969c48.68536,-4.52653 43.8169,-4.65807 57.44929,7.49686c9.69185,8.64158 71.76869,54.4114 68.80728,61.98799c-2.96128,7.57671 -4.62634,14.45587 -31.75444,11.81161c-27.12817,-2.644 -69.29712,-2.09537 -71.16384,-8.45346c-1.86666,-6.35816 -17.85136,-64.23704 -15.19533,-64.01362c2.6559,0.22355 33.37396,2.89518 41.7516,9.90951c8.37771,7.01427 62.95761,45.38578 60.32894,48.0707c-2.6288,2.68498 -68.96934,3.80009 -73.0272,-0.22249c-4.05788,-4.02218 -19.62687,-36.09714 -13.83579,-41.379c5.79102,-5.28205 62.05223,34.08585 60.69408,34.08585c-1.35836,0 -31.53281,0.14921 -36.37516,-2.05042c-4.84249,-2.19981 -10.42648,-11.89489 -8.70854,-16.19417c1.71794,-4.62964 11.5289,12.0803 15.26698,10.3003" data-paper-data="{&quot;fixed&quot;:true}" id="path27330-7 1" stroke="#0071d1" stroke-width="17.12988" stroke-miterlimit="4"/><path d="M346.83545,243.07644c19.8454,-15.87081 36.34575,-19.78545 47.09916,-16.58958c16.17156,4.80613 -0.07965,58.50756 -2.74579,59.92573c-2.64136,1.40463 -30.7476,-31.58258 -32.43593,-35.29932c-1.68819,-3.7168 24.6824,-19.84481 25.63358,-15.24828c0.95118,4.59659 3.48413,30.65229 0.83154,29.14805c-2.65259,-1.50444 -18.25543,-10.97901 -12.53877,-15.75315c5.71633,-4.7744 4.35797,-2.43909 5.33758,1.1356" data-paper-data="{&quot;fixed&quot;:true}" id="path27332-6 1" stroke="#0071d1" stroke-width="17.12988" stroke-miterlimit="4"/><path d="M410.72328,211.92459c28.28816,-14.978 35.15733,-24.8885 33.43781,-20.24762c-1.71992,4.64088 -5.63436,12.31892 -8.50839,14.1918c-2.87403,1.87261 -0.01593,10.45682 -5.6965,11.15867c-5.68196,0.70198 -17.73549,1.03975 -14.04387,-2.13635c3.69169,-3.17677 8.50191,-0.23204 12.22506,-4.41812" data-paper-data="{&quot;fixed&quot;:true}" id="path27334-5 1" stroke="#0071d1" stroke-width="17.12988" stroke-miterlimit="4"/><path d="M277.8308,325.05335c34.72577,3.51784 57.10062,5.25759 70.19965,4.22842c13.0991,-1.02852 33.0611,-1.49783 39.12644,-4.54966" data-paper-data="{&quot;fixed&quot;:true}" id="path27336-6 1" stroke="#0071d1" stroke-width="17.12988" stroke-miterlimit="4"/><path d="M222.37713,181.49358c2.69159,10.05645 2.8661,24.17099 32.65651,28.78007c29.79074,4.60849 36.90171,3.58262 51.38488,12.29757c14.48304,8.71489 77.53619,63.6237 83.25058,73.69905c12.98151,22.88898 -10.07166,24.83965 -38.35406,26.16357c-28.12039,1.31341 -76.72927,-6.38129 -80.90973,-8.24221c-4.18149,-1.85939 -16.93125,-74.11517 -20.84602,-85.63867" data-paper-data="{&quot;fixed&quot;:true}" id="path553-6-9 1" stroke="#00095e" stroke-width="9.47828" stroke-miterlimit="4"/><path d="M224.16329,178.41821c-7.16709,8.28557 -16.71114,21.42988 -15.76697,25.7747c0.94853,4.34475 -2.05042,13.84187 2.61624,14.97747c4.66666,1.13626 1.03182,15.19051 5.70377,16.37072c4.67129,1.17989 22.9404,-8.05131 48.39234,-13.52928c25.45207,-5.47771 26.32783,-4.30708 35.56101,-0.67224" data-paper-data="{&quot;fixed&quot;:true}" id="path555-0-3 1" stroke="#00095e" stroke-width="9.47828" stroke-miterlimit="4"/><path d="M333.36942,241.40361c13.33402,-11.77287 24.03634,-24.54696 42.15038,-26.69237c18.11398,-2.14494 36.33372,2.95731 37.47777,18.13996c1.14684,15.18284 -17.02895,70.29646 -19.70177,78.69817" data-paper-data="{&quot;fixed&quot;:true}" id="path557-6-7 1" stroke="#00095e" stroke-width="9.47828" stroke-miterlimit="4"/><path d="M394.5046,213.51178c41.87587,-24.10621 43.66407,-23.39504 49.78963,-29.50658" data-paper-data="{&quot;fixed&quot;:true}" id="path559-2-4 1" stroke="#00095e" stroke-width="9.47828" stroke-miterlimit="4"/><path d="M443.73962,183.1482c8.83737,3.57138 20.00298,-2.91501 13.35346,8.0248c-6.65006,10.94008 -7.43261,5.17365 -7.6132,14.74056c-0.17999,9.56731 -7.41021,1.41784 -8.36747,11.03077c-0.95779,9.61424 -6.99351,15.17173 -30.44473,8.84206" data-paper-data="{&quot;fixed&quot;:true}" id="path561-6-5 1" stroke="#00095e" stroke-width="9.47828" stroke-miterlimit="4"/><path d="M268.23221,313.05103c5.26619,22.01381 2.85023,21.8557 9.02437,23.49908c6.17572,1.64258 105.12802,2.54419 111.84646,-3.24617c11.13719,-9.59785 7.18871,-14.17296 2.16015,-19.7368" data-paper-data="{&quot;fixed&quot;:true}" id="path563-1-2 1" stroke="#00095e" stroke-width="9.47828" stroke-miterlimit="4"/><path d="M271.55,339c-0.24803,24.80287 0.77234,51.88832 -4.05,76c-1.44887,7.24437 -5.32637,13.31593 -8,20c-3.24531,8.11326 -4.00581,17.01162 -8,25c-2.81053,5.62107 -6.58752,11.21004 -9,17c-5.69496,13.66789 -11.49807,28.62356 -24,38" data-paper-data="{&quot;fixed&quot;:true}" stroke-opacity="0.93" stroke="#04083c" stroke-width="14" stroke-miterlimit="10"/><path d="M395.55,335c-1.30498,3.18287 -3.96218,5.73653 -5.05,9c-3.44751,10.34253 6.10363,19.51816 8,29c1.11948,5.59739 -0.43564,11.25745 1,17c1.96524,7.86097 6.02935,15.11739 8,23c2.98779,11.95115 -2.78164,26.65509 1,38c3.39017,10.17052 9.49069,19.85406 14,30c6.1879,13.92277 9.92361,27.55417 24,36" data-paper-data="{&quot;fixed&quot;:true}" stroke-opacity="0.93" stroke="#04083c" stroke-width="14" stroke-miterlimit="10"/><path d="M219.55,523c1.53902,3.65191 3.77106,10.17428 6.95,13c9.49315,8.43835 22.45286,-5.51571 33,-2c7.93311,2.64437 10.79492,10.58383 20,12c11.62494,1.78845 23.17761,-5.14952 35,-3c9.13456,1.66083 11.28996,8.42801 22,7c9.46492,-1.26199 10.00795,-10.71542 19,-12c19.56812,-2.79545 19.60116,8 35,8c6.1231,0 9.68987,-5.03452 15,-6c8.28332,-1.50606 19.98888,9.01112 28,1c4.90315,-4.90315 -0.47388,-8.52612 6,-15" data-paper-data="{&quot;fixed&quot;:true}" stroke-opacity="0.93" stroke="#04083c" stroke-width="14" stroke-miterlimit="10"/><path d="M285.55,344c5.19168,27.32466 4.27228,48.13258 1.95,76c-1.19673,14.36081 -0.15328,26.89536 -4,41c-2.08958,7.6618 -8.30969,12.35744 -12,19c-6.51893,11.73407 -9.11309,32.18849 -15,42c-2.68761,4.47935 -7.18393,8.30654 -10,13" data-paper-data="{&quot;fixed&quot;:true}" stroke-opacity="0.93" stroke="#04083c" stroke-width="3" stroke-miterlimit="10"/><path d="M309.55,347c-2.63453,22.58166 -0.79089,45.40894 -3.05,68c-0.70915,7.09147 -3.48818,13.83454 -4,21c-2.71531,38.01432 -9.86944,69.67359 -24,105" data-paper-data="{&quot;fixed&quot;:true}" stroke-opacity="0.93" stroke="#04083c" stroke-width="3" stroke-miterlimit="10"/><path d="M334.55,343c-8.37162,16.46875 -5.05315,35.05677 -6.05,53c-1.71883,30.93898 -2,61.85649 -2,93c0,18.50426 -2.44003,37.11995 6,54" data-paper-data="{&quot;fixed&quot;:true}" stroke-opacity="0.93" stroke="#04083c" stroke-width="3" stroke-miterlimit="10"/><path d="M351.55,346c-0.09067,16.32 -0.66937,32.80626 0.95,49c0.65556,6.55557 4.09033,12.63233 5,19c0.75572,5.29003 -0.22393,10.79831 1,16c3.08641,13.11725 6.76529,25.41817 8,39c1.89167,20.80836 0.10638,44.26595 8,64" data-paper-data="{&quot;fixed&quot;:true}" stroke-opacity="0.93" stroke="#04083c" stroke-width="3" stroke-miterlimit="10"/><path d="M367.55,345c-0.19381,27.13391 10.93179,52.92109 16.95,79c3.62497,15.70819 2.55501,32.10516 4,48c1.31962,14.5158 -1.21865,33.00644 6,46c1.34263,2.41673 11.78902,16.2422 13,16c1.7602,-0.35204 1.33333,-3.33333 2,-5" data-paper-data="{&quot;fixed&quot;:true}" stroke-opacity="0.93" stroke="#04083c" stroke-width="3" stroke-miterlimit="10"/><path d="M366.5,346c0.01667,0 0.03333,0 0.05,0" data-paper-data="{&quot;fixed&quot;:true}" stroke-opacity="0.93" stroke="#04083c" stroke-width="3" stroke-miterlimit="10"/><path d="M365.55,342c0.31667,1.66667 0.63333,3.33333 0.95,5" data-paper-data="{&quot;fixed&quot;:true}" stroke-opacity="0.93" stroke="#04083c" stroke-width="3" stroke-miterlimit="10"/><path d="M352.55,342c-1.29081,3.14831 -2.05,6.59735 -2.05,10" data-paper-data="{&quot;fixed&quot;:true}" stroke-opacity="0.93" stroke="#04083c" stroke-width="3" stroke-miterlimit="10"/><path d="M308.55,343c-0.02857,3.99993 -0.05,7.99997 -0.05,12" data-paper-data="{&quot;fixed&quot;:true}" stroke-opacity="0.93" stroke="#04083c" stroke-width="3" stroke-miterlimit="10"/><path d="M284.55,341c-0.01667,2 -0.03333,4 -0.05,6" data-paper-data="{&quot;fixed&quot;:true}" stroke-opacity="0.93" stroke="#04083c" stroke-width="3" stroke-miterlimit="10"/><path d="M298.55,368c2.31021,12.15899 2.95,23.66542 2.95,36c0,3.33333 3.33333,10 0,10c-0.30809,0 -1.14838,-6.31611 -2,-11c-1.26399,-6.95196 -3.4662,-12.66549 -6,-19c-0.72185,-1.80463 -1.09409,-5.38118 -3,-5c-0.65974,0.13195 -3.81491,18.96402 -4,21c-2.06225,22.68472 -1.83793,42.5362 -13,63c-1.49873,2.74767 -11.07688,20.46156 -12,20c-2.73072,-1.36536 7.30601,-15.47323 8,-17c1.44008,-3.16817 1.30991,-6.95784 3,-10c2.4693,-4.44474 14.55513,-29 20,-29c4.44444,0 6.22222,5.33333 8,8c0.9245,1.38675 2.56147,2.39206 3,4c6.45243,23.65892 -13.06692,39.6076 -29,52c-2.63117,2.04647 -5.64298,3.64298 -8,6c-0.57143,0.57143 -5.09524,7.7619 -7,7c-1.91422,-0.76569 -0.38578,-10.59052 -1,-11c-1.07408,-0.71605 -8.87179,15.96922 -10,18c-2.22222,4 -3.44444,4.33333 -7,7c-1.33333,1 -5.49071,2.25464 -4,3c2.28695,1.14347 25.27676,-10.27183 31,-9c6.31436,1.40319 5.41855,8.93019 9,12c3.34487,2.86703 30.77169,2.87925 35,1c1.52302,-0.6769 2.41886,-2.47295 4,-3c10.90208,-3.63403 11.83438,11.81211 22,8c7.80094,-2.92535 1.22393,-14.40798 9,-17c2.23346,-0.74449 20,0.65048 20,3c0,1.20333 -10,3 -10,3c0,0 17.17421,-0.94193 20,0c4.78751,1.59584 8.02442,6.59756 14,6c5.26484,-0.52648 14.79398,-7.73534 20,-6c1.78885,0.59628 2.21115,3.40372 4,4c1.61245,0.53748 3.55868,-0.09918 5,-1c1.41333,-0.88333 1.41886,-4.52705 3,-4c1.58114,0.52705 1.49071,5.74536 0,5c-3.48967,-1.74483 -1.8358,-7.7537 -4,-11c-4.86991,-7.30487 -15.37572,-7.67629 -20,-16c-1.74351,-3.13832 -7.40588,-8.86471 -4,-10c3.60555,-1.20185 6.31258,4.31258 9,7c1.17851,1.17851 4.66667,4 3,4c-1.43692,0 -13.3511,-20.52665 -15,-23c-1.07814,-1.61722 -1.26155,-5.86923 -3,-5c-1.95631,0.97816 5.32315,17 7,17c1.66667,0 0.29814,-3.36022 0,-5c-1.06387,-5.85128 -2.61568,-9.84321 -2,-16c0.33333,-3.33333 -0.0374,-6.79132 -1,-10c-0.4884,-1.62799 -0.23988,-6.52023 -1,-5c-3.02395,6.04789 3.92509,20.29399 6,26c1.2269,3.37396 2.96839,6.5613 4,10c0.51581,1.71935 3.07703,6.43604 2,5c-9.47716,-12.63622 -14.44304,-34.81014 -19,-50c-2.10016,-7.00055 -3,-12.68223 -3,-20c0,-1.66667 -1.49071,-5.74536 0,-5c5.32304,2.66152 4,10.915 4,15c0,1.66667 0.74536,6.49071 0,5c-3.33224,-6.66448 -1.48074,-19.40371 -3,-27c-0.66667,-3.33333 -0.92503,-13.2249 -2,-10c-2.41265,7.23795 2.65961,14.56393 5,21c0.72046,1.98126 1.05719,4.11438 2,6c0.74536,1.49071 3,5.66667 3,4c0,-2.62925 -6.81463,-17.74023 -8,-21c-2.9358,-8.07345 -2.00912,-17.51367 -7,-25c-0.81216,-1.21824 -9.12288,-11.87712 -7,-14c1.17851,-1.17851 2.41886,2.47295 4,3c4.13293,1.37764 10.63247,1.41032 10,9c-0.53105,6.37257 -4.19688,7.19464 -7,12c-5.38932,9.23884 -10.28195,19.90815 -14,30c-9.5746,25.98819 -12.29965,54.40424 -10,82c0.14115,1.6938 0.36876,6.57811 1,5c3.97,-9.925 1.38533,-24.54132 4,-35c1.41707,-5.66829 5.4225,-11.21583 7,-17c0.90672,-3.32465 0.45435,-10.29538 5,-12c3.68663,-1.38249 5.55025,6.47861 6,13c0.94085,13.64227 0.02503,27.35048 1,41c0.26124,3.65735 0,7.33333 0,11c0,2 0.89443,7.78885 0,6c-2.82843,-5.65685 -4.14004,-11.95512 -6,-18c-0.80836,-2.62719 0.74874,-8 -2,-8c-2.55337,0 2.73107,11.4517 -2,15c-2.71948,2.03961 -6.62144,1.6246 -10,2c-2.65036,0.29448 -5.36555,0.41325 -8,0c-14.40316,-2.25932 -28.66299,-5.35317 -43,-8c-7.53586,-1.39124 -28.30772,-0.15436 -29,-14c-0.62579,-12.5158 7.46131,-21.25162 18,-27c1.85077,-1.00951 4.01874,-1.27954 6,-2c1.68698,-0.61345 3.80743,-3.34164 5,-2c5.15544,5.79987 4,21.81565 4,29c0,3 -2.97683,9.3721 0,9c4.23579,-0.52947 5.24263,-6.7413 8,-10c8.07069,-9.53809 17.16509,-18.16509 26,-27c2.17307,-2.17307 3.70308,-9.04171 6,-7c7.05677,6.27268 0.66909,27.80728 -1,33c-1.14043,3.548 -3.424,6.62285 -5,10c-0.7591,1.62665 -0.87864,6.4017 -2,5c-2.12355,-2.65444 -1.60282,-6.62394 -2,-10c-0.27263,-2.31735 2.28802,-6.5424 0,-7c-3.65441,-0.73088 -6.89913,2.93275 -10,5c-1.96116,1.30744 -5.13447,7.35318 -5,5c0.56117,-9.82045 3.70525,-34.266 10,-48c3.8589,-8.41942 8.44302,-16.5907 14,-24c0.54831,-0.73109 5.78998,-8.76802 8,-7c1.82203,1.45762 0.86658,4.83355 0,7c-1.41091,3.52729 -17.48669,25.49852 -22,26c-7.38862,0.82096 -5,-26.76147 -5,-29c0,-5.66667 -0.51304,-11.35661 0,-17c0.16252,-1.78768 0.7307,-6.2693 2,-5c1.64992,1.64992 0.81929,4.81523 0,7c-1.39872,3.72993 -34.06783,67.06916 -15,26c1.87387,-4.03604 7.49559,-14.49559 12,-19c1.17851,-1.17851 -2.05132,2.62968 -3,4c-2.05232,2.96446 -4.27347,5.8347 -6,9c-3.05724,5.60494 -7.31866,15.27463 -9,22c-0.57166,2.28665 -0.80426,4.65112 -1,7c-0.13841,1.66091 -1.59638,5.47891 0,5c15.97507,-4.79252 31.89169,-38.30564 36,-52c0.85551,-2.8517 9.81452,-17.37097 9,-19c-3.97348,-7.94695 -20.77461,-1.7418 -26,0c-3.17805,1.05935 -10.72671,4.27019 -10,1c1.00754,-4.53394 12.23732,-15.61866 17,-18c2.98142,-1.49071 10,3.33333 10,0c0,-2.74278 -10.84477,-2 -11,-2c-3.86108,0 -25,1.76663 -25,-5c0,-3.177 7.83158,-3.53263 9,-4c5.74723,-2.29889 8.36045,-4.66395 15,-4c5.93324,0.59332 10.06676,4.40668 16,5c4.01244,0.40124 20.3895,0.19475 14,-3c-0.2009,-0.10045 -20.88623,5.11377 -22,4c-1.93222,-1.93222 9.80207,-4.80207 9,-4c-1.61476,1.61476 -8.76825,2.33047 -11,3c-11.47169,3.44151 -30.91749,6 -43,6c-1.66667,0 -3.50929,0.74536 -5,0c-1.49071,-0.74536 -1.41886,-4.52705 -3,-4c-1.58114,0.52705 0.16584,3.3416 0,5c-1.19674,11.96736 -1.34871,13.83762 2,25c5.16333,17.2111 -6.94495,38.86237 -13,54" data-paper-data="{&quot;fixed&quot;:true}" stroke-opacity="0.77" stroke="#174aa8" stroke-width="28" stroke-miterlimit="10"/><path d="M374.55,343c10.69532,-4.32134 6.4183,10.34148 7.95,18" data-paper-data="{&quot;fixed&quot;:true}" stroke-opacity="0.77" stroke="#174aa8" stroke-width="10" stroke-miterlimit="10"/><path d="M279.55,345c8.31667,0 16.63333,0 24.95,0" data-paper-data="{&quot;fixed&quot;:true}" stroke-opacity="0.77" stroke="#174aa8" stroke-width="10" stroke-miterlimit="10"/></g></svg>