<svg version="1.1" xmlns="http://www.w3.org/2000/svg" xmlns:xlink="http://www.w3.org/1999/xlink" width="661" height="661"><g fill="none" fill-rule="nonzero" stroke="none" stroke-width="none" stroke-linecap="round" stroke-linejoin="round" stroke-miterlimit="none" stroke-dasharray="" stroke-dashoffset="0" font-family="none" font-weight="none" font-size="none" text-anchor="none" style="mix-blend-mode: normal"><path d="M199.59926,377.64252c136.00309,44.6175 278.88878,28.6213 280.91127,9.3201c2.04513,-19.3012 -143.69,-70.25769 -257.57817,-28.8857" data-paper-data="{&quot;fixed&quot;:true}" id="path27410-0-4 1" stroke="#5d5955" stroke-width="15.21992" stroke-miterlimit="4"/><path d="M345.12703,381.97868c-6.12417,-75.69111 -11.81465,-151.44832 0,-229.82309" data-paper-data="{&quot;fixed&quot;:true}" id="path31436-4 1" stroke="#a57213" stroke-width="23.7022" stroke-miterlimit="4"/><path d="M348.14206,247.85517c27.38946,-21.3503 52.5109,-21.4164 57.40785,-19.83" data-paper-data="{&quot;fixed&quot;:true}" id="path32263-7 1" stroke="#a57213" stroke-width="9.02371" stroke-miterlimit="4"/><path d="M330.91554,287.59449c-39.61822,-21.2842 -35.21874,-58.0358 -62.60972,-55.6562" data-paper-data="{&quot;fixed&quot;:true}" id="path32265-6 1" stroke="#a57213" stroke-width="9.02371" stroke-miterlimit="4"/><path d="M350.80226,151.87797c1.0814,-36.5533 34.81315,-52.8139 45.71344,-60.6798" data-paper-data="{&quot;fixed&quot;:true}" id="path32267-3 1" stroke="#a57213" stroke-width="11.67062" stroke-miterlimit="4"/><path d="M345.12703,152.15559c-18.91352,-29.8772 -27.99104,-34.0415 -39.39659,-37.8753" data-paper-data="{&quot;fixed&quot;:true}" id="path32426-1 1" stroke="#a57213" stroke-width="11.67062" stroke-miterlimit="4"/><path d="M305.72957,114.24724c0,0 2.58649,-11.1709 -1.08272,-14.542c-3.66987,-3.305 -9.70322,-7.1388 -9.70322,-7.1388" data-paper-data="{&quot;fixed&quot;:true}" id="path32428-7 1" stroke="#a57213" stroke-width="5.65484" stroke-miterlimit="4"/><path d="M305.72957,114.24724c-35.30639,10.9065 -36.4675,13.0217 -36.96081,15.5335" data-paper-data="{&quot;fixed&quot;:true}" id="path32430-5 1" stroke="#a57213" stroke-width="5.65484" stroke-miterlimit="4"/><path d="M405.55303,227.99212c0,0 -2.58649,-11.1709 1.08074,-14.542c3.66987,-3.305 9.70322,-7.1388 9.70322,-7.1388" data-paper-data="{&quot;fixed&quot;:true}" id="path32428-3-9 1" stroke="#a57213" stroke-width="5.65484" stroke-miterlimit="4"/><path d="M405.55303,227.99212c35.30639,10.9065 36.46691,13.0217 36.96021,15.5335" data-paper-data="{&quot;fixed&quot;:true}" id="path32430-8-6 1" stroke="#a57213" stroke-width="5.65484" stroke-miterlimit="4"/><path d="M396.51322,91.21139c0,0 11.0929,3.966 15.85131,2.644c4.75193,-1.322 9.57677,3.305 9.57677,3.305" data-paper-data="{&quot;fixed&quot;:true}" id="path32428-9-2 1" stroke="#a57213" stroke-width="5.65484" stroke-miterlimit="4"/><path d="M345.12703,152.15559c0,0 9.70322,-12.7573 14.46162,-14.2115c4.75193,-1.322 13.46318,2.644 13.46318,2.644" data-paper-data="{&quot;fixed&quot;:true}" id="path32428-9-8-1 1" stroke="#a57213" stroke-width="5.65484" stroke-miterlimit="4"/><path d="M396.51322,91.21139c8.1931,-36.0245 -24.44761,-19.0368 -26.39677,-20.6893" data-paper-data="{&quot;fixed&quot;:true}" id="path32430-6-7 1" stroke="#a57213" stroke-width="5.65484" stroke-miterlimit="4"/><path d="M331.12906,204.3812c0,0 -1.20302,-12.6251 -4.81274,-15.9962c-3.66987,-3.305 -9.70302,-7.1388 -9.70302,-7.1388" data-paper-data="{&quot;fixed&quot;:true}" id="path32428-5-8 1" stroke="#a57213" stroke-width="5.65484" stroke-miterlimit="4"/><path d="M268.9327,230.66917c0,0 2.58649,-11.1709 -1.08272,-14.542c-3.66987,-3.305 -9.70322,-7.1388 -9.70322,-7.1388" data-paper-data="{&quot;fixed&quot;:true}" id="path32428-5-4-5 1" stroke="#a57213" stroke-width="5.65484" stroke-miterlimit="4"/><path d="M268.9327,230.66917c-25.93962,22.6062 -34.8973,14.9386 -36.95479,15.5335" data-paper-data="{&quot;fixed&quot;:true}" id="path32430-0-7 1" stroke="#a57213" stroke-width="5.65484" stroke-miterlimit="4"/><path d="M223.91657,250.10918c-5.3541,14.2776 -17.96301,31.1992 -30.00034,34.372" data-paper-data="{&quot;fixed&quot;:true}" id="path34239-4 1" stroke="#1d810f" stroke-width="10.22686" stroke-miterlimit="4"/><path d="M223.91657,250.10918c-37.43005,10.8404 -30.61997,33.7771 -30.00034,34.372" data-paper-data="{&quot;fixed&quot;:true}" id="path34241-1 1" stroke="#1d810f" stroke-width="10.22686" stroke-miterlimit="4"/><path d="M229.70393,248.4038c-24.82663,16.2606 -32.24431,26.7044 -35.78773,36.0906" data-paper-data="{&quot;fixed&quot;:true}" id="path34237-8 1" stroke="#5ae733" stroke-width="3.60947" stroke-miterlimit="4"/><path d="M223.7778,242.58039c-14.36644,5.288 -35.39999,6.61 -45.60001,-0.64778" data-paper-data="{&quot;fixed&quot;:true}" id="path34239-5-9 1" stroke="#1d810f" stroke-width="10.22679" stroke-miterlimit="4"/><path d="M223.7778,242.58039c-32.49,-21.5486 -45.54006,-1.322 -45.60001,-0.64778" data-paper-data="{&quot;fixed&quot;:true}" id="path34241-6-7 1" stroke="#1d810f" stroke-width="10.22679" stroke-miterlimit="4"/><path d="M231.97508,246.19606c-17.87569,-9.0557 -42.26282,-7.8659 -50.64946,-3.966" data-paper-data="{&quot;fixed&quot;:true}" id="path34237-1-5 1" stroke="#5ae733" stroke-width="3.60947" stroke-miterlimit="4"/><path d="M260.57496,126.16507c-14.36637,5.288 -35.39999,6.61 -45.59994,-0.64778" data-paper-data="{&quot;fixed&quot;:true}" id="path34239-5-3-8 1" stroke="#1d810f" stroke-width="10.22679" stroke-miterlimit="4"/><path d="M260.57496,126.16507c-32.48993,-21.5486 -45.54006,-1.322 -45.59994,-0.64778" data-paper-data="{&quot;fixed&quot;:true}" id="path34241-6-0-3 1" stroke="#1d810f" stroke-width="10.22679" stroke-miterlimit="4"/><path d="M268.77227,129.78074c-28.46458,-8.3947 -41.22472,-7.3371 -50.64946,-3.966" data-paper-data="{&quot;fixed&quot;:true}" id="path34237-1-4-1 1" stroke="#5ae733" stroke-width="3.60947" stroke-miterlimit="4"/><path d="M261.89301,135.51822c-1.78073,15.1369 -9.92967,34.5703 -20.84569,40.5854" data-paper-data="{&quot;fixed&quot;:true}" id="path34239-5-3-4-4 1" stroke="#1d810f" stroke-width="10.22679" stroke-miterlimit="4"/><path d="M261.89301,135.51822c-33.71384,19.5656 -21.59626,40.1227 -20.84569,40.5854" data-paper-data="{&quot;fixed&quot;:true}" id="path34241-6-0-7-3 1" stroke="#1d810f" stroke-width="10.22679" stroke-miterlimit="4"/><path d="M268.7719,129.78074c-20.18145,21.7469 -24.8686,33.711 -26.05087,43.626" data-paper-data="{&quot;fixed&quot;:true}" id="path34237-1-4-6-3 1" stroke="#5ae733" stroke-width="3.60947" stroke-miterlimit="4"/><path d="M249.27334,207.83823c-12.33214,8.9896 -32.13604,16.1945 -43.93264,12.2285" data-paper-data="{&quot;fixed&quot;:true}" id="path34239-1-3 1" stroke="#1d810f" stroke-width="10.22686" stroke-miterlimit="4"/><path d="M249.27334,207.83823c-37.24299,-11.5014 -44.11911,11.3692 -43.93264,12.2285" data-paper-data="{&quot;fixed&quot;:true}" id="path34241-5-8 1" stroke="#1d810f" stroke-width="10.22686" stroke-miterlimit="4"/><path d="M258.15733,208.98837c-29.68141,-0.03966 -41.61656,4.627 -49.70799,10.5099" data-paper-data="{&quot;fixed&quot;:true}" id="path34237-9-6 1" stroke="#5ae733" stroke-width="3.60947" stroke-miterlimit="4"/><path d="M253.2919,201.46619c-14.82484,-3.305 -33.13428,-14.0132 -37.74469,-25.5807" data-paper-data="{&quot;fixed&quot;:true}" id="path34239-5-4-4 1" stroke="#1d810f" stroke-width="10.22679" stroke-miterlimit="4"/><path d="M253.2919,201.46619c-15.33295,-35.8262 -37.2182,-26.3078 -37.74469,-25.5807" data-paper-data="{&quot;fixed&quot;:true}" id="path34241-6-8-8 1" stroke="#1d810f" stroke-width="10.22679" stroke-miterlimit="4"/><path d="M254.54556,205.85523c-17.89803,-20.0944 -30.02388,-27.9603 -40.14881,-31.1331" data-paper-data="{&quot;fixed&quot;:true}" id="path34237-1-1-8 1" stroke="#5ae733" stroke-width="3.60947" stroke-miterlimit="4"/><path d="M286.07021,91.4163c-12.33214,8.9896 -32.13604,16.1945 -43.9327,12.2285" data-paper-data="{&quot;fixed&quot;:true}" id="path34239-1-4-89 1" stroke="#1d810f" stroke-width="10.22686" stroke-miterlimit="4"/><path d="M286.07021,91.4163c-37.24292,-11.5014 -44.11917,11.3692 -43.9327,12.2285" data-paper-data="{&quot;fixed&quot;:true}" id="path34241-5-1-7 1" stroke="#1d810f" stroke-width="10.22686" stroke-miterlimit="4"/><path d="M294.95422,92.57305c-29.68154,-0.03966 -41.61656,4.627 -49.70806,10.5099" data-paper-data="{&quot;fixed&quot;:true}" id="path34237-9-8-76 1" stroke="#5ae733" stroke-width="3.60947" stroke-miterlimit="4"/><path d="M290.08879,85.05087c-14.82484,-3.305 -33.13428,-14.0132 -37.74475,-25.5807" data-paper-data="{&quot;fixed&quot;:true}" id="path34239-5-4-9-3 1" stroke="#1d810f" stroke-width="10.22679" stroke-miterlimit="4"/><path d="M290.08879,85.05087c-15.33302,-35.8262 -37.21827,-26.3078 -37.74469,-25.5807" data-paper-data="{&quot;fixed&quot;:true}" id="path34241-6-8-7-0 1" stroke="#1d810f" stroke-width="10.22679" stroke-miterlimit="4"/><path d="M294.95462,92.57305c-19.16708,-22.6723 -30.43158,-28.7535 -40.14881,-31.1331" data-paper-data="{&quot;fixed&quot;:true}" id="path34237-1-1-5-30 1" stroke="#5ae733" stroke-width="3.60947" stroke-miterlimit="4"/><path d="M361.23351,69.36534c-12.33214,8.9896 -32.13597,16.1945 -43.9327,12.2285" data-paper-data="{&quot;fixed&quot;:true}" id="path34239-1-4-2-9 1" stroke="#1d810f" stroke-width="10.22686" stroke-miterlimit="4"/><path d="M361.23351,69.36534c-37.24299,-11.5014 -44.11917,11.3692 -43.9327,12.2285" data-paper-data="{&quot;fixed&quot;:true}" id="path34241-5-1-1-2 1" stroke="#1d810f" stroke-width="10.22686" stroke-miterlimit="4"/><path d="M370.11811,70.52209c-29.68154,-0.03966 -41.61656,4.627 -49.70806,10.5099" data-paper-data="{&quot;fixed&quot;:true}" id="path34237-9-8-0-5 1" stroke="#5ae733" stroke-width="3.60947" stroke-miterlimit="4"/><path d="M365.25204,62.99991c-14.82484,-3.305 -33.13434,-14.0132 -37.74469,-25.5807" data-paper-data="{&quot;fixed&quot;:true}" id="path34239-5-4-9-1-0 1" stroke="#1d810f" stroke-width="10.22679" stroke-miterlimit="4"/><path d="M365.25204,62.99991c-15.33302,-35.8262 -37.21827,-26.3078 -37.74469,-25.5807" data-paper-data="{&quot;fixed&quot;:true}" id="path34241-6-8-7-1-5 1" stroke="#1d810f" stroke-width="10.22679" stroke-miterlimit="4"/><path d="M370.11788,70.52209c-19.16715,-22.6723 -30.43158,-28.7535 -40.14881,-31.1331" data-paper-data="{&quot;fixed&quot;:true}" id="path34237-1-1-5-0-9 1" stroke="#5ae733" stroke-width="3.60947" stroke-miterlimit="4"/><path d="M448.2284,250.41985c-1.00935,15.203 3.46232,35.8262 13.10763,43.6921" data-paper-data="{&quot;fixed&quot;:true}" id="path34239-1-4-8-6 1" stroke="#1d810f" stroke-width="10.22679" stroke-miterlimit="4"/><path d="M448.2284,250.41985c29.58808,25.3824 13.92555,43.3616 13.10763,43.6921" data-paper-data="{&quot;fixed&quot;:true}" id="path34241-5-1-9-92 1" stroke="#1d810f" stroke-width="10.22679" stroke-miterlimit="4"/><path d="M442.51016,243.51901c15.87861,25.0519 18.31624,37.677 17.66919,47.6581" data-paper-data="{&quot;fixed&quot;:true}" id="path34237-9-8-7-2 1" stroke="#5ae733" stroke-width="3.60947" stroke-miterlimit="4"/><path d="M451.46839,243.61816c10.95786,10.6421 29.55807,20.491 41.79272,18.2436" data-paper-data="{&quot;fixed&quot;:true}" id="path34239-5-4-9-6-4 1" stroke="#1d810f" stroke-width="10.22679" stroke-miterlimit="4"/><path d="M451.46839,243.61816c38.48276,-5.949 42.09678,17.4504 41.79272,18.2436" data-paper-data="{&quot;fixed&quot;:true}" id="path34241-6-8-7-4-7 1" stroke="#1d810f" stroke-width="10.22679" stroke-miterlimit="4"/><path d="M442.51016,243.51901c29.39679,3.966 40.5626,10.3777 47.75765,17.3182" data-paper-data="{&quot;fixed&quot;:true}" id="path34237-1-1-5-3-7 1" stroke="#5ae733" stroke-width="3.60947" stroke-miterlimit="4"/><path d="M427.65886,104.15377c-1.00935,15.203 3.46232,35.8262 13.10763,43.6921" data-paper-data="{&quot;fixed&quot;:true}" id="path34239-1-4-8-4-4 1" stroke="#1d810f" stroke-width="10.22679" stroke-miterlimit="4"/><path d="M427.65886,104.15377c29.58808,25.3824 13.92555,43.4277 13.10763,43.6921" data-paper-data="{&quot;fixed&quot;:true}" id="path34241-5-1-9-7-8 1" stroke="#1d810f" stroke-width="10.22679" stroke-miterlimit="4"/><path d="M421.94062,97.25954c15.87861,25.0519 18.31624,37.677 17.66919,47.6581" data-paper-data="{&quot;fixed&quot;:true}" id="path34237-9-8-7-7-1 1" stroke="#5ae733" stroke-width="3.60947" stroke-miterlimit="4"/><path d="M430.89889,97.35869c10.95786,10.6421 29.55814,20.491 41.79278,18.2436" data-paper-data="{&quot;fixed&quot;:true}" id="path34239-5-4-9-6-5-2 1" stroke="#1d810f" stroke-width="10.22679" stroke-miterlimit="4"/><path d="M430.89889,97.35869c38.48276,-5.949 42.09671,17.4504 41.79278,18.2436" data-paper-data="{&quot;fixed&quot;:true}" id="path34241-6-8-7-4-4-8 1" stroke="#1d810f" stroke-width="10.22679" stroke-miterlimit="4"/><path d="M421.94062,97.25954c29.39679,3.966 40.5626,10.3777 47.75765,17.3182" data-paper-data="{&quot;fixed&quot;:true}" id="path34237-1-1-5-3-8-9 1" stroke="#5ae733" stroke-width="3.60947" stroke-miterlimit="4"/><path d="M374.55336,149.7165c-8.4838,12.6912 -14.90919,32.7856 -10.48703,44.4192" data-paper-data="{&quot;fixed&quot;:true}" id="path34239-1-4-8-2-6 1" stroke="#1d810f" stroke-width="10.22679" stroke-miterlimit="4"/><path d="M374.55336,149.7165c12.94218,36.7516 -9.63136,44.5514 -10.4871,44.4192" data-paper-data="{&quot;fixed&quot;:true}" id="path34241-5-1-9-8-8 1" stroke="#1d810f" stroke-width="10.22679" stroke-miterlimit="4"/><path d="M373.04917,140.88554c1.21227,29.6789 -2.96128,41.7752 -8.51295,50.1038" data-paper-data="{&quot;fixed&quot;:true}" id="path34237-9-8-7-9-0 1" stroke="#5ae733" stroke-width="3.60947" stroke-miterlimit="4"/><path d="M380.75794,145.44644c4.18347,14.6742 15.33692,32.5873 27.06828,36.6855" data-paper-data="{&quot;fixed&quot;:true}" id="path34239-5-4-9-6-3-2 1" stroke="#1d810f" stroke-width="10.22679" stroke-miterlimit="4"/><path d="M380.75794,145.44644c36.40828,13.881 27.73887,36.1567 27.06828,36.6855" data-paper-data="{&quot;fixed&quot;:true}" id="path34241-6-8-7-4-6-1 1" stroke="#1d810f" stroke-width="10.22679" stroke-miterlimit="4"/><path d="M373.04917,140.88554c23.40462,18.2436 29.93874,29.2823 32.69537,38.8668" data-paper-data="{&quot;fixed&quot;:true}" id="path34237-1-1-5-3-80-0 1" stroke="#5ae733" stroke-width="3.60947" stroke-miterlimit="4"/><path d="M421.37253,198.90812c-2.4067,-15.0708 0.07758,-35.9584 8.93897,-44.7497" data-paper-data="{&quot;fixed&quot;:true}" id="path34239-1-4-8-5-5 1" stroke="#1d810f" stroke-width="10.22686" stroke-miterlimit="4"/><path d="M421.37253,198.90812c27.07059,-28.0264 9.78135,-44.4853 8.93897,-44.7497" data-paper-data="{&quot;fixed&quot;:true}" id="path34241-5-1-9-9-1 1" stroke="#1d810f" stroke-width="10.22686" stroke-miterlimit="4"/><path d="M416.32831,206.31132c13.45102,-26.44 14.69628,-39.1973 13.10816,-49.1123" data-paper-data="{&quot;fixed&quot;:true}" id="path34237-9-8-7-4-1 1" stroke="#5ae733" stroke-width="3.60947" stroke-miterlimit="4"/><path d="M425.23759,205.3727c9.90766,-11.6336 27.49773,-23.2011 39.88996,-22.0774" data-paper-data="{&quot;fixed&quot;:true}" id="path34239-5-4-9-6-6-0 1" stroke="#1d810f" stroke-width="10.22686" stroke-miterlimit="4"/><path d="M425.23759,205.3727c38.89139,2.644 40.26898,-21.3503 39.88996,-22.0774" data-paper-data="{&quot;fixed&quot;:true}" id="path34241-6-8-7-4-9-8 1" stroke="#1d810f" stroke-width="10.22686" stroke-miterlimit="4"/><path d="M416.32831,206.31132c28.8814,-6.8744 39.40869,-14.1454 45.91802,-21.7469" data-paper-data="{&quot;fixed&quot;:true}" id="path34237-1-1-5-3-2-5 1" stroke="#5ae733" stroke-width="3.60947" stroke-miterlimit="4"/><path d="M307.69732,180.08284c-12.33208,8.9896 -32.1361,16.1945 -43.9327,12.2285" data-paper-data="{&quot;fixed&quot;:true}" id="path34239-1-4-8-0-0 1" stroke="#1d810f" stroke-width="10.22686" stroke-miterlimit="4"/><path d="M307.69732,180.08284c-37.24358,-11.5014 -44.11917,11.3692 -43.9327,12.2285" data-paper-data="{&quot;fixed&quot;:true}" id="path34241-5-1-9-3-6 1" stroke="#1d810f" stroke-width="10.22686" stroke-miterlimit="4"/><path d="M316.58192,181.23298c-29.68148,-0.03966 -41.61656,4.627 -49.70799,10.5099" data-paper-data="{&quot;fixed&quot;:true}" id="path34237-9-8-7-0-4 1" stroke="#5ae733" stroke-width="3.60947" stroke-miterlimit="4"/><path d="M311.71579,174.9667c-14.82266,-3.966 -33.13467,-14.0132 -37.74231,-25.5807" data-paper-data="{&quot;fixed&quot;:true}" id="path34239-5-4-9-6-9-6 1" stroke="#1d810f" stroke-width="10.22686" stroke-miterlimit="4"/><path d="M311.71579,173.7108c-15.33408,-35.8262 -37.21886,-26.3078 -37.74231,-25.5807" data-paper-data="{&quot;fixed&quot;:true}" id="path34241-6-8-7-4-2-2 1" stroke="#1d810f" stroke-width="10.22686" stroke-miterlimit="4"/><path d="M314.70141,178.72779c-19.16622,-22.6723 -30.4335,-28.7535 -40.14868,-31.1331" data-paper-data="{&quot;fixed&quot;:true}" id="path34237-1-1-5-3-5-5 1" stroke="#5ae733" stroke-width="3.60947" stroke-miterlimit="4"/><path d="M226.98579,407.79073c117.08666,43.6921 215.88381,24.7875 224.01347,21.6808" data-paper-data="{&quot;fixed&quot;:true}" id="path37562-8 1" stroke="#d74619" stroke-width="23.91531" stroke-miterlimit="4"/><path d="M459.55,432c8.17938,-3.3048 17.66626,-11.95501 22.95,-19c1.07703,-1.43604 0.7307,-3.7307 2,-5c3.25773,-3.25773 9.83914,-3.78552 13,-8c8.2114,-10.94853 0.04532,-24.95468 -8,-33c-13.47655,-13.47655 -63.81347,-33.08135 -83,-35c-13.61266,-1.36127 -32.56646,2.57516 -44,-6" data-paper-data="{&quot;fixed&quot;:true}" stroke-opacity="0.93" stroke="#fa4908" stroke-width="25" stroke-miterlimit="10"/><path d="M216.55,404c-23.06795,0 -43.26127,-13.68309 -27.05,-38c4.41672,-6.62508 26.17995,-19.65553 34,-24c14.14563,-7.85868 55.44977,-22 71,-22c3.73667,0 23.35148,-1.53963 24,3c0.84818,5.93726 -10.36372,5 -13,5c-18.16224,0 -34.09505,2.44215 -52,5" data-paper-data="{&quot;fixed&quot;:true}" stroke-opacity="0.93" stroke="#fa4908" stroke-width="25" stroke-miterlimit="10"/><path d="M175.55,396c-0.0814,9.76781 6.66733,10.29119 10.95,18c3.23559,5.82406 3.06972,15.56573 5,22c1.55695,5.18982 4.11009,9.27522 6,14c14.37285,35.93212 27.19848,91.59798 50,122" data-paper-data="{&quot;fixed&quot;:true}" stroke-opacity="0.93" stroke="#fa4908" stroke-width="25" stroke-miterlimit="10"/><path d="M502.55,405c-3.46707,16.50987 -15.07387,34.18719 -23.05,49c-7.20821,13.38667 -11.73088,28.20793 -18,42c-4.66571,10.26456 -11.2517,19.71201 -16,30c-6.58955,14.27735 -10.91542,32.57709 -14,48" data-paper-data="{&quot;fixed&quot;:true}" stroke-opacity="0.93" stroke="#fa4908" stroke-width="25" stroke-miterlimit="10"/><path d="M248.55,589c8.28188,11.22967 28.40372,7.86343 40.95,11c7.58508,1.89627 15.13465,5.39497 23,6c9.37142,0.72088 19.76207,-1.67962 29,0c8.55539,1.55552 14.23008,2.19248 23,0c18.19788,-4.54947 40.72574,-19 59,-19" data-paper-data="{&quot;fixed&quot;:true}" stroke-opacity="0.93" stroke="#fa4908" stroke-width="25" stroke-miterlimit="10"/><path d="M206.55,416c4.94214,25.34429 20.97765,46.76563 32.95,69c4.68426,8.69933 6.78446,17.75533 10,27c3.61487,10.39276 15.16904,33.05498 18,39c2.28299,4.79428 9.87994,23.93997 16,27c3.33333,1.66667 -2.99918,-6.85586 -5,-10c-6.47543,-10.17568 -16.62387,-15.43581 -23,-25c-8.29845,-12.44768 -18.57572,-26.33297 -20,-42c-0.63086,-6.93943 -2.18809,-14.35635 -4,-21c-0.58835,-2.15728 -0.80735,-6.43853 -3,-6c-2.37958,0.47592 -2.66667,4.66667 -2,7c4.66936,16.34276 14.39883,30.79766 22,46c5.12817,10.25634 12.10019,23.60115 14,35c1.07205,6.43232 -1.3471,10.97522 2,17c5.34989,9.6298 22.27326,15.05281 32,11c14.81117,-6.17132 -4.03927,-25.89425 -7,-33c-9.31695,-22.36069 -4.90485,-49.26213 -14,-72c-3.70051,-9.25128 -12.08449,-13.94893 -19,-20c-5.69344,-4.98176 -13.64465,-27.45046 -17,-35c-1.98631,-4.4692 -4.113,-4.40867 -8,-7c-1.38675,-0.9245 -3.38102,-4.54746 -4,-3c-0.83488,2.0872 7.07317,22.2195 8,25c7.37924,22.13772 18.85357,42.70714 29,63c4.27195,8.54391 6.31827,18.40929 10,27c1.35188,3.15439 3.46522,5.93044 5,9c0.80277,1.60555 0.5983,6.12136 2,5c4.37032,-3.49626 3,-19.01295 3,-22c0,-15.24368 -10.09712,-28.48562 -13,-43c-1.10239,-5.51193 0.13342,-11.3329 -1,-17c-1.31911,-6.59557 -1.43502,-13.78288 -6,-19c-1.24169,-1.41907 -2.75831,-2.58093 -4,-4c-1.09751,-1.25429 -4.49071,-4.74536 -3,-4c9.07478,4.53739 10.692,13.73001 14,22c1.44371,3.60927 4.55629,6.39073 6,10c4.07348,10.18371 5.27092,21.74502 9,32c5.31071,14.60445 14.45097,28.12743 20,42c4.29553,10.73881 6.75731,22.78655 9,34c0.70408,3.52039 2.7731,6.62604 4,10c0.72046,1.98126 1.21704,7.9574 2,6c3.32216,-8.30539 -1.21311,-22.66118 -3,-31c-5.53157,-25.81401 -11.04245,-52.89339 -22,-77c-4.78895,-10.53568 -9.37945,-21.60377 -14,-32c-1.4134,-3.18016 -1.30991,-6.95784 -3,-10c-0.8094,-1.45693 -3.79017,-5.46745 -3,-4c19.9129,36.9811 42.76092,72.84254 57,112c3.74274,10.29252 6.99916,18.99536 9,30c0.65862,3.6224 1,11 1,11c0,0 0,-3.33333 0,-5c0,-6.68543 -0.55593,-13.33902 -1,-20c-1.85797,-27.86954 -4.22089,-62.36815 -19,-87c-4.99067,-8.31779 -10.66112,-16.61033 -16,-25c-1.84249,-2.89534 -2.94087,-6.2545 -5,-9c-1,-1.33333 -3.52705,-5.58114 -3,-4c3.18823,9.56468 12.90122,13.68147 19,21c8.3275,9.993 13.835,22.6975 20,34c1.0809,1.98165 4.33097,10.96008 6,13c6.57465,8.03568 11.36243,13.35577 13,24c2.72417,17.70709 10.211,24.893 5,44c-0.88143,3.23192 2.34996,10 -1,10c-3.43384,0 -3.62183,-9.68035 -4,-18c-0.66887,-14.71505 -0.91816,-30.30943 0,-45c0.46316,-7.41049 2.49061,-15.54693 1,-23c-3.46897,-17.34486 -17.83045,-31.43426 -29,-44c-0.93636,-1.0534 -8.45823,-14.02784 -7,-15c1.61722,-1.07814 3.38278,1.92186 5,3c8.08061,5.38707 13.35429,9.59563 23,13c25.04101,8.838 33.88371,36.51175 32,61c-0.51918,6.7494 1.32578,14.3711 0,21c-2.19796,10.98979 -2.97404,20.0714 1,31c0.72046,1.98126 -0.02707,5.42084 2,6c2.83685,0.81053 7.73914,-7.97587 10,-13c5.99274,-13.3172 9.47763,-18.7821 21,-28c10.05331,-8.04264 23.44823,-10.08617 34,-18c1.7075,-1.28062 5.50923,-3.49077 4,-5c-2.89412,-2.89412 -12.22616,6.46427 -13,7c-11.41194,7.90058 -23.09428,16.33951 -30,29c-2.6584,4.87374 -4.99809,12.48947 -6,18c-0.29814,1.63978 -1.53191,5.65653 0,5c7.72518,-3.31079 9.48621,-15.48621 15,-21c1.37437,-1.37437 3.38278,-4.07814 5,-3c6.51998,4.34665 7.56328,13.29532 9,20c0.35613,1.66194 1.76012,6.52023 1,5c-3.17787,-6.35574 -3.92034,-14.24109 -6,-21c-1.6266,-5.28644 -4.38576,-10.15728 -6,-15c-5.05012,-15.15035 4.98475,-37.97712 13,-50c4.16201,-6.24302 10.97771,-8.44428 14,-16c1.98594,-4.96486 0.83018,-11.11791 3,-16c1.68484,-3.79089 17.54653,-10.15116 6,-14c-16.42995,-5.47665 -41.83531,23.1177 -46,37c-1.41158,4.70526 0.69427,11.14014 0,16c-0.77746,5.44222 -2.84812,10.62456 -4,16c-1.55864,7.27366 -3.42077,15.89436 -8,22c-1,1.33333 -2.50929,3.74536 -4,3c-4.40411,-2.20206 -0.27027,-15.25676 0,-16c7.19689,-19.79146 18.42784,-18.40722 29,-32c1.73793,-2.23448 8.2495,-11.96464 4,-15c-1.46365,-1.04546 -24.92246,5.54572 -27,7c-1.74855,1.22398 -2.64843,3.34809 -4,5c-1.64858,2.01493 -3.46874,3.89452 -5,6c-1.1432,1.5719 -1.15609,5.61464 -3,5c-1.41336,-0.47112 -4.7331,-12.93239 -5,-14c-0.96384,-3.85535 -4.88938,-17.66624 -1,-21c1.86623,-1.59963 19.02737,-5 22,-5c6.54296,0 8.51658,-0.95365 14,-4c1.56916,-0.87176 5.99572,-3.49358 5,-2c-3.02256,4.53384 -10.56741,6.10032 -15,8c-9.18868,3.93801 -16.49398,8.1012 -27,6c-5.19231,-1.03846 -9.80769,-4.96154 -15,-6c-7.08423,-1.41685 -15.02036,1.79186 -22,-1c-1.54746,-0.61898 -4.40423,-1.3831 -4,-3c0.43231,-1.72924 13.4762,-2 15,-2c13.23829,0 30.89658,-3.40228 42,4" data-paper-data="{&quot;fixed&quot;:true}" stroke-opacity="0.93" stroke="#fa4908" stroke-width="25" stroke-miterlimit="10"/><path d="M195.55,388c23.84085,4.81633 46.9648,12.20296 70.95,17c13.18302,2.6366 26.63535,2.57006 40,5c12.3564,2.24662 24.46219,6.95518 37,8c21.31182,1.77598 43.61154,0 65,0c12.1969,0 37.32791,3.26884 48,-1c3.06382,-1.22553 4.36013,-5.0201 7,-7c2.87209,-2.15407 10,-0.40989 10,-4c0,-1.42532 -17.63281,3.52656 -20,4c-3.33333,0.66667 -13.04047,0.47977 -10,2c14.17095,7.08548 22.12616,-15.21846 31,-13c2.92834,0.73208 4.01846,9 1,9c-6.74669,0 5.24356,-12.43267 6,-13" data-paper-data="{&quot;fixed&quot;:true}" stroke-opacity="0.93" stroke="#574e4e" stroke-width="14" stroke-miterlimit="10"/><path d="M221.55,362c-6.90309,1.36695 -14.36257,3.36263 -18.05,10c-1.53595,2.7647 -2.68506,6.85058 -3,10c-0.16584,1.6584 1.66667,5 0,5c-3.01846,0 -1.27162,-7.01233 1,-9c5.94341,-5.20048 15.37115,-6.37115 21,-12c4.75886,-4.75886 4.78018,-7.83405 12,-10c3.20868,-0.9626 6.7151,-0.34302 10,-1c10.95091,-2.19018 20.60643,-8.86064 32,-10c9.90206,-0.99021 20.08847,0.90105 30,0c5.20982,-0.47362 9.88024,-2.97605 15,-4" data-paper-data="{&quot;fixed&quot;:true}" stroke-opacity="0.93" stroke="#574e4e" stroke-width="14" stroke-miterlimit="10"/><path d="M300.55,357c-0.05258,5.25777 0.43339,9.83392 0.95,15c0.31662,3.16617 0.68341,19.83543 -6,19c-4.68735,-0.58592 -3.87958,-7.47906 -5,-10c-2.01309,-4.52945 -5.81259,-22.64584 -9,-23c-4.01867,-0.44652 -32.14196,7.23344 -37,9c-2.66885,0.97049 -14.37049,3.46885 -12,9c1.40491,3.27812 25.73278,1.57328 30,2c3.38248,0.33825 11.07497,-1.2249 10,2c-1.17851,3.53553 -11,-1.72678 -11,2c0,1.34667 9.80579,0.98058 10,1c5.0495,0.50495 9.9505,2.49505 15,3c6.7072,0.67072 13.3995,-0.98015 20,1c38.66663,11.59999 77.79993,8 118,8c9.47295,0 17.53755,-3 27,-3c1.75803,0 8.87758,0.61898 10,-2c2.37357,-5.53833 -4.97868,-5.63249 -7,-6c-11.82881,-2.15069 -24.67488,-2.46995 -36,-7c-0.08996,-0.03599 -9.55959,-3.32122 -9,-5c0.80195,-2.40585 9.90731,1.97219 10,2c2.53475,0.76042 17,2 17,2c0,0 -9.81651,-0.94495 -10,-1c-4.96932,-1.49079 -9.45472,-4.48491 -14,-6c-6.75095,-2.25032 -14.94565,1.56522 -22,-1c-3.5024,-1.2736 -6.43039,-3.92912 -10,-5c-4.90265,-1.4708 -10.31835,0.08073 -15,-2c-1.52302,-0.6769 -3.25464,-4.49071 -4,-3c-0.29904,0.59809 10.10831,23.81948 10,24c-2.66667,4.44444 -8,-3.11111 -8,-4c0,-6.68398 14.24242,-4 18,-4c7.76588,0 7.58686,2.94014 13,7c2.78408,2.08806 11.55635,6.1127 10,3c-3.00241,-6.00483 -24.10443,-2.02848 -13,1c2.25112,0.61394 4.66667,0 7,0" data-paper-data="{&quot;fixed&quot;:true}" stroke-opacity="0.93" stroke="#151111" stroke-width="21" stroke-miterlimit="10"/><path d="M301.55,358c6.45513,0 17.63667,-4.455 20.95,3c1.19934,2.69851 2.42617,12.57383 0,15c-4.63022,4.63022 -8.9971,-3 -8,-3c2.62468,0 8.54171,10.05561 10,12" data-paper-data="{&quot;fixed&quot;:true}" stroke-opacity="0.93" stroke="#151111" stroke-width="21" stroke-miterlimit="10"/></g></svg>