<svg version="1.1" xmlns="http://www.w3.org/2000/svg" xmlns:xlink="http://www.w3.org/1999/xlink" width="612" height="612"><g fill="none" fill-rule="nonzero" stroke="none" stroke-width="none" stroke-linecap="round" stroke-linejoin="round" stroke-miterlimit="4" stroke-dasharray="" stroke-dashoffset="0" font-family="none" font-weight="none" font-size="none" text-anchor="none" style="mix-blend-mode: normal"><path d="M291.29846,292.54158c11.2638,81.38459 9.33037,118.70574 12.11895,171.84055" data-paper-data="{&quot;fixed&quot;:true}" id="path6204-9 1" stroke="#6b6b6b" stroke-width="18.36"/><path d="M194.17856,432.39943c38.11787,-23.84254 57.07102,-28.1042 104.24282,-50.22366c30.31566,4.29073 93.84423,3.31337 113.80799,-2.35987" data-paper-data="{&quot;fixed&quot;:true}" id="path6701-0 1" stroke="#6b6b6b" stroke-width="18.36"/><path d="M206.22757,338.97635c-8.70925,52.87784 -17.25363,105.30895 -25.77022,157.66454" data-paper-data="{&quot;fixed&quot;:true}" id="path6089 1" stroke="#939393" stroke-width="18.36"/><path d="M343.96467,342.93364c11.2638,81.38459 9.33037,118.70574 12.11895,171.84055" data-paper-data="{&quot;fixed&quot;:true}" id="path6204 1" stroke="#939393" stroke-width="18.36"/><path d="M409.74718,297.1996c4.52268,63.84363 8.24101,116.75712 12.11895,171.84055" data-paper-data="{&quot;fixed&quot;:true}" id="path6204-3 1" stroke="#939393" stroke-width="18.36"/><path d="M194.17856,432.39943c49.40352,12.09239 103.30238,5.52391 156.90903,0.1684c30.21634,-13.21896 50.1026,-24.39977 65.27914,-39.55417" data-paper-data="{&quot;fixed&quot;:true}" id="path6701 1" stroke="#939393" stroke-width="18.36"/><path d="M363.70054,342.62143c2.06917,4.16772 66.89387,-55.28282 54.11151,-75.8123c-9.68031,-15.54737 -113.70819,-21.20904 -150.47098,-4.31582c-30.99015,14.24044 -90.38608,47.71342 -81.69617,68.72166c8.68991,21.00825 179.79078,13.1088 178.05562,11.40664" data-paper-data="{&quot;fixed&quot;:true}" id="path4651 1" stroke="#88201c" stroke-width="18.36"/><path d="M382.12763,276.76345c-27.44416,-3.4988 -56.10027,-4.6255 -84.44821,-6.35525c-17.60589,4.6102 -65.69239,39.2412 -76.89394,47.75613c35.82868,2.16526 115.40609,-32.49255 143.86605,-14.86395" data-paper-data="{&quot;fixed&quot;:true}" id="path7896 1" stroke="#f00000" stroke-width="61.2"/><path d="M223.47346,331.90763c92.30078,12.48419 161.37619,2.44372 177.48704,-47.56023" data-paper-data="{&quot;fixed&quot;:true}" id="path7356 1" stroke="#661815" stroke-width="30.6"/></g></svg>