<svg version="1.1" xmlns="http://www.w3.org/2000/svg" xmlns:xlink="http://www.w3.org/1999/xlink" width="661" height="661"><g fill="none" fill-rule="nonzero" stroke="none" stroke-width="none" stroke-linecap="round" stroke-linejoin="round" stroke-miterlimit="none" stroke-dasharray="" stroke-dashoffset="0" font-family="none" font-weight="none" font-size="none" text-anchor="none" style="mix-blend-mode: normal"><path d="M268.53719,310.14781c26.76257,50.236 30.82772,46.4022 31.59448,59.9527c0.79386,13.5505 56.71843,8.5269 65.35704,6.61c8.6392,-1.983 6.2134,-8.1964 5.949,-13.6166c-0.28157,-5.288 25.55294,-38.9329 28.61998,-46.7327" data-paper-data="{&quot;fixed&quot;:true}" id="path53808-0 1" stroke="#5d5955" stroke-width="16.72284" stroke-miterlimit="4"/><path d="M445.16635,100.72318c-19.69053,-20.5571 -194.46289,-5.949 -208.98644,3.966c-18.37514,12.0963 -120.38767,154.43604 -102.49645,182.77311c17.89261,28.3569 378.85524,25.9112 392.78259,6.7422c14.08128,-19.1029 -62.06354,-189.2443 -69.2693,-190.52664" data-paper-data="{&quot;fixed&quot;:true}" id="path52838-6 1" stroke="#eacd46" stroke-width="13.8806" stroke-miterlimit="4"/><path d="M391.60572,118.14714c51.24535,3.305 60.39293,-9.4523 62.01238,11.5675c1.38876,18.2436 -54.06121,0.05949 -51.80059,18.2436c2.3796,19.3012 54.01494,-13.7488 58.04638,5.288c3.8338,18.1775 -53.60512,9.1879 -48.7666,27.1671c5.2219,19.4334 54.42476,-20.2927 60.3731,-1.322c6.7621,21.8791 -64.77536,16.1284 -57.3325,37.7431c6.2795,18.3097 51.62212,-23.0028 57.89501,-4.627c4.9575,14.4759 -43.61741,10.7743 -38.46227,25.1841c5.949,16.7233 46.81004,-22.2757 53.03666,-5.949c10.8133,28.9518 -100.61003,34.3059 -76.01587,53.0122c11.74908,11.237 74.90866,-10.7082 84.06916,-14.6742" data-paper-data="{&quot;fixed&quot;:true}" id="path54109-2 1" stroke="#fcf3c6" stroke-width="13.8806" stroke-miterlimit="4"/><path d="M321.55,383c9.25853,12.55394 14.71943,33.76877 7.95,49c-4.49347,10.1103 -19.95084,14.96313 -28,21c-26.32816,19.74612 -64.1802,47.67564 -44,84c3.06561,5.51809 10.0272,10.2704 15,14" data-paper-data="{&quot;fixed&quot;:true}" stroke-opacity="0.79" stroke="#329c71" stroke-width="19" stroke-miterlimit="10"/><path d="M357.55,383c-11.22708,18.40505 -1.00942,42.04058 12.95,56c6.26978,6.26978 16.43118,4.5749 22,12c5.22075,6.961 5.0616,17.41547 10,24c1,1.33333 2.82149,1.82149 4,3c1.17851,1.17851 3.32686,5.6343 3,4c-0.54874,-2.74369 -17.26789,-25.51193 -6,-18c0.49629,0.33086 6.26832,7.95475 7,9c4.38629,6.26612 9.15198,12.87994 12,20c7.23198,18.07996 -2.55018,55.41263 -18,67" data-paper-data="{&quot;fixed&quot;:true}" stroke-opacity="0.79" stroke="#329c71" stroke-width="19" stroke-miterlimit="10"/><path d="M271.55,558c12.98772,26.4157 64.22392,11.89384 86.95,10c10.75894,-0.89658 21.3647,2.06353 32,1c4.50622,-0.45062 10.50078,-2.49922 9,-4c-1.43372,-1.43372 -4.04386,0.46651 -6,1c-8.2379,2.2467 -16.71602,8 -25,8c-14.67206,0 -29.43122,0.45688 -44,-1c-10.77384,-1.07738 -20.5026,-5.90052 -31,-8c-7.63402,-1.5268 -24.02896,-2.37194 -29,-9c-6.4755,-8.63399 -8,-19.50539 -8,-30" data-paper-data="{&quot;fixed&quot;:true}" stroke-opacity="0.79" stroke="#329c71" stroke-width="19" stroke-miterlimit="10"/><path d="M321.55,402c-0.14546,14.54613 -1.97617,28.04698 -7.05,42c-1.57479,4.33068 -13.48705,10.53884 -14,9c-0.7719,-2.31569 6.83173,-6.83173 8,-8c2.74874,-2.74874 4.50488,-6.41172 6,-10c4.24719,-10.19325 12.61154,-26.47116 8,-38c-1.38409,-3.46023 -4.26912,-6.34559 -5,-10" data-paper-data="{&quot;fixed&quot;:true}" stroke-opacity="0.79" stroke="#329c71" stroke-width="19" stroke-miterlimit="10"/><path d="M336.55,389c7.38292,7.47638 9.7841,15.60829 6.95,26c-1.43261,5.25292 -7.39493,16.87258 -3,22c2.23362,2.6059 16.62533,5.66253 20,6c1.69124,0.16912 5,0.69967 5,-1c0,-3.66667 -7.33333,0 -11,0c-10.17907,0 -19.97563,2 -30,2" data-paper-data="{&quot;fixed&quot;:true}" stroke-opacity="0.79" stroke="#329c71" stroke-width="19" stroke-miterlimit="10"/><path d="M313.55,454c13.17118,7.98253 35.88352,6.50665 50.95,5c2.03692,-0.20369 15.36633,-2.09899 16,-4c0.39359,-1.18077 -5.34172,-1 -10,-1c-12.0867,0 -23.9133,1 -36,1c-5.10986,0 -10.7765,0.16475 -10,-1c4.00359,-6.00538 18.28333,-0.31 22,-7c2.04951,-3.68911 3,-11.7647 3,-16c0,-1.66667 -1.49071,-5.74536 0,-5c1.88562,0.94281 1.33333,4 2,6c1.17851,3.53553 2.76393,7.01858 5,10" data-paper-data="{&quot;fixed&quot;:true}" stroke-opacity="0.79" stroke="#329c71" stroke-width="9" stroke-miterlimit="10"/><path d="M317.55,492c-1.68333,-0.33333 -3.36667,-0.66667 -5.05,-1" data-paper-data="{&quot;fixed&quot;:true}" stroke-opacity="0.79" stroke="#9c3284" stroke-width="9" stroke-miterlimit="10"/><path d="M310.5,482c0.01667,0 0.03333,0 0.05,0" data-paper-data="{&quot;fixed&quot;:true}" stroke-opacity="0.79" stroke="#9c3284" stroke-width="9" stroke-miterlimit="10"/><path d="M296.55,486c0.31667,-1.66667 0.63333,-3.33333 0.95,-5" data-paper-data="{&quot;fixed&quot;:true}" stroke-opacity="0.79" stroke="#9c3284" stroke-width="9" stroke-miterlimit="10"/><path d="M304.55,491c-0.01667,1.66667 -0.03333,3.33333 -0.05,5" data-paper-data="{&quot;fixed&quot;:true}" stroke-opacity="0.79" stroke="#9c3284" stroke-width="9" stroke-miterlimit="10"/><path d="M294.5,495c0.01667,0 0.03333,0 0.05,0" data-paper-data="{&quot;fixed&quot;:true}" stroke-opacity="0.79" stroke="#9c3284" stroke-width="9" stroke-miterlimit="10"/><path d="M303.5,487c0.01667,0 0.03333,0 0.05,0" data-paper-data="{&quot;fixed&quot;:true}" stroke-opacity="0.79" stroke="#9c3284" stroke-width="9" stroke-miterlimit="10"/><path d="M306.5,475c0.01667,0 0.03333,0 0.05,0" data-paper-data="{&quot;fixed&quot;:true}" stroke-opacity="0.79" stroke="#9c3284" stroke-width="9" stroke-miterlimit="10"/><path d="M317.5,486c0.01667,0 0.03333,0 0.05,0" data-paper-data="{&quot;fixed&quot;:true}" stroke-opacity="0.79" stroke="#9c3284" stroke-width="9" stroke-miterlimit="10"/><path d="M315.55,480c-0.01667,-2 -0.03333,-4 -0.05,-6" data-paper-data="{&quot;fixed&quot;:true}" stroke-opacity="0.79" stroke="#9c3284" stroke-width="9" stroke-miterlimit="10"/><path d="M308.5,500c0.01667,0 0.03333,0 0.05,0" data-paper-data="{&quot;fixed&quot;:true}" stroke-opacity="0.79" stroke="#9c3284" stroke-width="9" stroke-miterlimit="10"/><path d="M317.5,503c0.01667,0 0.03333,0 0.05,0" data-paper-data="{&quot;fixed&quot;:true}" stroke-opacity="0.79" stroke="#9c3284" stroke-width="9" stroke-miterlimit="10"/><path d="M315.5,502c0.01667,0 0.03333,0 0.05,0" data-paper-data="{&quot;fixed&quot;:true}" stroke-opacity="0.79" stroke="#9c3284" stroke-width="9" stroke-miterlimit="10"/><path d="M380.55,480c-1.68333,1 -3.36667,2 -5.05,3" data-paper-data="{&quot;fixed&quot;:true}" stroke-opacity="0.79" stroke="#9c3284" stroke-width="9" stroke-miterlimit="10"/><path d="M372.55,486c-0.35,2 -0.7,4 -1.05,6" data-paper-data="{&quot;fixed&quot;:true}" stroke-opacity="0.79" stroke="#9c3284" stroke-width="9" stroke-miterlimit="10"/><path d="M380.5,495c0.01667,0 0.03333,0 0.05,0" data-paper-data="{&quot;fixed&quot;:true}" stroke-opacity="0.79" stroke="#9c3284" stroke-width="9" stroke-miterlimit="10"/><path d="M382.5,488c0.01667,0 0.03333,0 0.05,0" data-paper-data="{&quot;fixed&quot;:true}" stroke-opacity="0.79" stroke="#9c3284" stroke-width="9" stroke-miterlimit="10"/><path d="M391.5,498c0.01667,0 0.03333,0 0.05,0" data-paper-data="{&quot;fixed&quot;:true}" stroke-opacity="0.79" stroke="#9c3284" stroke-width="9" stroke-miterlimit="10"/><path d="M378.5,503c0.01667,0 0.03333,0 0.05,0" data-paper-data="{&quot;fixed&quot;:true}" stroke-opacity="0.79" stroke="#9c3284" stroke-width="9" stroke-miterlimit="10"/><path d="M371.5,500c0.01667,0 0.03333,0 0.05,0" data-paper-data="{&quot;fixed&quot;:true}" stroke-opacity="0.79" stroke="#9c3284" stroke-width="9" stroke-miterlimit="10"/><path d="M385.5,507c0.01667,0 0.03333,0 0.05,0" data-paper-data="{&quot;fixed&quot;:true}" stroke-opacity="0.79" stroke="#9c3284" stroke-width="9" stroke-miterlimit="10"/><path d="M390.5,491c0.01667,0 0.03333,0 0.05,0" data-paper-data="{&quot;fixed&quot;:true}" stroke-opacity="0.79" stroke="#9c3284" stroke-width="9" stroke-miterlimit="10"/><path d="M388.5,485c0.01667,0 0.03333,0 0.05,0" data-paper-data="{&quot;fixed&quot;:true}" stroke-opacity="0.79" stroke="#9c3284" stroke-width="9" stroke-miterlimit="10"/><path d="M373.55,478c-2.01667,1 -4.03333,2 -6.05,3" data-paper-data="{&quot;fixed&quot;:true}" stroke-opacity="0.79" stroke="#9c3284" stroke-width="9" stroke-miterlimit="10"/><path d="M365.5,490c0.01667,0 0.03333,0 0.05,0" data-paper-data="{&quot;fixed&quot;:true}" stroke-opacity="0.79" stroke="#9c3284" stroke-width="9" stroke-miterlimit="10"/><path d="M356.5,501c0.01667,0 0.03333,0 0.05,0" data-paper-data="{&quot;fixed&quot;:true}" stroke-opacity="0.79" stroke="#9c3284" stroke-width="9" stroke-miterlimit="10"/><path d="M362.5,499c0.01667,0 0.03333,0 0.05,0" data-paper-data="{&quot;fixed&quot;:true}" stroke-opacity="0.79" stroke="#9c3284" stroke-width="9" stroke-miterlimit="10"/><path d="M367.55,506c1.65,1 3.3,2 4.95,3" data-paper-data="{&quot;fixed&quot;:true}" stroke-opacity="0.79" stroke="#9c3284" stroke-width="9" stroke-miterlimit="10"/><path d="M380.55,513c1.98333,0.66667 3.96667,1.33333 5.95,2" data-paper-data="{&quot;fixed&quot;:true}" stroke-opacity="0.79" stroke="#9c3284" stroke-width="9" stroke-miterlimit="10"/><path d="M290.55,506c-2.38823,-0.94583 -21.48584,-4.51273 -16.05,5c2.02419,3.54233 11.8973,2 15,2" data-paper-data="{&quot;fixed&quot;:true}" stroke-opacity="0.79" stroke="#77df29" stroke-width="9" stroke-miterlimit="10"/><path d="M295.55,516c-5.8353,4.32245 -7.29497,8.97989 -9.05,16c-0.30956,1.23825 -3.35728,9.27146 3,8c9.41252,-1.8825 8,-20.00905 8,-27" data-paper-data="{&quot;fixed&quot;:true}" stroke-opacity="0.79" stroke="#77df29" stroke-width="9" stroke-miterlimit="10"/><path d="M287.55,501c-0.61994,-3.5425 -1.8922,-7.12293 -4.05,-10" data-paper-data="{&quot;fixed&quot;:true}" stroke-opacity="0.79" stroke="#77df29" stroke-width="9" stroke-miterlimit="10"/><path d="M305.55,514c7.26703,0 15.16002,0.34249 20.95,-4c0.87667,-0.6575 8.29161,-5.13549 6,-8c-2.76736,-3.4592 -14.24693,3.89877 -17,5" data-paper-data="{&quot;fixed&quot;:true}" stroke-opacity="0.79" stroke="#77df29" stroke-width="9" stroke-miterlimit="10"/><path d="M328.55,497c-0.08467,-8.46657 1.9113,-17.28173 -8.05,-4" data-paper-data="{&quot;fixed&quot;:true}" stroke-opacity="0.79" stroke="#77df29" stroke-width="9" stroke-miterlimit="10"/><path d="M306.55,516c-0.14629,17.55526 18.06316,20.08487 29.95,29" data-paper-data="{&quot;fixed&quot;:true}" stroke-opacity="0.79" stroke="#77df29" stroke-width="9" stroke-miterlimit="10"/><path d="M358.55,502c-2.10466,-5.13332 -4.49058,-10.40578 -5.05,-16c-0.16584,-1.6584 1.42915,-4.14251 0,-5c-4.28571,-2.57143 -6.71429,5.57143 -7,7c-1.1685,5.84251 2.81301,8.75067 6,13" data-paper-data="{&quot;fixed&quot;:true}" stroke-opacity="0.79" stroke="#77df29" stroke-width="9" stroke-miterlimit="10"/><path d="M358.55,507c-3.35,0 -6.7,0 -10.05,0" data-paper-data="{&quot;fixed&quot;:true}" stroke-opacity="0.79" stroke="#77df29" stroke-width="9" stroke-miterlimit="10"/><path d="M387.55,517c6.90311,0 14.33399,-3.72456 18.95,-9c1.09751,-1.25429 3.85749,-2.57085 3,-4c-2.38581,-3.97635 -13.47811,0.99124 -16,2" data-paper-data="{&quot;fixed&quot;:true}" stroke-opacity="0.79" stroke="#77df29" stroke-width="9" stroke-miterlimit="10"/><path d="M356.55,515c-3.59718,4.71761 -9.59115,8.51871 -15.05,11c-1.54733,0.70333 -6.69967,1 -5,1c9.28912,0 15.93462,-6 25,-6" data-paper-data="{&quot;fixed&quot;:true}" stroke-opacity="0.79" stroke="#77df29" stroke-width="9" stroke-miterlimit="10"/><path d="M372.55,517c2.69256,3.26371 22.73694,32.25428 16.95,12" data-paper-data="{&quot;fixed&quot;:true}" stroke-opacity="0.79" stroke="#77df29" stroke-width="9" stroke-miterlimit="10"/><path d="M383.55,520c-2.01667,-0.33333 -4.03333,-0.66667 -6.05,-1" data-paper-data="{&quot;fixed&quot;:true}" stroke-opacity="0.79" stroke="#77df29" stroke-width="9" stroke-miterlimit="10"/><path d="M363.55,528c-4.91938,5.84481 -9.33968,12.97381 -16.05,17c-5.78055,3.46833 -9.91598,3.55464 -14,9" data-paper-data="{&quot;fixed&quot;:true}" stroke-opacity="0.79" stroke="#77df29" stroke-width="9" stroke-miterlimit="10"/></g></svg>