<svg version="1.1" xmlns="http://www.w3.org/2000/svg" xmlns:xlink="http://www.w3.org/1999/xlink" width="693" height="693"><g fill="none" fill-rule="nonzero" stroke="none" stroke-width="none" stroke-linecap="round" stroke-linejoin="round" stroke-miterlimit="none" stroke-dasharray="" stroke-dashoffset="0" font-family="none" font-weight="none" font-size="none" text-anchor="none" style="mix-blend-mode: normal"><path d="M329.85267,331.26032c12.7546,92.15608 10.56527,134.4168 13.72292,194.58416" data-paper-data="{&quot;fixed&quot;:true}" id="path6204-9 1" stroke="#6b6b6b" stroke-width="20.79" stroke-miterlimit="4"/><path d="M219.87866,489.62877c43.16288,-26.99817 64.62454,-31.82388 118.03966,-56.87091c34.32803,4.85862 106.26479,3.7519 128.87081,-2.67221" data-paper-data="{&quot;fixed&quot;:true}" id="path6701-0 1" stroke="#6b6b6b" stroke-width="20.79" stroke-miterlimit="4"/><path d="M233.5224,383.84086c-9.86194,59.87638 -19.53719,119.24689 -29.18098,178.53191" data-paper-data="{&quot;fixed&quot;:true}" id="path6089 1" stroke="#939393" stroke-width="20.79" stroke-miterlimit="4"/><path d="M389.48941,388.32191c12.7546,92.15608 10.56527,134.4168 13.72292,194.58416" data-paper-data="{&quot;fixed&quot;:true}" id="path6204 1" stroke="#939393" stroke-width="20.79" stroke-miterlimit="4"/><path d="M463.97843,336.53484c5.12127,72.29352 9.33173,132.21026 13.72292,194.58416" data-paper-data="{&quot;fixed&quot;:true}" id="path6204-3 1" stroke="#939393" stroke-width="20.79" stroke-miterlimit="4"/><path d="M219.87866,489.62877c55.94222,13.69285 116.97475,6.25502 177.6764,0.19069c34.21556,-14.96852 56.73383,-27.62915 73.91903,-44.78928" data-paper-data="{&quot;fixed&quot;:true}" id="path6701 1" stroke="#939393" stroke-width="20.79" stroke-miterlimit="4"/><path d="M411.83737,387.96838c2.34303,4.71933 75.74747,-62.59966 61.27333,-85.84628c-10.96153,-17.60511 -128.75781,-24.01612 -170.38625,-4.88704c-35.09179,16.12521 -102.34894,54.02843 -92.5089,77.81718c9.84005,23.78875 203.58662,14.84378 201.62181,12.91634" data-paper-data="{&quot;fixed&quot;:true}" id="path4651 1" stroke="#88201c" stroke-width="20.79" stroke-miterlimit="4"/><path d="M432.70335,313.39391c-31.07648,-3.96188 -63.5253,-5.23769 -95.62518,-7.19639c-19.93609,5.22037 -74.38697,44.43488 -87.07108,54.0768c40.57071,2.45183 130.68042,-36.79303 162.90715,-16.83124" data-paper-data="{&quot;fixed&quot;:true}" id="path7896 1" stroke="#f00000" stroke-width="69.3" stroke-miterlimit="4"/><path d="M253.05083,375.83658c104.51706,14.13651 182.73481,2.76715 200.97797,-53.85497" data-paper-data="{&quot;fixed&quot;:true}" id="path7356 1" stroke="#661815" stroke-width="34.65" stroke-miterlimit="4"/><path d="M331.55,270c-0.31451,-31.45145 10.1242,-62.91622 12.95,-94c0.86633,-9.52967 -5.32993,-24.56009 1,-33c2.12603,-2.83471 5.66667,-4.33333 8,-7c24.79892,-28.34162 49.12115,-27 84,-27c16.16896,0 37.93199,2.32997 45,20c6.08375,15.20939 -1.38634,42.86344 -3,59c-2.14526,21.45255 1,43.54787 1,65c0,11.03935 1.84172,22.2638 -4,32" data-paper-data="{&quot;fixed&quot;:true}" stroke="#181818" stroke-width="30" stroke-miterlimit="10"/><path d="M345.55,250c13.99897,0 30.36725,-2.39569 43.95,1c21.77785,5.44446 46.34495,14 69,14" data-paper-data="{&quot;fixed&quot;:true}" stroke="#181818" stroke-width="30" stroke-miterlimit="10"/><path d="M356.55,214c17.368,0 34.74959,3.43633 51.95,5c17.38252,1.58023 34.78527,-1.44295 52,2" data-paper-data="{&quot;fixed&quot;:true}" stroke="#181818" stroke-width="30" stroke-miterlimit="10"/><path d="M358.55,179c28.04084,0 56.13463,-0.78154 83.95,2c7.10231,0.71023 13.91288,-0.41742 21,1" data-paper-data="{&quot;fixed&quot;:true}" stroke="#181818" stroke-width="30" stroke-miterlimit="10"/><path d="M367.55,143c25.82469,0 75.21554,-5.09378 97.95,4" data-paper-data="{&quot;fixed&quot;:true}" stroke="#181818" stroke-width="30" stroke-miterlimit="10"/></g></svg>