<svg version="1.1" xmlns="http://www.w3.org/2000/svg" xmlns:xlink="http://www.w3.org/1999/xlink" width="693" height="693"><g fill="none" fill-rule="nonzero" stroke="none" stroke-width="none" stroke-linecap="round" stroke-linejoin="round" stroke-miterlimit="none" stroke-dasharray="" stroke-dashoffset="0" font-family="none" font-weight="none" font-size="none" text-anchor="none" style="mix-blend-mode: normal"><path d="M329.85267,331.26032c12.7546,92.15608 10.56527,134.4168 13.72292,194.58416" data-paper-data="{&quot;fixed&quot;:true}" id="path6204-9 1" stroke="#6b6b6b" stroke-width="20.79" stroke-miterlimit="4"/><path d="M219.87866,489.62877c43.16288,-26.99817 64.62454,-31.82388 118.03966,-56.87091c34.32803,4.85862 106.26479,3.7519 128.87081,-2.67221" data-paper-data="{&quot;fixed&quot;:true}" id="path6701-0 1" stroke="#6b6b6b" stroke-width="20.79" stroke-miterlimit="4"/><path d="M233.5224,383.84086c-9.86194,59.87638 -19.53719,119.24689 -29.18098,178.53191" data-paper-data="{&quot;fixed&quot;:true}" id="path6089 1" stroke="#939393" stroke-width="20.79" stroke-miterlimit="4"/><path d="M389.48941,388.32191c12.7546,92.15608 10.56527,134.4168 13.72292,194.58416" data-paper-data="{&quot;fixed&quot;:true}" id="path6204 1" stroke="#939393" stroke-width="20.79" stroke-miterlimit="4"/><path d="M463.97843,336.53484c5.12127,72.29352 9.33173,132.21026 13.72292,194.58416" data-paper-data="{&quot;fixed&quot;:true}" id="path6204-3 1" stroke="#939393" stroke-width="20.79" stroke-miterlimit="4"/><path d="M219.87866,489.62877c55.94222,13.69285 116.97475,6.25502 177.6764,0.19069c34.21556,-14.96852 56.73383,-27.62915 73.91903,-44.78928" data-paper-data="{&quot;fixed&quot;:true}" id="path6701 1" stroke="#939393" stroke-width="20.79" stroke-miterlimit="4"/><path d="M411.83737,387.96838c2.34303,4.71933 75.74747,-62.59966 61.27333,-85.84628c-10.96153,-17.60511 -128.75781,-24.01612 -170.38625,-4.88704c-35.09179,16.12521 -102.34894,54.02843 -92.5089,77.81718c9.84005,23.78875 203.58662,14.84378 201.62181,12.91634" data-paper-data="{&quot;fixed&quot;:true}" id="path4651 1" stroke="#88201c" stroke-width="20.79" stroke-miterlimit="4"/><path d="M432.70335,313.39391c-31.07648,-3.96188 -63.5253,-5.23769 -95.62518,-7.19639c-19.93609,5.22037 -74.38697,44.43488 -87.07108,54.0768c40.57071,2.45183 130.68042,-36.79303 162.90715,-16.83124" data-paper-data="{&quot;fixed&quot;:true}" id="path7896 1" stroke="#f00000" stroke-width="69.3" stroke-miterlimit="4"/><path d="M253.05083,375.83658c104.51706,14.13651 182.73481,2.76715 200.97797,-53.85497" data-paper-data="{&quot;fixed&quot;:true}" id="path7356 1" stroke="#661815" stroke-width="34.65" stroke-miterlimit="4"/><path d="M325.55391,275.00391c-0.24222,-24.22231 9.89857,-50.38286 11.95,-75c0.57032,-6.84386 -1.38892,-13.27812 -2,-20c-0.95313,-10.4844 1.98118,-19.81184 3,-30c1.12584,-11.25838 -0.87505,-22.27488 4,-33c7.80603,-17.17327 26.92736,-27 45,-27c12.07007,0 24.00029,-0.3333 36,1c12.29778,1.36642 24.01295,4.43135 36,7c4.54707,0.97437 16.57784,0.7223 20,5c1.77913,2.22392 1.91562,5.36652 3,8c7.84845,19.06053 8.5048,24.9616 6,45c-2.21337,17.70694 -5.62553,36.13189 -7,54c-1.07075,13.91974 0.99472,28.07389 0,42c-0.94638,13.24938 -4,25.47995 -4,39" data-paper-data="{&quot;fixed&quot;:true}" stroke="#181818" stroke-width="30" stroke-miterlimit="10"/><path d="M373.55391,111.00391c-0.39081,39.08098 2.19335,79.07981 -1.05,118c-1.50471,18.05651 -3,36.90101 -3,55" data-paper-data="{&quot;fixed&quot;:true}" stroke="#181818" stroke-width="7" stroke-miterlimit="10"/><path d="M407.55391,107.00391c-0.24328,38.92417 3.46929,79.2878 -0.05,118c-0.88273,9.71006 -6.09939,18.49694 -8,28c-1.40433,7.02164 -0.82555,13.95329 -2,21" data-paper-data="{&quot;fixed&quot;:true}" stroke="#181818" stroke-width="7" stroke-miterlimit="10"/><path d="M440.55391,113.00391c-0.19522,27.3313 -0.05,54.66791 -0.05,82c0,10.02095 1.41455,21.09816 0,31c-2.57637,18.03458 -6.73132,35.85056 -9,54" data-paper-data="{&quot;fixed&quot;:true}" stroke="#181818" stroke-width="7" stroke-miterlimit="10"/></g></svg>