<svg version="1.1" xmlns="http://www.w3.org/2000/svg" xmlns:xlink="http://www.w3.org/1999/xlink" width="661" height="661"><g fill="none" fill-rule="nonzero" stroke="none" stroke-width="none" stroke-linecap="round" stroke-linejoin="round" stroke-miterlimit="none" stroke-dasharray="" stroke-dashoffset="0" font-family="none" font-weight="none" font-size="none" text-anchor="none" style="mix-blend-mode: normal"><path d="M333.96316,-7.44718c-16.47067,143.66633 -63.81704,276.32779 -73.92845,334.74585c-10.12335,58.48832 -8.22006,154.28421 -15.76849,173.53862c-7.68763,19.60962 -58.19398,60.97322 -110.61935,64.16929" data-paper-data="{&quot;fixed&quot;:true}" id="path631 1" stroke="#c4784d" stroke-width="41.5026" stroke-miterlimit="4"/><path d="M367.82112,5.42033c-19.35064,108.84856 -64.99188,289.4512 -72.90888,361.46383c-7.91713,72.01264 -9.18202,150.17796 -26.20303,161.55282c-17.02108,11.37488 -24.30715,22.21965 -69.40181,27.82836" data-paper-data="{&quot;fixed&quot;:true}" id="path15535 1" stroke="#c4784d" stroke-width="41.5026" stroke-miterlimit="4"/><path d="M395.93192,-4.81546c-19.35064,108.84856 -43.69361,238.19253 -51.61061,310.20516c-7.91713,72.01264 -58.59111,211.67243 -75.61213,223.04728c-17.02108,11.37482 -24.30715,22.21965 -69.40181,27.82836" data-paper-data="{&quot;fixed&quot;:true}" id="path15535-7 1" stroke="#c4784d" stroke-width="41.5026" stroke-miterlimit="4"/><path d="M130.5389,563.56425c52.42748,7.0567 135.96381,3.67846 143.27434,-6.60273c7.3104,-10.28166 64.0394,-205.70093 84.23452,-223.47998c27.96453,-24.61914 77.99551,-21.4511 83.52823,-48.75721c10.69161,-52.7675 -36.43538,-87.74036 -35.36548,-133.86719c1.06884,-46.1267 17.6955,-154.77554 17.6955,-154.77554" data-paper-data="{&quot;fixed&quot;:true}" id="path4202 1" stroke="#c4784d" stroke-width="41.5026" stroke-miterlimit="4"/><path d="M130.53905,563.56414c52.42748,7.0567 135.9638,3.67846 143.27434,-6.60273c7.3104,-10.28166 58.50914,-155.0945 78.70424,-172.87355c27.96453,-24.61913 117.89156,-56.23577 123.42428,-83.54187c10.69161,-52.7675 -70.80114,-103.56214 -69.73128,-149.68896c1.06884,-46.1267 42.40989,-152.57279 42.40989,-152.57279" data-paper-data="{&quot;fixed&quot;:true}" id="path18681 1" stroke="#c4784d" stroke-width="41.5026" stroke-miterlimit="4"/><path d="M384.46684,201.21403c27.85751,70.45867 -7.88342,80.08839 -7.88342,80.08839" data-paper-data="{&quot;fixed&quot;:true}" id="path18859 1" stroke="#c4784d" stroke-width="64.65961" stroke-miterlimit="4"/><path d="M414.53969,160.42386c-69.74454,26.71703 -138.07418,39.53752 -139.72733,52.92369c-1.65316,13.38618 55.53504,81.05879 49.27345,93.59098c-6.26165,12.53216 -71.12302,26.8633 -73.61613,40.55658c-2.49329,13.69328 71.33516,58.20991 91.82693,82.78656" data-paper-data="{&quot;fixed&quot;:true}" id="path567-6 1" stroke="#211108" stroke-width="31.2105" stroke-miterlimit="4"/><path d="M456.81255,224.07528c-111.00672,85.86052 -108.41417,74.06949 -109.61846,86.13352c-1.20434,12.06391 30.6856,40.45617 47.23565,58.24758" data-paper-data="{&quot;fixed&quot;:true}" id="path569-2 1" stroke="#211108" stroke-width="31.2105" stroke-miterlimit="4"/><path d="M413.96539,157.57915c50.82859,64.59649 84.41515,93.44985 77.79623,141.73942c-8.04768,58.71379 -121.9147,54.7039 -149.1624,129.65326" data-paper-data="{&quot;fixed&quot;:true}" id="path24733 1" stroke="#211108" stroke-width="31.2105" stroke-miterlimit="4"/><path d="M346.55,446c-0.13528,16.23331 -9.38853,59.95396 -17.05,74c-6.605,12.10917 -13.93511,23.88876 -21,36c-9.05458,15.52213 -19.15627,34.2793 -39,38c-25.25454,4.73523 -52.40552,-1.13287 -78,1c-21.07916,1.7566 -44.53816,12.43855 -66,6c-5.64387,-1.69316 -12.08336,-6.87123 -17,-10c-3.85886,-2.45564 -10.80447,-5.60894 -13,-10c-4.85663,-9.71326 4.13424,-23.01342 14,-24c4.94588,-0.49459 10.70549,-0.77912 15,-4c1.33333,-1 4.49071,-3.25464 3,-4c-1.73845,-0.86923 -3.13832,2.4415 -5,3c-3.19275,0.95783 -6.80725,-0.95783 -10,0c-1.86168,0.5585 -6.2799,4.46275 -5,3c10.04969,-11.48536 34.48888,-25.12222 50,-29c4.71193,-1.17798 10.26514,1.09266 15,0c5.13549,-1.18511 10.08084,-3.10801 15,-5c16.56351,-6.37058 26.59349,-19.89023 36,-34c18.40593,-27.60889 4.80556,-70.8241 12,-102c2.71604,-11.76949 4.55262,-23.50873 8,-35c1.55628,-5.1876 4.48881,-9.40019 2,-15c-0.6769,-1.52302 -2.42624,-5.56479 -3,-4c-5.31586,14.4978 -9.71764,29.61169 -11,45c-1.67095,20.05139 2.45803,41.6259 -4,61c-6.01933,18.05798 -19.59382,32.9794 -25,51c-0.42592,1.41972 -7.07138,15.92862 -7,16c1.50923,1.50923 3.42069,-2.56426 5,-4c2.09287,-1.90261 4,-4 6,-6c8.86859,-8.86859 14.05272,-17.15815 18,-29c0.76739,-2.30217 1.41144,-4.64575 2,-7c0.41223,-1.64893 2.69967,-5 1,-5c-1.94365,0 -1.94896,3.36504 -3,5c-3.401,5.29044 -6.62342,10.69394 -10,16c-10.37532,16.30407 -21.68036,36.37798 -39,46c-13.06151,7.25639 -29.06287,9.45334 -42,17c-5.34175,3.11602 -10.58813,6.84308 -16,10c-8.65891,5.05103 -20.94048,8.77378 -20,21c0.28379,3.68924 3.35616,12.71232 5,16c0.74536,1.49071 2,5.33333 3,4c0.79666,-1.06221 -0.59963,-19.85009 0,-20c2.07065,-0.51766 3.04548,3.09096 4,5c3.54164,7.08329 3.29959,16.02996 13,17c8.5418,0.85418 16.54929,-0.53521 25,2c7.59912,2.27974 15.0324,6.27567 23,7c13.63969,1.23997 27.46046,-3.64605 41,-5c14.52145,-1.45215 29.47855,1.45215 44,0c15.20632,-1.52063 15.78291,-19.78291 25,-29c2.53859,-2.53859 6.66667,-2.66667 10,-4c4.00924,-1.6037 10.42177,-7.68514 13,-11c1.10206,-1.41693 2,-6.79505 2,-5c0,10.54365 -14.25752,18.87047 -21,25c-2.97002,2.70002 -5.71171,5.6982 -9,8c-1.5923,1.11461 -5.38118,4.90591 -5,3c1.57836,-7.89181 13.85969,-16.21715 19,-22c8.7672,-9.8631 14.71399,-25.55324 24,-36c6.15655,-6.92611 15.22116,-12.03526 20,-20c5.51371,-9.18952 11.82342,-19.67611 15,-30c0.71366,-2.31939 1.41144,-4.64575 2,-7c0.41223,-1.64893 2.20185,-6.20185 1,-5c-2.4267,2.4267 -3.09634,6.14451 -5,9c-5.8864,8.82959 -13.97956,16.30381 -20,25c-2.21269,3.19611 -3.66762,6.89016 -6,10c-1,1.33333 -3.45787,5.60254 -3,4c4.54793,-15.91775 16.05238,-29.33281 23,-44c2.25621,-4.76312 2.64298,-10.28595 5,-15c2,-4 4.33909,-7.84773 6,-12c0.66667,-1.66667 0.20495,-5 2,-5c2.27845,0 -0.23676,5.76821 -2,10c-3.15261,7.56627 -6.34887,14.69775 -10,22c-0.80277,1.60555 -2,5 -2,5c0,0 1.79806,-6.7932 3,-11c2.75718,-9.65012 6.81593,-21.35988 12,-30c3.21657,-5.36095 7.0049,-7.60881 10,-13c3.95406,-7.11731 13.8745,-11.64019 20,-17c12.36895,-10.82283 26.81114,-16.1173 41,-24c14.1293,-7.84961 27.16099,-18.48368 41,-27c12.02119,-7.39766 24.2341,-23.35115 32,-35c0.99385,-1.49077 3.53356,-9.71729 4,-11c0.61345,-1.68698 0.50642,-5.99572 2,-5c1.96116,1.30744 0.42834,4.71335 1,7c1.91325,7.65301 3.73252,15.44174 6,23c0.26049,0.86831 2.04566,8.95434 1,10c-1.89482,1.89482 -25.19621,-2.40663 -26,-1c-4.90635,8.58612 14.16231,20.14031 8,30c-2.7957,4.47312 -7.2043,0.86022 -10,0c-2.96519,-0.91237 -24.78259,-7.84784 -27,-6c-1.30573,1.0881 0.58777,3.35107 1,5c0.64533,2.58132 5.23394,19.76606 3,22c-1.62762,1.62762 -22.01115,-1.91213 -26,-3c-3.27957,-0.89443 -8.25105,-4.91492 -10,-2c-1.10873,1.84789 11.32702,19.75473 3,26c-9.23657,6.92743 -33.29689,-8.51366 -40,-6c-1.59145,0.5968 -1.4884,3.37201 -1,5c1.67818,5.59392 10.7443,12.51141 7,20c-3.15448,6.30895 -16.61022,4 -22,4c-3.66667,0 -11,-3.66667 -11,0c0,2.35702 3.78732,2.97887 5,5c1.74895,2.91492 2,6.60065 2,10c0,10.81365 -13.62036,26.03393 -19,35c-12.28621,20.47702 -12.55002,45.10004 -23,66c-3.50797,7.01593 -4,13.38117 -4,21c0,3.33333 2.85831,8.28501 0,10c-6.27467,3.7648 -10.43025,-17.62555 -18,-4c-3.68862,6.63951 3.16913,13.83087 -7,24c-13.24989,13.24989 -16.47976,-1 -24,-1c-6.00287,0 -7.36039,14.10024 -12,17c-7.70003,4.81252 -16.60127,-8.86638 -25,-7c-5.74349,1.27633 -4.66248,12.93977 -15,12c-12.69259,-1.15387 -6.88606,-19.39471 -23,-15c-5.1295,1.39895 -10.60009,4.06673 -15,7c-2.7735,1.849 -4.79492,6.91574 -8,6c-4.63696,-1.32484 -3.67769,-12.62692 -7,-15c-7.54529,-5.38949 -24.50338,15.71332 -27,15c-3.46682,-0.99052 -3.11556,-6.83667 -6,-9c-7.40505,-5.55379 -13.33032,3.55656 -15,3c-2.61898,-0.87299 -2,-8.47355 -2,-10" data-paper-data="{&quot;fixed&quot;:true}" stroke-opacity="0.79" stroke="#1d0e02" stroke-width="14" stroke-miterlimit="10"/><path d="M161.55,528c10.82607,6.23083 17.33556,11.85323 29.95,13c3.38539,0.30776 7.38855,4.17621 10,2c6.68252,-5.56876 -11.48189,-22.04213 -15,-26c-1.418,-1.59525 -5.33333,-3.33333 -4,-5c0.97314,-1.21643 12.25412,0.48651 14,1c10.67473,3.13963 20.27569,7.57009 31,9c3.04622,0.40616 6.01858,1.25464 9,2c2.35425,0.58856 5.91475,4.17051 7,2c0.19531,-0.39063 -10.25611,-6.55367 -11,-7c-9.45919,-5.67552 -19.6998,-13.62204 -28,-21c-2.38005,-2.1156 -9.10478,-9.40832 -5,-13c6.66375,-5.83078 23.6425,-3 32,-3c3.34996,0 6.70408,0.40074 10,1c1.99488,0.36271 7.43372,2.43372 6,1c-1.71594,-1.71594 -4.82949,-0.91475 -7,-2c-6.85855,-3.42927 -9.67442,-7.43854 -14,-13c-2.81233,-3.61586 -8.21986,-6.78014 -7,-8c3.49581,-3.49581 21.03806,-2.61831 26,-3c0.05601,-0.00431 10.5347,0.39589 11,-1c0.61464,-1.84391 -1.69256,-3.56182 -3,-5c-6.55235,-7.20759 -12.70725,-15.43652 -20,-22c-2.4402,-2.19618 -11.3214,-1.6786 -9,-4c0.44947,-0.44947 26.69472,0 29,0c1.66667,0 4.34347,1.53191 5,0c0.95593,-2.23049 -0.75147,-4.91912 -2,-7c-0.85749,-1.42915 -2.82149,-1.82149 -4,-3c-5.98664,-5.98664 -7.20761,-13.20761 -13,-19c-2.35702,-2.35702 -8.548,-2.71202 -8,-6c0.78039,-4.68231 19.03109,-3 23,-3c2,0 5.10557,1.78885 6,0c1,-2 -1.75965,-4.13948 -3,-6c-4.49486,-6.74229 -9.86003,-13.62752 -16,-19c-1.09479,-0.95794 -8.34386,-5.31227 -7,-8c4.68877,-9.37754 17.81913,3.98958 19,-9c0.68733,-7.56061 -7.59154,-16.59154 -13,-22c-2.35702,-2.35702 -7.63189,-2.68705 -8,-6c-1.11367,-10.02301 25.39395,-18.52121 33,-17c6.92014,1.38403 6.63121,6.63121 11,11c2.4267,2.4267 9.67305,8.36523 9,5c-1.20942,-6.0471 -12.13169,-11.70187 -16,-16c-3.21598,-3.57331 -4.80614,-8.4069 -8,-12c-3.53465,-3.97649 -9.49753,-5.99717 -13,-10c-1.2799,-1.46275 -1.44508,-3.83381 -3,-5c-6.14626,-4.60969 -19.24809,0.64661 -25,2c-3.07017,0.72239 -9.39557,1.30037 -13,1c-7.09056,-0.59088 -12,-2.54711 -12,-1c0,2.60342 3.04073,4.28564 5,6c4.86826,4.25972 29.81745,20.15476 37,18c13.48299,-4.0449 1.82704,-22.3343 -9,-24c-1.97674,-0.30411 -4,0 -6,0c-1.66667,0 -6.17851,-1.17851 -5,0c1.70128,1.70128 35.18909,13.68793 40,15c4.37407,1.19293 8.88347,2.10006 13,4c1.62984,0.75223 6.71935,1.48419 5,2c-12.31076,3.69323 -28.6439,0.76516 -41,-1c-4.30245,-0.61464 -8.67543,-0.56754 -13,-1c-1.69124,-0.16912 -3.33333,-0.66667 -5,-1c-1.66667,-0.33333 -6.64893,-0.58777 -5,-1c3.21496,-0.80374 20.68598,0.9343 22,1c12.14837,0.60742 25.42492,-0.85836 37,3" data-paper-data="{&quot;fixed&quot;:true}" stroke="#6a2d1b" stroke-width="5" stroke-miterlimit="10"/></g></svg>