<svg version="1.1" xmlns="http://www.w3.org/2000/svg" xmlns:xlink="http://www.w3.org/1999/xlink" width="693" height="693"><g fill="none" fill-rule="nonzero" stroke="none" stroke-width="none" stroke-linecap="round" stroke-linejoin="round" stroke-miterlimit="none" stroke-dasharray="" stroke-dashoffset="0" font-family="none" font-weight="none" font-size="none" text-anchor="none" style="mix-blend-mode: normal"><path d="M329.85267,331.26032c12.7546,92.15608 10.56527,134.4168 13.72292,194.58416" data-paper-data="{&quot;fixed&quot;:true}" id="path6204-9 1" stroke="#6b6b6b" stroke-width="20.79" stroke-miterlimit="4"/><path d="M219.87866,489.62877c43.16288,-26.99817 64.62454,-31.82388 118.03966,-56.87091c34.32803,4.85862 106.26479,3.7519 128.87081,-2.67221" data-paper-data="{&quot;fixed&quot;:true}" id="path6701-0 1" stroke="#6b6b6b" stroke-width="20.79" stroke-miterlimit="4"/><path d="M233.5224,383.84086c-9.86194,59.87638 -19.53719,119.24689 -29.18098,178.53191" data-paper-data="{&quot;fixed&quot;:true}" id="path6089 1" stroke="#939393" stroke-width="20.79" stroke-miterlimit="4"/><path d="M389.48941,388.32191c12.7546,92.15608 10.56527,134.4168 13.72292,194.58416" data-paper-data="{&quot;fixed&quot;:true}" id="path6204 1" stroke="#939393" stroke-width="20.79" stroke-miterlimit="4"/><path d="M463.97843,336.53484c5.12127,72.29352 9.33173,132.21026 13.72292,194.58416" data-paper-data="{&quot;fixed&quot;:true}" id="path6204-3 1" stroke="#939393" stroke-width="20.79" stroke-miterlimit="4"/><path d="M219.87866,489.62877c55.94222,13.69285 116.97475,6.25502 177.6764,0.19069c34.21556,-14.96852 56.73383,-27.62915 73.91903,-44.78928" data-paper-data="{&quot;fixed&quot;:true}" id="path6701 1" stroke="#939393" stroke-width="20.79" stroke-miterlimit="4"/><path d="M411.83737,387.96838c2.34303,4.71933 75.74747,-62.59966 61.27333,-85.84628c-10.96153,-17.60511 -128.75781,-24.01612 -170.38625,-4.88704c-35.09179,16.12521 -102.34894,54.02843 -92.5089,77.81718c9.84005,23.78875 203.58662,14.84378 201.62181,12.91634" data-paper-data="{&quot;fixed&quot;:true}" id="path4651 1" stroke="#88201c" stroke-width="20.79" stroke-miterlimit="4"/><path d="M432.70335,313.39391c-31.07648,-3.96188 -63.5253,-5.23769 -95.62518,-7.19639c-19.93609,5.22037 -74.38697,44.43488 -87.07108,54.0768c40.57071,2.45183 130.68042,-36.79303 162.90715,-16.83124" data-paper-data="{&quot;fixed&quot;:true}" id="path7896 1" stroke="#f00000" stroke-width="69.3" stroke-miterlimit="4"/><path d="M253.05083,375.83658c104.51706,14.13651 182.73481,2.76715 200.97797,-53.85497" data-paper-data="{&quot;fixed&quot;:true}" id="path7356 1" stroke="#661815" stroke-width="34.65" stroke-miterlimit="4"/><path d="M330.55391,274.00391c-0.12689,-25.37857 0.86249,-49.94983 2.95,-75c0.65046,-7.80549 -1.39825,-16.30963 0,-24c5.60233,-30.81283 25.74952,-60.96394 51,-79c16.59244,-11.85175 40.64215,-18 61,-18c10.8418,0 23.8469,1.74484 30,12c12.53104,20.88506 10,43.65929 10,67c0,10.59233 0.5869,21.43574 0,32c-0.66151,11.90722 -5.52076,24.16609 -7,36c-0.90261,7.2209 0.65922,14.74859 0,22c-1.71602,18.87621 -5,36.95036 -5,56" data-paper-data="{&quot;fixed&quot;:true}" stroke="#181818" stroke-width="7" stroke-miterlimit="10"/><path d="M331.55391,279.00391c-0.19282,-30.85127 -0.02094,-79.78901 10.95,-108c3.02974,-7.79075 7.53181,-15.36998 11,-23c7.00626,-15.41378 12.77257,-28.426 26,-40c8.74496,-7.65184 22.27175,-11.09882 33,-15c14.0099,-5.09451 29.95802,-9 45,-9c4.01606,0 11.38195,-1.26128 15,1c11.14631,6.96645 7,40.26314 7,52c0,21.36625 0.33077,42.70771 -1,64c-0.80643,12.90288 1.2859,26.141 0,39c-1.59439,15.94392 -4,30.8893 -4,47" data-paper-data="{&quot;fixed&quot;:true}" stroke="#181818" stroke-width="14" stroke-miterlimit="10"/><path d="M335.55391,241.00391c-0.36491,-36.49119 9.13251,-75.66322 31.95,-105c7.98483,-10.26621 19.44526,-17.22315 28,-27c10.90918,-12.46764 54.49988,-29.68761 69,-17c19.17255,16.77598 10.32275,48.83594 9,70c-1.78153,28.50447 -1.78215,59.48565 0,88c0.80515,12.88243 3,24.9178 3,38" data-paper-data="{&quot;fixed&quot;:true}" stroke="#e20606" stroke-width="14" stroke-miterlimit="10"/><path d="M338.55391,254.00391c32.06878,0 65.0039,-2.36638 96.95,0c14.83085,1.09858 28.90179,6.18036 43,9" data-paper-data="{&quot;fixed&quot;:true}" stroke="#e20606" stroke-width="14" stroke-miterlimit="10"/><path d="M342.55391,232.00391c32.07356,0 65.01356,-2.45665 96.95,0c10.78748,0.82981 20.56715,5.91343 31,8" data-paper-data="{&quot;fixed&quot;:true}" stroke="#e20606" stroke-width="14" stroke-miterlimit="10"/><path d="M345.55391,206.00391c39.98333,0 79.96667,0 119.95,0" data-paper-data="{&quot;fixed&quot;:true}" stroke="#e20606" stroke-width="14" stroke-miterlimit="10"/><path d="M353.55391,183.00391c44.31667,0 88.63333,0 132.95,0" data-paper-data="{&quot;fixed&quot;:true}" stroke="#e20606" stroke-width="14" stroke-miterlimit="10"/><path d="M359.55391,155.00391c26.49292,0 57.91005,3.47199 83.95,0c9.43781,-1.25838 17.33105,-6 27,-6" data-paper-data="{&quot;fixed&quot;:true}" stroke="#e20606" stroke-width="14" stroke-miterlimit="10"/><path d="M388.55391,130.00391c25.01583,0 54.15167,3.95967 78.95,-1" data-paper-data="{&quot;fixed&quot;:true}" stroke="#e20606" stroke-width="14" stroke-miterlimit="10"/></g></svg>