<svg version="1.1" xmlns="http://www.w3.org/2000/svg" xmlns:xlink="http://www.w3.org/1999/xlink" width="693" height="693"><g fill="none" fill-rule="nonzero" stroke="none" stroke-width="none" stroke-linecap="round" stroke-linejoin="round" stroke-miterlimit="4" stroke-dasharray="" stroke-dashoffset="0" font-family="none" font-weight="none" font-size="none" text-anchor="none" style="mix-blend-mode: normal"><path d="M350.13081,-7.80771c-17.26804,150.62144 -66.90652,289.70523 -77.50743,350.9514c-10.61343,61.31983 -8.61801,161.75334 -16.53186,181.93989c-8.0598,20.55895 -61.01123,63.92502 -115.9746,67.27582" data-paper-data="{&quot;fixed&quot;:true}" id="path631 1" stroke="#c4784d" stroke-width="43.51181"/><path d="M385.6279,5.68273c-20.28744,114.11808 -68.13823,303.46397 -76.4385,378.96284c-8.30041,75.49888 -9.62653,157.4483 -27.47156,169.37383c-17.8451,11.92556 -25.4839,23.29533 -72.76166,29.17558" data-paper-data="{&quot;fixed&quot;:true}" id="path15535 1" stroke="#c4784d" stroke-width="43.51181"/><path d="M415.09958,-5.04859c-20.28744,114.11808 -45.80889,249.72378 -54.10916,325.22265c-8.30041,75.49888 -61.42759,221.91981 -79.27263,233.84533c-17.8451,11.92549 -25.4839,23.29533 -72.76166,29.17558" data-paper-data="{&quot;fixed&quot;:true}" id="path15535-7 1" stroke="#c4784d" stroke-width="43.51181"/><path d="M136.85848,590.84724c54.96557,7.39833 142.54602,3.85655 150.21047,-6.92238c7.6643,-10.77941 67.13964,-215.65922 88.31244,-234.29898c29.31834,-25.81099 81.77139,-22.48958 87.57196,-51.11762c11.20921,-55.32205 -38.19927,-91.988 -37.07758,-140.34791c1.12058,-48.35976 18.55216,-162.26846 18.55216,-162.26846" data-paper-data="{&quot;fixed&quot;:true}" id="path4202 1" stroke="#c4784d" stroke-width="43.51181"/><path d="M136.85864,590.84713c54.96557,7.39833 142.54601,3.85654 150.21047,-6.92238c7.6643,-10.77941 61.34166,-162.60286 82.51443,-181.24262c29.31834,-25.81098 123.59886,-58.95823 129.39943,-87.58625c11.20921,-55.32205 -74.22873,-108.57573 -73.10708,-156.93563c1.12058,-48.35976 44.46302,-159.95906 44.46302,-159.95906" data-paper-data="{&quot;fixed&quot;:true}" id="path18681 1" stroke="#c4784d" stroke-width="43.51181"/><path d="M403.07945,210.9551c29.20614,73.86968 -8.26506,83.96558 -8.26506,83.96558" data-paper-data="{&quot;fixed&quot;:true}" id="path18859 1" stroke="#c4784d" stroke-width="67.78988"/><path d="M434.60817,168.19022c-73.12097,28.01044 -144.75856,41.45159 -146.49174,55.48581c-1.73319,14.03422 58.22357,84.98297 51.65885,98.12186c-6.56479,13.13886 -74.56619,28.1638 -77.17999,42.51999c-2.614,14.35619 74.7886,61.02794 96.27241,86.79438" data-paper-data="{&quot;fixed&quot;:true}" id="path567-6 1" stroke="#211108" stroke-width="32.72145"/><path d="M478.92753,234.9231c-116.38072,90.01716 -113.66266,77.65531 -114.92526,90.30337c-1.26265,12.64794 32.17114,42.41472 49.5224,61.06744" data-paper-data="{&quot;fixed&quot;:true}" id="path569-2 1" stroke="#211108" stroke-width="32.72145"/><path d="M434.00607,165.2078c53.28927,67.7237 88.50181,97.97389 81.56246,148.60124c-8.43728,61.55621 -127.81677,57.35219 -156.38357,135.92997" data-paper-data="{&quot;fixed&quot;:true}" id="path24733 1" stroke="#211108" stroke-width="32.72145"/></g></svg>