<svg version="1.1" xmlns="http://www.w3.org/2000/svg" xmlns:xlink="http://www.w3.org/1999/xlink" width="693" height="693"><g fill="none" fill-rule="nonzero" stroke="none" stroke-width="none" stroke-linecap="round" stroke-linejoin="round" stroke-miterlimit="none" stroke-dasharray="" stroke-dashoffset="0" font-family="none" font-weight="none" font-size="none" text-anchor="none" style="mix-blend-mode: normal"><path d="M281.53747,325.16253c28.05818,52.668 32.32013,48.6486 33.12401,62.8551c0.83229,14.2065 59.46425,8.9397 68.52107,6.93c9.05744,-2.079 6.5142,-8.5932 6.237,-14.2758c-0.2952,-5.544 26.78999,-40.8177 30.00551,-48.9951" data-paper-data="{&quot;fixed&quot;:true}" id="path53808-0 1" stroke="#5d5955" stroke-width="17.53241" stroke-miterlimit="4"/><path d="M466.71752,105.59934c-20.64378,-21.5523 -203.87713,-6.237 -219.10379,4.158c-19.26471,12.6819 -126.21582,161.91252 -107.45846,191.62143c18.75882,29.7297 397.19619,27.1656 411.79778,7.0686c14.76298,-20.0277 -65.06813,-198.4059 -72.62273,-199.75032" data-paper-data="{&quot;fixed&quot;:true}" id="path52838-6 1" stroke="#eacd46" stroke-width="14.55258" stroke-miterlimit="4"/><path d="M410.56393,123.86682c53.72621,3.465 63.31664,-9.9099 65.01449,12.1275c1.45599,19.1268 -56.67839,0.06237 -54.30833,19.1268c2.4948,20.2356 56.62988,-14.4144 60.85649,5.544c4.0194,19.0575 -56.20022,9.6327 -51.12746,28.4823c5.4747,20.3742 57.05954,-21.2751 63.29585,-1.386c7.08946,22.9383 -67.91123,16.9092 -60.10805,39.5703c6.5835,19.1961 54.12122,-24.1164 60.69779,-4.851c5.1975,15.1767 -45.72899,11.2959 -40.32428,26.4033c6.237,17.5329 49.07618,-23.3541 55.60424,-6.237c11.33679,30.3534 -105.48071,35.9667 -79.69591,55.5786c12.31787,11.781 78.5351,-11.2266 88.13907,-15.3846" data-paper-data="{&quot;fixed&quot;:true}" id="path54109-2 1" stroke="#fcf3c6" stroke-width="14.55258" stroke-miterlimit="4"/><path d="M311.55391,400.00391c-3.16994,27.17094 -1.57914,54.82052 -4.05,82c-1.82175,20.0393 2.34417,39.38049 -8,58c-8.43062,15.17511 -36.89731,7.17946 -51,10c-1.02861,0.20572 -15.40942,2.77173 -15,4c0.34866,1.04598 9.96914,1.18743 11,1c14.5164,-2.63935 27.95378,-7 43,-7c27.09177,0 54.07735,1.92903 81,4c34.43247,2.64865 68.64384,-3 103,-3" data-paper-data="{&quot;fixed&quot;:true}" stroke="#f5cd1f" stroke-width="14" stroke-miterlimit="10"/><path d="M386.55391,403.00391c-0.21866,21.86608 -7.1156,45.04909 -2.05,67c5.03697,21.82686 16,55.03582 16,77" data-paper-data="{&quot;fixed&quot;:true}" stroke="#f5cd1f" stroke-width="14" stroke-miterlimit="10"/><path d="M236.55391,555.00391c-12.51313,0 -20.04374,1.48435 -25.05,14" data-paper-data="{&quot;fixed&quot;:true}" stroke="#f5cd1f" stroke-width="14" stroke-miterlimit="10"/><path d="M468.55391,550.00391c1.65,0 3.6868,-1.06152 4.95,0c1.30123,1.09347 0.66667,3.33333 1,5" data-paper-data="{&quot;fixed&quot;:true}" stroke="#f5cd1f" stroke-width="14" stroke-miterlimit="10"/><path d="M217.55391,571.00391c10.30212,0 21.98491,1.3217 31.95,-2c3.70135,-1.23378 7.1178,-3.61178 11,-4c11.88119,-1.18812 24.11881,1.18812 36,0c3.78172,-0.37817 7.24361,-2.42209 11,-3c27.61308,-4.24817 57.10851,2.32429 85,0c25.67422,-2.13952 53.18472,-9.16306 79,-4" data-paper-data="{&quot;fixed&quot;:true}" stroke="#b48329" stroke-width="14" stroke-miterlimit="10"/><path d="M221.55391,565.00391c10.11805,0 20.87988,1.00701 30.95,0c8.91794,-0.89179 17.08206,-6.10821 26,-7c17.08632,-1.70863 39.1273,-1.97754 56,1c15.58198,2.74976 30.40286,9.96019 46,11c15.69052,1.04603 29.00603,-1.78701 44,-5c13.34272,-2.85915 30.26621,0 44,0" data-paper-data="{&quot;fixed&quot;:true}" stroke="#b48329" stroke-width="14" stroke-miterlimit="10"/><path d="M478.55391,559.00391c12.33003,0 9.91846,8.08951 16.95,16c6.4528,7.2594 19.27316,13.02732 29,14c14.68746,1.46875 30.88963,-1.05922 44,-8c11.38895,-6.02944 22.01592,-17.40318 35,-20c8.33655,-1.66731 30.25582,18.27912 32,27c4.7484,23.74199 -27.67588,35.66738 -45,37c-10.9387,0.84144 -23,-5.73653 -23,-18c0,-15.08441 18.11407,-16.5267 29,-17c25.8789,-1.12517 52.08084,0 78,0" data-paper-data="{&quot;fixed&quot;:true}" stroke="#272521" stroke-width="5" stroke-miterlimit="10"/></g></svg>