<svg version="1.1" xmlns="http://www.w3.org/2000/svg" xmlns:xlink="http://www.w3.org/1999/xlink" width="693" height="693"><g fill="none" fill-rule="nonzero" stroke="none" stroke-width="none" stroke-linecap="round" stroke-linejoin="round" stroke-miterlimit="none" stroke-dasharray="" stroke-dashoffset="0" font-family="none" font-weight="none" font-size="none" text-anchor="none" style="mix-blend-mode: normal"><path d="M209.26216,395.92476c142.5872,46.7775 292.3902,30.0069 294.51061,9.7713c2.14414,-20.2356 -150.64625,-73.65897 -270.04791,-30.2841" data-paper-data="{&quot;fixed&quot;:true}" id="path27410-0-4 1" stroke="#5d5955" stroke-width="15.95674" stroke-miterlimit="4"/><path d="M361.83515,400.47084c-6.42064,-79.35543 -12.38661,-158.78016 0,-240.94917" data-paper-data="{&quot;fixed&quot;:true}" id="path31436-4 1" stroke="#a57213" stroke-width="24.84966" stroke-miterlimit="4"/><path d="M364.99614,259.85421c28.71543,-22.3839 55.05303,-22.4532 60.18705,-20.79" data-paper-data="{&quot;fixed&quot;:true}" id="path32263-7 1" stroke="#a57213" stroke-width="9.46056" stroke-miterlimit="4"/><path d="M346.93565,301.51737c-41.5362,-22.3146 -36.92373,-60.8454 -65.64075,-58.3506" data-paper-data="{&quot;fixed&quot;:true}" id="path32265-6 1" stroke="#a57213" stroke-width="9.46056" stroke-miterlimit="4"/><path d="M367.78512,159.23061c1.13375,-38.3229 36.49851,-55.3707 47.92649,-63.6174" data-paper-data="{&quot;fixed&quot;:true}" id="path32267-3 1" stroke="#a57213" stroke-width="12.23561" stroke-miterlimit="4"/><path d="M361.83515,159.52167c-19.82916,-31.3236 -29.34612,-35.6895 -41.30384,-39.7089" data-paper-data="{&quot;fixed&quot;:true}" id="path32426-1 1" stroke="#a57213" stroke-width="12.23561" stroke-miterlimit="4"/><path d="M320.53039,119.77812c0,0 2.71171,-11.7117 -1.13513,-15.246c-3.84754,-3.465 -10.17296,-7.4844 -10.17296,-7.4844" data-paper-data="{&quot;fixed&quot;:true}" id="path32428-7 1" stroke="#a57213" stroke-width="5.9286" stroke-miterlimit="4"/><path d="M320.53039,119.77812c-37.01562,11.4345 -38.23295,13.6521 -38.75013,16.2855" data-paper-data="{&quot;fixed&quot;:true}" id="path32430-5 1" stroke="#a57213" stroke-width="5.9286" stroke-miterlimit="4"/><path d="M425.18646,239.02956c0,0 -2.71171,-11.7117 1.13306,-15.246c3.84754,-3.465 10.17296,-7.4844 10.17296,-7.4844" data-paper-data="{&quot;fixed&quot;:true}" id="path32428-3-9 1" stroke="#a57213" stroke-width="5.9286" stroke-miterlimit="4"/><path d="M425.18646,239.02956c37.01562,11.4345 38.23232,13.6521 38.74951,16.2855" data-paper-data="{&quot;fixed&quot;:true}" id="path32430-8-6 1" stroke="#a57213" stroke-width="5.9286" stroke-miterlimit="4"/><path d="M415.70902,95.62707c0,0 11.62993,4.158 16.61869,2.772c4.98198,-1.386 10.04039,3.465 10.04039,3.465" data-paper-data="{&quot;fixed&quot;:true}" id="path32428-9-2 1" stroke="#a57213" stroke-width="5.9286" stroke-miterlimit="4"/><path d="M361.83515,159.52167c0,0 10.17296,-13.3749 15.16173,-14.8995c4.98198,-1.386 14.11495,2.772 14.11495,2.772" data-paper-data="{&quot;fixed&quot;:true}" id="path32428-9-8-1 1" stroke="#a57213" stroke-width="5.9286" stroke-miterlimit="4"/><path d="M415.70902,95.62707c8.58974,-37.7685 -25.63116,-19.9584 -27.67468,-21.6909" data-paper-data="{&quot;fixed&quot;:true}" id="path32430-6-7 1" stroke="#a57213" stroke-width="5.9286" stroke-miterlimit="4"/><path d="M347.15951,214.2756c0,0 -1.26126,-13.2363 -5.04573,-16.7706c-3.84754,-3.465 -10.17275,-7.4844 -10.17275,-7.4844" data-paper-data="{&quot;fixed&quot;:true}" id="path32428-5-8 1" stroke="#a57213" stroke-width="5.9286" stroke-miterlimit="4"/><path d="M281.95213,241.83621c0,0 2.71171,-11.7117 -1.13513,-15.246c-3.84754,-3.465 -10.17296,-7.4844 -10.17296,-7.4844" data-paper-data="{&quot;fixed&quot;:true}" id="path32428-5-4-5 1" stroke="#a57213" stroke-width="5.9286" stroke-miterlimit="4"/><path d="M281.95213,241.83621c-27.1954,23.7006 -36.58673,15.6618 -38.74383,16.2855" data-paper-data="{&quot;fixed&quot;:true}" id="path32430-0-7 1" stroke="#a57213" stroke-width="5.9286" stroke-miterlimit="4"/><path d="M234.75671,262.21734c-5.6133,14.9688 -18.83262,32.7096 -31.45271,36.036" data-paper-data="{&quot;fixed&quot;:true}" id="path34239-4 1" stroke="#1d810f" stroke-width="10.72196" stroke-miterlimit="4"/><path d="M234.75671,262.21734c-39.2421,11.3652 -32.10232,35.4123 -31.45271,36.036" data-paper-data="{&quot;fixed&quot;:true}" id="path34241-1 1" stroke="#1d810f" stroke-width="10.72196" stroke-miterlimit="4"/><path d="M240.82424,260.4294c-26.02853,17.0478 -33.8053,27.9972 -37.52027,37.8378" data-paper-data="{&quot;fixed&quot;:true}" id="path34237-8 1" stroke="#5ae733" stroke-width="3.78421" stroke-miterlimit="4"/><path d="M234.61121,254.32407c-15.06194,5.544 -37.11375,6.93 -47.80758,-0.67914" data-paper-data="{&quot;fixed&quot;:true}" id="path34239-5-9 1" stroke="#1d810f" stroke-width="10.72189" stroke-miterlimit="4"/><path d="M234.61121,254.32407c-34.06289,-22.5918 -47.74472,-1.386 -47.80758,-0.67914" data-paper-data="{&quot;fixed&quot;:true}" id="path34241-6-7 1" stroke="#1d810f" stroke-width="10.72189" stroke-miterlimit="4"/><path d="M243.20534,258.11478c-18.74108,-9.4941 -44.30883,-8.2467 -53.10147,-4.158" data-paper-data="{&quot;fixed&quot;:true}" id="path34237-1-5 1" stroke="#5ae733" stroke-width="3.78421" stroke-miterlimit="4"/><path d="M273.18979,132.27291c-15.06187,5.544 -37.11375,6.93 -47.80751,-0.67914" data-paper-data="{&quot;fixed&quot;:true}" id="path34239-5-3-8 1" stroke="#1d810f" stroke-width="10.72189" stroke-miterlimit="4"/><path d="M273.18979,132.27291c-34.06282,-22.5918 -47.74472,-1.386 -47.80751,-0.67914" data-paper-data="{&quot;fixed&quot;:true}" id="path34241-6-0-3 1" stroke="#1d810f" stroke-width="10.72189" stroke-miterlimit="4"/><path d="M281.78394,136.06362c-29.84259,-8.8011 -43.22047,-7.6923 -53.10147,-4.158" data-paper-data="{&quot;fixed&quot;:true}" id="path34237-1-4-1 1" stroke="#5ae733" stroke-width="3.78421" stroke-miterlimit="4"/><path d="M274.57164,142.07886c-1.86694,15.8697 -10.41038,36.2439 -21.85486,42.5502" data-paper-data="{&quot;fixed&quot;:true}" id="path34239-5-3-4-4 1" stroke="#1d810f" stroke-width="10.72189" stroke-miterlimit="4"/><path d="M274.57164,142.07886c-35.34598,20.5128 -22.64177,42.0651 -21.85486,42.5502" data-paper-data="{&quot;fixed&quot;:true}" id="path34241-6-0-7-3 1" stroke="#1d810f" stroke-width="10.72189" stroke-miterlimit="4"/><path d="M281.78355,136.06362c-21.15847,22.7997 -26.07253,35.343 -27.31203,45.738" data-paper-data="{&quot;fixed&quot;:true}" id="path34237-1-4-6-3 1" stroke="#5ae733" stroke-width="3.78421" stroke-miterlimit="4"/><path d="M261.34103,217.89999c-12.92916,9.4248 -33.69179,16.9785 -46.05948,12.8205" data-paper-data="{&quot;fixed&quot;:true}" id="path34239-1-3 1" stroke="#1d810f" stroke-width="10.72196" stroke-miterlimit="4"/><path d="M261.34103,217.89999c-39.04598,-12.0582 -46.25498,11.9196 -46.05948,12.8205" data-paper-data="{&quot;fixed&quot;:true}" id="path34241-5-8 1" stroke="#1d810f" stroke-width="10.72196" stroke-miterlimit="4"/><path d="M270.65511,219.10581c-31.11833,-0.04158 -43.63128,4.851 -52.11443,11.0187" data-paper-data="{&quot;fixed&quot;:true}" id="path34237-9-6 1" stroke="#5ae733" stroke-width="3.78421" stroke-miterlimit="4"/><path d="M265.55414,211.21947c-15.54253,-3.465 -34.73836,-14.6916 -39.57196,-26.8191" data-paper-data="{&quot;fixed&quot;:true}" id="path34239-5-4-4 1" stroke="#1d810f" stroke-width="10.72189" stroke-miterlimit="4"/><path d="M265.55414,211.21947c-16.07524,-37.5606 -39.01999,-27.5814 -39.57196,-26.8191" data-paper-data="{&quot;fixed&quot;:true}" id="path34241-6-8-8 1" stroke="#1d810f" stroke-width="10.72189" stroke-miterlimit="4"/><path d="M266.86849,215.82099c-18.7645,-21.0672 -31.47738,-29.3139 -42.09247,-32.6403" data-paper-data="{&quot;fixed&quot;:true}" id="path34237-1-1-8 1" stroke="#5ae733" stroke-width="3.78421" stroke-miterlimit="4"/><path d="M299.9193,95.8419c-12.92916,9.4248 -33.69179,16.9785 -46.05955,12.8205" data-paper-data="{&quot;fixed&quot;:true}" id="path34239-1-4-89 1" stroke="#1d810f" stroke-width="10.72196" stroke-miterlimit="4"/><path d="M299.9193,95.8419c-39.04591,-12.0582 -46.25505,11.9196 -46.05955,12.8205" data-paper-data="{&quot;fixed&quot;:true}" id="path34241-5-1-7 1" stroke="#1d810f" stroke-width="10.72196" stroke-miterlimit="4"/><path d="M309.2334,97.05465c-31.11847,-0.04158 -43.63128,4.851 -52.1145,11.0187" data-paper-data="{&quot;fixed&quot;:true}" id="path34237-9-8-76 1" stroke="#5ae733" stroke-width="3.78421" stroke-miterlimit="4"/><path d="M304.13243,89.16831c-15.54253,-3.465 -34.73836,-14.6916 -39.57203,-26.8191" data-paper-data="{&quot;fixed&quot;:true}" id="path34239-5-4-9-3 1" stroke="#1d810f" stroke-width="10.72189" stroke-miterlimit="4"/><path d="M304.13243,89.16831c-16.07531,-37.5606 -39.02006,-27.5814 -39.57196,-26.8191" data-paper-data="{&quot;fixed&quot;:true}" id="path34241-6-8-7-0 1" stroke="#1d810f" stroke-width="10.72189" stroke-miterlimit="4"/><path d="M309.23381,97.05465c-20.09499,-23.7699 -31.90482,-30.1455 -42.09247,-32.6403" data-paper-data="{&quot;fixed&quot;:true}" id="path34237-1-1-5-30 1" stroke="#5ae733" stroke-width="3.78421" stroke-miterlimit="4"/><path d="M378.72137,72.72342c-12.92916,9.4248 -33.69172,16.9785 -46.05955,12.8205" data-paper-data="{&quot;fixed&quot;:true}" id="path34239-1-4-2-9 1" stroke="#1d810f" stroke-width="10.72196" stroke-miterlimit="4"/><path d="M378.72137,72.72342c-39.04598,-12.0582 -46.25505,11.9196 -46.05955,12.8205" data-paper-data="{&quot;fixed&quot;:true}" id="path34241-5-1-1-2 1" stroke="#1d810f" stroke-width="10.72196" stroke-miterlimit="4"/><path d="M388.03608,73.93617c-31.11847,-0.04158 -43.63128,4.851 -52.1145,11.0187" data-paper-data="{&quot;fixed&quot;:true}" id="path34237-9-8-0-5 1" stroke="#5ae733" stroke-width="3.78421" stroke-miterlimit="4"/><path d="M382.93443,66.04983c-15.54253,-3.465 -34.73843,-14.6916 -39.57196,-26.8191" data-paper-data="{&quot;fixed&quot;:true}" id="path34239-5-4-9-1-0 1" stroke="#1d810f" stroke-width="10.72189" stroke-miterlimit="4"/><path d="M382.93443,66.04983c-16.07531,-37.5606 -39.02006,-27.5814 -39.57196,-26.8191" data-paper-data="{&quot;fixed&quot;:true}" id="path34241-6-8-7-1-5 1" stroke="#1d810f" stroke-width="10.72189" stroke-miterlimit="4"/><path d="M388.03584,73.93617c-20.09506,-23.7699 -31.90482,-30.1455 -42.09247,-32.6403" data-paper-data="{&quot;fixed&quot;:true}" id="path34237-1-1-5-0-9 1" stroke="#5ae733" stroke-width="3.78421" stroke-miterlimit="4"/><path d="M469.9278,262.54305c-1.05821,15.939 3.62993,37.5606 13.74219,45.8073" data-paper-data="{&quot;fixed&quot;:true}" id="path34239-1-4-8-6 1" stroke="#1d810f" stroke-width="10.72189" stroke-miterlimit="4"/><path d="M469.9278,262.54305c31.02048,26.6112 14.59971,45.4608 13.74219,45.8073" data-paper-data="{&quot;fixed&quot;:true}" id="path34241-5-1-9-92 1" stroke="#1d810f" stroke-width="10.72189" stroke-miterlimit="4"/><path d="M463.93274,255.30813c16.64732,26.2647 19.20296,39.501 18.52458,49.9653" data-paper-data="{&quot;fixed&quot;:true}" id="path34237-9-8-7-2 1" stroke="#5ae733" stroke-width="3.78421" stroke-miterlimit="4"/><path d="M473.32465,255.41208c11.48835,11.1573 30.98902,21.483 43.81596,19.1268" data-paper-data="{&quot;fixed&quot;:true}" id="path34239-5-4-9-6-4 1" stroke="#1d810f" stroke-width="10.72189" stroke-miterlimit="4"/><path d="M473.32465,255.41208c40.34577,-6.237 44.13474,18.2952 43.81596,19.1268" data-paper-data="{&quot;fixed&quot;:true}" id="path34241-6-8-7-4-7 1" stroke="#1d810f" stroke-width="10.72189" stroke-miterlimit="4"/><path d="M463.93274,255.30813c30.81993,4.158 42.52629,10.8801 50.06967,18.1566" data-paper-data="{&quot;fixed&quot;:true}" id="path34237-1-1-5-3-7 1" stroke="#5ae733" stroke-width="3.78421" stroke-miterlimit="4"/><path d="M448.36247,109.19601c-1.05821,15.939 3.62993,37.5606 13.74219,45.8073" data-paper-data="{&quot;fixed&quot;:true}" id="path34239-1-4-8-4-4 1" stroke="#1d810f" stroke-width="10.72189" stroke-miterlimit="4"/><path d="M448.36247,109.19601c31.02048,26.6112 14.59971,45.5301 13.74219,45.8073" data-paper-data="{&quot;fixed&quot;:true}" id="path34241-5-1-9-7-8 1" stroke="#1d810f" stroke-width="10.72189" stroke-miterlimit="4"/><path d="M442.3674,101.96802c16.64732,26.2647 19.20296,39.501 18.52458,49.9653" data-paper-data="{&quot;fixed&quot;:true}" id="path34237-9-8-7-7-1 1" stroke="#5ae733" stroke-width="3.78421" stroke-miterlimit="4"/><path d="M451.75935,102.07197c11.48835,11.1573 30.98909,21.483 43.81603,19.1268" data-paper-data="{&quot;fixed&quot;:true}" id="path34239-5-4-9-6-5-2 1" stroke="#1d810f" stroke-width="10.72189" stroke-miterlimit="4"/><path d="M451.75935,102.07197c40.34577,-6.237 44.13468,18.2952 43.81603,19.1268" data-paper-data="{&quot;fixed&quot;:true}" id="path34241-6-8-7-4-4-8 1" stroke="#1d810f" stroke-width="10.72189" stroke-miterlimit="4"/><path d="M442.3674,101.96802c30.81993,4.158 42.52629,10.8801 50.06967,18.1566" data-paper-data="{&quot;fixed&quot;:true}" id="path34237-1-1-5-3-8-9 1" stroke="#5ae733" stroke-width="3.78421" stroke-miterlimit="4"/><path d="M392.68605,156.9645c-8.89452,13.3056 -15.63096,34.3728 -10.99472,46.5696" data-paper-data="{&quot;fixed&quot;:true}" id="path34239-1-4-8-2-6 1" stroke="#1d810f" stroke-width="10.72189" stroke-miterlimit="4"/><path d="M392.68605,156.9645c13.56873,38.5308 -10.09763,46.7082 -10.99479,46.5696" data-paper-data="{&quot;fixed&quot;:true}" id="path34241-5-1-9-8-8 1" stroke="#1d810f" stroke-width="10.72189" stroke-miterlimit="4"/><path d="M391.10904,147.70602c1.27096,31.1157 -3.10464,43.7976 -8.92508,52.5294" data-paper-data="{&quot;fixed&quot;:true}" id="path34237-9-8-7-9-0 1" stroke="#5ae733" stroke-width="3.78421" stroke-miterlimit="4"/><path d="M399.191,152.48772c4.386,15.3846 16.0794,34.1649 28.3787,38.4615" data-paper-data="{&quot;fixed&quot;:true}" id="path34239-5-4-9-6-3-2 1" stroke="#1d810f" stroke-width="10.72189" stroke-miterlimit="4"/><path d="M399.191,152.48772c38.17086,14.553 29.08175,37.9071 28.3787,38.4615" data-paper-data="{&quot;fixed&quot;:true}" id="path34241-6-8-7-4-6-1 1" stroke="#1d810f" stroke-width="10.72189" stroke-miterlimit="4"/><path d="M391.10904,147.70602c24.53767,19.1268 31.38812,30.6999 34.27821,40.7484" data-paper-data="{&quot;fixed&quot;:true}" id="path34237-1-1-5-3-80-0 1" stroke="#5ae733" stroke-width="3.78421" stroke-miterlimit="4"/><path d="M441.7718,208.53756c-2.52321,-15.8004 0.08134,-37.6992 9.37172,-46.9161" data-paper-data="{&quot;fixed&quot;:true}" id="path34239-1-4-8-5-5 1" stroke="#1d810f" stroke-width="10.72196" stroke-miterlimit="4"/><path d="M441.7718,208.53756c28.38112,-29.3832 10.25488,-46.6389 9.37172,-46.9161" data-paper-data="{&quot;fixed&quot;:true}" id="path34241-5-1-9-9-1 1" stroke="#1d810f" stroke-width="10.72196" stroke-miterlimit="4"/><path d="M436.48339,216.29916c14.1022,-27.72 15.40775,-41.0949 13.74274,-51.4899" data-paper-data="{&quot;fixed&quot;:true}" id="path34237-9-8-7-4-1 1" stroke="#5ae733" stroke-width="3.78421" stroke-miterlimit="4"/><path d="M445.82398,215.3151c10.38731,-12.1968 28.82894,-24.3243 41.82109,-23.1462" data-paper-data="{&quot;fixed&quot;:true}" id="path34239-5-4-9-6-6-0 1" stroke="#1d810f" stroke-width="10.72196" stroke-miterlimit="4"/><path d="M445.82398,215.3151c40.77418,2.772 42.21846,-22.3839 41.82109,-23.1462" data-paper-data="{&quot;fixed&quot;:true}" id="path34241-6-8-7-4-9-8 1" stroke="#1d810f" stroke-width="10.72196" stroke-miterlimit="4"/><path d="M436.48339,216.29916c30.2796,-7.2072 41.31652,-14.8302 48.14098,-22.7997" data-paper-data="{&quot;fixed&quot;:true}" id="path34237-1-1-5-3-2-5 1" stroke="#5ae733" stroke-width="3.78421" stroke-miterlimit="4"/><path d="M322.59341,188.80092c-12.92909,9.4248 -33.69186,16.9785 -46.05955,12.8205" data-paper-data="{&quot;fixed&quot;:true}" id="path34239-1-4-8-0-0 1" stroke="#1d810f" stroke-width="10.72196" stroke-miterlimit="4"/><path d="M322.59341,188.80092c-39.0466,-12.0582 -46.25505,11.9196 -46.05955,12.8205" data-paper-data="{&quot;fixed&quot;:true}" id="path34241-5-1-9-3-6 1" stroke="#1d810f" stroke-width="10.72196" stroke-miterlimit="4"/><path d="M331.90813,190.00674c-31.1184,-0.04158 -43.63128,4.851 -52.11443,11.0187" data-paper-data="{&quot;fixed&quot;:true}" id="path34237-9-8-7-0-4 1" stroke="#5ae733" stroke-width="3.78421" stroke-miterlimit="4"/><path d="M326.80642,183.4371c-15.54025,-4.158 -34.73877,-14.6916 -39.56947,-26.8191" data-paper-data="{&quot;fixed&quot;:true}" id="path34239-5-4-9-6-9-6 1" stroke="#1d810f" stroke-width="10.72196" stroke-miterlimit="4"/><path d="M326.80642,182.1204c-16.07642,-37.5606 -39.02068,-27.5814 -39.56947,-26.8191" data-paper-data="{&quot;fixed&quot;:true}" id="path34241-6-8-7-4-2-2 1" stroke="#1d810f" stroke-width="10.72196" stroke-miterlimit="4"/><path d="M329.93657,187.38027c-20.09409,-23.7699 -31.90683,-30.1455 -42.09233,-32.6403" data-paper-data="{&quot;fixed&quot;:true}" id="path34237-1-1-5-3-5-5 1" stroke="#5ae733" stroke-width="3.78421" stroke-miterlimit="4"/><path d="M237.97452,427.53249c122.755,45.8073 226.33507,25.9875 234.8583,22.7304" data-paper-data="{&quot;fixed&quot;:true}" id="path37562-8 1" stroke="#d74619" stroke-width="25.07309" stroke-miterlimit="4"/><path d="M201.55391,397.00391c-0.09093,16.36824 1.54083,31.79449 2.95,48c2.84988,32.77364 0,67.09494 0,100c0,9.27936 -1.67301,45.66349 9,51c13.73255,6.86628 45.94704,2.99669 62,4c19.96975,1.24811 40.90494,2.33967 61,1c17.23614,-1.14908 37.80524,-3.64535 55,-1c11.75048,1.80777 21.72916,9 34,9c11.43984,0 21.95437,-4.79087 33,-7" data-paper-data="{&quot;fixed&quot;:true}" stroke="#272521" stroke-width="11" stroke-miterlimit="10"/><path d="M459.55391,601.00391c29.79857,-12.03983 38.32783,-37.15615 40.95,-66c3.70355,-40.73909 -5.06554,-82.67232 3,-123" data-paper-data="{&quot;fixed&quot;:true}" stroke="#272521" stroke-width="11" stroke-miterlimit="10"/><path d="M232.55391,516.00391c11.26422,0 22.783,-0.76321 33.95,1c15.40392,2.4322 29.33554,9.57596 45,11c8.92742,0.81158 18.06603,-0.7445 27,0c12.80142,1.06679 24.10732,7.19421 37,8c20.30914,1.26932 40.08346,-0.51043 60,-3c11.08624,-1.38578 21.9519,-0.79038 33,-3" data-paper-data="{&quot;fixed&quot;:true}" stroke="#ce4341" stroke-width="11" stroke-miterlimit="10"/><path d="M220.55391,594.00391c10.67311,0 20.54237,-1.2654 30.95,-3c6.17095,-1.02849 11.71537,-4.47628 18,-5c9.13366,-0.76114 16.86845,4.29757 26,5c12.59371,0.96875 24.62239,-0.87476 37,-2c12.18436,-1.10767 24.89612,0.13544 37,1c11.42763,0.81626 22.68704,-1 34,-1c6.12567,0 9.25247,2.85049 15,4c14.7341,2.94682 36.41163,5.44127 49,-4c3.86413,-2.8981 6.5792,-9.96533 9,-14" data-paper-data="{&quot;fixed&quot;:true}" stroke="#ce4341" stroke-width="11" stroke-miterlimit="10"/></g></svg>