<svg version="1.1" xmlns="http://www.w3.org/2000/svg" xmlns:xlink="http://www.w3.org/1999/xlink" width="693" height="693"><g fill="none" fill-rule="nonzero" stroke="none" stroke-width="none" stroke-linecap="round" stroke-linejoin="round" stroke-miterlimit="none" stroke-dasharray="" stroke-dashoffset="0" font-family="none" font-weight="none" font-size="none" text-anchor="none" style="mix-blend-mode: normal"><path d="M79.84431,383.07384c0.6677,6.67844 46.75137,26.71508 274.49725,26.04717c227.74587,-0.6677 245.11064,-12.02182 267.15052,-16.02909" data-paper-data="{&quot;fixed&quot;:true}" id="path933-8-2 1" stroke="#000000" stroke-width="10.25543" stroke-miterlimit="4"/><path d="M340.984,407.11733c5.34303,-17.36478 6.01108,-19.36838 6.01108,-19.36838" data-paper-data="{&quot;fixed&quot;:true}" id="path935-7-9 1" stroke="#000000" stroke-width="10.25543" stroke-miterlimit="4"/><path d="M340.23983,408.35279c1.74428,-9.60831 3.75121,-15.97448 6.02841,-18.11592c2.27789,-2.14137 279.5574,-2.80942 280.61103,-24.04052" data-paper-data="{&quot;fixed&quot;:true}" id="path176-2-1 1" stroke="#000000" stroke-width="10.25543" stroke-miterlimit="4"/><path d="M98.36026,443.3573c20.83054,53.67597 66.86182,102.46437 101.98988,102.03266c35.12796,-0.43181 277.34638,-2.10048 302.69919,-0.90159c25.35292,1.19889 96.63896,-33.83351 97.71678,-89.21726" data-paper-data="{&quot;fixed&quot;:true}" id="path325-0-9 1" stroke="#000000" stroke-width="10.25543" stroke-miterlimit="4"/><path d="M155.89603,498.57111c8.99271,12.20997 28.74959,24.4033 49.26918,23.37059c20.51945,-1.03257 36.04224,-10.33221 38.97501,-18.5927" data-paper-data="{&quot;fixed&quot;:true}" id="path545-3-4 1" stroke="#000000" stroke-width="10.25543" stroke-miterlimit="4"/><path d="M200.26568,520.76722c0.32985,-39.34348 3.31393,-77.65561 0.79764,-81.37426c-2.51628,-3.71864 -5.12196,-0.72696 -7.60588,-8.91364c-2.48441,-8.18655 2.45876,-17.38287 7.37588,-15.07393c4.91683,2.30908 11.78266,6.09008 6.47193,15.60733c-5.31046,9.51759 -5.62924,4.8808 -5.20166,7.02009" data-paper-data="{&quot;fixed&quot;:true}" id="path547-7-7 1" stroke="#000000" stroke-width="10.25543" stroke-miterlimit="4"/><path d="M182.9044,435.7147c12.52514,0.18492 20.61086,1.24324 30.58784,1.772" data-paper-data="{&quot;fixed&quot;:true}" id="path549-5-8 1" stroke="#000000" stroke-width="10.25543" stroke-miterlimit="4"/><path d="M78.5086,383.74174c9.35023,40.07259 8.01454,51.42649 15.36118,57.4373c7.34663,6.01108 133.57531,20.03629 261.1397,18.7006c127.56439,-1.3361 245.77844,-7.34663 252.45727,-14.02535c6.67844,-6.67913 13.35744,-45.41569 20.03629,-78.8095" data-paper-data="{&quot;fixed&quot;:true}" id="path939-9-3 1" stroke="#000000" stroke-width="10.25543" stroke-miterlimit="4"/><path d="M573.55391,518.00391c1.73576,0.35066 20.67984,3.22514 20.95,3c3.34463,-2.7872 -2.07352,-14.71568 2,-12c6.28939,4.19293 0.35175,19.04359 -1,24c-0.53349,1.95614 -0.81643,3.98074 -1,6c-0.15089,1.65982 1.17851,6.17851 0,5c-5.52587,-5.52587 2.79863,-26.27645 5,-32c0.75679,-1.96767 1.27954,-4.01874 2,-6c0.61345,-1.68698 1.19723,-6.60555 2,-5c1.52852,3.05705 -0.27765,10.38825 -1,14c-2.74001,13.70005 -6.02265,27.15857 -8,41" data-paper-data="{&quot;fixed&quot;:true}" stroke="#1a1515" stroke-width="11" stroke-miterlimit="10"/><path d="M619.55391,438.00391c14.78018,0 24.30224,13.48179 34.95,22c3.03547,2.42838 6.66667,4 10,6c1.66667,1 6.37437,1.62563 5,3c-2.62528,2.62528 -10.17303,-3.00347 -12,-4c-8.97077,-4.89315 -22.78549,-7.78549 -30,-15c-1.37437,-1.37437 -1.88539,-3.4077 -3,-5c-1.22398,-1.74855 -5.33333,-3.33333 -4,-5c3.47973,-4.34966 21.42177,4.71089 24,6c3.2249,1.61245 12,4 9,6c-3.26555,2.17704 -16.62983,-5.80257 -17,-6c-1.71499,-0.91466 -3.33333,-2 -5,-3c-1.66667,-1 -6.73845,-2.13077 -5,-3c3.23812,-1.61906 15.46553,3.15518 18,4c2,0.66667 4.73509,3.68655 6,2c1.76404,-2.35205 -15.26165,-18.43549 -17,-20c-1.23882,-1.11494 -5.49071,-2.25464 -4,-3c4.54117,-2.27058 9.52969,3.59291 14,6c1.71133,0.92148 5.61464,1.15609 5,3c-3.21606,9.64817 -12.64436,-13.51881 -17,1c-1.1408,3.80265 8.81732,18.59134 8,19c-1.68655,0.84327 -3.48198,-5.81307 -4,-4c-2.73673,9.57855 8.75473,26.50946 13,35" data-paper-data="{&quot;fixed&quot;:true}" stroke="#1a1515" stroke-width="11" stroke-miterlimit="10"/><path d="M628.55391,449.00391c-0.13132,13.13213 -2.21614,29.00316 -0.05,42c1.44109,8.64653 4.40934,17.14007 5,26c0.47849,7.17742 -2.97886,17.34743 4,22c12.17004,8.11336 19.78546,-0.21334 23,-12c2.30982,-8.46933 1,-19.238 1,-28c0,-15.22529 1.98978,-32.05108 -1,-47" data-paper-data="{&quot;fixed&quot;:true}" stroke="#1a1515" stroke-width="11" stroke-miterlimit="10"/><path d="M657.55391,439.00391c-0.10666,10.66591 -0.05,21.3336 -0.05,32c0,2.66667 0,5.33333 0,8c0,1.66667 0.274,6.64399 0,5c-1.52855,-9.1713 1.31775,-23.36451 -3,-32c-0.74536,-1.49071 0.13841,3.33909 0,5c-0.47384,5.68604 -1.78071,11.29847 -2,17c-0.49027,12.74714 -0.25128,25.27177 -1,38c-0.27404,4.65861 0,9.33333 0,14c0,2 1.2,7.6 0,6c-5.64672,-7.52896 -5.4773,-24.7501 -8,-34c-0.23963,-0.87863 -2.31342,-19.68658 -5,-17c-0.13996,0.13996 0,28.17341 0,29c0,4.33333 0,8.66667 0,13c0,1.66667 0,6.66667 0,5c0,-13.33333 0,-26.66667 0,-40c0,-3.33333 0.33168,-6.68321 0,-10c-0.16912,-1.69124 -0.46252,-6.61245 -1,-5c-0.84327,2.52982 -0.20452,5.34119 0,8c0.13036,1.69467 0.23988,6.52023 1,5c1.62664,-3.25329 -1.6336,-21.3664 0,-23c1.17851,-1.17851 1.61325,4.9245 3,4c1.07625,-0.7175 -3.24104,-17.86753 5,-11c2.57351,2.14459 -2.17805,8.94065 1,10c3.62679,1.20893 6.12483,-16.62552 5,-20c-3.37525,-10.12575 -11.21571,-14 -21,-14c-1.31286,0 -14.67402,-0.34805 -15,-1c-1.54764,-3.09528 7.5105,-5.9021 8,-6c9.09356,-1.81871 17.34176,3.26835 26,5" data-paper-data="{&quot;fixed&quot;:true}" stroke="#1a1515" stroke-width="11" stroke-miterlimit="10"/><path d="M639.55391,424.00391c-19.57621,-3.87648 -30.94237,-21.30313 -45.05,-34c-9.42199,-8.47979 -20.26655,-15.03627 -30,-23c-15.72765,-12.86808 -29.65918,-27.74439 -46,-40" data-paper-data="{&quot;fixed&quot;:true}" stroke="#1a1515" stroke-width="11" stroke-miterlimit="10"/><path d="M645.55391,436.00391c3.73949,1.51091 11.63331,5.69044 13.95,9c6.31406,9.02008 0.68793,24.71641 -1,34c-4.08357,22.45963 7.67048,69.22349 -32,56" data-paper-data="{&quot;fixed&quot;:true}" stroke="#1a1515" stroke-width="11" stroke-miterlimit="10"/></g></svg>