<svg version="1.1" xmlns="http://www.w3.org/2000/svg" xmlns:xlink="http://www.w3.org/1999/xlink" width="651" height="651"><g fill="none" fill-rule="nonzero" stroke="none" stroke-width="none" stroke-linecap="round" stroke-linejoin="round" stroke-miterlimit="4" stroke-dasharray="" stroke-dashoffset="0" font-family="none" font-weight="none" font-size="none" text-anchor="none" style="mix-blend-mode: normal"><path d="M196.57961,371.92932c133.94555,43.9425 274.66958,28.1883 276.66148,9.1791c2.01419,-19.0092 -141.51618,-69.19479 -253.68137,-28.4487" data-paper-data="{&quot;fixed&quot;:true}" id="path27410-0-4 1" stroke="#5d5955" stroke-width="14.98967"/><path d="M339.90574,376.19988c-6.03151,-74.54601 -11.63591,-149.15712 0,-226.34619" data-paper-data="{&quot;fixed&quot;:true}" id="path31436-4 1" stroke="#a57213" stroke-width="23.34362"/><path d="M342.87516,244.10547c26.9751,-21.0273 51.71648,-21.0924 56.53935,-19.53" data-paper-data="{&quot;fixed&quot;:true}" id="path32263-7 1" stroke="#a57213" stroke-width="8.88719"/><path d="M325.90925,283.24359c-39.01886,-20.9622 -34.68593,-57.1578 -61.66252,-54.8142" data-paper-data="{&quot;fixed&quot;:true}" id="path32265-6 1" stroke="#a57213" stroke-width="8.88719"/><path d="M345.49511,149.58027c1.06504,-36.0003 34.28648,-52.0149 45.02186,-59.7618" data-paper-data="{&quot;fixed&quot;:true}" id="path32267-3 1" stroke="#a57213" stroke-width="11.49406"/><path d="M339.90574,149.85369c-18.62739,-29.4252 -27.56757,-33.5265 -38.80058,-37.3023" data-paper-data="{&quot;fixed&quot;:true}" id="path32426-1 1" stroke="#a57213" stroke-width="11.49406"/><path d="M301.10431,112.51884c0,0 2.54736,-11.0019 -1.06634,-14.322c-3.61435,-3.255 -9.55642,-7.0308 -9.55642,-7.0308" data-paper-data="{&quot;fixed&quot;:true}" id="path32428-7 1" stroke="#a57213" stroke-width="5.56929"/><path d="M301.10431,112.51884c-34.77225,10.7415 -35.9158,12.8247 -36.40164,15.2985" data-paper-data="{&quot;fixed&quot;:true}" id="path32430-5 1" stroke="#a57213" stroke-width="5.56929"/><path d="M399.41759,224.54292c0,0 -2.54736,-11.0019 1.06439,-14.322c3.61435,-3.255 9.55642,-7.0308 9.55642,-7.0308" data-paper-data="{&quot;fixed&quot;:true}" id="path32428-3-9 1" stroke="#a57213" stroke-width="5.56929"/><path d="M399.41759,224.54292c34.77225,10.7415 35.91521,12.8247 36.40106,15.2985" data-paper-data="{&quot;fixed&quot;:true}" id="path32430-8-6 1" stroke="#a57213" stroke-width="5.56929"/><path d="M390.51453,89.83149c0,0 10.92508,3.906 15.6115,2.604c4.68004,-1.302 9.43188,3.255 9.43188,3.255" data-paper-data="{&quot;fixed&quot;:true}" id="path32428-9-2 1" stroke="#a57213" stroke-width="5.56929"/><path d="M339.90574,149.85369c0,0 9.55642,-12.5643 14.24284,-13.9965c4.68004,-1.302 13.2595,2.604 13.2595,2.604" data-paper-data="{&quot;fixed&quot;:true}" id="path32428-9-8-1 1" stroke="#a57213" stroke-width="5.56929"/><path d="M390.51453,89.83149c8.06915,-35.4795 -24.07776,-18.7488 -25.99742,-20.3763" data-paper-data="{&quot;fixed&quot;:true}" id="path32430-6-7 1" stroke="#a57213" stroke-width="5.56929"/><path d="M326.11954,201.2892c0,0 -1.18482,-12.4341 -4.73993,-15.7542c-3.61435,-3.255 -9.55622,-7.0308 -9.55622,-7.0308" data-paper-data="{&quot;fixed&quot;:true}" id="path32428-5-8 1" stroke="#a57213" stroke-width="5.56929"/><path d="M264.86412,227.17947c0,0 2.54736,-11.0019 -1.06634,-14.322c-3.61435,-3.255 -9.55642,-7.0308 -9.55642,-7.0308" data-paper-data="{&quot;fixed&quot;:true}" id="path32428-5-4-5 1" stroke="#a57213" stroke-width="5.56929"/><path d="M264.86412,227.17947c-25.54719,22.2642 -34.36935,14.7126 -36.39572,15.2985" data-paper-data="{&quot;fixed&quot;:true}" id="path32430-0-7 1" stroke="#a57213" stroke-width="5.56929"/><path d="M220.52903,246.32538c-5.2731,14.0616 -17.69125,30.7272 -29.54648,33.852" data-paper-data="{&quot;fixed&quot;:true}" id="path34239-4 1" stroke="#1d810f" stroke-width="10.07214"/><path d="M220.52903,246.32538c-36.86379,10.6764 -30.15673,33.2661 -29.54648,33.852" data-paper-data="{&quot;fixed&quot;:true}" id="path34241-1 1" stroke="#1d810f" stroke-width="10.07214"/><path d="M226.22883,244.6458c-24.45104,16.0146 -31.7565,26.3004 -35.24631,35.5446" data-paper-data="{&quot;fixed&quot;:true}" id="path34237-8 1" stroke="#5ae733" stroke-width="3.55486"/><path d="M220.39235,238.91049c-14.14909,5.208 -34.86444,6.51 -44.91015,-0.63798" data-paper-data="{&quot;fixed&quot;:true}" id="path34239-5-9 1" stroke="#1d810f" stroke-width="10.07214"/><path d="M220.39235,238.91049c-31.99847,-21.2226 -44.8511,-1.302 -44.91015,-0.63798" data-paper-data="{&quot;fixed&quot;:true}" id="path34241-6-7 1" stroke="#1d810f" stroke-width="10.07214"/><path d="M228.46562,242.47146c-17.60525,-8.9187 -41.62344,-7.7469 -49.8832,-3.906" data-paper-data="{&quot;fixed&quot;:true}" id="path34237-1-5 1" stroke="#5ae733" stroke-width="3.55486"/><path d="M256.63283,124.25637c-14.14903,5.208 -34.86444,6.51 -44.91008,-0.63798" data-paper-data="{&quot;fixed&quot;:true}" id="path34239-5-3-8 1" stroke="#1d810f" stroke-width="10.07214"/><path d="M256.63283,124.25637c-31.99841,-21.2226 -44.8511,-1.302 -44.91008,-0.63798" data-paper-data="{&quot;fixed&quot;:true}" id="path34241-6-0-3 1" stroke="#1d810f" stroke-width="10.07214"/><path d="M264.70612,127.81734c-28.03395,-8.2677 -40.60105,-7.2261 -49.8832,-3.906" data-paper-data="{&quot;fixed&quot;:true}" id="path34237-1-4-1 1" stroke="#5ae733" stroke-width="3.55486"/><path d="M257.93093,133.46802c-1.75379,14.9079 -9.77945,34.0473 -20.53033,39.9714" data-paper-data="{&quot;fixed&quot;:true}" id="path34239-5-3-4-4 1" stroke="#1d810f" stroke-width="10.07214"/><path d="M257.93093,133.46802c-33.2038,19.2696 -21.26954,39.5157 -20.53033,39.9714" data-paper-data="{&quot;fixed&quot;:true}" id="path34241-6-0-7-3 1" stroke="#1d810f" stroke-width="10.07214"/><path d="M264.70576,127.81734c-19.87614,21.4179 -24.49238,33.201 -25.65676,42.966" data-paper-data="{&quot;fixed&quot;:true}" id="path34237-1-4-6-3 1" stroke="#5ae733" stroke-width="3.55486"/><path d="M245.50218,204.69393c-12.14558,8.8536 -31.64986,15.9495 -43.268,12.0435" data-paper-data="{&quot;fixed&quot;:true}" id="path34239-1-3 1" stroke="#1d810f" stroke-width="10.07214"/><path d="M245.50218,204.69393c-36.67955,-11.3274 -43.45165,11.1972 -43.268,12.0435" data-paper-data="{&quot;fixed&quot;:true}" id="path34241-5-8 1" stroke="#1d810f" stroke-width="10.07214"/><path d="M254.25177,205.82667c-29.23237,-0.03906 -40.98696,4.557 -48.95598,10.3509" data-paper-data="{&quot;fixed&quot;:true}" id="path34237-9-6 1" stroke="#5ae733" stroke-width="3.55486"/><path d="M249.45995,198.41829c-14.60056,-3.255 -32.633,-13.8012 -37.17366,-25.1937" data-paper-data="{&quot;fixed&quot;:true}" id="path34239-5-4-4 1" stroke="#1d810f" stroke-width="10.07214"/><path d="M249.45995,198.41829c-15.10099,-35.2842 -36.65514,-25.9098 -37.17366,-25.1937" data-paper-data="{&quot;fixed&quot;:true}" id="path34241-6-8-8 1" stroke="#1d810f" stroke-width="10.07214"/><path d="M250.69464,202.74093c-17.62726,-19.7904 -29.56966,-27.5373 -39.54141,-30.6621" data-paper-data="{&quot;fixed&quot;:true}" id="path34237-1-1-8 1" stroke="#5ae733" stroke-width="3.55486"/><path d="M281.74237,90.0333c-12.14558,8.8536 -31.64986,15.9495 -43.26806,12.0435" data-paper-data="{&quot;fixed&quot;:true}" id="path34239-1-4-89 1" stroke="#1d810f" stroke-width="10.07214"/><path d="M281.74237,90.0333c-36.67949,-11.3274 -43.45171,11.1972 -43.26806,12.0435" data-paper-data="{&quot;fixed&quot;:true}" id="path34241-5-1-7 1" stroke="#1d810f" stroke-width="10.07214"/><path d="M290.49198,91.17255c-29.2325,-0.03906 -40.98696,4.557 -48.95605,10.3509" data-paper-data="{&quot;fixed&quot;:true}" id="path34237-9-8-76 1" stroke="#5ae733" stroke-width="3.55486"/><path d="M285.70016,83.76417c-14.60056,-3.255 -32.633,-13.8012 -37.17373,-25.1937" data-paper-data="{&quot;fixed&quot;:true}" id="path34239-5-4-9-3 1" stroke="#1d810f" stroke-width="10.07214"/><path d="M285.70016,83.76417c-15.10105,-35.2842 -36.65521,-25.9098 -37.17366,-25.1937" data-paper-data="{&quot;fixed&quot;:true}" id="path34241-6-8-7-0 1" stroke="#1d810f" stroke-width="10.07214"/><path d="M290.49237,91.17255c-18.87711,-22.3293 -29.97119,-28.3185 -39.54141,-30.6621" data-paper-data="{&quot;fixed&quot;:true}" id="path34237-1-1-5-30 1" stroke="#5ae733" stroke-width="3.55486"/><path d="M355.76856,68.31594c-12.14558,8.8536 -31.6498,15.9495 -43.26806,12.0435" data-paper-data="{&quot;fixed&quot;:true}" id="path34239-1-4-2-9 1" stroke="#1d810f" stroke-width="10.07214"/><path d="M355.76856,68.31594c-36.67955,-11.3274 -43.45171,11.1972 -43.26806,12.0435" data-paper-data="{&quot;fixed&quot;:true}" id="path34241-5-1-1-2 1" stroke="#1d810f" stroke-width="10.07214"/><path d="M364.51875,69.45519c-29.2325,-0.03906 -40.98696,4.557 -48.95605,10.3509" data-paper-data="{&quot;fixed&quot;:true}" id="path34237-9-8-0-5 1" stroke="#5ae733" stroke-width="3.55486"/><path d="M359.72629,62.04681c-14.60056,-3.255 -32.63307,-13.8012 -37.17366,-25.1937" data-paper-data="{&quot;fixed&quot;:true}" id="path34239-5-4-9-1-0 1" stroke="#1d810f" stroke-width="10.07214"/><path d="M359.72629,62.04681c-15.10105,-35.2842 -36.65521,-25.9098 -37.17366,-25.1937" data-paper-data="{&quot;fixed&quot;:true}" id="path34241-6-8-7-1-5 1" stroke="#1d810f" stroke-width="10.07214"/><path d="M364.51852,69.45519c-18.87718,-22.3293 -29.97119,-28.3185 -39.54141,-30.6621" data-paper-data="{&quot;fixed&quot;:true}" id="path34237-1-1-5-0-9 1" stroke="#5ae733" stroke-width="3.55486"/><path d="M441.44733,246.63135c-0.99408,14.973 3.40994,35.2842 12.90933,43.0311" data-paper-data="{&quot;fixed&quot;:true}" id="path34239-1-4-8-6 1" stroke="#1d810f" stroke-width="10.07214"/><path d="M441.44733,246.63135c29.14045,24.9984 13.71488,42.7056 12.90933,43.0311" data-paper-data="{&quot;fixed&quot;:true}" id="path34241-5-1-9-92 1" stroke="#1d810f" stroke-width="10.07214"/><path d="M435.8156,239.83491c15.63839,24.6729 18.03914,37.107 17.40188,46.9371" data-paper-data="{&quot;fixed&quot;:true}" id="path34237-9-8-7-2 1" stroke="#5ae733" stroke-width="3.55486"/><path d="M444.63831,239.93256c10.79208,10.4811 29.1109,20.181 41.16045,17.9676" data-paper-data="{&quot;fixed&quot;:true}" id="path34239-5-4-9-6-4 1" stroke="#1d810f" stroke-width="10.07214"/><path d="M444.63831,239.93256c37.90057,-5.859 41.45991,17.1864 41.16045,17.9676" data-paper-data="{&quot;fixed&quot;:true}" id="path34241-6-8-7-4-7 1" stroke="#1d810f" stroke-width="10.07214"/><path d="M435.8156,239.83491c28.95205,3.906 39.94894,10.2207 47.03514,17.0562" data-paper-data="{&quot;fixed&quot;:true}" id="path34237-1-1-5-3-7 1" stroke="#5ae733" stroke-width="3.55486"/><path d="M421.18899,102.57807c-0.99408,14.973 3.40994,35.2842 12.90933,43.0311" data-paper-data="{&quot;fixed&quot;:true}" id="path34239-1-4-8-4-4 1" stroke="#1d810f" stroke-width="10.07214"/><path d="M421.18899,102.57807c29.14045,24.9984 13.71488,42.7707 12.90933,43.0311" data-paper-data="{&quot;fixed&quot;:true}" id="path34241-5-1-9-7-8 1" stroke="#1d810f" stroke-width="10.07214"/><path d="M415.55726,95.78814c15.63839,24.6729 18.03914,37.107 17.40188,46.9371" data-paper-data="{&quot;fixed&quot;:true}" id="path34237-9-8-7-7-1 1" stroke="#5ae733" stroke-width="3.55486"/><path d="M424.37999,95.88579c10.79208,10.4811 29.11096,20.181 41.16052,17.9676" data-paper-data="{&quot;fixed&quot;:true}" id="path34239-5-4-9-6-5-2 1" stroke="#1d810f" stroke-width="10.07214"/><path d="M424.37999,95.88579c37.90057,-5.859 41.45985,17.1864 41.16052,17.9676" data-paper-data="{&quot;fixed&quot;:true}" id="path34241-6-8-7-4-4-8 1" stroke="#1d810f" stroke-width="10.07214"/><path d="M415.55726,95.78814c28.95205,3.906 39.94894,10.2207 47.03514,17.0562" data-paper-data="{&quot;fixed&quot;:true}" id="path34237-1-1-5-3-8-9 1" stroke="#5ae733" stroke-width="3.55486"/><path d="M368.8869,147.4515c-8.35545,12.4992 -14.68363,32.2896 -10.32838,43.7472" data-paper-data="{&quot;fixed&quot;:true}" id="path34239-1-4-8-2-6 1" stroke="#1d810f" stroke-width="10.07214"/><path d="M368.8869,147.4515c12.74638,36.1956 -9.48566,43.8774 -10.32844,43.7472" data-paper-data="{&quot;fixed&quot;:true}" id="path34241-5-1-9-8-8 1" stroke="#1d810f" stroke-width="10.07214"/><path d="M367.40546,138.75414c1.19393,29.2299 -2.91648,41.1432 -8.38416,49.3458" data-paper-data="{&quot;fixed&quot;:true}" id="path34237-9-8-7-9-0 1" stroke="#5ae733" stroke-width="3.55486"/><path d="M374.99761,143.24604c4.12018,14.4522 15.10489,32.0943 26.65878,36.1305" data-paper-data="{&quot;fixed&quot;:true}" id="path34239-5-4-9-6-3-2 1" stroke="#1d810f" stroke-width="10.07214"/><path d="M374.99761,143.24604c35.85747,13.671 27.31921,35.6097 26.65878,36.1305" data-paper-data="{&quot;fixed&quot;:true}" id="path34241-6-8-7-4-6-1 1" stroke="#1d810f" stroke-width="10.07214"/><path d="M367.40546,138.75414c23.05054,17.9676 29.48581,28.8393 32.20074,38.2788" data-paper-data="{&quot;fixed&quot;:true}" id="path34237-1-1-5-3-80-0 1" stroke="#5ae733" stroke-width="3.55486"/><path d="M414.99775,195.89892c-2.37029,-14.8428 0.07641,-35.4144 8.80373,-44.0727" data-paper-data="{&quot;fixed&quot;:true}" id="path34239-1-4-8-5-5 1" stroke="#1d810f" stroke-width="10.07214"/><path d="M414.99775,195.89892c26.66105,-27.6024 9.63337,-43.8123 8.80373,-44.0727" data-paper-data="{&quot;fixed&quot;:true}" id="path34241-5-1-9-9-1 1" stroke="#1d810f" stroke-width="10.07214"/><path d="M410.02985,203.19012c13.24752,-26.04 14.47394,-38.6043 12.90985,-48.3693" data-paper-data="{&quot;fixed&quot;:true}" id="path34237-9-8-7-4-1 1" stroke="#5ae733" stroke-width="3.55486"/><path d="M418.80434,202.2657c9.75777,-11.4576 27.08173,-22.8501 39.28648,-21.7434" data-paper-data="{&quot;fixed&quot;:true}" id="path34239-5-4-9-6-6-0 1" stroke="#1d810f" stroke-width="10.07214"/><path d="M418.80434,202.2657c38.30302,2.604 39.65977,-21.0273 39.28648,-21.7434" data-paper-data="{&quot;fixed&quot;:true}" id="path34241-6-8-7-4-9-8 1" stroke="#1d810f" stroke-width="10.07214"/><path d="M410.02985,203.19012c28.44447,-6.7704 38.81249,-13.9314 45.22334,-21.4179" data-paper-data="{&quot;fixed&quot;:true}" id="path34237-1-1-5-3-2-5 1" stroke="#5ae733" stroke-width="3.55486"/><path d="M303.0423,177.35844c-12.14551,8.8536 -31.64993,15.9495 -43.26806,12.0435" data-paper-data="{&quot;fixed&quot;:true}" id="path34239-1-4-8-0-0 1" stroke="#1d810f" stroke-width="10.07214"/><path d="M303.0423,177.35844c-36.68014,-11.3274 -43.45171,11.1972 -43.26806,12.0435" data-paper-data="{&quot;fixed&quot;:true}" id="path34241-5-1-9-3-6 1" stroke="#1d810f" stroke-width="10.07214"/><path d="M311.79249,178.49118c-29.23244,-0.03906 -40.98696,4.557 -48.95598,10.3509" data-paper-data="{&quot;fixed&quot;:true}" id="path34237-9-8-7-0-4 1" stroke="#5ae733" stroke-width="3.55486"/><path d="M306.99997,172.3197c-14.59841,-3.906 -32.63339,-13.8012 -37.17132,-25.1937" data-paper-data="{&quot;fixed&quot;:true}" id="path34239-5-4-9-6-9-6 1" stroke="#1d810f" stroke-width="10.07214"/><path d="M306.99997,171.0828c-15.10209,-35.2842 -36.65579,-25.9098 -37.17132,-25.1937" data-paper-data="{&quot;fixed&quot;:true}" id="path34241-6-8-7-4-2-2 1" stroke="#1d810f" stroke-width="10.07214"/><path d="M309.94042,176.02389c-18.87627,-22.3293 -29.97308,-28.3185 -39.54128,-30.6621" data-paper-data="{&quot;fixed&quot;:true}" id="path34237-1-1-5-3-5-5 1" stroke="#5ae733" stroke-width="3.55486"/><path d="M223.55182,401.62143c115.3153,43.0311 212.61779,24.4125 220.62446,21.3528" data-paper-data="{&quot;fixed&quot;:true}" id="path37562-8 1" stroke="#d74619" stroke-width="23.55351"/></g></svg>