<svg version="1.1" xmlns="http://www.w3.org/2000/svg" xmlns:xlink="http://www.w3.org/1999/xlink" width="651" height="651"><g fill="none" fill-rule="nonzero" stroke="none" stroke-width="none" stroke-linecap="round" stroke-linejoin="round" stroke-miterlimit="none" stroke-dasharray="" stroke-dashoffset="0" font-family="none" font-weight="none" font-size="none" text-anchor="none" style="mix-blend-mode: normal"><path d="M264.4746,305.45571c26.35769,49.476 30.36134,45.7002 31.1165,59.0457c0.78185,13.3455 55.86036,8.3979 64.36828,6.51c8.5085,-1.953 6.1194,-8.0724 5.859,-13.4106c-0.27731,-5.208 25.16636,-38.3439 28.187,-46.0257" data-paper-data="{&quot;fixed&quot;:true}" id="path53808-0 1" stroke="#5d5955" stroke-width="16.46984" stroke-miterlimit="4"/><path d="M438.43161,99.19938c-19.39264,-20.2461 -191.52094,-5.859 -205.82477,3.906c-18.09715,11.9133 -118.56638,152.09964 -100.94582,180.00801c17.62192,27.9279 373.12369,25.5192 386.84034,6.6402c13.86825,-18.8139 -61.1246,-186.3813 -68.22136,-187.64424" data-paper-data="{&quot;fixed&quot;:true}" id="path52838-6 1" stroke="#eacd46" stroke-width="13.67061" stroke-miterlimit="4"/><path d="M385.68127,116.35974c50.47008,3.255 59.47927,-9.3093 61.07422,11.3925c1.36775,17.9676 -53.24334,0.05859 -51.01692,17.9676c2.3436,19.0092 53.19777,-13.5408 57.16822,5.208c3.7758,17.9025 -52.79415,9.0489 -48.02883,26.7561c5.1429,19.1394 53.60139,-19.9857 59.45974,-1.302c6.6598,21.5481 -63.7954,15.8844 -56.46514,37.1721c6.1845,18.0327 50.84115,-22.6548 57.01914,-4.557c4.8825,14.2569 -42.95754,10.6113 -37.88039,24.8031c5.859,16.4703 46.10187,-21.9387 52.23429,-5.859c10.64971,28.5138 -99.08794,33.7869 -74.86585,52.2102c11.57133,11.067 73.7754,-10.5462 82.79731,-14.4522" data-paper-data="{&quot;fixed&quot;:true}" id="path54109-2 1" stroke="#fcf3c6" stroke-width="13.67061" stroke-miterlimit="4"/><path d="M311.55,375c-0.24961,29.95364 1.24923,61.11 -1.05,91c-1.02598,13.33774 -4,25.4922 -4,39" data-paper-data="{&quot;fixed&quot;:true}" stroke="#5d5955" stroke-width="16.46984" stroke-miterlimit="10"/><path d="M345.55,377c2.56227,16.18273 -0.40569,32.73172 0.95,49c2.01364,24.16369 1,47.82335 1,72" data-paper-data="{&quot;fixed&quot;:true}" stroke="#5d5955" stroke-width="16.46984" stroke-miterlimit="10"/><path d="M242.55,500c-17.80306,23.34828 18.42421,42.60745 35.95,48c25.93161,7.97896 61.16441,9.96346 88,4c4.95829,-1.10184 17.58196,-3.18852 22,-6c3.85125,-2.4508 2.63913,-6.59782 4,-10c11.81447,-29.53617 -0.97969,-48.32656 -30,-58" data-paper-data="{&quot;fixed&quot;:true}" stroke="#5d5955" stroke-width="16.46984" stroke-miterlimit="10"/><path d="M246.55,494c16.26554,0 31.79695,-11.76939 47.95,-15" data-paper-data="{&quot;fixed&quot;:true}" stroke="#5d5955" stroke-width="16.46984" stroke-miterlimit="10"/><path d="M314.55,507c9.4467,3.81685 21.99138,5.99172 31.95,4" data-paper-data="{&quot;fixed&quot;:true}" stroke="#5d5955" stroke-width="16.46984" stroke-miterlimit="10"/><path d="M235.55,523c-0.0872,8.72011 -6.85154,36.67631 -5.05,41c3.38783,8.1308 18.68822,12.00588 26,14c30.78329,8.39544 60.94098,8 93,8c21.49887,0 29.39098,-0.84775 50,-6c3.70113,-0.92528 19,-2.05089 19,-8c0,-3.8424 -9.00604,-9.15149 -11,-12c-6.696,-9.56571 -9,-20.63496 -9,-32" data-paper-data="{&quot;fixed&quot;:true}" stroke="#5d5955" stroke-width="16.46984" stroke-miterlimit="10"/><path d="M402.55,523c15.1328,2.54333 44.95483,14.61957 57.95,0c6.21173,-6.9882 3.20951,-20.51115 0,-28c-1.75651,-4.09852 -7.33653,-10.42583 -2,-15c9.83504,-8.43003 23.90818,3.19208 32,7c3.34719,1.57515 12.33019,4.66981 13,4c6.74364,-6.74364 -3.47176,-23.18863 4,-29c9.87564,-7.68105 28.26783,-14 41,-14" data-paper-data="{&quot;fixed&quot;:true}" stroke="#5d5955" stroke-width="16.46984" stroke-miterlimit="10"/><path d="M548.55,436c3.19348,4.04238 6.86288,9.30398 8.95,14c0.6903,1.55318 -0.38308,4.01209 1,5c4.48259,3.20185 23.29618,-6.43206 28,-8c2.23607,-0.74536 6.42834,1.28665 7,-1c0.54233,-2.1693 -4.11352,-1.79951 -6,-3c-4.18451,-2.66287 -10.71773,-7.43546 -13,-12c-1.55635,-3.1127 -2.3175,-6.58748 -3,-10c-0.32686,-1.6343 1.30145,-3.95884 0,-5c-5.08589,-4.06871 -12.22965,10.04942 -14,13" data-paper-data="{&quot;fixed&quot;:true}" stroke="#5d5955" stroke-width="16.46984" stroke-miterlimit="10"/><path d="M580.55,422c2.48134,-3.14093 5.11958,-6.16958 7.95,-9" data-paper-data="{&quot;fixed&quot;:true}" stroke="#5d5955" stroke-width="5" stroke-miterlimit="10"/><path d="M587.55,435c2.23211,-3.39054 4.51441,-6.75255 6.95,-10" data-paper-data="{&quot;fixed&quot;:true}" stroke="#5d5955" stroke-width="5" stroke-miterlimit="10"/><path d="M301.55,529c-0.00686,0.68638 -0.12576,10.90909 -0.05,11c2.34734,2.81681 7.346,-0.3045 11,0c3.7611,0.31342 25.6844,2.654 28,1c2.7451,-1.96078 -1.7451,-8.37255 -3,-9c-3.53615,-1.76808 -30.38101,-0.89684 -37,-2" data-paper-data="{&quot;fixed&quot;:true}" stroke="#5d5955" stroke-width="5" stroke-miterlimit="10"/><path d="M319.55,532c-0.01667,1.66667 -0.03333,3.33333 -0.05,5" data-paper-data="{&quot;fixed&quot;:true}" stroke="#5d5955" stroke-width="5" stroke-miterlimit="10"/></g></svg>