<svg version="1.1" xmlns="http://www.w3.org/2000/svg" xmlns:xlink="http://www.w3.org/1999/xlink" width="651" height="651"><g fill="none" fill-rule="nonzero" stroke="none" stroke-width="none" stroke-linecap="round" stroke-linejoin="round" stroke-miterlimit="none" stroke-dasharray="" stroke-dashoffset="0" font-family="none" font-weight="none" font-size="none" text-anchor="none" style="mix-blend-mode: normal"><path d="M328.91076,-7.33451c-16.22149,141.49286 -62.85158,272.14734 -72.81001,329.68161c-9.9702,57.60347 -8.09571,151.95011 -15.52993,170.91323c-7.57133,19.31296 -57.31358,60.05078 -108.94584,63.19849" data-paper-data="{&quot;fixed&quot;:true}" id="path631 1" stroke="#c4784d" stroke-width="40.87473" stroke-miterlimit="4"/><path d="M362.25651,5.33832c-19.05789,107.20184 -64.00864,285.07221 -71.80587,355.99539c-7.79735,70.92319 -9.04311,147.90598 -25.80662,159.10875c-16.76358,11.2028 -23.93942,21.8835 -68.35186,27.40736" data-paper-data="{&quot;fixed&quot;:true}" id="path15535 1" stroke="#c4784d" stroke-width="40.87473" stroke-miterlimit="4"/><path d="M389.94203,-4.74261c-19.05789,107.20183 -43.03259,234.58901 -50.82981,305.51219c-7.79735,70.92319 -57.70471,208.47012 -74.46823,219.67289c-16.76358,11.20273 -23.93942,21.8835 -68.35186,27.40736" data-paper-data="{&quot;fixed&quot;:true}" id="path15535-7 1" stroke="#c4784d" stroke-width="40.87473" stroke-miterlimit="4"/><path d="M128.56403,555.03832c51.63433,6.94995 133.90687,3.62282 141.1068,-6.50284c7.1998,-10.12611 63.07057,-202.58896 82.96017,-220.09904c27.54147,-24.24669 76.81555,-21.12658 82.26457,-48.01958c10.52986,-51.9692 -35.88416,-86.41297 -34.83045,-131.84197c1.05267,-45.42886 17.42779,-152.43401 17.42779,-152.43401" data-paper-data="{&quot;fixed&quot;:true}" id="path4202 1" stroke="#c4784d" stroke-width="40.87473" stroke-miterlimit="4"/><path d="M128.56417,555.03821c51.63433,6.94995 133.90686,3.62282 141.1068,-6.50284c7.1998,-10.12611 57.62398,-152.74814 77.51355,-170.25822c27.54147,-24.24668 116.10802,-55.385 121.55704,-82.278c10.52986,-51.9692 -69.73002,-101.99539 -68.67635,-147.42438c1.05267,-45.42886 41.76829,-150.26458 41.76829,-150.26458" data-paper-data="{&quot;fixed&quot;:true}" id="path18681 1" stroke="#c4784d" stroke-width="40.87473" stroke-miterlimit="4"/><path d="M378.65039,198.16995c27.43607,69.39273 -7.76415,78.87676 -7.76415,78.87676" data-paper-data="{&quot;fixed&quot;:true}" id="path18859 1" stroke="#c4784d" stroke-width="63.68141" stroke-miterlimit="4"/><path d="M408.26828,157.99687c-68.6894,26.31283 -135.98531,38.93937 -137.61345,52.12303c-1.62815,13.18366 54.69487,79.83249 48.52801,92.17508c-6.16692,12.34257 -70.04703,26.4569 -72.50242,39.94302c-2.45557,13.48612 70.25596,57.32927 90.43771,81.53412" data-paper-data="{&quot;fixed&quot;:true}" id="path567-6 1" stroke="#211108" stroke-width="30.73833" stroke-miterlimit="4"/><path d="M449.90161,220.68533c-109.32735,84.56157 -106.77401,72.94892 -107.96009,84.83044c-1.18612,11.8814 30.22137,39.84413 46.52105,57.36638" data-paper-data="{&quot;fixed&quot;:true}" id="path569-2 1" stroke="#211108" stroke-width="30.73833" stroke-miterlimit="4"/><path d="M407.70267,155.1952c50.05962,63.61924 83.13806,92.03608 76.61928,139.5951c-7.92593,57.82553 -120.0703,53.8763 -146.90578,127.69179" data-paper-data="{&quot;fixed&quot;:true}" id="path24733 1" stroke="#211108" stroke-width="30.73833" stroke-miterlimit="4"/><path d="M381.55,376c16.7051,6.74953 17.36179,23.63241 22.95,39c3.93575,10.82332 8.95816,24.53973 10,36c0.55975,6.1573 0.0681,12.94264 1,19c2.87904,18.71378 6.28407,37.98849 9,57c1.55526,10.8868 1.03387,22.1863 3,33c0.65862,3.6224 -1.60342,8.39658 1,11c2.35702,2.35702 7.01858,1.49071 10,0c4.819,-2.4095 2.33448,-9.98619 2,-14c-1.08309,-12.99706 -5.23154,-25.61079 -3,-39c2.44473,-14.6684 5.73419,-29.27225 8,-44c2.14819,-13.96324 -0.15987,-28.96082 2,-43c1.48685,-9.66452 6.64384,-19.57535 9,-29c0.80845,-3.23381 -0.59628,-6.72043 0,-10c3.78198,-20.80087 2.94049,-41.85122 11,-62" data-paper-data="{&quot;fixed&quot;:true}" stroke="#211108" stroke-width="14" stroke-miterlimit="10"/></g></svg>