<svg version="1.1" xmlns="http://www.w3.org/2000/svg" xmlns:xlink="http://www.w3.org/1999/xlink" width="651" height="651"><g fill="none" fill-rule="nonzero" stroke="none" stroke-width="none" stroke-linecap="round" stroke-linejoin="round" stroke-miterlimit="none" stroke-dasharray="" stroke-dashoffset="0" font-family="none" font-weight="none" font-size="none" text-anchor="none" style="mix-blend-mode: normal"><path d="M75.00526,359.85725c0.62723,6.27369 43.91796,25.09598 257.86105,24.46855c213.94309,-0.62723 230.25544,-11.29322 250.95958,-15.05763" data-paper-data="{&quot;fixed&quot;:true}" id="path933-8-2 1" stroke="#000000" stroke-width="9.63389" stroke-miterlimit="4"/><path d="M320.31831,382.44356c5.01921,-16.31237 5.64677,-18.19454 5.64677,-18.19454" data-paper-data="{&quot;fixed&quot;:true}" id="path935-7-9 1" stroke="#000000" stroke-width="9.63389" stroke-miterlimit="4"/><path d="M319.61924,383.60413c1.63857,-9.02598 3.52386,-15.00633 5.66305,-17.01799c2.13984,-2.01159 262.61453,-2.63915 263.6043,-22.58352" data-paper-data="{&quot;fixed&quot;:true}" id="path176-2-1 1" stroke="#000000" stroke-width="9.63389" stroke-miterlimit="4"/><path d="M92.39903,416.48716c19.56808,50.42288 62.80959,96.25441 95.80868,95.84886c32.99899,-0.40564 260.53751,-1.97318 284.35379,-0.84695c23.81638,1.12623 90.78205,-31.78299 91.79455,-83.81016" data-paper-data="{&quot;fixed&quot;:true}" id="path325-0-9 1" stroke="#000000" stroke-width="9.63389" stroke-miterlimit="4"/><path d="M146.44779,468.35468c8.4477,11.46997 27.00719,22.92431 46.28317,21.95419c19.27585,-0.96999 33.85786,-9.70602 36.61289,-17.46587" data-paper-data="{&quot;fixed&quot;:true}" id="path545-3-4 1" stroke="#000000" stroke-width="9.63389" stroke-miterlimit="4"/><path d="M188.12836,489.20557c0.30986,-36.95903 3.11308,-72.94921 0.7493,-76.44248c-2.36378,-3.49327 -4.81154,-0.6829 -7.14492,-8.37342c-2.33383,-7.69039 2.30975,-16.32936 6.92885,-14.16036c4.61884,2.16913 11.06856,5.72099 6.07969,14.66143c-4.98861,8.94077 -5.28807,4.58499 -4.88641,6.59463" data-paper-data="{&quot;fixed&quot;:true}" id="path547-7-7 1" stroke="#000000" stroke-width="9.63389" stroke-miterlimit="4"/><path d="M171.81929,409.30775c11.76604,0.17371 19.36172,1.16789 28.73403,1.66461" data-paper-data="{&quot;fixed&quot;:true}" id="path549-5-8 1" stroke="#000000" stroke-width="9.63389" stroke-miterlimit="4"/><path d="M73.7505,360.48467c8.78355,37.64394 7.52882,48.30973 14.4302,53.95625c6.90138,5.64677 125.47983,18.82197 245.31305,17.56723c119.83322,-1.25513 230.88278,-6.90138 237.15683,-13.17533c6.27369,-6.27434 12.54789,-42.66322 18.82197,-74.03317" data-paper-data="{&quot;fixed&quot;:true}" id="path939-9-3 1" stroke="#000000" stroke-width="9.63389" stroke-miterlimit="4"/><path d="M312.55,65c-0.1131,11.30955 0.96,22.96333 -2.05,34c-2.83754,10.40431 -8.78273,20.1597 -13,30c-13.58394,31.69586 -31.72968,57.35865 -52,85c-12.9947,17.72005 -24.32508,36.90635 -38,54c-6.28512,7.85639 -15.70766,13.94355 -21,21" data-paper-data="{&quot;fixed&quot;:true}" stroke="#211108" stroke-width="8" stroke-miterlimit="10"/><path d="M316.55,64c-6.22809,18.22855 -2.05,49.00008 -2.05,69c0,45.56313 -3.49348,92.58482 0,138c0.9192,11.94962 6.88293,30.70243 5,42c-1.09834,6.59005 -26.16852,4 -32,4c-35.18999,0 -75.30905,0.26821 -105,-22" data-paper-data="{&quot;fixed&quot;:true}" stroke="#211108" stroke-width="8" stroke-miterlimit="10"/><path d="M338.55,22c-0.37892,37.89156 9.73597,73.36145 11.95,111c3.36653,57.23098 0,115.64791 0,173" data-paper-data="{&quot;fixed&quot;:true}" stroke="#211108" stroke-width="8" stroke-miterlimit="10"/><path d="M338.55,22c15.51209,18.70804 26.63935,37.48225 38.95,58c3.11432,5.19053 8.20869,9.36617 12,14c7.01561,8.57464 12.25209,18.32412 19,27c5.25793,6.7602 12.53854,12.36822 18,19c15.16894,18.41943 26.5497,39.97465 42,58c10.39787,12.13085 21.22169,23.2882 31,36c12.15378,15.79992 29.0894,28.1192 41,44c3.09788,4.13051 4.4896,11.3976 7,16c2.26859,4.15908 8.33001,6.31006 9,11c0.02491,0.17436 -14.68836,2.73767 -16,3c-10.63972,2.12794 -22.22229,1 -33,1c-29.48146,0 -61.2705,1.58008 -90,6c-20.46653,3.1487 -44.18312,0 -65,0" data-paper-data="{&quot;fixed&quot;:true}" stroke="#211108" stroke-width="8" stroke-miterlimit="10"/><path d="M321.55,5c-0.11252,11.25193 -1.75507,23.91707 -0.05,35c3.28721,21.36688 10.43268,42.59608 14,64c1.17569,7.05412 -0.54847,14.86995 0,22c1.50889,19.61551 0.76878,39.30048 2,59c3.78593,60.57481 1,122.23223 1,183" data-paper-data="{&quot;fixed&quot;:true}" stroke="#716762" stroke-width="21" stroke-miterlimit="10"/><path d="M337.55,346c-0.42562,-42.5616 -6.05,-84.28947 -6.05,-127c0,-37.83969 4.47486,-89.38826 -2,-125c-2.75209,-15.13649 0,-33.60709 0,-49c0,-5.51751 -2.18303,-16.90626 0,-22c2.12132,-4.94975 6,-9.61484 6,-15" data-paper-data="{&quot;fixed&quot;:true}" stroke="#716762" stroke-width="21" stroke-miterlimit="10"/></g></svg>