<svg version="1.1" xmlns="http://www.w3.org/2000/svg" xmlns:xlink="http://www.w3.org/1999/xlink" width="651" height="651"><g fill="none" fill-rule="nonzero" stroke="none" stroke-width="none" stroke-linecap="round" stroke-linejoin="round" stroke-miterlimit="none" stroke-dasharray="" stroke-dashoffset="0" font-family="none" font-weight="none" font-size="none" text-anchor="none" style="mix-blend-mode: normal"><path d="M264.4746,305.45571c26.35769,49.476 30.36134,45.7002 31.1165,59.0457c0.78185,13.3455 55.86036,8.3979 64.36828,6.51c8.5085,-1.953 6.1194,-8.0724 5.859,-13.4106c-0.27731,-5.208 25.16636,-38.3439 28.187,-46.0257" data-paper-data="{&quot;fixed&quot;:true}" id="path53808-0 1" stroke="#5d5955" stroke-width="16.46984" stroke-miterlimit="4"/><path d="M438.43161,99.19938c-19.39264,-20.2461 -191.52094,-5.859 -205.82477,3.906c-18.09715,11.9133 -118.56638,152.09964 -100.94582,180.00801c17.62192,27.9279 373.12369,25.5192 386.84034,6.6402c13.86825,-18.8139 -61.1246,-186.3813 -68.22136,-187.64424" data-paper-data="{&quot;fixed&quot;:true}" id="path52838-6 1" stroke="#eacd46" stroke-width="13.67061" stroke-miterlimit="4"/><path d="M385.68127,116.35974c50.47008,3.255 59.47927,-9.3093 61.07422,11.3925c1.36775,17.9676 -53.24334,0.05859 -51.01692,17.9676c2.3436,19.0092 53.19777,-13.5408 57.16822,5.208c3.7758,17.9025 -52.79415,9.0489 -48.02883,26.7561c5.1429,19.1394 53.60139,-19.9857 59.45974,-1.302c6.6598,21.5481 -63.7954,15.8844 -56.46514,37.1721c6.1845,18.0327 50.84115,-22.6548 57.01914,-4.557c4.8825,14.2569 -42.95754,10.6113 -37.88039,24.8031c5.859,16.4703 46.10187,-21.9387 52.23429,-5.859c10.64971,28.5138 -99.08794,33.7869 -74.86585,52.2102c11.57133,11.067 73.7754,-10.5462 82.79731,-14.4522" data-paper-data="{&quot;fixed&quot;:true}" id="path54109-2 1" stroke="#fcf3c6" stroke-width="13.67061" stroke-miterlimit="4"/><path d="M299.55,373c-0.09056,9.05608 -0.19219,22.14219 -7.05,29c-5.91755,5.91755 -16.3983,4.71949 -24,7c-14.52708,4.35812 -31.63104,6.63104 -43,18c-8.18403,8.18403 -14.40635,19.21905 -18,30c-1.1595,3.47851 0.65591,7.39248 0,11c-0.89764,4.93702 -3.55174,10.17248 -5,15c-3.65266,12.17554 -3.74181,26.41809 -5,39c-1.03617,10.36169 -1.97042,21.85211 -4,32c-0.66667,3.33333 -4.21227,7.41902 -2,10c2.4992,2.91574 15.15813,2 17,2c16.86197,0 34.18045,-1.2014 51,0c15.7926,1.12804 31.05789,2 47,2c8.47121,0 18.65596,-1.39067 27,0c23.37502,3.89584 48.15671,2 72,2c18.54663,0 37.51036,1.32069 56,0c5.70836,-0.40774 11.35833,-1.17528 16.99829,-1.98878" data-paper-data="{&quot;fixed&quot;:true}" stroke="#5d5955" stroke-width="16.46984" stroke-miterlimit="10"/><path d="M365.55,370c-0.24848,24.84807 13.8261,24.05712 31.95,29c12.60668,3.43818 39.59052,16.53933 48,26c5.77818,6.50045 10.16927,14.33854 14,22c4.46566,8.93132 10.58165,17.59954 14,27c2.06981,5.69198 2.7556,12.389 5,18c0.61898,1.54746 2.52109,2.40362 3,4c4.47653,14.92178 4.58369,31.79363 4.29042,48.17053" data-paper-data="{&quot;fixed&quot;:true}" stroke="#5d5955" stroke-width="16.46984" stroke-miterlimit="10"/><path d="M486.55,556c-0.03333,3.33321 -0.05,6.66663 -0.05,10" data-paper-data="{&quot;fixed&quot;:true}" stroke="#5d5955" stroke-width="16.46984" stroke-miterlimit="10"/><path d="M189.55,565c-0.08708,10.4491 -1.09025,21.59746 -0.05,32c0.22942,2.29416 1.05633,7.89612 4,9c2.65314,0.99493 13.20854,-2.53476 16,-3c11.80862,-1.9681 23.03853,-2 35,-2c55.51484,0 110.57276,-3 166,-3c17.44757,0 36.73295,-2.46672 54,0c6.10946,0.87278 12.9691,0.90347 19,2c4.99259,0.90774 10.66283,4.59004 11,4c2.72648,-4.77133 -3.18079,-11.90395 -4,-16c-1.04076,-5.20379 0,-12.55741 0,-18" data-paper-data="{&quot;fixed&quot;:true}" stroke="#5d5955" stroke-width="16.46984" stroke-miterlimit="10"/><path d="M498.55,582c24.38516,-9.85259 57.23748,-14.87297 80.95,-20c3.19304,-0.69039 32.59891,-2.8363 35,-11c6.55835,-22.2984 -7.45944,-55.18499 -17,-75c-4.90577,-10.18891 -16.43385,-18.83075 -14,-31c2.37353,-11.86766 11.28846,-14.11538 21,-18c14.72887,-5.89155 29.80243,-7.93414 45,-13" data-paper-data="{&quot;fixed&quot;:true}" stroke="#5d5955" stroke-width="16.46984" stroke-miterlimit="10"/></g></svg>