<svg version="1.1" xmlns="http://www.w3.org/2000/svg" xmlns:xlink="http://www.w3.org/1999/xlink" width="651" height="651"><g fill="none" fill-rule="nonzero" stroke="none" stroke-width="none" stroke-linecap="round" stroke-linejoin="round" stroke-miterlimit="none" stroke-dasharray="" stroke-dashoffset="0" font-family="none" font-weight="none" font-size="none" text-anchor="none" style="mix-blend-mode: normal"><path d="M309.8616,311.18394c11.98159,86.57086 9.92495,126.27032 12.89123,182.79118" data-paper-data="{&quot;fixed&quot;:true}" id="path6204-9 1" stroke="#6b6b6b" stroke-width="19.53" stroke-miterlimit="4"/><path d="M206.55268,459.9543c40.54695,-25.36192 60.7079,-29.89516 110.88574,-53.42418c32.24755,4.56416 99.8245,3.52451 121.06046,-2.51026" data-paper-data="{&quot;fixed&quot;:true}" id="path6701-0 1" stroke="#6b6b6b" stroke-width="19.53" stroke-miterlimit="4"/><path d="M219.36953,360.57778c-9.26425,56.24751 -18.35312,112.01981 -27.41244,167.71179" data-paper-data="{&quot;fixed&quot;:true}" id="path6089 1" stroke="#939393" stroke-width="19.53" stroke-miterlimit="4"/><path d="M365.88399,364.78725c11.98159,86.57086 9.92495,126.27032 12.89123,182.79118" data-paper-data="{&quot;fixed&quot;:true}" id="path6204 1" stroke="#939393" stroke-width="19.53" stroke-miterlimit="4"/><path d="M435.85852,316.13879c4.81089,67.91209 8.76617,124.19752 12.89123,182.79118" data-paper-data="{&quot;fixed&quot;:true}" id="path6204-3 1" stroke="#939393" stroke-width="19.53" stroke-miterlimit="4"/><path d="M206.55268,459.9543c52.55178,12.86298 109.88538,5.87593 166.90813,0.17913c32.14189,-14.06134 53.29542,-25.95465 69.43908,-42.07478" data-paper-data="{&quot;fixed&quot;:true}" id="path6701 1" stroke="#939393" stroke-width="19.53" stroke-miterlimit="4"/><path d="M386.87753,364.45514c2.20103,4.43331 71.15672,-58.80574 57.55979,-80.64348c-10.29719,-16.53813 -120.9543,-22.5606 -160.05981,-4.59085c-32.96501,15.14792 -96.14598,50.75398 -86.9023,73.10099c9.24368,22.34701 191.24803,13.94416 189.4023,12.13353" data-paper-data="{&quot;fixed&quot;:true}" id="path4651 1" stroke="#88201c" stroke-width="19.53" stroke-miterlimit="4"/><path d="M406.47891,294.40034c-29.19305,-3.72177 -59.67528,-4.92026 -89.82971,-6.76024c-18.72784,4.90398 -69.87867,41.74186 -81.79405,50.79942c38.11188,2.30324 122.7604,-34.56315 153.03399,-15.81116" data-paper-data="{&quot;fixed&quot;:true}" id="path7896 1" stroke="#f00000" stroke-width="65.1" stroke-miterlimit="4"/><path d="M237.71441,353.05861c98.18269,13.27975 171.65997,2.59944 188.79749,-50.59103" data-paper-data="{&quot;fixed&quot;:true}" id="path7356 1" stroke="#661815" stroke-width="32.55" stroke-miterlimit="4"/><path d="M433.55,265c2.97396,-15.65243 -0.94127,-30.6827 4.95,-46c3.44845,-8.96596 7.57155,-20.10407 13,-28c1.60239,-2.33074 4.43107,-3.64661 6,-6c6.12104,-9.18156 6.07814,-52.39685 2,-63c-2.058,-5.35079 -6.87681,-9.31522 -10,-14c-26.44287,-39.66431 -68.73968,-50.75344 -113,-36c-11.09908,3.69969 -24.54599,7.24332 -31,18c-13.24597,22.07662 -0.83534,37.90563 3,59c3.56615,19.61383 -0.79813,40.22062 1,60c1.3533,14.8863 8,27.90357 8,43" data-paper-data="{&quot;fixed&quot;:true}" stroke="#939393" stroke-width="19.53" stroke-miterlimit="10"/><path d="M308.55,116c39.9312,0 95.24364,-3.8322 129.95,16" data-paper-data="{&quot;fixed&quot;:true}" stroke="#939393" stroke-width="19.53" stroke-miterlimit="10"/><path d="M315.55,167c18.24562,0 35.04451,3.01575 52.95,6c3.89189,0.64865 8.10811,-0.64865 12,0c18.35629,3.05938 37.36348,5.2727 56,9" data-paper-data="{&quot;fixed&quot;:true}" stroke="#939393" stroke-width="19.53" stroke-miterlimit="10"/><path d="M315.55,134c6.90981,8.74659 6.83606,15.89873 18.95,17c1.69269,0.15388 3.65836,2.0435 5,1c9.98647,-7.76725 -5.5475,-29.77832 -10,-9c-0.34922,1.62967 -0.95577,3.63461 0,5c4.55097,6.50139 35.22133,15 43,15c4.66667,0 10.4568,3.03703 14,0c3.72566,-3.19342 -0.69375,-9.71406 -2,-12c-4.9262,-8.62085 -8.58501,-14.9585 -19,-16c-2.96663,-0.29666 -9.58015,1.47176 -8,4c2.76575,4.4252 13.06942,4.60694 17,5c13.44933,1.34493 27.73333,3 41,3c2.44268,0 16.14006,-0.56025 17,-4c1.30929,-5.23716 -9.61095,-11.15274 -13,-12c-8.83938,-2.20984 -18.88878,8.11224 -18,17c0.85805,8.58051 30.74815,16.33415 36,14c3.739,-1.66178 5.36219,-6.49202 6,-10c0.76965,-4.23309 -1.29298,-10 0,-10c5.14001,0 5.02666,25.97334 4,27c-2.35702,2.35702 -6.66667,0 -10,0c-11.14948,0 -20.51007,-5.36887 -31,-9c-3.28865,-1.13838 -6.6374,-2.10331 -10,-3c-1.64228,-0.43794 -5.94281,0.41421 -5,-1c1.34491,-2.01736 13.71365,-6.57715 13,-13c-0.72243,-6.50188 -9.60946,-7.32453 -14,-8c-16.28525,-2.50542 -30.25164,-8 -47,-8c-2.3589,0 -14.05532,-1.45851 -16,0c-11.40603,8.55453 12.86814,15.97363 18,17c1.6343,0.32686 3.74571,-1.09751 5,0c3.10295,2.71508 6.29848,9.52614 3,12c-4.62243,3.46682 -18.41348,1 -24,1c-2,0 -4,0 -6,0c-1.66667,0 -6.49071,-0.74536 -5,0c7.62159,3.8108 26.53092,1 34,1c20.61946,0 41.33629,4.52402 62,6c10.09356,0.72097 19.9416,2.40677 28,9c2.01493,1.64858 3.46874,3.89452 5,6c1.1432,1.5719 1.26155,5.86923 3,5c1.5117,-0.75585 -2.13405,-7.8043 -3,-13c-1.50058,-9.0035 -4.93213,-27.42383 0,-34" data-paper-data="{&quot;fixed&quot;:true}" stroke="#939393" stroke-width="19.53" stroke-miterlimit="10"/></g></svg>