<svg version="1.1" xmlns="http://www.w3.org/2000/svg" xmlns:xlink="http://www.w3.org/1999/xlink" width="651" height="651"><g fill="none" fill-rule="nonzero" stroke="none" stroke-width="none" stroke-linecap="round" stroke-linejoin="round" stroke-miterlimit="none" stroke-dasharray="" stroke-dashoffset="0" font-family="none" font-weight="none" font-size="none" text-anchor="none" style="mix-blend-mode: normal"><path d="M308.47114,142.46819c-9.43455,12.88908 -65.26043,23.4817 -70.5193,27.14546c-5.17805,3.60719 -12.12514,37.38784 -5.88309,42.96847c6.24179,5.58037 30.35014,-6.81721 46.26703,6.75868c37.95584,32.37364 48.44137,67.82452 97.14139,-4.83172c4.43071,-4.58369 41.06534,8.73206 44.35074,4.27512c3.28429,-4.4561 10.56788,-34.98298 -0.8118,-41.41226c-11.37714,-6.42928 -68.5515,-23.33633 -73.13596,-32.25646c-4.58369,-8.92007 1.83126,-22.62583 -17.60363,-23.07365c-19.43717,-0.44771 -14.94325,5.59925 -16.54432,14.94624" data-paper-data="{&quot;fixed&quot;:true}" id="path25603-0 1" stroke="#f0d3a7" stroke-width="21.05438" stroke-miterlimit="4"/><path d="M326.33333,148.12407c-0.86127,16.9954 -73.6044,24.11623 -65.87175,46.55893c58.23651,6.29712 57.14413,80.68581 110.55425,21.78012c5.97618,-6.6954 25.01051,-16.46874 23.4194,-18.75915c-1.58974,-2.29022 -67.93311,-34.45255 -65.84196,-38.54128" data-paper-data="{&quot;fixed&quot;:true}" id="path25656-6 1" stroke="#f0d3a7" stroke-width="46.15649" stroke-miterlimit="4"/><path d="M324.56135,200.55248c-18.96454,13.26699 -10.66989,56.25278 -6.55629,56.64917c4.11172,0.39691 14.38072,-45.8235 14.80732,-52.4109c0.42762,-6.58747 -29.20562,2.62679 -28.59537,6.75393" data-paper-data="{&quot;fixed&quot;:true}" id="path25660-5 1" stroke="#f0d3a7" stroke-width="82.76358" stroke-miterlimit="4"/><path d="M215.54094,194.57843c-2.30324,13.60121 -2.35727,27.2812 0.6536,26.95094c3.01087,-0.33051 -0.97064,-16.3843 3.95613,-16.96291c4.92612,-0.57865 2.34686,15.50116 5.35057,13.81083c3.00306,-1.69 -0.48322,-13.39862 5.72099,-9.03738c6.20468,4.36105 6.19752,11.94871 12.78942,6.49828c6.59235,-5.45017 7.09518,-5.90066 9.23736,-3.97305" data-paper-data="{&quot;fixed&quot;:true}" id="path27328-4 1" stroke="#0071d1" stroke-width="16.87073" stroke-miterlimit="4"/><path d="M251.82127,228.85426c47.94882,-4.45805 43.15401,-4.5876 56.58017,7.38345c9.54522,8.51085 70.68293,53.58824 67.76632,61.05019c-2.91648,7.46209 -4.55635,14.23717 -31.27404,11.63291c-26.71776,-2.604 -68.24875,-2.06367 -70.08723,-8.32557c-1.83842,-6.26197 -17.5813,-63.26522 -14.96545,-63.04518c2.61572,0.22017 32.86906,2.85138 41.11996,9.7596c8.25097,6.90815 62.00515,44.69916 59.41625,47.34345c-2.58903,2.64436 -67.92593,3.7426 -71.9224,-0.21912c-3.99649,-3.96134 -19.32995,-35.55104 -13.62647,-40.75299c5.70341,-5.20214 61.11347,33.57018 59.77586,33.57018c-1.33781,0 -31.05576,0.14695 -35.82486,-2.0194c-4.76923,-2.16653 -10.26874,-11.71494 -8.57679,-15.94917c1.69195,-4.5596 11.35448,11.89755 15.03602,10.14447" data-paper-data="{&quot;fixed&quot;:true}" id="path27330-7 1" stroke="#0071d1" stroke-width="16.87073" stroke-miterlimit="4"/><path d="M341.58832,239.39904c19.54517,-15.63071 35.79589,-19.48612 46.38661,-16.3386c15.92691,4.73342 -0.07845,57.62242 -2.70425,59.01914c-2.6014,1.38338 -30.28244,-31.10478 -31.94522,-34.76529c-1.66265,-3.66057 24.30899,-19.54458 25.24578,-15.01759c0.93679,4.52705 3.43142,30.18856 0.81896,28.70708c-2.61246,-1.48168 -17.97925,-10.81291 -12.34908,-15.51483c5.62985,-4.70217 4.29204,-2.40219 5.25683,1.11842" data-paper-data="{&quot;fixed&quot;:true}" id="path27332-6 1" stroke="#0071d1" stroke-width="16.87073" stroke-miterlimit="4"/><path d="M404.50961,208.71847c27.8602,-14.7514 34.62545,-24.51197 32.93194,-19.9413c-1.6939,4.57067 -5.54912,12.13256 -8.37967,13.9771c-2.83055,1.84428 -0.01569,10.29862 -5.61032,10.98986c-5.596,0.69136 -17.46718,1.02402 -13.83141,-2.10403c3.63583,-3.12871 8.37329,-0.22853 12.04011,-4.35128" data-paper-data="{&quot;fixed&quot;:true}" id="path27334-5 1" stroke="#0071d1" stroke-width="16.87073" stroke-miterlimit="4"/><path d="M273.62761,320.13575c34.20042,3.46462 56.23677,5.17805 69.13763,4.16445c12.90093,-1.01296 32.56094,-1.47517 38.53451,-4.48083" data-paper-data="{&quot;fixed&quot;:true}" id="path27336-6 1" stroke="#0071d1" stroke-width="16.87073" stroke-miterlimit="4"/><path d="M219.01288,178.74784c2.65087,9.90431 2.82274,23.80531 32.16246,28.34467c29.34005,4.53877 36.34344,3.52842 50.6075,12.11153c14.26393,8.58304 76.36317,62.66116 81.99111,72.58408c12.78512,22.5427 -9.91929,24.46386 -37.77382,25.76775c-27.69497,1.29354 -75.56846,-6.28475 -79.68568,-8.11751c-4.11823,-1.83126 -16.6751,-72.99391 -20.53065,-84.34308" data-paper-data="{&quot;fixed&quot;:true}" id="path553-6-9 1" stroke="#00095e" stroke-width="9.33488" stroke-miterlimit="4"/><path d="M220.77202,175.71899c-7.05866,8.16022 -16.45832,21.10568 -15.52843,25.38477c0.93419,4.27902 -2.0194,13.63246 2.57666,14.75088c4.59606,1.11907 1.01621,14.9607 5.61748,16.12306c4.60062,1.16203 22.59335,-7.92951 47.66023,-13.3246c25.06702,-5.39484 25.92953,-4.24192 35.02302,-0.66207" data-paper-data="{&quot;fixed&quot;:true}" id="path555-0-3 1" stroke="#00095e" stroke-width="9.33488" stroke-miterlimit="4"/><path d="M328.32601,237.75151c13.1323,-11.59477 23.6727,-24.1756 41.51271,-26.28855c17.83994,-2.11249 35.78404,2.91257 36.91079,17.86552c1.12949,14.95314 -16.77132,69.23297 -19.40371,77.50758" data-paper-data="{&quot;fixed&quot;:true}" id="path557-6-7 1" stroke="#00095e" stroke-width="9.33488" stroke-miterlimit="4"/><path d="M388.5363,210.28165c41.24235,-23.74151 43.0035,-23.0411 49.03638,-29.06018" data-paper-data="{&quot;fixed&quot;:true}" id="path559-2-4 1" stroke="#00095e" stroke-width="9.33488" stroke-miterlimit="4"/><path d="M437.02646,180.37743c8.70367,3.51735 19.70037,-2.87091 13.15144,7.9034c-6.54945,10.77457 -7.32017,5.09538 -7.49802,14.51756c-0.17727,9.42257 -7.2981,1.3964 -8.24088,10.86389c-0.9433,9.4688 -6.88771,14.94221 -29.98415,8.7083" data-paper-data="{&quot;fixed&quot;:true}" id="path561-6-5 1" stroke="#00095e" stroke-width="9.33488" stroke-miterlimit="4"/><path d="M264.17424,308.31501c5.18652,21.68077 2.80711,21.52505 8.88784,23.14357c6.08229,1.61773 103.53759,2.5057 110.15438,-3.19706c10.9687,-9.45265 7.07995,-13.95855 2.12747,-19.43821" data-paper-data="{&quot;fixed&quot;:true}" id="path563-1-2 1" stroke="#00095e" stroke-width="9.33488" stroke-miterlimit="4"/><path d="M270.55,333c-0.17364,20.83698 -14.48718,36.44721 -23.05,55c-4.44232,9.62503 -6.54123,20.44548 -11,30c-3.34326,7.16414 -8.69554,13.73019 -12,21c-5.68971,12.51736 -6.43312,27.6871 -13,40c-8.38054,15.71351 -17.39336,32.90385 -27,48c-8.85703,13.91819 -12.7243,29.60177 -22,43c-0.61457,0.88772 -9.66597,14.00052 -7,16c4.84186,3.6314 24.73751,1 30,1c6.03692,0 11.99625,-1.36803 18,-2c12.82793,-1.35031 25.85593,-0.95522 38.79837,-1.22597" data-paper-data="{&quot;fixed&quot;:true}" stroke="#00095e" stroke-width="9.33488" stroke-miterlimit="10"/><path d="M264.17419,582.53047c16.91635,-0.86879 34.63705,0.46953 51.32581,0.46953c42,0 84,0 126,0c23.4216,0 49.02698,2.5946 72,-2" data-paper-data="{&quot;fixed&quot;:true}" stroke="#00095e" stroke-width="9.33488" stroke-miterlimit="10"/><path d="M391.55,331c3.88605,20.45291 27.71398,52.68075 36.95,73c5.72286,12.59029 12.45847,24.73463 19,37c4.57876,8.58517 6.20545,18.60955 11,27c9.40072,16.45127 20.48662,31.97324 29,49c8.63734,17.27469 14.47199,36.62932 26,52" data-paper-data="{&quot;fixed&quot;:true}" stroke="#00095e" stroke-width="9.33488" stroke-miterlimit="10"/><path d="M309.55,336c4.05113,25.58607 3.24506,65.81975 -3.05,91c-3.27266,13.09066 -9.88776,24.73061 -15,37c-6.77211,16.25305 -13.00338,34.01148 -18,51c-1.25486,4.26651 -1.19381,8.93608 -3,13c-7.81491,17.58356 -13.85375,34.41673 -17.31278,52.69682" data-paper-data="{&quot;fixed&quot;:true}" stroke="#00095e" stroke-width="9.33488" stroke-miterlimit="10"/><path d="M362.55,338c7.86983,23.90836 13.5064,48.35792 21.95,72c5.94317,16.64086 14.39227,32.17681 20,49c5.12819,15.38458 5.20618,32.16833 8,48c1.69027,9.57818 5.21597,19.71989 8,29c2.35166,7.83888 9.53869,15.15402 16,20c2.51551,1.88663 10.75326,6.19484 12,9c1.91456,4.30775 0.85668,9.4267 2,14" data-paper-data="{&quot;fixed&quot;:true}" stroke="#00095e" stroke-width="9.33488" stroke-miterlimit="10"/><path d="M254.5,584c0.01667,0 0.03333,0 0.05,0" data-paper-data="{&quot;fixed&quot;:true}" stroke="#00095e" stroke-width="9.33488" stroke-miterlimit="10"/><path d="M258.5,582c0.01667,0 0.03333,0 0.05,0" data-paper-data="{&quot;fixed&quot;:true}" stroke="#00095e" stroke-width="9.33488" stroke-miterlimit="10"/><path d="M245.5,584c0.01667,0 0.03333,0 0.05,0" data-paper-data="{&quot;fixed&quot;:true}" stroke="#00095e" stroke-width="9.33488" stroke-miterlimit="10"/></g></svg>