<svg version="1.1" xmlns="http://www.w3.org/2000/svg" xmlns:xlink="http://www.w3.org/1999/xlink" width="529" height="529"><g fill="none" fill-rule="nonzero" stroke="none" stroke-width="none" stroke-linecap="round" stroke-linejoin="round" stroke-miterlimit="none" stroke-dasharray="" stroke-dashoffset="0" font-family="none" font-weight="none" font-size="none" text-anchor="none" style="mix-blend-mode: normal"><path d="M69.48729,200.61653c191.65043,36.98514 409.07838,4.48327 409.07838,-5.60375c0,-10.08681 -52.67586,-56.03816 -109.83474,-34.74361" data-paper-data="{&quot;fixed&quot;:true}" id="path6470 1" stroke="#000000" stroke-width="13.99644" stroke-miterlimit="4"/><path d="M174.83898,224.15254c-7.84533,106.47246 -24.6568,214.06568 3.36232,223.03179c28.01907,8.96613 145.69915,-20.17373 166.99365,-72.84958c21.29447,-52.67586 22.41526,-75.0911 22.41526,-75.0911" data-paper-data="{&quot;fixed&quot;:true}" id="path6472 1" stroke="#000000" stroke-width="13.99644" stroke-miterlimit="4"/><path d="M365.36864,229.75635c42.589,-7.84533 56.03813,-16.81146 53.7966,5.6038c-2.24137,22.41526 -10.08687,31.38134 -24.6568,58.27965c-14.56993,26.89833 8.96607,40.34746 -14.56993,26.89833" data-paper-data="{&quot;fixed&quot;:true}" id="path6474 1" stroke="#000000" stroke-width="13.99644" stroke-miterlimit="4"/><path d="M220.79025,265.62077c-8.96613,29.13981 -31.38134,73.97033 -29.13981,77.33262c2.24137,3.36232 29.13981,5.60375 36.98519,0" data-paper-data="{&quot;fixed&quot;:true}" id="path6476 1" stroke="#000000" stroke-width="13.99644" stroke-miterlimit="4"/><path d="M184.92584,256.65466c19.05299,1.12095 1.12095,5.60375 24.6568,3.36232" data-paper-data="{&quot;fixed&quot;:true}" id="path6478 1" stroke="#000000" stroke-width="13.99644" stroke-miterlimit="4"/><path d="M258.76994,269.22442c19.05299,1.12095 1.12095,5.60375 24.6568,3.36232" data-paper-data="{&quot;fixed&quot;:true}" id="path6478-5 1" stroke="#000000" stroke-width="13.99644" stroke-miterlimit="4"/><path d="M201.73729,378.81779c47.74458,6.05197 53.79181,-0.51465 56.01084,-2.73387" data-paper-data="{&quot;fixed&quot;:true}" id="path6495 1" stroke="#000000" stroke-width="13.99644" stroke-miterlimit="4"/><path d="M75.55,200c-11.052,0 -39.53086,-7.4085 -30.05,-24c5.83771,-10.21599 18.87513,-16.27506 29,-21c26.09344,-12.17694 55.49863,-14.03581 84,-12c5.2985,0.37846 27.43302,6.7134 31,6c7.61866,-1.52373 8.09532,-13.19063 11,-19c7.54098,-15.08196 13.63083,-32.46261 28,-43c32.613,-23.9162 93.87433,-53.39138 128,-15c14.35103,16.14491 17,57.71948 17,79" data-paper-data="{&quot;fixed&quot;:true}" stroke="#000000" stroke-width="13" stroke-miterlimit="10"/><path d="M209.55,133c10.04711,0 19.92864,2.22913 29.95,3c42.11987,3.23999 84.86072,-3 127,-3" data-paper-data="{&quot;fixed&quot;:true}" stroke="#f89fdc" stroke-width="7" stroke-miterlimit="10"/><path d="M202.55,152c-1.68333,0.66667 -5.01983,0.18971 -5.05,2c-0.02832,1.69944 3.31072,0.8123 5,1c4.31955,0.47995 8.67344,0.58795 13,1c15.11197,1.43924 29.81751,2 45,2c38.4361,0 76.66064,0 115,0" data-paper-data="{&quot;fixed&quot;:true}" stroke="#f89fdc" stroke-width="7" stroke-miterlimit="10"/><path d="M320.55,131c-9.05876,2.99463 -25.16641,16.18209 -10.05,25c7.44284,4.34166 22,-2.95048 22,-12c0,-7.61862 -17.80423,-8 -22,-8" data-paper-data="{&quot;fixed&quot;:true}" stroke="#f89fdc" stroke-width="7" stroke-miterlimit="10"/><path d="M321.55,135c9.47191,-5.45146 19.59279,-10.5476 29.95,-14c3.60555,-1.20185 8.79095,-6.09266 11,-3c2.46543,3.4516 -2.57341,22.88088 -3,28c-0.52367,6.28403 -0.12345,12.821 1,19c0.30405,1.67226 2.20185,3.79815 1,5c-2.13992,2.13992 -9.21869,-1.17786 -11,-2c-7.54361,-3.48167 -13.42411,-8.06808 -20,-13" data-paper-data="{&quot;fixed&quot;:true}" stroke="#f89fdc" stroke-width="7" stroke-miterlimit="10"/><path d="M317.55,131c-7.33514,-3.63726 -14.76129,-7.67879 -21.05,-13c-2.15918,-1.827 -4.10788,-3.89765 -6,-6c-1.11494,-1.23882 -1.45254,-4.61898 -3,-4c-3.28546,1.31418 -3.56477,19.04145 -4,21c-1.35087,6.07889 -3.42812,11.97447 -5,18c-0.16719,0.64091 -2.18841,10.89533 -2,11c8.64719,4.80399 20.42598,-8.97039 28,-12" data-paper-data="{&quot;fixed&quot;:true}" stroke="#f89fdc" stroke-width="7" stroke-miterlimit="10"/><path d="M288.55,145c0.54431,-1.4761 7.42443,-20 5.95,-20c-2.54247,0 -8.67183,16.93345 -9,18c-0.49985,1.62451 -0.72058,6.67655 -1,5c-1.6154,-9.6924 3,-16.1256 3,-25c0,-2.10819 -1.38001,3.98504 -2,6c-1.19257,3.87585 -2,7.94482 -2,12c0,3.33333 -1.849,12.7735 0,10c3.02881,-4.54322 3.68739,-21.37478 5,-24c1.69967,-3.39935 3,14.80058 3,11c0,-4.12311 -1.69616,-8.08848 -3,-12c-0.70711,-2.12132 -5.19265,-5.56147 -3,-6c3.08359,-0.61672 5.32182,3.35189 8,5c1.65533,1.01866 5,4.94365 5,3c0,-2.13437 -5,-1.86563 -5,-4c0,-1.03122 16.7653,1.29254 15,6c-1.1708,3.12212 -16.34698,7.87758 -19,10c-1.30145,1.04116 -4.6343,3.67314 -3,4c2.9741,0.59482 14.38546,-6.67901 16,-8c1.28993,-1.0554 4.33333,-5 3,-4c-3.96428,2.97321 -7.13052,6.90441 -11,10c-2.03293,1.62634 -3.96707,3.37366 -6,5c-1.30145,1.04116 -5.49071,3.74536 -4,3c3.81809,-1.90904 6.5029,-5.55203 10,-8c1.83186,-1.2823 7,-5 6,-3c-0.34667,0.69334 -11.83109,8.19076 -13,9c-2.35759,1.63218 -4.43528,6.28236 -7,5c-0.58932,-0.29466 5.80215,-12.44603 6,-13c0.9245,-2.5886 1.81716,-5.25735 2,-8c0.15679,-2.3518 -2.81071,-5.49107 -1,-7c1.38769,-1.1564 11.98205,4.38923 13,5c1.42915,0.85749 4,4.66667 4,3c0,-1.28325 -20.60172,-21.94686 -6,-10c16.80888,13.75272 -21.93604,20.12791 -16,32c0.74536,1.49071 1.93303,-2.71963 3,-4c1.44689,-1.73626 15.36084,-18 18,-18c1.66667,0 -1.82149,2.82149 -3,4c-2.17307,2.17307 -4.82693,3.82693 -7,6c-3.83695,3.83695 -6.98488,8.34989 -11,12c-1.57931,1.43574 -3.31523,2.68962 -5,4c-1.31559,1.02323 -4.9245,4.38675 -4,3c3.09614,-4.64422 20.43397,-21.43397 22,-23" data-paper-data="{&quot;fixed&quot;:true}" stroke="#f89fdc" stroke-width="7" stroke-miterlimit="10"/><path d="M333.55,136c5.46449,-3.31181 11.28035,-7.16518 16.95,-10c3.2249,-1.61245 -12.60555,6 -9,6c2.23607,0 4.2822,-4.4315 6,-3c1.87467,1.56223 -1.48737,14.87372 -2,20c-0.26534,2.65343 0,5.33333 0,8c0,1.66667 -0.32686,6.6343 0,5c1.70349,-8.51746 0.69901,-17.56305 3,-26c0.47231,-1.7318 1.64796,-3.2398 2,-5c0.32686,-1.6343 -0.52705,-6.58114 0,-5c2.29381,6.88142 2.35627,14.8747 2,22c-0.15073,3.0147 -0.60107,6.00802 -1,9c-0.26797,2.0098 -1,8.02759 -1,6c0,-4.38572 1.3211,-14.90826 2,-20c0.31151,-2.33635 0.80426,-4.65112 1,-7c0.13841,-1.66091 -0.74536,-6.49071 0,-5c3.06541,6.13082 3.06302,21.87396 0,28c-1.0435,2.087 -0.28941,-4.68468 0,-7c0.67305,-5.38437 2.23261,-10.62826 3,-16c0.33333,-2.33333 -0.66667,-5.33333 1,-7c1.20185,-1.20185 1,3.30033 1,5c0,6.06203 -1,11.93797 -1,18c0,1.66667 -1.66667,5 0,5c1.69967,0 0.77536,-3.31524 1,-5c1.13405,-8.50539 0.68576,-13.77082 0,-22c-0.13841,-1.66091 0,-5 0,-5c0,0 -0.75509,7.32637 -1,11c-0.34185,5.12775 5.97508,29.99547 -5,28c-2.09995,-0.38181 -3.25145,-2.77602 -5,-4c-3.6034,-2.52238 -9.41767,-4.99758 -9,-6c2.63055,-6.31332 14,-8.16057 14,-15c0,-1.69967 -3.54254,0.12553 -5,1c-2.02113,1.21268 -3.11438,6.41421 -5,5c-9.95214,-7.4641 10.58442,-8.41558 4,-15c-0.31354,-0.31354 -8.90483,14.36506 -10,14c-2.09257,-0.69752 -0.28243,-6.07635 5,-14c2.15629,-3.23443 -8.15629,13.23443 -6,10c3.41028,-5.11542 9.12702,-11.87298 8,-13c-4.17,-4.17 -7.83,17.17 -12,13c-2.54975,-2.54975 2.94119,-10.23531 4,-12c1,-1.66667 3.86923,-6.73845 3,-5c-2.14994,4.29987 -5.17242,8.11208 -8,12c-1.41379,1.94396 -6.14994,4.92503 -4,6c4.71021,2.3551 18.95443,-15.36998 21,-18c1.19329,-1.53422 1.05635,-5 3,-5c4.38432,0 2.57945,8.65414 2,13c-1.37415,10.30611 -1,20.60874 -1,31" data-paper-data="{&quot;fixed&quot;:true}" stroke="#f89fdc" stroke-width="7" stroke-miterlimit="10"/><path d="M218.55,94c-3.94884,-18.804 -15.8753,-41.86245 -39.05,-38c-8.79851,1.46642 -27.73909,13.94416 -20,25c8.09775,11.56822 21.23592,-0.59158 23,-10c4.89516,-26.10754 -38.62784,-26.72869 -55,-24" data-paper-data="{&quot;fixed&quot;:true}" stroke="#1fe791" stroke-width="7" stroke-miterlimit="10"/><path d="M97.55,36c-0.01667,2.33333 -1.08515,4.90878 -0.05,7c4.96127,10.02276 19.78434,-8.05882 9,-11c-8.29176,-2.26139 -22.16599,14.74089 -12,17c7.01404,1.55867 15.16212,-11.73515 7,-15c-2.18844,-0.87538 -4.66667,0.66667 -7,1" data-paper-data="{&quot;fixed&quot;:true}" stroke="#363636" stroke-width="7" stroke-miterlimit="10"/><path d="M95.55,35c-0.10128,-12.15382 0.69881,-20.54459 10.95,-28c6.53226,-4.75073 22.32413,-5.89316 24,5c1.09351,7.10784 -3.88851,11.42196 -9,15c-1.5923,1.11461 -5,1.05635 -5,3c0,1.66667 3.33909,-0.13841 5,0c5.58734,0.46561 26.30404,5.31592 22,15c-5.84827,13.1586 -26.16003,0.92803 -30,4c-0.91415,0.73132 -0.48054,15.5715 -1,17c-3.46548,9.53007 -17.05565,13.06408 -26,11c-9.74265,-2.2483 -20.644,-14.31397 -19,-25c1.10034,-7.15221 7.62339,-11.01898 14,-12c1.97674,-0.30411 8,0 6,0c-7.18148,0 -9.86333,1.19257 -16,-4c-16.30062,-13.79283 -0.07788,-34.24673 17,-24c6.01795,3.61077 9.94083,12.94083 15,18" data-paper-data="{&quot;fixed&quot;:true}" stroke="#ffdf6c" stroke-width="7" stroke-miterlimit="10"/><path d="M105.55,35c-2.66445,-0.88081 -11.28596,-5.88765 -10.05,4c0.22265,1.78119 3.35008,2.70711 5,2c5.05612,-2.16691 -0.40935,-15.67503 -8,-7c-7.64515,8.73731 10.38925,9.16774 9,5c-2.70734,-8.12203 -13.51743,-0.48257 -16,2" data-paper-data="{&quot;fixed&quot;:true}" stroke="#363636" stroke-width="7" stroke-miterlimit="10"/></g></svg>