<svg version="1.1" xmlns="http://www.w3.org/2000/svg" xmlns:xlink="http://www.w3.org/1999/xlink" width="529" height="529"><g fill="none" fill-rule="nonzero" stroke="none" stroke-width="none" stroke-linecap="round" stroke-linejoin="round" stroke-miterlimit="none" stroke-dasharray="" stroke-dashoffset="0" font-family="none" font-weight="none" font-size="none" text-anchor="none" style="mix-blend-mode: normal"><path d="M214.911,248.21209c21.41815,40.204 24.6715,37.1358 25.28514,47.9803c0.63533,10.8445 45.3919,6.8241 52.3054,5.29c6.91398,-1.587 4.9726,-6.5596 4.761,-10.8974c-0.22534,-4.232 20.45008,-31.1581 22.90464,-37.4003" data-paper-data="{&quot;fixed&quot;:true}" id="path53808-0 1" stroke="#5d5955" stroke-width="13.38333" stroke-miterlimit="4"/><path d="M356.26778,80.60902c-15.75838,-16.4519 -155.62915,-4.761 -167.25239,3.174c-14.70567,9.6807 -96.34656,123.59556 -82.02817,146.27379c14.3195,22.6941 303.19882,20.7368 314.34491,5.3958c11.26929,-15.2881 -49.66961,-151.4527 -55.4364,-152.47896" data-paper-data="{&quot;fixed&quot;:true}" id="path52838-6 1" stroke="#eacd46" stroke-width="11.10868" stroke-miterlimit="4"/><path d="M313.40306,94.55346c41.01178,2.645 48.33261,-7.5647 49.62866,9.2575c1.11143,14.6004 -43.26532,0.04761 -41.45614,14.6004c1.9044,15.4468 43.22829,-11.0032 46.45466,4.232c3.0682,14.5475 -42.90031,7.3531 -39.02803,21.7419c4.1791,15.5526 43.55627,-16.2403 48.31674,-1.058c5.41172,17.5099 -51.83988,12.9076 -45.88334,30.2059c5.0255,14.6533 41.31331,-18.4092 46.33352,-3.703c3.9675,11.5851 -34.90712,8.6227 -30.78145,20.1549c4.761,13.3837 37.46219,-17.8273 42.44537,-4.761c8.65391,23.1702 -80.51847,27.4551 -60.83569,42.4258c9.40282,8.993 59.94959,-8.5698 67.28076,-11.7438" data-paper-data="{&quot;fixed&quot;:true}" id="path54109-2 1" stroke="#fcf3c6" stroke-width="11.10868" stroke-miterlimit="4"/><path d="M243.55,304.5c-5.4526,10.72642 -10.52642,24.61788 -8.05,37c3.78586,18.92928 21.71059,23.26353 26,49" data-paper-data="{&quot;fixed&quot;:true}" stroke="#ffdf6c" stroke-width="7" stroke-miterlimit="10"/><path d="M295.55,304.5c4.76913,4.8295 9.28037,6.76492 10.95,14c2.97975,12.91227 -6.06858,23.31526 -11,34c-5.5619,12.05078 -9,24.67044 -9,38" data-paper-data="{&quot;fixed&quot;:true}" stroke="#ffdf6c" stroke-width="7" stroke-miterlimit="10"/><path d="M260.55,390.5c6.3019,-3.81933 13.45609,-5.68126 20.95,-5c3.58235,0.32567 12.16848,4.44203 8,10c-4.95874,6.61166 -23.54838,2.49628 -30,2c-4.25298,-0.32715 -11.99203,-1.96015 -12,-2c-0.96299,-4.81497 12.63824,-5.66261 15,-6c2.98812,-0.42687 6,-0.66667 9,-1" data-paper-data="{&quot;fixed&quot;:true}" stroke="#ffdf6c" stroke-width="7" stroke-miterlimit="10"/><path d="M260.55,397.5c9.72624,16.48516 4.0034,55.67963 0.95,74" data-paper-data="{&quot;fixed&quot;:true}" stroke="#ffdf6c" stroke-width="7" stroke-miterlimit="10"/><path d="M279.55,399.5c-2.8689,24.59057 -3.56664,49.3835 -0.05,74" data-paper-data="{&quot;fixed&quot;:true}" stroke="#ffdf6c" stroke-width="7" stroke-miterlimit="10"/><path d="M262.55,457.5c-11.79878,-1.67359 -21.29702,1.03358 -31.05,8c-3.55842,2.54173 -11.28414,9.08855 -8,15c4.96655,8.93979 22.25408,10.32724 31,11c12.13237,0.93326 53.25336,0.61996 61,-11c13.48714,-20.23071 -22.64037,-25 -34,-25" data-paper-data="{&quot;fixed&quot;:true}" stroke="#ffdf6c" stroke-width="7" stroke-miterlimit="10"/><path d="M209.55,63.5c-0.0682,-13.64071 -2.74547,-26.78188 -6.05,-40" data-paper-data="{&quot;fixed&quot;:true}" stroke="#ffdf6c" stroke-width="7" stroke-miterlimit="10"/><path d="M182.55,54.5c-5.23967,-9.05621 -11.89383,-14.47506 -20.05,-21" data-paper-data="{&quot;fixed&quot;:true}" stroke="#ffdf6c" stroke-width="7" stroke-miterlimit="10"/><path d="M158.55,75.5c-13.5541,-2.24035 -27.38258,-2.63326 -41.05,-4" data-paper-data="{&quot;fixed&quot;:true}" stroke="#ffdf6c" stroke-width="7" stroke-miterlimit="10"/></g></svg>