<svg version="1.1" xmlns="http://www.w3.org/2000/svg" xmlns:xlink="http://www.w3.org/1999/xlink" width="529" height="529"><g fill="none" fill-rule="nonzero" stroke="none" stroke-width="none" stroke-linecap="round" stroke-linejoin="round" stroke-miterlimit="none" stroke-dasharray="" stroke-dashoffset="0" font-family="none" font-weight="none" font-size="none" text-anchor="none" style="mix-blend-mode: normal"><path d="M69.48729,200.61653c191.65043,36.98514 409.07838,4.48327 409.07838,-5.60375c0,-10.08681 -52.67586,-56.03816 -109.83474,-34.74361" data-paper-data="{&quot;fixed&quot;:true}" id="path6470 1" stroke="#000000" stroke-width="13.99644" stroke-miterlimit="4"/><path d="M174.83898,224.15254c-7.84533,106.47246 -24.6568,214.06568 3.36232,223.03179c28.01907,8.96613 145.69915,-20.17373 166.99365,-72.84958c21.29447,-52.67586 22.41526,-75.0911 22.41526,-75.0911" data-paper-data="{&quot;fixed&quot;:true}" id="path6472 1" stroke="#000000" stroke-width="13.99644" stroke-miterlimit="4"/><path d="M365.36864,229.75635c42.589,-7.84533 56.03813,-16.81146 53.7966,5.6038c-2.24137,22.41526 -10.08687,31.38134 -24.6568,58.27965c-14.56993,26.89833 8.96607,40.34746 -14.56993,26.89833" data-paper-data="{&quot;fixed&quot;:true}" id="path6474 1" stroke="#000000" stroke-width="13.99644" stroke-miterlimit="4"/><path d="M220.79025,265.62077c-8.96613,29.13981 -31.38134,73.97033 -29.13981,77.33262c2.24137,3.36232 29.13981,5.60375 36.98519,0" data-paper-data="{&quot;fixed&quot;:true}" id="path6476 1" stroke="#000000" stroke-width="13.99644" stroke-miterlimit="4"/><path d="M184.92584,256.65466c19.05299,1.12095 1.12095,5.60375 24.6568,3.36232" data-paper-data="{&quot;fixed&quot;:true}" id="path6478 1" stroke="#000000" stroke-width="13.99644" stroke-miterlimit="4"/><path d="M258.76994,269.22442c19.05299,1.12095 1.12095,5.60375 24.6568,3.36232" data-paper-data="{&quot;fixed&quot;:true}" id="path6478-5 1" stroke="#000000" stroke-width="13.99644" stroke-miterlimit="4"/><path d="M201.73729,378.81779c47.74458,6.05197 53.79181,-0.51465 56.01084,-2.73387" data-paper-data="{&quot;fixed&quot;:true}" id="path6495 1" stroke="#000000" stroke-width="13.99644" stroke-miterlimit="4"/><path d="M89.55,198.5c-9.65466,-4.10837 -32.00949,-14.28357 -30.05,-28c0.79419,-5.55935 9.6209,-12.56717 14,-15c19.78824,-10.99347 42.29632,-19 65,-19c6.6461,0 23.56812,4.21594 30,1c3.40207,-1.70103 7.44953,-32.31494 9,-38c5.12434,-18.78925 15.71407,-43.26173 31,-56c27.65984,-23.04987 75.38765,-29.20412 109,-18c8.28859,2.76286 20.63005,7.14005 27,14c24.01789,25.86542 28,79.52855 28,113" data-paper-data="{&quot;fixed&quot;:true}" stroke="#ea6cff" stroke-width="7" stroke-miterlimit="10"/><path d="M334.5,130.5c0.01667,0 0.03333,0 0.05,0" data-paper-data="{&quot;fixed&quot;:true}" stroke="#ea6cff" stroke-width="47" stroke-miterlimit="10"/><path d="M265.5,57.5c0.01667,0 0.03333,0 0.05,0" data-paper-data="{&quot;fixed&quot;:true}" stroke="#ea6cff" stroke-width="47" stroke-miterlimit="10"/><path d="M210.5,140.5c0.01667,0 0.03333,0 0.05,0" data-paper-data="{&quot;fixed&quot;:true}" stroke="#ea6cff" stroke-width="47" stroke-miterlimit="10"/><path d="M274.5,182.5c0.01667,0 0.03333,0 0.05,0" data-paper-data="{&quot;fixed&quot;:true}" stroke="#ea6cff" stroke-width="47" stroke-miterlimit="10"/><path d="M272.5,119.5c0.01667,0 0.03333,0 0.05,0" data-paper-data="{&quot;fixed&quot;:true}" stroke="#ea6cff" stroke-width="47" stroke-miterlimit="10"/><path d="M334.5,183.5c0.01667,0 0.03333,0 0.05,0" data-paper-data="{&quot;fixed&quot;:true}" stroke="#ea6cff" stroke-width="47" stroke-miterlimit="10"/><path d="M129.5,167.5c0.01667,0 0.03333,0 0.05,0" data-paper-data="{&quot;fixed&quot;:true}" stroke="#ea6cff" stroke-width="47" stroke-miterlimit="10"/><path d="M185.5,184.5c0.01667,0 0.03333,0 0.05,0" data-paper-data="{&quot;fixed&quot;:true}" stroke="#ea6cff" stroke-width="47" stroke-miterlimit="10"/><path d="M331.5,61.5c0.01667,0 0.03333,0 0.05,0" data-paper-data="{&quot;fixed&quot;:true}" stroke="#ea6cff" stroke-width="47" stroke-miterlimit="10"/><path d="M210.5,74.5c0.01667,0 0.03333,0 0.05,0" data-paper-data="{&quot;fixed&quot;:true}" stroke="#ea6cff" stroke-width="47" stroke-miterlimit="10"/></g></svg>