<svg version="1.1" xmlns="http://www.w3.org/2000/svg" xmlns:xlink="http://www.w3.org/1999/xlink" width="471" height="471"><g fill="none" fill-rule="nonzero" stroke="none" stroke-width="none" stroke-linecap="round" stroke-linejoin="round" stroke-miterlimit="4" stroke-dasharray="" stroke-dashoffset="0" font-family="none" font-weight="none" font-size="none" text-anchor="none" style="mix-blend-mode: normal"><path d="M237.9677,-5.30654c-11.73628,102.37041 -45.47326,196.89923 -52.67821,238.52541c-7.21346,41.67625 -5.85726,109.93626 -11.23594,123.65611c-5.47787,13.97297 -41.46651,43.44688 -78.82257,45.72426" data-paper-data="{&quot;fixed&quot;:true}" id="path631 1" stroke="#c4784d" stroke-width="29.57296"/><path d="M262.09342,3.86229c-13.78843,77.56078 -46.3104,206.2504 -51.95171,257.56349c-5.6414,51.31309 -6.54271,107.01032 -18.67115,115.11555c-12.12849,8.10525 -17.32022,15.83276 -49.45273,19.82929" data-paper-data="{&quot;fixed&quot;:true}" id="path15535 1" stroke="#c4784d" stroke-width="29.57296"/><path d="M282.12396,-3.43129c-13.78843,77.56077 -31.13418,169.72569 -36.77549,221.03877c-5.6414,51.31309 -41.74949,150.82861 -53.87793,158.93384c-12.12849,8.1052 -17.32022,15.83276 -49.45273,19.82929" data-paper-data="{&quot;fixed&quot;:true}" id="path15535-7 1" stroke="#c4784d" stroke-width="29.57296"/><path d="M93.01637,401.5715c37.35755,5.0283 96.88193,2.62111 102.0911,-4.70482c5.20907,-7.32626 45.6317,-146.57358 60.02188,-159.24216c19.92631,-17.54254 55.57622,-15.28513 59.5186,-34.74228c7.61838,-37.59984 -25.96227,-62.51998 -25.19991,-95.38797c0.76161,-32.86789 12.60905,-110.28636 12.60905,-110.28636" data-paper-data="{&quot;fixed&quot;:true}" id="path4202 1" stroke="#c4784d" stroke-width="29.57296"/><path d="M93.01648,401.57143c37.35755,5.0283 96.88192,2.62112 102.0911,-4.70482c5.20907,-7.32626 41.69108,-110.51363 56.08124,-123.18221c19.92631,-17.54253 84.00442,-40.07118 87.9468,-59.52832c7.61838,-37.59984 -50.44983,-73.7939 -49.6875,-106.66188c0.76161,-32.86789 30.21945,-108.71677 30.21945,-108.71677" data-paper-data="{&quot;fixed&quot;:true}" id="path18681 1" stroke="#c4784d" stroke-width="29.57296"/><path d="M273.95443,143.37641c19.85006,50.2058 -5.61738,57.06752 -5.61738,57.06752" data-paper-data="{&quot;fixed&quot;:true}" id="path18859 1" stroke="#c4784d" stroke-width="46.07364"/><path d="M295.38304,114.3111c-49.69694,19.0374 -98.38569,28.17272 -99.56365,37.71113c-1.17797,9.53841 39.57187,57.75899 35.11013,66.68888c-4.46178,8.92988 -50.67919,19.14163 -52.45567,28.89886c-1.77661,9.75724 50.83035,41.47786 65.43189,58.99012" data-paper-data="{&quot;fixed&quot;:true}" id="path567-6 1" stroke="#211108" stroke-width="22.23925"/><path d="M325.50485,159.66635c-79.09859,61.18049 -77.25124,52.77872 -78.10937,61.37502c-0.85816,8.59622 21.86523,28.82732 33.65808,41.50471" data-paper-data="{&quot;fixed&quot;:true}" id="path569-2 1" stroke="#211108" stroke-width="22.23925"/><path d="M294.97382,112.28409c36.21825,46.02866 60.15058,66.58832 55.43423,100.99738c-5.73442,41.8369 -86.87114,38.97963 -106.28667,92.3853" data-paper-data="{&quot;fixed&quot;:true}" id="path24733 1" stroke="#211108" stroke-width="22.23925"/></g></svg>