<svg version="1.1" xmlns="http://www.w3.org/2000/svg" xmlns:xlink="http://www.w3.org/1999/xlink" width="529" height="529"><g fill="none" fill-rule="nonzero" stroke="none" stroke-width="none" stroke-linecap="round" stroke-linejoin="round" stroke-miterlimit="none" stroke-dasharray="" stroke-dashoffset="0" font-family="none" font-weight="none" font-size="none" text-anchor="none" style="mix-blend-mode: normal"><path d="M207.50628,178.11715c-21.16116,23.86118 -39.15346,49.2453 -39.15346,49.2453c0,0 17.90877,-19.45572 24.52418,-13.10656c6.61541,6.34938 -25.44458,31.97779 -20.52499,36.69996c4.9197,4.72238 36.16842,61.29013 39.06448,70.7713" data-paper-data="{&quot;fixed&quot;:true}" id="path51862-6 1" stroke-opacity="0.93333" stroke="#000000" stroke-width="5.29" stroke-miterlimit="4"/><path d="M308.27508,164.74762c55.68712,49.92517 49.84846,42.49494 49.81027,45.29092c-0.04101,2.79629 -20.97221,-6.18375 -18.16739,-2.87512c2.80529,3.30837 29.55285,28.33387 27.4469,31.71101c-2.10595,3.37714 -118.60988,104.87884 -130.1283,107.98857c-11.51839,3.10946 -35.59408,9.35283 -41.74318,8.01139c-6.14952,-1.34154 105.00184,-155.52766 106.4265,-161.88311c1.4246,-6.35509 5.3711,-33.13307 5.3711,-33.13307" data-paper-data="{&quot;fixed&quot;:true}" id="path51864-1 1" stroke-opacity="0.93333" stroke="#000000" stroke-width="5.29" stroke-miterlimit="4"/><path d="M241.0277,275.06159c-15.5831,-48.53398 -26.84591,-93.20902 -32.19337,-96.42308" data-paper-data="{&quot;fixed&quot;:true}" id="path51866-0 1" stroke-opacity="0.93333" stroke="#000000" stroke-width="5.29" stroke-miterlimit="4"/><path d="M178.18582,210.5196c-48.89859,25.80806 -66.68458,35.64058 -67.23238,42.48113c-0.54752,6.84055 32.75266,90.71587 41.91828,99.65358c9.1654,8.93777 179.06356,9.49523 192.86185,-0.16322c13.79838,-9.65811 76.60715,-98.45552 72.81644,-106.70225c-3.79399,-8.24669 -51.97436,-29.23 -62.54197,-35.1739" data-paper-data="{&quot;fixed&quot;:true}" id="path51868-6 1" stroke-opacity="0.93333" stroke="#000000" stroke-width="5.29" stroke-miterlimit="4"/><path d="M201.29104,359.34077c11.71629,12.46319 23.13745,22.92247 18.58615,29.06273c-4.55204,6.14053 -37.74145,28.21876 -37.74145,36.58077c0,8.36143 5.76192,34.04538 32.17769,41.58194c26.41593,7.53899 67.7832,15.60751 102.75879,-3.02694c31.0989,-16.56701 29.03385,-36.10229 21.11107,-49.93522c-5.99939,-10.47372 -29.26894,-21.5413 -31.02368,-24.69996c-1.75522,-3.15813 -3.90085,-18.17295 9.30733,-30.51066" data-paper-data="{&quot;fixed&quot;:true}" id="path51870-3 1" stroke-opacity="0.93333" stroke="#000000" stroke-width="5.29" stroke-miterlimit="4"/><path d="M206.55,180.5c10.94937,-11.05997 13.27695,-24.21159 20.95,-37" data-paper-data="{&quot;fixed&quot;:true}" stroke="#363636" stroke-width="6" stroke-miterlimit="10"/><path d="M313.55,161.5c-14.19968,0 -22.0851,-8.58775 -27.05,-21" data-paper-data="{&quot;fixed&quot;:true}" stroke="#363636" stroke-width="6" stroke-miterlimit="10"/><path d="M256.96492,162.17731c-15.14325,-5.64324 -23.97115,-15.56751 -35.80183,-25.82077c-21.93192,-19.00767 -39.53932,-42.10044 -41.71048,-72.49677c-2.68527,-37.59385 23.27029,-74.81622 64.55191,-67.53125c29.85242,5.26805 58.3459,27.99706 65.54504,58.59329c8.55346,36.35204 -10.94246,99.11568 -51.64154,107.25549" data-paper-data="{&quot;fixed&quot;:true}" stroke="#363636" stroke-width="6" stroke-miterlimit="10"/><path d="M249.07606,48.55978c9.6516,-12.57063 19.91315,-15.04315 34.44615,-10.57138" data-paper-data="{&quot;fixed&quot;:true}" stroke="#363636" stroke-width="6" stroke-miterlimit="10"/><path d="M223.4821,48.00342c-11.00767,-6.54579 -23.07484,-4.39471 -33.98979,1.66916" data-paper-data="{&quot;fixed&quot;:true}" stroke="#363636" stroke-width="6" stroke-miterlimit="10"/><path d="M280.7903,51.89813c-4.11427,0.62863 -33.87342,5.78822 -19.52366,10.57141" data-paper-data="{&quot;fixed&quot;:true}" stroke="#363636" stroke-width="6" stroke-miterlimit="10"/><path d="M271.33165,56.90564c1.46705,0.92732 2.93409,1.85463 4.40114,2.78195" data-paper-data="{&quot;fixed&quot;:true}" stroke="#363636" stroke-width="6" stroke-miterlimit="10"/><path d="M228.48961,63.58234c1.6525,-0.74185 5.20202,-0.43075 4.95751,-2.22556c-0.42519,-3.12098 -12.47093,-2.22556 -12.79697,-2.22556c-9.82961,0 -16.40188,0.54603 -23.9248,7.23306" data-paper-data="{&quot;fixed&quot;:true}" stroke="#363636" stroke-width="6" stroke-miterlimit="10"/><path d="M208.45955,61.35678c-2.87597,9.3078 3.78118,11.66877 2.73198,2.22556" data-paper-data="{&quot;fixed&quot;:true}" stroke="#363636" stroke-width="6" stroke-miterlimit="10"/><path d="M281.62077,52.16882c8.6772,0 6.18241,5.17436 2.28939,10.52728" data-paper-data="{&quot;fixed&quot;:true}" stroke="#363636" stroke-width="6" stroke-miterlimit="10"/><path d="M195.45305,67.37488c2.14576,2.6605 4.98285,4.92378 8.1379,6.2384" data-paper-data="{&quot;fixed&quot;:true}" stroke="#363636" stroke-width="6" stroke-miterlimit="10"/><path d="M202.47123,75.17285c10.36114,-1.49382 16.7126,-2.53203 25.29344,-8.96765" data-paper-data="{&quot;fixed&quot;:true}" stroke="#363636" stroke-width="6" stroke-miterlimit="10"/><path d="M259.3965,61.91629c5.68992,2.05089 10.29816,2.71734 16.32579,3.1192" data-paper-data="{&quot;fixed&quot;:true}" stroke="#363636" stroke-width="6" stroke-miterlimit="10"/><path d="M277.33186,64.64557c1.80287,-0.38989 3.60575,-0.77979 5.40862,-1.16968" data-paper-data="{&quot;fixed&quot;:true}" stroke="#363636" stroke-width="6" stroke-miterlimit="10"/><path d="M249.93553,65.9505c0.77706,6.67447 9.3839,17.17289 7.96572,23.31836c-1.08906,4.71927 -11.00515,5.75751 -14.57401,7.28702" data-paper-data="{&quot;fixed&quot;:true}" stroke="#363636" stroke-width="6" stroke-miterlimit="10"/><path d="M243.5413,120.97174c3.99518,-6.1002 7.38732,-14.82094 14.14528,-7.09763" data-paper-data="{&quot;fixed&quot;:true}" stroke="#363636" stroke-width="6" stroke-miterlimit="10"/><path d="M258.20973,115.76682c6.98592,-7.07943 11.87224,-1.05852 20.29656,0.47318" data-paper-data="{&quot;fixed&quot;:true}" stroke="#363636" stroke-width="6" stroke-miterlimit="10"/><path d="M242.59495,122.39127c11.33722,-1.90632 22.75018,-0.71181 34.01863,-3.31223" data-paper-data="{&quot;fixed&quot;:true}" stroke="#363636" stroke-width="6" stroke-miterlimit="10"/><path d="M242.12178,120.49857c11.89979,6.55375 18.64987,11.60985 31.17958,2.83905" data-paper-data="{&quot;fixed&quot;:true}" stroke="#363636" stroke-width="6" stroke-miterlimit="10"/><path d="M311.63038,58.48734c3.74116,-10.54533 13.42401,-16.79898 10.71453,0c-1.44227,8.94217 -6.44169,16.83048 -8.20154,25.62985" data-paper-data="{&quot;fixed&quot;:true}" stroke="#363636" stroke-width="6" stroke-miterlimit="10"/><path d="M182.45598,78.47861c-19.4317,-5.25295 6.33608,25.02645 9.68935,29.21802" data-paper-data="{&quot;fixed&quot;:true}" stroke="#363636" stroke-width="6" stroke-miterlimit="10"/><path d="M177.35984,80.76334c-6.17499,-15.67884 -13.22564,-30.94748 -14.64219,-47.94571" data-paper-data="{&quot;fixed&quot;:true}" stroke="#363636" stroke-width="6" stroke-miterlimit="10"/><path d="M166.51994,8.63635c-5.92925,1.56858 -7.4898,1.18598 -12.14067,5.83685c-6.86761,6.86761 -4.20563,17.09369 6.25378,17.09369c11.23839,0 30.16111,-20.53032 17.51062,-30.01819c-13.73863,-10.30397 -51.6434,23.60836 -17.51062,30.43512" data-paper-data="{&quot;fixed&quot;:true}" stroke="#363636" stroke-width="6" stroke-miterlimit="10"/><path d="M182.36287,2.79947c12.67752,-4.2599 25.59157,-6.43793 38.7235,-8.75528" data-paper-data="{&quot;fixed&quot;:true}" stroke="#363636" stroke-width="6" stroke-miterlimit="10"/><path d="M313.27546,50.74518c-12.45912,-26.46599 -17.25395,-41.47729 -42.57576,-59.20251" data-paper-data="{&quot;fixed&quot;:true}" stroke="#363636" stroke-width="6" stroke-miterlimit="10"/></g></svg>