<svg version="1.1" xmlns="http://www.w3.org/2000/svg" xmlns:xlink="http://www.w3.org/1999/xlink" width="529" height="529"><g fill="none" fill-rule="nonzero" stroke="none" stroke-width="none" stroke-linecap="round" stroke-linejoin="round" stroke-miterlimit="none" stroke-dasharray="" stroke-dashoffset="0" font-family="none" font-weight="none" font-size="none" text-anchor="none" style="mix-blend-mode: normal"><path d="M60.94897,292.41856c0.50969,5.09797 35.68756,20.3929 209.53686,19.88305c173.8493,-0.50969 187.10466,-9.17683 203.92875,-12.23577" data-paper-data="{&quot;fixed&quot;:true}" id="path933-8-2 1" stroke="#000000" stroke-width="7.82846" stroke-miterlimit="4"/><path d="M260.28938,310.77211c4.07859,-13.25536 4.58855,-14.78481 4.58855,-14.78481" data-paper-data="{&quot;fixed&quot;:true}" id="path935-7-9 1" stroke="#000000" stroke-width="7.82846" stroke-miterlimit="4"/><path d="M259.72132,311.71519c1.33149,-7.33448 2.86348,-12.19408 4.60177,-13.82875c1.73882,-1.63461 213.39952,-2.14457 214.2038,-18.35127" data-paper-data="{&quot;fixed&quot;:true}" id="path176-2-1 1" stroke="#000000" stroke-width="7.82846" stroke-miterlimit="4"/><path d="M75.08308,338.4358c15.90095,40.97343 51.03882,78.21595 77.85375,77.8864c26.81485,-0.32962 211.71174,-1.6034 231.06475,-0.68823c19.35309,0.91517 73.76913,-25.82673 74.59188,-68.1038" data-paper-data="{&quot;fixed&quot;:true}" id="path325-0-9 1" stroke="#000000" stroke-width="7.82846" stroke-miterlimit="4"/><path d="M119.00289,380.58314c6.86457,9.32045 21.94594,18.62821 37.60952,17.83989c15.66348,-0.78821 27.51276,-7.88707 29.75149,-14.1927" data-paper-data="{&quot;fixed&quot;:true}" id="path545-3-4 1" stroke="#000000" stroke-width="7.82846" stroke-miterlimit="4"/><path d="M152.87236,397.52649c0.25179,-30.03276 2.52968,-59.27824 0.60888,-62.11686c-1.9208,-2.83861 -3.90984,-0.55492 -5.80593,-6.80421c-1.89646,-6.24918 1.87689,-13.26917 5.63036,-11.50665c3.75326,1.76263 8.99427,4.64885 4.94033,11.91382c-4.05373,7.26523 -4.29707,3.72575 -3.97067,5.35877" data-paper-data="{&quot;fixed&quot;:true}" id="path547-7-7 1" stroke="#000000" stroke-width="7.82846" stroke-miterlimit="4"/><path d="M139.61967,332.60184c9.56104,0.14116 15.73325,0.94903 23.34916,1.35265" data-paper-data="{&quot;fixed&quot;:true}" id="path549-5-8 1" stroke="#000000" stroke-width="7.82846" stroke-miterlimit="4"/><path d="M59.92936,292.9284c7.13748,30.58932 6.11789,39.2563 11.72592,43.84463c5.60803,4.58855 101.96441,15.29466 199.3404,14.27506c97.37599,-1.01991 187.61443,-5.60803 192.71269,-10.70622c5.09797,-5.0985 10.19637,-34.66796 15.29466,-60.15905" data-paper-data="{&quot;fixed&quot;:true}" id="path939-9-3 1" stroke="#000000" stroke-width="7.82846" stroke-miterlimit="4"/><path d="M262.34517,306.63055c5.04046,-53.61703 10.5658,-107.47717 14.14199,-161.12088c1.57306,-23.5963 7.5134,-47.26749 7.5134,-70.95996" data-paper-data="{&quot;fixed&quot;:true}" stroke="#363636" stroke-width="6" stroke-miterlimit="10"/><path d="M285.7202,71.21042c27.83068,16.04053 61.90195,18.65289 92.61537,25.87952c4.8295,1.13634 30.02013,6.55672 28.38397,14.19199c-2.56028,11.94777 -19.84556,21.99401 -28.38397,29.21881c-32.52756,27.52331 -73.31031,44.58606 -111.03149,63.44653" data-paper-data="{&quot;fixed&quot;:true}" stroke="#363636" stroke-width="6" stroke-miterlimit="10"/><path d="M323.20576,103.32062c-17.69897,-1.46086 -11.82936,15.53805 -12.67619,26.12317c-0.05421,0.67761 -3.51134,10.43916 -3.0477,11.32007c1.19845,2.27705 14.88513,6.67048 17.41547,6.0954c5.90914,-1.34299 3.03669,-5.47871 4.78925,-9.14313c2.67326,-5.58953 9.5512,-6.93873 11.75543,-13.06158c5.09631,-14.15637 -4.52357,-22.99433 -17.85086,-23.94623" data-paper-data="{&quot;fixed&quot;:true}" stroke="#363636" stroke-width="6" stroke-miterlimit="10"/><path d="M317.06036,116.3822c0.01667,0 0.03333,0 0.05,0" data-paper-data="{&quot;fixed&quot;:true}" stroke="#363636" stroke-width="6" stroke-miterlimit="10"/><path d="M327.94504,115.51144c0.01667,0 0.03333,0 0.05,0" data-paper-data="{&quot;fixed&quot;:true}" stroke="#363636" stroke-width="6" stroke-miterlimit="10"/><path d="M313.12556,144.03751c0.64785,-3.41285 1.11028,-6.86399 1.42479,-10.32352" data-paper-data="{&quot;fixed&quot;:true}" stroke="#363636" stroke-width="1" stroke-miterlimit="10"/><path d="M317.54991,146.49548c0.28761,-3.52182 1.09566,-7.0427 2.40798,-10.32352" data-paper-data="{&quot;fixed&quot;:true}" stroke="#363636" stroke-width="1" stroke-miterlimit="10"/><path d="M321.97429,145.5123c-0.33314,-3.93096 -0.10483,-7.99227 0.93318,-11.79831" data-paper-data="{&quot;fixed&quot;:true}" stroke="#363636" stroke-width="1" stroke-miterlimit="10"/><path d="M313.24794,109.13553c-0.36205,-0.41767 -8.21839,-9.58953 -8.90056,-9.95685c-3.12374,-1.68201 -7.81695,-0.07272 -10.32562,-2.58139c-7.73768,-7.73768 1.81191,-3.69479 3.31897,-4.05649c1.56321,-0.37517 6.3039,-6.01691 8.85052,-4.42526c1.49248,0.9328 0.43338,3.53654 1.10632,5.16281c0.76921,1.85893 4.98037,8.02372 6.2691,9.95685" data-paper-data="{&quot;fixed&quot;:true}" stroke="#363636" stroke-width="4" stroke-miterlimit="10"/><path d="M337.58687,130.52432c1.60564,3.41816 4.79094,11.37051 8.06301,14.01334c1.37982,1.11447 9.60559,0.82552 8.11298,5.90036c-0.48311,1.64256 -3.34215,0.93642 -4.79404,1.84384c-2.21681,1.3855 -5.29576,6.66238 -9.2193,4.79404c-7.12392,-3.39233 0.25382,-6.00812 -0.36877,-9.58807c-0.59571,-3.4254 -4.91695,-4.91695 -7.37543,-7.37543" data-paper-data="{&quot;fixed&quot;:true}" stroke="#363636" stroke-width="4" stroke-miterlimit="10"/><path d="M345.3311,109.87308c0.9853,-0.28427 10.51456,-2.99294 11.01314,-3.31894c1.6071,-1.05079 1.91531,-3.68675 3.68774,-4.42526c5.97709,-2.49045 14.17033,8.64019 2.58139,13.27579" data-paper-data="{&quot;fixed&quot;:true}" stroke="#363636" stroke-width="4" stroke-miterlimit="10"/><path d="M361.92582,114.66711c-7.33823,0.51914 -12.98041,3.58504 -19.59492,6.63791" data-paper-data="{&quot;fixed&quot;:true}" stroke="#363636" stroke-width="4" stroke-miterlimit="10"/><path d="M309.92897,117.98605c-3.74895,3.70333 -11.39301,12.6518 -16.64473,14.01337c-1.91866,0.49743 -4.06003,-1.47368 -5.90036,-0.73755c-1.71198,0.68479 -2.8562,2.64041 -3.31894,4.42526c-0.46684,1.80065 -0.53738,4.177 0.73752,5.53159c1.19144,1.26591 3.97384,-0.53071 5.16281,0.73752c1.18002,1.25868 -1.13497,4.31695 0.36877,5.16281c2.89493,1.6284 12.66687,-13.51665 15.48843,-16.59473" data-paper-data="{&quot;fixed&quot;:true}" stroke="#363636" stroke-width="4" stroke-miterlimit="10"/><path d="M76.38963,298.62347c-0.05247,-7.31782 -0.09442,-13.72338 1.34456,-20.91827" data-paper-data="{&quot;fixed&quot;:true}" stroke="#363636" stroke-width="7" stroke-miterlimit="10"/><path d="M84.75694,297.92621c-0.06246,-8.71057 -0.77417,-17.32435 1.34456,-25.79919" data-paper-data="{&quot;fixed&quot;:true}" stroke="#363636" stroke-width="7" stroke-miterlimit="10"/><path d="M89.63788,224.01495c-26.34772,-9.51901 -52.36697,32.29582 -27.94104,45.32294c34.49613,18.39787 69.22504,-31.59774 25.79921,-44.62567" data-paper-data="{&quot;fixed&quot;:true}" stroke="#363636" stroke-width="7" stroke-miterlimit="10"/><path d="M93.12425,220.52856c2.38412,-6.06911 3.95244,-11.8261 5.52822,-18.12915" data-paper-data="{&quot;fixed&quot;:true}" stroke="#363636" stroke-width="7" stroke-miterlimit="10"/><path d="M69.41688,222.62036c-3.90185,-5.38526 -6.82692,-11.2112 -10.50914,-16.73462" data-paper-data="{&quot;fixed&quot;:true}" stroke="#363636" stroke-width="7" stroke-miterlimit="10"/><path d="M55.47136,240.05231c-8.3938,-3.70112 -13.75275,-7.30968 -23.0601,-6.27545" data-paper-data="{&quot;fixed&quot;:true}" stroke="#363636" stroke-width="7" stroke-miterlimit="10"/><path d="M50.59042,261.66785c-1.17879,1.39455 -2.35758,2.7891 -3.53637,4.18365" data-paper-data="{&quot;fixed&quot;:true}" stroke="#363636" stroke-width="7" stroke-miterlimit="10"/><path d="M73.60054,273.52155c-0.24909,2.55668 -0.49819,5.11336 -0.74728,7.67004" data-paper-data="{&quot;fixed&quot;:true}" stroke="#363636" stroke-width="7" stroke-miterlimit="10"/><path d="M98.70247,265.15424c4.2668,4.31095 8.20148,7.12798 13.19825,10.45911" data-paper-data="{&quot;fixed&quot;:true}" stroke="#363636" stroke-width="7" stroke-miterlimit="10"/><path d="M103.5834,249.11688c7.42077,0 14.23651,-0.87032 21.56555,-2.09186" data-paper-data="{&quot;fixed&quot;:true}" stroke="#363636" stroke-width="7" stroke-miterlimit="10"/><path d="M104.28067,228.19861c3.59403,-3.62656 7.55541,-6.92969 11.8037,-9.76184" data-paper-data="{&quot;fixed&quot;:true}" stroke="#363636" stroke-width="7" stroke-miterlimit="10"/><path d="M76.38963,247.72229c1.84274,-0.23242 3.68548,-0.46484 5.52822,-0.69727" data-paper-data="{&quot;fixed&quot;:true}" stroke="#363636" stroke-width="7" stroke-miterlimit="10"/><path d="M72.90326,250.51147c2.71556,-5.53029 12.27527,-11.51518 5.5282,-1.39459" data-paper-data="{&quot;fixed&quot;:true}" stroke="#363636" stroke-width="7" stroke-miterlimit="10"/><path d="M99.60315,198.76373c0.01667,0 0.03333,0 0.05,0" data-paper-data="{&quot;fixed&quot;:true}" stroke="#363636" stroke-width="7" stroke-miterlimit="10"/><path d="M115.4037,214.06427c-0.16667,1.95007 -0.33334,3.90015 -0.50001,5.85022" data-paper-data="{&quot;fixed&quot;:true}" stroke="#363636" stroke-width="7" stroke-miterlimit="10"/><path d="M124.85403,247.81543c4.45915,-5.82563 9.7655,-1.84321 1.75006,1.80005" data-paper-data="{&quot;fixed&quot;:true}" stroke="#363636" stroke-width="7" stroke-miterlimit="10"/><path d="M108.65345,274.36639c1.63339,-0.60002 3.47346,-2.79628 4.90018,-1.80005c1.61766,1.12956 0.60003,3.90011 0.90004,5.85016" data-paper-data="{&quot;fixed&quot;:true}" stroke="#363636" stroke-width="7" stroke-miterlimit="10"/><path d="M27.20059,232.06494c-0.46668,1.80005 -2.8176,4.1966 -1.40005,5.40015c1.30379,1.10696 2.70009,-2.1001 4.05014,-3.15015" data-paper-data="{&quot;fixed&quot;:true}" stroke="#363636" stroke-width="7" stroke-miterlimit="10"/><path d="M58.25169,200.11377c-3.47755,1.25191 -13.07038,9.01303 -4.55017,12.60046c10.45838,4.4035 6.94121,-12.24598 2.25008,-9.90039c-1.95354,0.97678 -1.20004,4.2002 -1.80006,6.30029" data-paper-data="{&quot;fixed&quot;:true}" stroke="#363636" stroke-width="7" stroke-miterlimit="10"/><path d="M91.55285,198.31372c3.56184,-2.39673 16.6247,-5.24965 5.35019,0.90002" data-paper-data="{&quot;fixed&quot;:true}" stroke="#363636" stroke-width="7" stroke-miterlimit="10"/><path d="M44.30119,265.8161c-0.01667,1.80007 -0.03333,3.60014 -0.05,5.40021" data-paper-data="{&quot;fixed&quot;:true}" stroke="#363636" stroke-width="7" stroke-miterlimit="10"/><path d="M178.56608,126.22839c-13.49113,4.12363 -23.25188,12.59338 -26.01957,27.12378c-1.97794,10.38416 7.47466,18.12655 17.31305,16.15887c18.36053,-3.67211 27.71511,-28.84866 8.65652,-37.51163" data-paper-data="{&quot;fixed&quot;:true}" stroke="#363636" stroke-width="7" stroke-miterlimit="10"/><path d="M160.67592,136.03912c13.38886,4.05173 28.22443,1.66733 42.07842,1.15421c2.50645,-0.09283 4.99677,-0.46322 7.50235,-0.57712c1.72952,-0.07862 4.90927,1.70775 5.19391,0c0.31813,-1.90873 -14.74221,-8.43291 -16.15884,-9.23361c-7.24817,-4.0968 -13.61334,-11.36811 -22.50696,-9.23364c-4.8461,1.16307 -37.46838,11.24321 -26.54669,19.04437c3.32063,2.37187 8.09394,1.06043 12.11914,1.73129" data-paper-data="{&quot;fixed&quot;:true}" stroke="#363636" stroke-width="7" stroke-miterlimit="10"/><path d="M159.52171,130.84521c9.82037,-0.70584 19.00864,1.73129 28.8051,1.73129c2.3164,0 5.98443,1.53967 6.9252,-0.57709c1.92293,-4.32663 -9.62789,-5.70194 -10.38782,-5.77103c-6.41811,-0.58347 -13.97268,0.03333 -20.19855,1.73129c-2.17227,0.59244 -8.36205,1.30146 -6.34814,2.30841c3.20267,1.60133 11.86538,-2.52084 15.00464,-3.46262c4.67953,-1.40386 11.70891,-1.70118 10.38785,-3.46259c-2.36003,-3.1467 -17.31918,2.77702 -20.19858,3.46259c-6.11559,1.45609 -11.87423,1.79433 -10.9649,2.88553c1.76314,2.11578 12.5107,1.81442 15.00464,1.73129c10.7783,-0.35927 21.54489,-1.73129 32.31769,-1.73129" data-paper-data="{&quot;fixed&quot;:true}" stroke="#363636" stroke-width="7" stroke-miterlimit="10"/><path d="M169.85956,148.73535c0.01667,0 0.03333,0 0.05,0" data-paper-data="{&quot;fixed&quot;:true}" stroke="#363636" stroke-width="7" stroke-miterlimit="10"/><path d="M166.81932,171.29727c-0.2068,24.52069 -13.72905,44.56452 -17.83598,68.17953c-2.83038,16.2748 9.8811,17.14768 9.8811,29.14923c0,12.50579 -4.02445,24.33242 -2.96432,37.05414" data-paper-data="{&quot;fixed&quot;:true}" stroke="#363636" stroke-width="7" stroke-miterlimit="10"/><path d="M178.18257,172.28537c3.34439,13.84453 1.92623,28.79772 1.92623,42.98276" data-paper-data="{&quot;fixed&quot;:true}" stroke="#363636" stroke-width="7" stroke-miterlimit="10"/><path d="M180.1588,216.75031c0.94017,14.64476 6.8918,27.94868 7.36083,42.48871c0.55963,17.34876 -4.4465,33.80646 -4.4465,50.88763" data-paper-data="{&quot;fixed&quot;:true}" stroke="#363636" stroke-width="7" stroke-miterlimit="10"/><path d="M170.77177,204.89301c-17.35422,-11.92156 -27.72375,-29.74944 -41.55061,-44.95898c-1.29078,-1.41985 -11.95966,-12.93005 -11.8573,-13.33948c0.92523,-3.70092 9.13823,-1.21302 10.37514,-0.98813" data-paper-data="{&quot;fixed&quot;:true}" stroke="#363636" stroke-width="7" stroke-miterlimit="10"/><path d="M84.31219,110.52853c-1.24421,1.97079 -14.09341,22.65614 -3.50839,23.71463c15.21386,1.52137 8.7013,-18.17591 2.47028,-23.71463" data-paper-data="{&quot;fixed&quot;:true}" stroke="#363636" stroke-width="7" stroke-miterlimit="10"/><path d="M92.21707,110.03448c10.55883,21.55405 43.25121,25.24438 61.70682,37.54816" data-paper-data="{&quot;fixed&quot;:true}" stroke="#363636" stroke-width="7" stroke-miterlimit="10"/><path d="M78.87759,135.23129c23.17617,5.00243 48.05072,17.50031 72.08197,15.31567" data-paper-data="{&quot;fixed&quot;:true}" stroke="#363636" stroke-width="7" stroke-miterlimit="10"/><path d="M99.13383,111.51666c-3.72365,-0.92313 -7.5769,-1.48218 -11.41327,-1.48218" data-paper-data="{&quot;fixed&quot;:true}" stroke="#363636" stroke-width="7" stroke-miterlimit="10"/><path d="M157.92634,155.98157c8.16793,3.43226 8.84297,4.96813 8.84297,13.83353" data-paper-data="{&quot;fixed&quot;:true}" stroke="#363636" stroke-width="7" stroke-miterlimit="10"/><path d="M164.84309,166.85077c-0.0736,0.09704 -8.25431,10.80107 -8.44893,11.36328c-1.46345,4.22773 -0.0674,9.0952 -1.48215,13.33948c-0.45942,1.37825 -3.76173,10.10493 -7.90488,8.39893c-6.4762,-2.66666 2.71736,-28.90254 3.95242,-35.07788" data-paper-data="{&quot;fixed&quot;:true}" stroke="#363636" stroke-width="7" stroke-miterlimit="10"/><path d="M149.52742,196c1.39041,-8.63379 3.45298,-17.06558 4.89055,-25.69083" data-paper-data="{&quot;fixed&quot;:true}" stroke="#363636" stroke-width="7" stroke-miterlimit="10"/><path d="M155.95012,256.76874c10.83961,-0.99462 21.83554,-1.31486 32.5576,-2.96429" data-paper-data="{&quot;fixed&quot;:true}" stroke="#363636" stroke-width="7" stroke-miterlimit="10"/><path d="M8.11638,419.06323c17.18363,6.48852 23.53752,-6.00791 23.53752,-21.77307c0,-2.13833 -0.23101,-4.32193 -0.90721,-6.35052c-0.5576,-1.6728 -4.09855,-3.43449 -2.72165,-4.53601c3.42,-2.736 16.9251,6.13211 17.23703,6.35046c8.75978,6.13186 15.62202,13.98542 18.14424,24.49469c0.8858,3.69082 -0.67452,21.96634 6.35048,23.58752c9.32621,2.15224 28.89223,-17.48276 33.56683,-24.49469c2.76483,-4.14726 2.07363,-8.55373 0,-12.70099c-0.86595,-1.73191 -5.56518,-4.53607 -3.62885,-4.53607c4.12167,0 26.65942,21.00659 30.8452,24.49475" data-paper-data="{&quot;fixed&quot;:true}" stroke="#363636" stroke-width="7" stroke-miterlimit="10"/><path d="M408.19679,413.61993c9.65487,-1.07932 18.43765,-2.63087 26.25914,-9.07208c2.48146,-2.04354 4.56738,-4.58297 6.35052,-7.25769c1.87543,-2.81315 1.55916,-7.46921 4.53601,-9.07214c10.25585,-5.52244 15.54028,26.02845 20.86591,25.40192c11.05858,-1.30099 18.71231,-13.61059 22.6803,-22.6803c0.88241,-2.01694 -0.09707,-5.2582 1.81439,-6.35046c1.61782,-0.92447 9.05171,7.23045 9.07214,7.25769c5.92877,7.90502 10.27635,13.90518 17.237,20.86591" data-paper-data="{&quot;fixed&quot;:true}" stroke="#363636" stroke-width="7" stroke-miterlimit="10"/><path d="M303.86744,467.14545c3.89987,-7.94562 12.76562,-18.83063 22.6303,-13.60815c7.7441,4.09982 8.71049,10.36231 19.05145,9.97931c12.95792,-0.47993 24.10449,-12.01197 37.19568,-12.70099c7.13213,-0.37538 12.25906,6.12959 18.14423,9.07214" data-paper-data="{&quot;fixed&quot;:true}" stroke="#363636" stroke-width="7" stroke-miterlimit="10"/><path d="M38.40486,481.68152c4.93803,-6.20101 7.92292,-15.4352 15.37261,-18.14423c8.96652,-3.26061 11.67629,12.83544 18.14423,15.42261c6.27198,2.50879 12.59569,-5.14208 18.14424,-3.62885c5.94148,1.62039 7.43114,15.76944 9.97934,20.86584" data-paper-data="{&quot;fixed&quot;:true}" stroke="#363636" stroke-width="7" stroke-miterlimit="10"/><path d="M408.54731,16.28183c-3.80295,-6.22379 -9.06946,-5.05815 -13.65822,0.90723c-6.67658,8.67954 -8.76918,26.16476 2.72168,32.65961c13.26297,7.49647 15.61069,6.07668 29.03076,2.72165c2.7832,-0.6958 5.90038,-4.48296 8.16492,-2.72165c2.38704,1.85659 -0.2867,6.06172 0,9.07214c0.60535,6.35624 1.02236,12.66197 7.25769,16.3298c14.04413,8.26124 29.59698,-3.21902 43.54614,0c10.96806,2.53107 4.39428,13.70739 11.79376,19.05145c10.91948,7.88628 21.97395,1.25441 32.65961,-2.72165c16.12392,-5.9996 28.76495,-12.0409 37.19568,-27.21634" data-paper-data="{&quot;fixed&quot;:true}" stroke="#363636" stroke-width="7" stroke-miterlimit="10"/></g></svg>