<svg version="1.1" xmlns="http://www.w3.org/2000/svg" xmlns:xlink="http://www.w3.org/1999/xlink" width="529" height="529"><g fill="none" fill-rule="nonzero" stroke="none" stroke-width="none" stroke-linecap="round" stroke-linejoin="round" stroke-miterlimit="none" stroke-dasharray="" stroke-dashoffset="0" font-family="none" font-weight="none" font-size="none" text-anchor="none" style="mix-blend-mode: normal"><path d="M214.911,248.21209c21.41815,40.204 24.6715,37.1358 25.28514,47.9803c0.63533,10.8445 45.3919,6.8241 52.3054,5.29c6.91398,-1.587 4.9726,-6.5596 4.761,-10.8974c-0.22534,-4.232 20.45008,-31.1581 22.90464,-37.4003" data-paper-data="{&quot;fixed&quot;:true}" id="path53808-0 1" stroke="#5d5955" stroke-width="13.38333" stroke-miterlimit="4"/><path d="M356.26778,80.60902c-15.75838,-16.4519 -155.62915,-4.761 -167.25239,3.174c-14.70567,9.6807 -96.34656,123.59556 -82.02817,146.27379c14.3195,22.6941 303.19882,20.7368 314.34491,5.3958c11.26929,-15.2881 -49.66961,-151.4527 -55.4364,-152.47896" data-paper-data="{&quot;fixed&quot;:true}" id="path52838-6 1" stroke="#eacd46" stroke-width="11.10868" stroke-miterlimit="4"/><path d="M313.40306,94.55346c41.01178,2.645 48.33261,-7.5647 49.62866,9.2575c1.11143,14.6004 -43.26532,0.04761 -41.45614,14.6004c1.9044,15.4468 43.22829,-11.0032 46.45466,4.232c3.0682,14.5475 -42.90031,7.3531 -39.02803,21.7419c4.1791,15.5526 43.55627,-16.2403 48.31674,-1.058c5.41172,17.5099 -51.83988,12.9076 -45.88334,30.2059c5.0255,14.6533 41.31331,-18.4092 46.33352,-3.703c3.9675,11.5851 -34.90712,8.6227 -30.78145,20.1549c4.761,13.3837 37.46219,-17.8273 42.44537,-4.761c8.65391,23.1702 -80.51847,27.4551 -60.83569,42.4258c9.40282,8.993 59.94959,-8.5698 67.28076,-11.7438" data-paper-data="{&quot;fixed&quot;:true}" id="path54109-2 1" stroke="#fcf3c6" stroke-width="11.10868" stroke-miterlimit="4"/><path d="M247.55,304.5c-9.75858,0 -20.99519,9.10048 -15.05,20c3.86366,7.08337 14.76424,8.21299 11,18c-4.32041,11.23307 -17.12008,16.36024 -21,28c-4.53903,13.6171 9.72183,20.34593 13,31c3.20707,10.42298 -8.36612,20.74316 -5,30c0.57126,1.57097 6.4076,8.82788 7,11c0.98058,3.59546 -2,7.27322 -2,11c0,6.00451 5,8.27029 5,15" data-paper-data="{&quot;fixed&quot;:true}" stroke="#363636" stroke-width="7" stroke-miterlimit="10"/><path d="M288.55,308.5c8.28643,-3.34805 22.6791,-0.1037 20.95,12c-2.0171,14.11967 -17.01334,25.09341 -19,39c-1.66745,11.67217 11.16818,17.61666 14,28c1.80035,6.60129 -1,11.23934 -1,18c0,7.72263 6.82818,12.79728 8,21c1.77467,12.42272 -19.42159,31.42159 -28,40" data-paper-data="{&quot;fixed&quot;:true}" stroke="#363636" stroke-width="7" stroke-miterlimit="10"/><path d="M232.55,465.5c21.22199,0 42.77826,-2.6286 63.95,-1c3.61528,0.2781 21.28451,3.07324 16,11c-4.88573,7.32859 -14.66264,6.84147 -22,8c-17.05294,2.69257 -32.92037,2.41593 -50,-1c-9.63503,-1.92701 -20.11102,-3.55551 -29,-8c-1.49071,-0.74536 -5,-1.66667 -4,-3c4.58386,-6.11182 24.18472,-7.62482 30,-8c7.65799,-0.49406 15.4305,0.26158 23,-1" data-paper-data="{&quot;fixed&quot;:true}" stroke="#363636" stroke-width="7" stroke-miterlimit="10"/><path d="M312.55,403.5c12.10192,-2.03394 30.69606,-5.13851 41.95,1c21.84908,11.91768 32.64863,40.92973 58,46" data-paper-data="{&quot;fixed&quot;:true}" stroke="#363636" stroke-width="7" stroke-miterlimit="10"/><path d="M409.55,464.5c-0.04038,-4.038 4.61054,-21.26422 8.95,-23c4.07828,-1.63131 32.02352,11.70586 34,15c4.12629,6.87716 -10.81134,32.31237 -17,33c-7.51334,0.83482 -25.73815,-12.73815 -31,-18" data-paper-data="{&quot;fixed&quot;:true}" stroke="#363636" stroke-width="7" stroke-miterlimit="10"/><path d="M419.55,458.5c4.3417,1.24941 8.66395,2.57132 12.95,4" data-paper-data="{&quot;fixed&quot;:true}" stroke="#363636" stroke-width="7" stroke-miterlimit="10"/><path d="M447.55,474.5c37.06585,7.48805 72.78491,15.55661 104.95,37" data-paper-data="{&quot;fixed&quot;:true}" stroke="#363636" stroke-width="7" stroke-miterlimit="10"/><path d="M306.55,408.5c4.20006,-1.41178 8.56355,-2.37336 12.95,-3" data-paper-data="{&quot;fixed&quot;:true}" stroke="#363636" stroke-width="7" stroke-miterlimit="10"/><path d="M304.55,403.5c5.37375,-1.47226 10.77673,-2.93069 15.95,-5" data-paper-data="{&quot;fixed&quot;:true}" stroke="#363636" stroke-width="7" stroke-miterlimit="10"/></g></svg>