<svg version="1.1" xmlns="http://www.w3.org/2000/svg" xmlns:xlink="http://www.w3.org/1999/xlink" width="529" height="529"><g fill="none" fill-rule="nonzero" stroke="none" stroke-width="none" stroke-linecap="round" stroke-linejoin="round" stroke-miterlimit="none" stroke-dasharray="" stroke-dashoffset="0" font-family="none" font-weight="none" font-size="none" text-anchor="none" style="mix-blend-mode: normal"><path d="M69.48729,200.61653c191.65043,36.98514 409.07838,4.48327 409.07838,-5.60375c0,-10.08681 -52.67586,-56.03816 -109.83474,-34.74361" data-paper-data="{&quot;fixed&quot;:true}" id="path6470 1" stroke="#000000" stroke-width="13.99644" stroke-miterlimit="4"/><path d="M174.83898,224.15254c-7.84533,106.47246 -24.6568,214.06568 3.36232,223.03179c28.01907,8.96613 145.69915,-20.17373 166.99365,-72.84958c21.29447,-52.67586 22.41526,-75.0911 22.41526,-75.0911" data-paper-data="{&quot;fixed&quot;:true}" id="path6472 1" stroke="#000000" stroke-width="13.99644" stroke-miterlimit="4"/><path d="M365.36864,229.75635c42.589,-7.84533 56.03813,-16.81146 53.7966,5.6038c-2.24137,22.41526 -10.08687,31.38134 -24.6568,58.27965c-14.56993,26.89833 8.96607,40.34746 -14.56993,26.89833" data-paper-data="{&quot;fixed&quot;:true}" id="path6474 1" stroke="#000000" stroke-width="13.99644" stroke-miterlimit="4"/><path d="M220.79025,265.62077c-8.96613,29.13981 -31.38134,73.97033 -29.13981,77.33262c2.24137,3.36232 29.13981,5.60375 36.98519,0" data-paper-data="{&quot;fixed&quot;:true}" id="path6476 1" stroke="#000000" stroke-width="13.99644" stroke-miterlimit="4"/><path d="M184.92584,256.65466c19.05299,1.12095 1.12095,5.60375 24.6568,3.36232" data-paper-data="{&quot;fixed&quot;:true}" id="path6478 1" stroke="#000000" stroke-width="13.99644" stroke-miterlimit="4"/><path d="M258.76994,269.22442c19.05299,1.12095 1.12095,5.60375 24.6568,3.36232" data-paper-data="{&quot;fixed&quot;:true}" id="path6478-5 1" stroke="#000000" stroke-width="13.99644" stroke-miterlimit="4"/><path d="M201.73729,378.81779c47.74458,6.05197 53.79181,-0.51465 56.01084,-2.73387" data-paper-data="{&quot;fixed&quot;:true}" id="path6495 1" stroke="#000000" stroke-width="13.99644" stroke-miterlimit="4"/><path d="M74.55,191.5c-3.96711,-13.54622 3.84696,-21.3754 16.95,-26c22.01075,-7.7685 47.80292,-10 71,-10c4.21458,0 28.39155,1.21691 30,-2c1.56854,-3.13708 0,-18.71518 0,-22c0,-17.3172 -2.67466,-34.77056 -4,-52c-0.24219,-3.14843 -3.05626,-14.12124 -1,-17c2.68009,-3.75213 13.40584,2.13528 16,3c18.14408,6.04803 39.06073,5.9968 58,5c24.84671,-1.30772 51.95907,-1.13116 76,-8c3.20729,-0.91637 28.50896,-7.11828 30,-6c4.37776,3.28332 2,19.69672 2,24c0,19.59053 -7,38.29263 -7,58c0,7.35371 -1.49937,14.00084 3,20" data-paper-data="{&quot;fixed&quot;:true}" stroke="#940b0b" stroke-width="7" stroke-miterlimit="10"/><path d="M195.55,57.5c5.68788,-9.64047 28.48233,-10.38425 38.95,-11c38.3794,-2.25761 88.47026,-9.71784 123,11" data-paper-data="{&quot;fixed&quot;:true}" stroke="#940b0b" stroke-width="7" stroke-miterlimit="10"/><path d="M219.55,112.5c28.23261,16.24898 66.31224,8.81888 93.95,-5" data-paper-data="{&quot;fixed&quot;:true}" stroke="#940b0b" stroke-width="7" stroke-miterlimit="10"/></g></svg>