<svg version="1.1" xmlns="http://www.w3.org/2000/svg" xmlns:xlink="http://www.w3.org/1999/xlink" width="529" height="529"><g fill="none" fill-rule="nonzero" stroke="none" stroke-width="none" stroke-linecap="round" stroke-linejoin="round" stroke-miterlimit="none" stroke-dasharray="" stroke-dashoffset="0" font-family="none" font-weight="none" font-size="none" text-anchor="none" style="mix-blend-mode: normal"><path d="M214.911,248.21209c21.41815,40.204 24.6715,37.1358 25.28514,47.9803c0.63533,10.8445 45.3919,6.8241 52.3054,5.29c6.91398,-1.587 4.9726,-6.5596 4.761,-10.8974c-0.22534,-4.232 20.45008,-31.1581 22.90464,-37.4003" data-paper-data="{&quot;fixed&quot;:true}" id="path53808-0 1" stroke="#5d5955" stroke-width="13.38333" stroke-miterlimit="4"/><path d="M356.26778,80.60902c-15.75838,-16.4519 -155.62915,-4.761 -167.25239,3.174c-14.70567,9.6807 -96.34656,123.59556 -82.02817,146.27379c14.3195,22.6941 303.19882,20.7368 314.34491,5.3958c11.26929,-15.2881 -49.66961,-151.4527 -55.4364,-152.47896" data-paper-data="{&quot;fixed&quot;:true}" id="path52838-6 1" stroke="#eacd46" stroke-width="11.10868" stroke-miterlimit="4"/><path d="M313.40306,94.55346c41.01178,2.645 48.33261,-7.5647 49.62866,9.2575c1.11143,14.6004 -43.26532,0.04761 -41.45614,14.6004c1.9044,15.4468 43.22829,-11.0032 46.45466,4.232c3.0682,14.5475 -42.90031,7.3531 -39.02803,21.7419c4.1791,15.5526 43.55627,-16.2403 48.31674,-1.058c5.41172,17.5099 -51.83988,12.9076 -45.88334,30.2059c5.0255,14.6533 41.31331,-18.4092 46.33352,-3.703c3.9675,11.5851 -34.90712,8.6227 -30.78145,20.1549c4.761,13.3837 37.46219,-17.8273 42.44537,-4.761c8.65391,23.1702 -80.51847,27.4551 -60.83569,42.4258c9.40282,8.993 59.94959,-8.5698 67.28076,-11.7438" data-paper-data="{&quot;fixed&quot;:true}" id="path54109-2 1" stroke="#fcf3c6" stroke-width="11.10868" stroke-miterlimit="4"/><path d="M249.55,298.5c3.16022,16.63273 7.122,49.14 3.95,65" data-paper-data="{&quot;fixed&quot;:true}" stroke="#940b0b" stroke-width="7" stroke-miterlimit="10"/><path d="M290.55,305.5c-0.21514,21.51398 -3.11431,43.54981 -0.05,65" data-paper-data="{&quot;fixed&quot;:true}" stroke="#940b0b" stroke-width="7" stroke-miterlimit="10"/><path d="M247.55,367.5c16.35944,-2.05779 31.94745,-1.00064 47.95,3c9.51021,2.37755 19.36278,5.82018 18,9c-1.49333,3.48444 -13.50559,3.92135 -15,4c-11.10845,0.58466 -24.16785,0.57908 -35,-2c-4.10171,-0.9766 -8.07032,-2.47179 -12,-4c-2.08403,-0.81045 -6,-0.76393 -6,-3c0,-7.04842 14.35748,-5.1095 16,-5c10.9693,0.73129 24.35024,1.16006 35,4c3.87834,1.03422 11.33301,4.73378 9,8c-0.25693,0.3597 -10.48795,3 -12,3c-11.72711,0 -25.74862,-2.24954 -37,-6c-2.40832,-0.80277 -4.63062,-2.0887 -7,-3c-1.96767,-0.75679 -6.78296,-0.0426 -6,-2c1.05772,-2.6443 5.19075,-2.53179 8,-3c8.56112,-1.42685 23.64203,0.03342 32,2c3.07822,0.72429 5.95939,2.13126 9,3c1.63428,0.46694 5.94281,-0.41421 5,1c-2.42655,3.63982 -15.34533,1.2482 -17,1c-14.05518,-2.10828 -26.68047,-8 -41,-8c-3.34071,0 -9.66639,-1.20049 -12,3c-2.84402,5.11923 3.06851,10.55709 6,13c9.32429,7.77024 25.85884,6.50718 36,2c3.40557,-1.51359 6.80431,-3.08259 10,-5c1.83021,-1.09813 5.88321,-2.05694 5,-4c-4.89146,-10.7612 -25.00446,-8 -33,-8c-1.97842,0 -15,-0.72505 -15,4c0,5.08811 8.27581,6.11032 13,8c10.2814,4.11256 18.01263,4.47679 29,5c3.32956,0.15855 6.67242,0.19574 10,0c2.35296,-0.13841 7,1.35702 7,-1c0,-2.53859 -4.54499,-2.35395 -7,-3c-12.29338,-3.2351 -24.42336,-3 -37,-3c-2.66667,0 -6.33415,-2.08232 -8,0c-3.52764,4.40955 5.94473,5.48964 14,7c11.24539,2.10851 22.72548,2.87909 34,1c6.32327,-1.05388 13.05841,-1.59112 13,-2c-0.50517,-3.53621 -8.73635,-6.98011 -12,-8c-11.84006,-3.70002 -21.81028,-3.35844 -34,-4c-2.95316,-0.15543 -17.7298,-3.40529 -20,0c-1.07814,1.61722 1.31791,4.02616 3,5c4.92947,2.8539 10.48629,4.57052 16,6c11.96406,3.10179 27.8667,4.02222 40,2c1.65855,-0.27642 10.6581,-0.01929 8,-6c-1.79343,-4.03521 -18.75235,-7.97028 -19,-8c-14.58154,-1.74978 -30.8876,4.17752 -45,7" data-paper-data="{&quot;fixed&quot;:true}" stroke="#940b0b" stroke-width="7" stroke-miterlimit="10"/><path d="M260.55,377.5c-0.10674,21.34846 0.95,42.71635 0.95,64c0,6.98796 -1.39053,12.04733 0,19" data-paper-data="{&quot;fixed&quot;:true}" stroke="#940b0b" stroke-width="7" stroke-miterlimit="10"/><path d="M284.55,381.5c5.41027,28.47509 2.95,60.12282 2.95,89" data-paper-data="{&quot;fixed&quot;:true}" stroke="#940b0b" stroke-width="7" stroke-miterlimit="10"/><path d="M265.55,441.5c-5.13332,0 -12.18932,-1.2094 -17.05,1c-12.11987,5.50903 -21.12208,18.23674 -13,31c9.24983,14.53545 29.84314,16.10842 45,17c15.5818,0.91658 41.88532,-3.26152 40,-24c-0.3266,-3.59257 -1.33149,-7.33149 -4,-10c-7.50504,-7.50504 -24.25791,-8 -34,-8" data-paper-data="{&quot;fixed&quot;:true}" stroke="#940b0b" stroke-width="7" stroke-miterlimit="10"/><path d="M76.55,194.5c-3.50003,-20.00019 -1.70443,-39.25824 -8.05,-59c-2.51847,-7.83523 -5.77868,-12.90845 -11,-19c-1.84072,-2.1475 -6,-3.17157 -6,-6c0,-2.23607 3.96436,2.07471 6,3c2.85733,1.29879 12.24413,4.73662 14,5c12.81196,1.92179 25.46009,-0.13103 34,-11c10.84755,-13.80598 15.30272,-36.14202 18,-53c1.05852,-6.61577 -0.77245,-13.90062 2,-20c2.29153,-5.04137 5.83928,-2.58036 9,-1c14.71693,7.35847 31.58747,16.67885 49,14c22.56089,-3.47091 34.77594,-26.14459 50,-32c1.58638,-0.61015 3.70249,-0.09789 5,1c11.84811,10.02532 13.24688,18.61507 30,24c20.6906,6.65055 54.82417,-10.63137 72,-20c4.57449,-2.49517 21.45547,-14.05937 26,-8c4.04475,5.393 1.97494,13.33714 3,20c2.01471,13.09562 5.32771,24.21848 17,32c10.37659,6.91773 23.73498,9.1681 36,8c5.07605,-0.48343 10.57281,-5.52982 15,-3c4.36432,2.4939 0.29564,12.42326 0,14c-1.56945,8.37042 -5.42064,19.69274 -2,28c6.71582,16.30985 22.646,9.19467 30,19c8.2674,11.02321 -11.02476,38.1819 -6,52c6.96742,19.16039 27.50718,20.50239 44,26" data-paper-data="{&quot;fixed&quot;:true}" stroke="#ffb16c" stroke-width="7" stroke-miterlimit="10"/></g></svg>