<svg version="1.1" xmlns="http://www.w3.org/2000/svg" xmlns:xlink="http://www.w3.org/1999/xlink" width="529" height="529"><g fill="none" fill-rule="nonzero" stroke="none" stroke-width="none" stroke-linecap="round" stroke-linejoin="round" stroke-miterlimit="none" stroke-dasharray="" stroke-dashoffset="0" font-family="none" font-weight="none" font-size="none" text-anchor="none" style="mix-blend-mode: normal"><path d="M159.7398,302.22828c108.84362,35.7075 223.1954,22.9057 224.81401,7.4589c1.63673,-15.4468 -114.99548,-56.22741 -206.14047,-23.1173" data-paper-data="{&quot;fixed&quot;:true}" id="path27410-0-4 1" stroke="#5d5955" stroke-width="12.18054" stroke-miterlimit="4"/><path d="M276.20605,305.69852c-4.90118,-60.57579 -9.45529,-121.20448 0,-183.92801" data-paper-data="{&quot;fixed&quot;:true}" id="path31436-4 1" stroke="#a57213" stroke-width="18.96893" stroke-miterlimit="4"/><path d="M278.61899,198.35913c21.91986,-17.0867 42.02461,-17.1396 45.94365,-15.87" data-paper-data="{&quot;fixed&quot;:true}" id="path32263-7 1" stroke="#a57213" stroke-width="7.2217" stroke-miterlimit="4"/><path d="M264.83256,230.16261c-31.70657,-17.0338 -28.18565,-46.4462 -50.10672,-44.5418" data-paper-data="{&quot;fixed&quot;:true}" id="path32265-6 1" stroke="#a57213" stroke-width="7.2217" stroke-miterlimit="4"/><path d="M280.74795,121.54833c0.86544,-29.2537 27.86105,-42.2671 36.58458,-48.5622" data-paper-data="{&quot;fixed&quot;:true}" id="path32267-3 1" stroke="#a57213" stroke-width="9.34002" stroke-miterlimit="4"/><path d="M276.20605,121.77051c-15.13654,-23.9108 -22.4013,-27.2435 -31.52919,-30.3117" data-paper-data="{&quot;fixed&quot;:true}" id="path32426-1 1" stroke="#a57213" stroke-width="9.34002" stroke-miterlimit="4"/><path d="M244.67616,91.43236c0,0 2.06998,-8.9401 -0.8665,-11.638c-2.93701,-2.645 -7.76551,-5.7132 -7.76551,-5.7132" data-paper-data="{&quot;fixed&quot;:true}" id="path32428-7 1" stroke="#a57213" stroke-width="4.52558" stroke-miterlimit="4"/><path d="M244.67616,91.43236c-28.25579,8.7285 -29.18504,10.4213 -29.57983,12.4315" data-paper-data="{&quot;fixed&quot;:true}" id="path32430-5 1" stroke="#a57213" stroke-width="4.52558" stroke-miterlimit="4"/><path d="M324.56514,182.46268c0,0 -2.06998,-8.9401 0.86491,-11.638c2.93701,-2.645 7.76551,-5.7132 7.76551,-5.7132" data-paper-data="{&quot;fixed&quot;:true}" id="path32428-3-9 1" stroke="#a57213" stroke-width="4.52558" stroke-miterlimit="4"/><path d="M324.56514,182.46268c28.25579,8.7285 29.18456,10.4213 29.57935,12.4315" data-paper-data="{&quot;fixed&quot;:true}" id="path32430-8-6 1" stroke="#a57213" stroke-width="4.52558" stroke-miterlimit="4"/><path d="M317.33055,72.99671c0,0 8.87768,3.174 12.68584,2.116c3.80298,-1.058 7.66431,2.645 7.66431,2.645" data-paper-data="{&quot;fixed&quot;:true}" id="path32428-9-2 1" stroke="#a57213" stroke-width="4.52558" stroke-miterlimit="4"/><path d="M276.20605,121.77051c0,0 7.76551,-10.2097 11.57367,-11.3735c3.80298,-1.058 10.77462,2.116 10.77462,2.116" data-paper-data="{&quot;fixed&quot;:true}" id="path32428-9-8-1 1" stroke="#a57213" stroke-width="4.52558" stroke-miterlimit="4"/><path d="M317.33055,72.99671c6.55696,-28.8305 -19.56549,-15.2352 -21.1254,-16.5577" data-paper-data="{&quot;fixed&quot;:true}" id="path32430-6-7 1" stroke="#a57213" stroke-width="4.52558" stroke-miterlimit="4"/><path d="M265.00344,163.5668c0,0 -0.96278,-10.1039 -3.85165,-12.8018c-2.93701,-2.645 -7.76535,-5.7132 -7.76535,-5.7132" data-paper-data="{&quot;fixed&quot;:true}" id="path32428-5-8 1" stroke="#a57213" stroke-width="4.52558" stroke-miterlimit="4"/><path d="M215.22753,184.60513c0,0 2.06998,-8.9401 -0.8665,-11.638c-2.93701,-2.645 -7.76551,-5.7132 -7.76551,-5.7132" data-paper-data="{&quot;fixed&quot;:true}" id="path32428-5-4-5 1" stroke="#a57213" stroke-width="4.52558" stroke-miterlimit="4"/><path d="M215.22753,184.60513c-20.75955,18.0918 -27.9284,11.9554 -29.57501,12.4315" data-paper-data="{&quot;fixed&quot;:true}" id="path32430-0-7 1" stroke="#a57213" stroke-width="4.52558" stroke-miterlimit="4"/><path d="M179.20101,200.16302c-4.2849,11.4264 -14.37584,24.9688 -24.00935,27.508" data-paper-data="{&quot;fixed&quot;:true}" id="path34239-4 1" stroke="#1d810f" stroke-width="8.18458" stroke-miterlimit="4"/><path d="M179.20101,200.16302c-29.95537,8.6756 -24.50524,27.0319 -24.00935,27.508" data-paper-data="{&quot;fixed&quot;:true}" id="path34241-1 1" stroke="#1d810f" stroke-width="8.18458" stroke-miterlimit="4"/><path d="M183.83265,198.7982c-19.86882,13.0134 -25.8052,21.3716 -28.64101,28.8834" data-paper-data="{&quot;fixed&quot;:true}" id="path34237-8 1" stroke="#5ae733" stroke-width="2.88867" stroke-miterlimit="4"/><path d="M179.08995,194.13771c-11.4975,4.232 -28.3307,5.29 -36.49381,-0.51842" data-paper-data="{&quot;fixed&quot;:true}" id="path34239-5-9 1" stroke="#1d810f" stroke-width="8.18453" stroke-miterlimit="4"/><path d="M179.08995,194.13771c-26.00183,-17.2454 -36.44583,-1.058 -36.49381,-0.51842" data-paper-data="{&quot;fixed&quot;:true}" id="path34241-6-7 1" stroke="#1d810f" stroke-width="8.18453" stroke-miterlimit="4"/><path d="M185.65025,197.03134c-14.30596,-7.2473 -33.82304,-6.2951 -40.53489,-3.174" data-paper-data="{&quot;fixed&quot;:true}" id="path34237-1-5 1" stroke="#5ae733" stroke-width="2.88867" stroke-miterlimit="4"/><path d="M208.53881,100.97023c-11.49744,4.232 -28.3307,5.29 -36.49375,-0.51842" data-paper-data="{&quot;fixed&quot;:true}" id="path34239-5-3-8 1" stroke="#1d810f" stroke-width="8.18453" stroke-miterlimit="4"/><path d="M208.53881,100.97023c-26.00178,-17.2454 -36.44583,-1.058 -36.49375,-0.51842" data-paper-data="{&quot;fixed&quot;:true}" id="path34241-6-0-3 1" stroke="#1d810f" stroke-width="8.18453" stroke-miterlimit="4"/><path d="M215.09914,103.86386c-22.78027,-6.7183 -32.99225,-5.8719 -40.53489,-3.174" data-paper-data="{&quot;fixed&quot;:true}" id="path34237-1-4-1 1" stroke="#5ae733" stroke-width="2.88867" stroke-miterlimit="4"/><path d="M209.59365,108.45558c-1.42513,12.1141 -7.94674,27.6667 -16.68286,32.4806" data-paper-data="{&quot;fixed&quot;:true}" id="path34239-5-3-4-4 1" stroke="#1d810f" stroke-width="8.18453" stroke-miterlimit="4"/><path d="M209.59365,108.45558c-26.98127,15.6584 -17.28354,32.1103 -16.68286,32.4806" data-paper-data="{&quot;fixed&quot;:true}" id="path34241-6-0-7-3 1" stroke="#1d810f" stroke-width="8.18453" stroke-miterlimit="4"/><path d="M215.09884,103.86386c-16.15127,17.4041 -19.90241,26.979 -20.84858,34.914" data-paper-data="{&quot;fixed&quot;:true}" id="path34237-1-4-6-3 1" stroke="#5ae733" stroke-width="2.88867" stroke-miterlimit="4"/><path d="M199.49409,166.33347c-9.86945,7.1944 -25.71855,12.9605 -35.1594,9.7865" data-paper-data="{&quot;fixed&quot;:true}" id="path34239-1-3 1" stroke="#1d810f" stroke-width="8.18458" stroke-miterlimit="4"/><path d="M199.49409,166.33347c-29.80566,-9.2046 -35.30863,9.0988 -35.1594,9.7865" data-paper-data="{&quot;fixed&quot;:true}" id="path34241-5-8 1" stroke="#1d810f" stroke-width="8.18458" stroke-miterlimit="4"/><path d="M206.60398,167.25393c-23.75411,-0.03174 -33.30584,3.703 -39.78143,8.4111" data-paper-data="{&quot;fixed&quot;:true}" id="path34237-9-6 1" stroke="#5ae733" stroke-width="2.88867" stroke-miterlimit="4"/><path d="M202.71016,161.23391c-11.86436,-2.645 -26.51745,-11.2148 -30.20717,-20.4723" data-paper-data="{&quot;fixed&quot;:true}" id="path34239-5-4-4 1" stroke="#1d810f" stroke-width="8.18453" stroke-miterlimit="4"/><path d="M202.71016,161.23391c-12.271,-28.6718 -29.78582,-21.0542 -30.20717,-20.4723" data-paper-data="{&quot;fixed&quot;:true}" id="path34241-6-8-8 1" stroke="#1d810f" stroke-width="8.18453" stroke-miterlimit="4"/><path d="M203.71347,164.74647c-14.32384,-16.0816 -24.02819,-22.3767 -32.1312,-24.9159" data-paper-data="{&quot;fixed&quot;:true}" id="path34237-1-1-8 1" stroke="#5ae733" stroke-width="2.88867" stroke-miterlimit="4"/><path d="M228.94273,73.1607c-9.86945,7.1944 -25.71855,12.9605 -35.15946,9.7865" data-paper-data="{&quot;fixed&quot;:true}" id="path34239-1-4-89 1" stroke="#1d810f" stroke-width="8.18458" stroke-miterlimit="4"/><path d="M228.94273,73.1607c-29.80561,-9.2046 -35.30869,9.0988 -35.15946,9.7865" data-paper-data="{&quot;fixed&quot;:true}" id="path34241-5-1-7 1" stroke="#1d810f" stroke-width="8.18458" stroke-miterlimit="4"/><path d="M236.05262,74.08645c-23.75422,-0.03174 -33.30584,3.703 -39.78149,8.4111" data-paper-data="{&quot;fixed&quot;:true}" id="path34237-9-8-76 1" stroke="#5ae733" stroke-width="2.88867" stroke-miterlimit="4"/><path d="M232.15881,68.06643c-11.86436,-2.645 -26.51745,-11.2148 -30.20722,-20.4723" data-paper-data="{&quot;fixed&quot;:true}" id="path34239-5-4-9-3 1" stroke="#1d810f" stroke-width="8.18453" stroke-miterlimit="4"/><path d="M232.15881,68.06643c-12.27105,-28.6718 -29.78587,-21.0542 -30.20717,-20.4723" data-paper-data="{&quot;fixed&quot;:true}" id="path34241-6-8-7-0 1" stroke="#1d810f" stroke-width="8.18453" stroke-miterlimit="4"/><path d="M236.05294,74.08645c-15.33947,-18.1447 -24.35447,-23.0115 -32.1312,-24.9159" data-paper-data="{&quot;fixed&quot;:true}" id="path34237-1-1-5-30 1" stroke="#5ae733" stroke-width="2.88867" stroke-miterlimit="4"/><path d="M289.09611,55.51326c-9.86945,7.1944 -25.7185,12.9605 -35.15946,9.7865" data-paper-data="{&quot;fixed&quot;:true}" id="path34239-1-4-2-9 1" stroke="#1d810f" stroke-width="8.18458" stroke-miterlimit="4"/><path d="M289.09611,55.51326c-29.80566,-9.2046 -35.30869,9.0988 -35.15946,9.7865" data-paper-data="{&quot;fixed&quot;:true}" id="path34241-5-1-1-2 1" stroke="#1d810f" stroke-width="8.18458" stroke-miterlimit="4"/><path d="M296.20648,56.43901c-23.75422,-0.03174 -33.30584,3.703 -39.78149,8.4111" data-paper-data="{&quot;fixed&quot;:true}" id="path34237-9-8-0-5 1" stroke="#5ae733" stroke-width="2.88867" stroke-miterlimit="4"/><path d="M292.31214,50.41899c-11.86436,-2.645 -26.5175,-11.2148 -30.20717,-20.4723" data-paper-data="{&quot;fixed&quot;:true}" id="path34239-5-4-9-1-0 1" stroke="#1d810f" stroke-width="8.18453" stroke-miterlimit="4"/><path d="M292.31214,50.41899c-12.27105,-28.6718 -29.78587,-21.0542 -30.20717,-20.4723" data-paper-data="{&quot;fixed&quot;:true}" id="path34241-6-8-7-1-5 1" stroke="#1d810f" stroke-width="8.18453" stroke-miterlimit="4"/><path d="M296.20629,56.43901c-15.33952,-18.1447 -24.35447,-23.0115 -32.1312,-24.9159" data-paper-data="{&quot;fixed&quot;:true}" id="path34237-1-1-5-0-9 1" stroke="#5ae733" stroke-width="2.88867" stroke-miterlimit="4"/><path d="M358.71834,200.41165c-0.80778,12.167 2.7709,28.6718 10.49007,34.9669" data-paper-data="{&quot;fixed&quot;:true}" id="path34239-1-4-8-6 1" stroke="#1d810f" stroke-width="8.18453" stroke-miterlimit="4"/><path d="M358.71834,200.41165c23.67942,20.3136 11.14465,34.7024 10.49007,34.9669" data-paper-data="{&quot;fixed&quot;:true}" id="path34241-5-1-9-92 1" stroke="#1d810f" stroke-width="8.18453" stroke-miterlimit="4"/><path d="M354.14202,194.88889c12.70769,20.0491 14.65854,30.153 14.1407,38.1409" data-paper-data="{&quot;fixed&quot;:true}" id="path34237-9-8-7-2 1" stroke="#5ae733" stroke-width="2.88867" stroke-miterlimit="4"/><path d="M361.31131,194.96824c8.7696,8.5169 23.6554,16.399 33.44682,14.6004" data-paper-data="{&quot;fixed&quot;:true}" id="path34239-5-4-9-6-4 1" stroke="#1d810f" stroke-width="8.18453" stroke-miterlimit="4"/><path d="M361.31131,194.96824c30.79785,-4.761 33.69016,13.9656 33.44682,14.6004" data-paper-data="{&quot;fixed&quot;:true}" id="path34241-6-8-7-4-7 1" stroke="#1d810f" stroke-width="8.18453" stroke-miterlimit="4"/><path d="M354.14202,194.88889c23.52632,3.174 32.46235,8.3053 38.22057,13.8598" data-paper-data="{&quot;fixed&quot;:true}" id="path34237-1-1-5-3-7 1" stroke="#5ae733" stroke-width="2.88867" stroke-miterlimit="4"/><path d="M342.25649,83.35453c-0.80778,12.167 2.7709,28.6718 10.49007,34.9669" data-paper-data="{&quot;fixed&quot;:true}" id="path34239-1-4-8-4-4 1" stroke="#1d810f" stroke-width="8.18453" stroke-miterlimit="4"/><path d="M342.25649,83.35453c23.67942,20.3136 11.14465,34.7553 10.49007,34.9669" data-paper-data="{&quot;fixed&quot;:true}" id="path34241-5-1-9-7-8 1" stroke="#1d810f" stroke-width="8.18453" stroke-miterlimit="4"/><path d="M337.68017,77.83706c12.70769,20.0491 14.65854,30.153 14.1407,38.1409" data-paper-data="{&quot;fixed&quot;:true}" id="path34237-9-8-7-7-1 1" stroke="#5ae733" stroke-width="2.88867" stroke-miterlimit="4"/><path d="M344.84949,77.91641c8.7696,8.5169 23.65545,16.399 33.44687,14.6004" data-paper-data="{&quot;fixed&quot;:true}" id="path34239-5-4-9-6-5-2 1" stroke="#1d810f" stroke-width="8.18453" stroke-miterlimit="4"/><path d="M344.84949,77.91641c30.79785,-4.761 33.69011,13.9656 33.44687,14.6004" data-paper-data="{&quot;fixed&quot;:true}" id="path34241-6-8-7-4-4-8 1" stroke="#1d810f" stroke-width="8.18453" stroke-miterlimit="4"/><path d="M337.68017,77.83706c23.52632,3.174 32.46235,8.3053 38.22057,13.8598" data-paper-data="{&quot;fixed&quot;:true}" id="path34237-1-1-5-3-8-9 1" stroke="#5ae733" stroke-width="2.88867" stroke-miterlimit="4"/><path d="M299.75602,119.8185c-6.78961,10.1568 -11.93186,26.2384 -8.3928,35.5488" data-paper-data="{&quot;fixed&quot;:true}" id="path34239-1-4-8-2-6 1" stroke="#1d810f" stroke-width="8.18453" stroke-miterlimit="4"/><path d="M299.75602,119.8185c10.35766,29.4124 -7.70801,35.6546 -8.39285,35.5488" data-paper-data="{&quot;fixed&quot;:true}" id="path34241-5-1-9-8-8 1" stroke="#1d810f" stroke-width="8.18453" stroke-miterlimit="4"/><path d="M298.55221,112.75106c0.97019,23.7521 -2.36992,33.4328 -6.81294,40.0982" data-paper-data="{&quot;fixed&quot;:true}" id="path34237-9-8-7-9-0 1" stroke="#5ae733" stroke-width="2.88867" stroke-miterlimit="4"/><path d="M304.72156,116.40116c3.34804,11.7438 12.27418,26.0797 21.66281,29.3595" data-paper-data="{&quot;fixed&quot;:true}" id="path34239-5-4-9-6-3-2 1" stroke="#1d810f" stroke-width="8.18453" stroke-miterlimit="4"/><path d="M304.72156,116.40116c29.13764,11.109 22.19949,28.9363 21.66281,29.3595" data-paper-data="{&quot;fixed&quot;:true}" id="path34241-6-8-7-4-6-1 1" stroke="#1d810f" stroke-width="8.18453" stroke-miterlimit="4"/><path d="M298.55221,112.75106c18.73078,14.6004 23.96005,23.4347 26.16619,31.1052" data-paper-data="{&quot;fixed&quot;:true}" id="path34237-1-1-5-3-80-0 1" stroke="#5ae733" stroke-width="2.88867" stroke-miterlimit="4"/><path d="M337.22552,159.18668c-1.92609,-12.0612 0.06209,-28.7776 7.15388,-35.8133" data-paper-data="{&quot;fixed&quot;:true}" id="path34239-1-4-8-5-5 1" stroke="#1d810f" stroke-width="8.18458" stroke-miterlimit="4"/><path d="M337.22552,159.18668c21.66467,-22.4296 7.82804,-35.6017 7.15388,-35.8133" data-paper-data="{&quot;fixed&quot;:true}" id="path34241-5-1-9-9-1 1" stroke="#1d810f" stroke-width="8.18458" stroke-miterlimit="4"/><path d="M333.18862,165.11148c10.76489,-21.16 11.76147,-31.3697 10.49049,-39.3047" data-paper-data="{&quot;fixed&quot;:true}" id="path34237-9-8-7-4-1 1" stroke="#5ae733" stroke-width="2.88867" stroke-miterlimit="4"/><path d="M340.31873,164.3603c7.92913,-9.3104 22.00651,-18.5679 31.92404,-17.6686" data-paper-data="{&quot;fixed&quot;:true}" id="path34239-5-4-9-6-6-0 1" stroke="#1d810f" stroke-width="8.18458" stroke-miterlimit="4"/><path d="M340.31873,164.3603c31.12488,2.116 32.22737,-17.0867 31.92404,-17.6686" data-paper-data="{&quot;fixed&quot;:true}" id="path34241-6-8-7-4-9-8 1" stroke="#1d810f" stroke-width="8.18458" stroke-miterlimit="4"/><path d="M333.18862,165.11148c23.11386,-5.5016 31.53887,-11.3206 36.74831,-17.4041" data-paper-data="{&quot;fixed&quot;:true}" id="path34237-1-1-5-3-2-5 1" stroke="#5ae733" stroke-width="2.88867" stroke-miterlimit="4"/><path d="M246.25096,144.12076c-9.86939,7.1944 -25.7186,12.9605 -35.15946,9.7865" data-paper-data="{&quot;fixed&quot;:true}" id="path34239-1-4-8-0-0 1" stroke="#1d810f" stroke-width="8.18458" stroke-miterlimit="4"/><path d="M246.25096,144.12076c-29.80613,-9.2046 -35.30869,9.0988 -35.15946,9.7865" data-paper-data="{&quot;fixed&quot;:true}" id="path34241-5-1-9-3-6 1" stroke="#1d810f" stroke-width="8.18458" stroke-miterlimit="4"/><path d="M253.36133,145.04122c-23.75416,-0.03174 -33.30584,3.703 -39.78143,8.4111" data-paper-data="{&quot;fixed&quot;:true}" id="path34237-9-8-7-0-4 1" stroke="#5ae733" stroke-width="2.88867" stroke-miterlimit="4"/><path d="M249.46695,140.0263c-11.86261,-3.174 -26.51776,-11.2148 -30.20527,-20.4723" data-paper-data="{&quot;fixed&quot;:true}" id="path34239-5-4-9-6-9-6 1" stroke="#1d810f" stroke-width="8.18458" stroke-miterlimit="4"/><path d="M249.46695,139.0212c-12.2719,-28.6718 -29.78635,-21.0542 -30.20527,-20.4723" data-paper-data="{&quot;fixed&quot;:true}" id="path34241-6-8-7-4-2-2 1" stroke="#1d810f" stroke-width="8.18458" stroke-miterlimit="4"/><path d="M251.85634,143.03631c-15.33878,-18.1447 -24.35601,-23.0115 -32.13109,-24.9159" data-paper-data="{&quot;fixed&quot;:true}" id="path34237-1-1-5-3-5-5 1" stroke="#5ae733" stroke-width="2.88867" stroke-miterlimit="4"/><path d="M181.65731,326.35597c93.70475,34.9669 172.77237,19.8375 179.27855,17.3512" data-paper-data="{&quot;fixed&quot;:true}" id="path37562-8 1" stroke="#d74619" stroke-width="19.13948" stroke-miterlimit="4"/><path d="M171.55,285.5c-4.8482,14.18985 -11.1016,27.52255 -15.05,42c-1.29396,4.7445 -7.1762,13.56326 -2,18c4.11407,3.52635 33.00662,4.7157 39,6c46.76827,10.02177 96.1011,12 144,12c15.79841,0 38.75649,-1.06737 52,-11c2.66667,-2 6.82959,-2.8789 8,-6c2.46847,-6.58258 -8.53803,-28.69017 -10,-36" data-paper-data="{&quot;fixed&quot;:true}" stroke="#970000" stroke-width="15" stroke-miterlimit="10"/><path d="M204.55,353.5c3.49403,8.95905 2.36391,17.62264 2.95,27c1.29136,20.66179 2.48182,42.25446 1,63c-0.48431,6.7804 -5.88054,25.08533 1,30c0.53415,0.38154 29.34976,-1 32,-1c26.05765,0 53.30927,-3.67104 79,1c8.6851,1.57911 17.2706,2.65702 26,4c2.00401,0.30831 4.39952,2.24482 6,1c6.19133,-4.81548 0.20365,-20.29789 0,-26c-1.04518,-29.26512 0.27469,-59.37347 6,-88" data-paper-data="{&quot;fixed&quot;:true}" stroke="#970000" stroke-width="15" stroke-miterlimit="10"/><path d="M220.55,397.5c3.85908,-2.93094 5.22875,-3.46458 7.95,-8c1.7905,-2.98416 -0.44513,-9.50784 3,-10c6.92969,-0.98996 11.64469,15 20,15c1.55434,0 9.14567,-4.02362 10,-5c1.18205,-1.35092 0.22937,-5.29511 2,-5c4.5301,0.75502 5.05123,12.80055 10,15c4.24308,1.88581 11.07961,-1.07961 14,-4c2.35702,-2.35702 2.69241,-8.41345 6,-8c5.18912,0.64864 9.51907,13.95281 20,13c6.10189,-0.55472 5.90454,-1.87271 9,-6c1,-1.33333 1.3831,-4.40423 3,-4c4.11597,1.02899 4.93629,7.78089 9,9c4.45432,1.3363 7.14145,-0.45658 11,-2" data-paper-data="{&quot;fixed&quot;:true}" stroke="#6c9eff" stroke-width="4" stroke-miterlimit="10"/><path d="M215.55,413.5c16.59411,16.80416 13.99814,-4.86402 21.95,-6c4.41367,-0.63052 7.54458,11.21783 12,13c8.41344,3.36538 8.11073,-5.77756 12,-8c4.43881,-2.53646 11.00455,11.60091 18,13c4.55062,0.91012 11.13141,-1.17522 14,-5c0.11509,-0.15346 3.24777,-9.50064 5,-9c2.31122,0.66035 2.30033,4.30033 4,6c3.54455,3.54455 11.91521,7.78227 17,7c4.76878,-0.73366 17.75886,-15 18,-15c3.35523,0 3.35088,7.83158 4,9c2.60093,4.68167 4.49544,4.09909 9,5" data-paper-data="{&quot;fixed&quot;:true}" stroke="#6c9eff" stroke-width="4" stroke-miterlimit="10"/><path d="M238.5,397.5c0.01667,0 0.03333,0 0.05,0" data-paper-data="{&quot;fixed&quot;:true}" stroke="#ea6cff" stroke-width="4" stroke-miterlimit="10"/><path d="M253.5,401.5c0.01667,0 0.03333,0 0.05,0" data-paper-data="{&quot;fixed&quot;:true}" stroke="#ea6cff" stroke-width="4" stroke-miterlimit="10"/><path d="M272.5,403.5c0.01667,0 0.03333,0 0.05,0" data-paper-data="{&quot;fixed&quot;:true}" stroke="#ea6cff" stroke-width="4" stroke-miterlimit="10"/><path d="M291.5,406.5c0.01667,0 0.03333,0 0.05,0" data-paper-data="{&quot;fixed&quot;:true}" stroke="#ea6cff" stroke-width="4" stroke-miterlimit="10"/><path d="M312.5,407.5c0.01667,0 0.03333,0 0.05,0" data-paper-data="{&quot;fixed&quot;:true}" stroke="#ea6cff" stroke-width="4" stroke-miterlimit="10"/><path d="M328.5,408.5c0.01667,0 0.03333,0 0.05,0" data-paper-data="{&quot;fixed&quot;:true}" stroke="#ea6cff" stroke-width="4" stroke-miterlimit="10"/><path d="M342.5,409.5c0.01667,0 0.03333,0 0.05,0" data-paper-data="{&quot;fixed&quot;:true}" stroke="#ea6cff" stroke-width="4" stroke-miterlimit="10"/></g></svg>