<svg version="1.1" xmlns="http://www.w3.org/2000/svg" xmlns:xlink="http://www.w3.org/1999/xlink" width="529" height="529"><g fill="none" fill-rule="nonzero" stroke="none" stroke-width="none" stroke-linecap="round" stroke-linejoin="round" stroke-miterlimit="none" stroke-dasharray="" stroke-dashoffset="0" font-family="none" font-weight="none" font-size="none" text-anchor="none" style="mix-blend-mode: normal"><path d="M159.7398,302.22828c108.84362,35.7075 223.1954,22.9057 224.81401,7.4589c1.63673,-15.4468 -114.99548,-56.22741 -206.14047,-23.1173" data-paper-data="{&quot;fixed&quot;:true}" id="path27410-0-4 1" stroke="#5d5955" stroke-width="12.18054" stroke-miterlimit="4"/><path d="M276.20605,305.69852c-4.90118,-60.57579 -9.45529,-121.20448 0,-183.92801" data-paper-data="{&quot;fixed&quot;:true}" id="path31436-4 1" stroke="#a57213" stroke-width="18.96893" stroke-miterlimit="4"/><path d="M278.61899,198.35913c21.91986,-17.0867 42.02461,-17.1396 45.94365,-15.87" data-paper-data="{&quot;fixed&quot;:true}" id="path32263-7 1" stroke="#a57213" stroke-width="7.2217" stroke-miterlimit="4"/><path d="M264.83256,230.16261c-31.70657,-17.0338 -28.18565,-46.4462 -50.10672,-44.5418" data-paper-data="{&quot;fixed&quot;:true}" id="path32265-6 1" stroke="#a57213" stroke-width="7.2217" stroke-miterlimit="4"/><path d="M280.74795,121.54833c0.86544,-29.2537 27.86105,-42.2671 36.58458,-48.5622" data-paper-data="{&quot;fixed&quot;:true}" id="path32267-3 1" stroke="#a57213" stroke-width="9.34002" stroke-miterlimit="4"/><path d="M276.20605,121.77051c-15.13654,-23.9108 -22.4013,-27.2435 -31.52919,-30.3117" data-paper-data="{&quot;fixed&quot;:true}" id="path32426-1 1" stroke="#a57213" stroke-width="9.34002" stroke-miterlimit="4"/><path d="M244.67616,91.43236c0,0 2.06998,-8.9401 -0.8665,-11.638c-2.93701,-2.645 -7.76551,-5.7132 -7.76551,-5.7132" data-paper-data="{&quot;fixed&quot;:true}" id="path32428-7 1" stroke="#a57213" stroke-width="4.52558" stroke-miterlimit="4"/><path d="M244.67616,91.43236c-28.25579,8.7285 -29.18504,10.4213 -29.57983,12.4315" data-paper-data="{&quot;fixed&quot;:true}" id="path32430-5 1" stroke="#a57213" stroke-width="4.52558" stroke-miterlimit="4"/><path d="M324.56514,182.46268c0,0 -2.06998,-8.9401 0.86491,-11.638c2.93701,-2.645 7.76551,-5.7132 7.76551,-5.7132" data-paper-data="{&quot;fixed&quot;:true}" id="path32428-3-9 1" stroke="#a57213" stroke-width="4.52558" stroke-miterlimit="4"/><path d="M324.56514,182.46268c28.25579,8.7285 29.18456,10.4213 29.57935,12.4315" data-paper-data="{&quot;fixed&quot;:true}" id="path32430-8-6 1" stroke="#a57213" stroke-width="4.52558" stroke-miterlimit="4"/><path d="M317.33055,72.99671c0,0 8.87768,3.174 12.68584,2.116c3.80298,-1.058 7.66431,2.645 7.66431,2.645" data-paper-data="{&quot;fixed&quot;:true}" id="path32428-9-2 1" stroke="#a57213" stroke-width="4.52558" stroke-miterlimit="4"/><path d="M276.20605,121.77051c0,0 7.76551,-10.2097 11.57367,-11.3735c3.80298,-1.058 10.77462,2.116 10.77462,2.116" data-paper-data="{&quot;fixed&quot;:true}" id="path32428-9-8-1 1" stroke="#a57213" stroke-width="4.52558" stroke-miterlimit="4"/><path d="M317.33055,72.99671c6.55696,-28.8305 -19.56549,-15.2352 -21.1254,-16.5577" data-paper-data="{&quot;fixed&quot;:true}" id="path32430-6-7 1" stroke="#a57213" stroke-width="4.52558" stroke-miterlimit="4"/><path d="M265.00344,163.5668c0,0 -0.96278,-10.1039 -3.85165,-12.8018c-2.93701,-2.645 -7.76535,-5.7132 -7.76535,-5.7132" data-paper-data="{&quot;fixed&quot;:true}" id="path32428-5-8 1" stroke="#a57213" stroke-width="4.52558" stroke-miterlimit="4"/><path d="M215.22753,184.60513c0,0 2.06998,-8.9401 -0.8665,-11.638c-2.93701,-2.645 -7.76551,-5.7132 -7.76551,-5.7132" data-paper-data="{&quot;fixed&quot;:true}" id="path32428-5-4-5 1" stroke="#a57213" stroke-width="4.52558" stroke-miterlimit="4"/><path d="M215.22753,184.60513c-20.75955,18.0918 -27.9284,11.9554 -29.57501,12.4315" data-paper-data="{&quot;fixed&quot;:true}" id="path32430-0-7 1" stroke="#a57213" stroke-width="4.52558" stroke-miterlimit="4"/><path d="M179.20101,200.16302c-4.2849,11.4264 -14.37584,24.9688 -24.00935,27.508" data-paper-data="{&quot;fixed&quot;:true}" id="path34239-4 1" stroke="#1d810f" stroke-width="8.18458" stroke-miterlimit="4"/><path d="M179.20101,200.16302c-29.95537,8.6756 -24.50524,27.0319 -24.00935,27.508" data-paper-data="{&quot;fixed&quot;:true}" id="path34241-1 1" stroke="#1d810f" stroke-width="8.18458" stroke-miterlimit="4"/><path d="M183.83265,198.7982c-19.86882,13.0134 -25.8052,21.3716 -28.64101,28.8834" data-paper-data="{&quot;fixed&quot;:true}" id="path34237-8 1" stroke="#5ae733" stroke-width="2.88867" stroke-miterlimit="4"/><path d="M179.08995,194.13771c-11.4975,4.232 -28.3307,5.29 -36.49381,-0.51842" data-paper-data="{&quot;fixed&quot;:true}" id="path34239-5-9 1" stroke="#1d810f" stroke-width="8.18453" stroke-miterlimit="4"/><path d="M179.08995,194.13771c-26.00183,-17.2454 -36.44583,-1.058 -36.49381,-0.51842" data-paper-data="{&quot;fixed&quot;:true}" id="path34241-6-7 1" stroke="#1d810f" stroke-width="8.18453" stroke-miterlimit="4"/><path d="M185.65025,197.03134c-14.30596,-7.2473 -33.82304,-6.2951 -40.53489,-3.174" data-paper-data="{&quot;fixed&quot;:true}" id="path34237-1-5 1" stroke="#5ae733" stroke-width="2.88867" stroke-miterlimit="4"/><path d="M208.53881,100.97023c-11.49744,4.232 -28.3307,5.29 -36.49375,-0.51842" data-paper-data="{&quot;fixed&quot;:true}" id="path34239-5-3-8 1" stroke="#1d810f" stroke-width="8.18453" stroke-miterlimit="4"/><path d="M208.53881,100.97023c-26.00178,-17.2454 -36.44583,-1.058 -36.49375,-0.51842" data-paper-data="{&quot;fixed&quot;:true}" id="path34241-6-0-3 1" stroke="#1d810f" stroke-width="8.18453" stroke-miterlimit="4"/><path d="M215.09914,103.86386c-22.78027,-6.7183 -32.99225,-5.8719 -40.53489,-3.174" data-paper-data="{&quot;fixed&quot;:true}" id="path34237-1-4-1 1" stroke="#5ae733" stroke-width="2.88867" stroke-miterlimit="4"/><path d="M209.59365,108.45558c-1.42513,12.1141 -7.94674,27.6667 -16.68286,32.4806" data-paper-data="{&quot;fixed&quot;:true}" id="path34239-5-3-4-4 1" stroke="#1d810f" stroke-width="8.18453" stroke-miterlimit="4"/><path d="M209.59365,108.45558c-26.98127,15.6584 -17.28354,32.1103 -16.68286,32.4806" data-paper-data="{&quot;fixed&quot;:true}" id="path34241-6-0-7-3 1" stroke="#1d810f" stroke-width="8.18453" stroke-miterlimit="4"/><path d="M215.09884,103.86386c-16.15127,17.4041 -19.90241,26.979 -20.84858,34.914" data-paper-data="{&quot;fixed&quot;:true}" id="path34237-1-4-6-3 1" stroke="#5ae733" stroke-width="2.88867" stroke-miterlimit="4"/><path d="M199.49409,166.33347c-9.86945,7.1944 -25.71855,12.9605 -35.1594,9.7865" data-paper-data="{&quot;fixed&quot;:true}" id="path34239-1-3 1" stroke="#1d810f" stroke-width="8.18458" stroke-miterlimit="4"/><path d="M199.49409,166.33347c-29.80566,-9.2046 -35.30863,9.0988 -35.1594,9.7865" data-paper-data="{&quot;fixed&quot;:true}" id="path34241-5-8 1" stroke="#1d810f" stroke-width="8.18458" stroke-miterlimit="4"/><path d="M206.60398,167.25393c-23.75411,-0.03174 -33.30584,3.703 -39.78143,8.4111" data-paper-data="{&quot;fixed&quot;:true}" id="path34237-9-6 1" stroke="#5ae733" stroke-width="2.88867" stroke-miterlimit="4"/><path d="M202.71016,161.23391c-11.86436,-2.645 -26.51745,-11.2148 -30.20717,-20.4723" data-paper-data="{&quot;fixed&quot;:true}" id="path34239-5-4-4 1" stroke="#1d810f" stroke-width="8.18453" stroke-miterlimit="4"/><path d="M202.71016,161.23391c-12.271,-28.6718 -29.78582,-21.0542 -30.20717,-20.4723" data-paper-data="{&quot;fixed&quot;:true}" id="path34241-6-8-8 1" stroke="#1d810f" stroke-width="8.18453" stroke-miterlimit="4"/><path d="M203.71347,164.74647c-14.32384,-16.0816 -24.02819,-22.3767 -32.1312,-24.9159" data-paper-data="{&quot;fixed&quot;:true}" id="path34237-1-1-8 1" stroke="#5ae733" stroke-width="2.88867" stroke-miterlimit="4"/><path d="M228.94273,73.1607c-9.86945,7.1944 -25.71855,12.9605 -35.15946,9.7865" data-paper-data="{&quot;fixed&quot;:true}" id="path34239-1-4-89 1" stroke="#1d810f" stroke-width="8.18458" stroke-miterlimit="4"/><path d="M228.94273,73.1607c-29.80561,-9.2046 -35.30869,9.0988 -35.15946,9.7865" data-paper-data="{&quot;fixed&quot;:true}" id="path34241-5-1-7 1" stroke="#1d810f" stroke-width="8.18458" stroke-miterlimit="4"/><path d="M236.05262,74.08645c-23.75422,-0.03174 -33.30584,3.703 -39.78149,8.4111" data-paper-data="{&quot;fixed&quot;:true}" id="path34237-9-8-76 1" stroke="#5ae733" stroke-width="2.88867" stroke-miterlimit="4"/><path d="M232.15881,68.06643c-11.86436,-2.645 -26.51745,-11.2148 -30.20722,-20.4723" data-paper-data="{&quot;fixed&quot;:true}" id="path34239-5-4-9-3 1" stroke="#1d810f" stroke-width="8.18453" stroke-miterlimit="4"/><path d="M232.15881,68.06643c-12.27105,-28.6718 -29.78587,-21.0542 -30.20717,-20.4723" data-paper-data="{&quot;fixed&quot;:true}" id="path34241-6-8-7-0 1" stroke="#1d810f" stroke-width="8.18453" stroke-miterlimit="4"/><path d="M236.05294,74.08645c-15.33947,-18.1447 -24.35447,-23.0115 -32.1312,-24.9159" data-paper-data="{&quot;fixed&quot;:true}" id="path34237-1-1-5-30 1" stroke="#5ae733" stroke-width="2.88867" stroke-miterlimit="4"/><path d="M289.09611,55.51326c-9.86945,7.1944 -25.7185,12.9605 -35.15946,9.7865" data-paper-data="{&quot;fixed&quot;:true}" id="path34239-1-4-2-9 1" stroke="#1d810f" stroke-width="8.18458" stroke-miterlimit="4"/><path d="M289.09611,55.51326c-29.80566,-9.2046 -35.30869,9.0988 -35.15946,9.7865" data-paper-data="{&quot;fixed&quot;:true}" id="path34241-5-1-1-2 1" stroke="#1d810f" stroke-width="8.18458" stroke-miterlimit="4"/><path d="M296.20648,56.43901c-23.75422,-0.03174 -33.30584,3.703 -39.78149,8.4111" data-paper-data="{&quot;fixed&quot;:true}" id="path34237-9-8-0-5 1" stroke="#5ae733" stroke-width="2.88867" stroke-miterlimit="4"/><path d="M292.31214,50.41899c-11.86436,-2.645 -26.5175,-11.2148 -30.20717,-20.4723" data-paper-data="{&quot;fixed&quot;:true}" id="path34239-5-4-9-1-0 1" stroke="#1d810f" stroke-width="8.18453" stroke-miterlimit="4"/><path d="M292.31214,50.41899c-12.27105,-28.6718 -29.78587,-21.0542 -30.20717,-20.4723" data-paper-data="{&quot;fixed&quot;:true}" id="path34241-6-8-7-1-5 1" stroke="#1d810f" stroke-width="8.18453" stroke-miterlimit="4"/><path d="M296.20629,56.43901c-15.33952,-18.1447 -24.35447,-23.0115 -32.1312,-24.9159" data-paper-data="{&quot;fixed&quot;:true}" id="path34237-1-1-5-0-9 1" stroke="#5ae733" stroke-width="2.88867" stroke-miterlimit="4"/><path d="M358.71834,200.41165c-0.80778,12.167 2.7709,28.6718 10.49007,34.9669" data-paper-data="{&quot;fixed&quot;:true}" id="path34239-1-4-8-6 1" stroke="#1d810f" stroke-width="8.18453" stroke-miterlimit="4"/><path d="M358.71834,200.41165c23.67942,20.3136 11.14465,34.7024 10.49007,34.9669" data-paper-data="{&quot;fixed&quot;:true}" id="path34241-5-1-9-92 1" stroke="#1d810f" stroke-width="8.18453" stroke-miterlimit="4"/><path d="M354.14202,194.88889c12.70769,20.0491 14.65854,30.153 14.1407,38.1409" data-paper-data="{&quot;fixed&quot;:true}" id="path34237-9-8-7-2 1" stroke="#5ae733" stroke-width="2.88867" stroke-miterlimit="4"/><path d="M361.31131,194.96824c8.7696,8.5169 23.6554,16.399 33.44682,14.6004" data-paper-data="{&quot;fixed&quot;:true}" id="path34239-5-4-9-6-4 1" stroke="#1d810f" stroke-width="8.18453" stroke-miterlimit="4"/><path d="M361.31131,194.96824c30.79785,-4.761 33.69016,13.9656 33.44682,14.6004" data-paper-data="{&quot;fixed&quot;:true}" id="path34241-6-8-7-4-7 1" stroke="#1d810f" stroke-width="8.18453" stroke-miterlimit="4"/><path d="M354.14202,194.88889c23.52632,3.174 32.46235,8.3053 38.22057,13.8598" data-paper-data="{&quot;fixed&quot;:true}" id="path34237-1-1-5-3-7 1" stroke="#5ae733" stroke-width="2.88867" stroke-miterlimit="4"/><path d="M342.25649,83.35453c-0.80778,12.167 2.7709,28.6718 10.49007,34.9669" data-paper-data="{&quot;fixed&quot;:true}" id="path34239-1-4-8-4-4 1" stroke="#1d810f" stroke-width="8.18453" stroke-miterlimit="4"/><path d="M342.25649,83.35453c23.67942,20.3136 11.14465,34.7553 10.49007,34.9669" data-paper-data="{&quot;fixed&quot;:true}" id="path34241-5-1-9-7-8 1" stroke="#1d810f" stroke-width="8.18453" stroke-miterlimit="4"/><path d="M337.68017,77.83706c12.70769,20.0491 14.65854,30.153 14.1407,38.1409" data-paper-data="{&quot;fixed&quot;:true}" id="path34237-9-8-7-7-1 1" stroke="#5ae733" stroke-width="2.88867" stroke-miterlimit="4"/><path d="M344.84949,77.91641c8.7696,8.5169 23.65545,16.399 33.44687,14.6004" data-paper-data="{&quot;fixed&quot;:true}" id="path34239-5-4-9-6-5-2 1" stroke="#1d810f" stroke-width="8.18453" stroke-miterlimit="4"/><path d="M344.84949,77.91641c30.79785,-4.761 33.69011,13.9656 33.44687,14.6004" data-paper-data="{&quot;fixed&quot;:true}" id="path34241-6-8-7-4-4-8 1" stroke="#1d810f" stroke-width="8.18453" stroke-miterlimit="4"/><path d="M337.68017,77.83706c23.52632,3.174 32.46235,8.3053 38.22057,13.8598" data-paper-data="{&quot;fixed&quot;:true}" id="path34237-1-1-5-3-8-9 1" stroke="#5ae733" stroke-width="2.88867" stroke-miterlimit="4"/><path d="M299.75602,119.8185c-6.78961,10.1568 -11.93186,26.2384 -8.3928,35.5488" data-paper-data="{&quot;fixed&quot;:true}" id="path34239-1-4-8-2-6 1" stroke="#1d810f" stroke-width="8.18453" stroke-miterlimit="4"/><path d="M299.75602,119.8185c10.35766,29.4124 -7.70801,35.6546 -8.39285,35.5488" data-paper-data="{&quot;fixed&quot;:true}" id="path34241-5-1-9-8-8 1" stroke="#1d810f" stroke-width="8.18453" stroke-miterlimit="4"/><path d="M298.55221,112.75106c0.97019,23.7521 -2.36992,33.4328 -6.81294,40.0982" data-paper-data="{&quot;fixed&quot;:true}" id="path34237-9-8-7-9-0 1" stroke="#5ae733" stroke-width="2.88867" stroke-miterlimit="4"/><path d="M304.72156,116.40116c3.34804,11.7438 12.27418,26.0797 21.66281,29.3595" data-paper-data="{&quot;fixed&quot;:true}" id="path34239-5-4-9-6-3-2 1" stroke="#1d810f" stroke-width="8.18453" stroke-miterlimit="4"/><path d="M304.72156,116.40116c29.13764,11.109 22.19949,28.9363 21.66281,29.3595" data-paper-data="{&quot;fixed&quot;:true}" id="path34241-6-8-7-4-6-1 1" stroke="#1d810f" stroke-width="8.18453" stroke-miterlimit="4"/><path d="M298.55221,112.75106c18.73078,14.6004 23.96005,23.4347 26.16619,31.1052" data-paper-data="{&quot;fixed&quot;:true}" id="path34237-1-1-5-3-80-0 1" stroke="#5ae733" stroke-width="2.88867" stroke-miterlimit="4"/><path d="M337.22552,159.18668c-1.92609,-12.0612 0.06209,-28.7776 7.15388,-35.8133" data-paper-data="{&quot;fixed&quot;:true}" id="path34239-1-4-8-5-5 1" stroke="#1d810f" stroke-width="8.18458" stroke-miterlimit="4"/><path d="M337.22552,159.18668c21.66467,-22.4296 7.82804,-35.6017 7.15388,-35.8133" data-paper-data="{&quot;fixed&quot;:true}" id="path34241-5-1-9-9-1 1" stroke="#1d810f" stroke-width="8.18458" stroke-miterlimit="4"/><path d="M333.18862,165.11148c10.76489,-21.16 11.76147,-31.3697 10.49049,-39.3047" data-paper-data="{&quot;fixed&quot;:true}" id="path34237-9-8-7-4-1 1" stroke="#5ae733" stroke-width="2.88867" stroke-miterlimit="4"/><path d="M340.31873,164.3603c7.92913,-9.3104 22.00651,-18.5679 31.92404,-17.6686" data-paper-data="{&quot;fixed&quot;:true}" id="path34239-5-4-9-6-6-0 1" stroke="#1d810f" stroke-width="8.18458" stroke-miterlimit="4"/><path d="M340.31873,164.3603c31.12488,2.116 32.22737,-17.0867 31.92404,-17.6686" data-paper-data="{&quot;fixed&quot;:true}" id="path34241-6-8-7-4-9-8 1" stroke="#1d810f" stroke-width="8.18458" stroke-miterlimit="4"/><path d="M333.18862,165.11148c23.11386,-5.5016 31.53887,-11.3206 36.74831,-17.4041" data-paper-data="{&quot;fixed&quot;:true}" id="path34237-1-1-5-3-2-5 1" stroke="#5ae733" stroke-width="2.88867" stroke-miterlimit="4"/><path d="M246.25096,144.12076c-9.86939,7.1944 -25.7186,12.9605 -35.15946,9.7865" data-paper-data="{&quot;fixed&quot;:true}" id="path34239-1-4-8-0-0 1" stroke="#1d810f" stroke-width="8.18458" stroke-miterlimit="4"/><path d="M246.25096,144.12076c-29.80613,-9.2046 -35.30869,9.0988 -35.15946,9.7865" data-paper-data="{&quot;fixed&quot;:true}" id="path34241-5-1-9-3-6 1" stroke="#1d810f" stroke-width="8.18458" stroke-miterlimit="4"/><path d="M253.36133,145.04122c-23.75416,-0.03174 -33.30584,3.703 -39.78143,8.4111" data-paper-data="{&quot;fixed&quot;:true}" id="path34237-9-8-7-0-4 1" stroke="#5ae733" stroke-width="2.88867" stroke-miterlimit="4"/><path d="M249.46695,140.0263c-11.86261,-3.174 -26.51776,-11.2148 -30.20527,-20.4723" data-paper-data="{&quot;fixed&quot;:true}" id="path34239-5-4-9-6-9-6 1" stroke="#1d810f" stroke-width="8.18458" stroke-miterlimit="4"/><path d="M249.46695,139.0212c-12.2719,-28.6718 -29.78635,-21.0542 -30.20527,-20.4723" data-paper-data="{&quot;fixed&quot;:true}" id="path34241-6-8-7-4-2-2 1" stroke="#1d810f" stroke-width="8.18458" stroke-miterlimit="4"/><path d="M251.85634,143.03631c-15.33878,-18.1447 -24.35601,-23.0115 -32.13109,-24.9159" data-paper-data="{&quot;fixed&quot;:true}" id="path34237-1-1-5-3-5-5 1" stroke="#5ae733" stroke-width="2.88867" stroke-miterlimit="4"/><path d="M181.65731,326.35597c93.70475,34.9669 172.77237,19.8375 179.27855,17.3512" data-paper-data="{&quot;fixed&quot;:true}" id="path37562-8 1" stroke="#d74619" stroke-width="19.13948" stroke-miterlimit="4"/><path d="M166.55,303.5c-0.10886,15.23987 -2.54849,30.00503 1.95,45c3.86812,12.89374 14.97956,32.29926 22,44c3.20066,5.33443 8.54656,9.11175 11,15c4.63757,11.13017 9.51913,23.3971 13,35c0.83264,2.77548 4.16731,20.16731 5,21c4.49108,4.49108 16.47485,-0.95574 21,-2c21.8715,-5.04727 44.77358,1.16981 67,0c5.36911,-0.28258 30.87457,-4.56441 33,5c2.36485,10.64182 -15.98866,9 -21,9c-23.08392,0 -45.08406,1.61831 -68,-2c-4.39149,-0.69339 -20.87555,-1.75109 -23,-6c-0.90676,-1.81353 3.97241,-1 6,-1c4.01386,0 7.99306,0.7643 12,1c6.3224,0.37191 12.67264,0.2751 19,0c15.00226,-0.65227 29.93946,-1 45,-1c4.17981,0 14.03844,2.58462 18,1c9.06642,-3.62657 11.88142,-21.00734 18,-28c26.15883,-29.89581 61.54271,-83.91458 41,-125" data-paper-data="{&quot;fixed&quot;:true}" stroke="#b50000" stroke-width="17" stroke-miterlimit="10"/><path d="M168.55,319.5c23.96686,9.0441 46.2063,18.78204 71.95,22c24.27878,3.03485 48.79519,-1.34471 73,0c15.67444,0.8708 33.60098,0.19973 49,-4c4.68239,-1.27702 9.36122,-2.57268 14,-4c1.71568,-0.5279 3.28065,-1.48419 5,-2c1.62799,-0.4884 6.69967,-1 5,-1c-13.23518,0 -26.89392,4.54377 -40,6c-39.90364,4.43374 -82.02809,1.85514 -122,-1c-12.56281,-0.89734 -24.65252,-2.35411 -37,-5c-0.79257,-0.16984 -10,-4 -10,-4c0,0 6.78214,3.50918 12,5c10.99984,3.14281 17.95846,4.89585 29,6c38.4495,3.84495 79.61816,9.1966 118,2c12.96791,-2.43148 25.62724,-4.24125 38,-9c3.62572,-1.39451 10.1256,-5.24642 10,-6c-1.04711,-6.28269 -17.4005,1.69109 -21,3c-20.36869,7.4068 -43.2147,14.05281 -65,15c-28.01061,1.21785 -53.63087,-7.40772 -80,-14c-15.08224,-3.77056 -30.29549,-11 -46,-11" data-paper-data="{&quot;fixed&quot;:true}" stroke="#b50000" stroke-width="17" stroke-miterlimit="10"/><path d="M226.55,330.5c19.97455,5.74807 40.51104,12.59351 60.95,16" data-paper-data="{&quot;fixed&quot;:true}" stroke="#b50000" stroke-width="17" stroke-miterlimit="10"/><path d="M228.55,333.5c5.19639,-1.30727 10.60095,-2.31465 15.95,-2c45.38492,2.6697 35.03871,36.7225 34,71c-0.39502,13.03556 -0.71269,24.17156 0,37c0.14792,2.66256 -0.20452,5.34119 0,8c0.13036,1.69467 -0.41421,5.94281 1,5c16.98472,-11.32314 22.11911,-49.13847 25,-67c0.96857,-6.00515 1.94291,-12.0098 3,-18c0.46703,-2.64653 0.59136,-5.34383 1,-8c0.25845,-1.67991 1.94281,-6.41421 1,-5c-9.5218,14.28269 -16.06004,31.87725 -22,48c-0.18154,0.49275 -4.75431,16.75431 -6,18c-1.71594,1.71594 1.50007,-4.62535 2,-7c0.83541,-3.96819 1.39251,-7.99059 2,-12c2.31127,-15.2544 6.1814,-27.20234 9,-42c0.35511,-1.86431 3.8114,-14.2076 -4,-9c-17.06852,11.37901 -15.58486,44.76759 -13,62c1.13483,7.56554 4.46363,22.09273 14,24c21.46284,4.29257 33.0465,-48.89067 36,-61c0.68686,-2.81612 5.19617,-27.74115 1,-29c-7.73137,-2.31941 -14.64397,9.29766 -17,13c-10.7913,16.95776 -13.01734,39.88323 -17,59c-1.62355,7.79302 -2.53989,16.90167 -2,25c0.22173,3.32595 3.56821,10.2798 6,8c13.89776,-13.02915 28.28784,-61.01327 37,-81c2.32615,-5.33647 4.70683,-10.64927 7,-16c0.01419,-0.03311 4.12595,-9.43702 3,-10c-1.73845,-0.86923 -3.74803,1.51328 -5,3c-4.16895,4.95063 -7.98561,10.27267 -11,16c-9.90234,18.81445 -19.6923,43.46143 -22,65c-0.42613,3.97724 -0.19026,8.00453 0,12c0.14357,3.01505 -1.92834,9.73208 1,9c6.41893,-1.60473 11.44778,-7.41793 15,-13c2.64054,-4.14942 22.7995,-55.95179 25,-61c4.69993,-10.78219 7.43819,-10.51683 14,-22c1.413,-2.47276 2.16244,-5.27794 3,-8c0.49985,-1.62451 2.64893,-5.41223 1,-5c-17.46333,4.36583 -27.04899,39.11896 -34,56c-4.2189,10.24591 -7.98391,20.67291 -12,31c-1.30122,3.346 -2.86471,6.59412 -4,10c-0.53748,1.61245 -2.43395,5.91251 -1,5c24.07398,-15.3198 34.77008,-57.65512 51,-82c2.72677,-4.09016 14.01304,-15.90875 13,-23c-0.30185,-2.11292 -3.83679,2.21045 -5,4c-3.24968,4.99951 -5.62246,10.53165 -8,16c-8.33181,19.16316 -16.52478,39.98569 -23,60c-1.49398,4.61775 -2.82288,9.2915 -4,14c-0.49176,1.96705 -2.3097,7.54783 -1,6c17.49961,-20.68136 25.73741,-48.0919 39,-71c5.213,-9.00428 8.18676,-17.25505 12,-27c1.03781,-2.65218 0.29815,-8.90062 3,-8c2.84605,0.94868 0.52737,6.04672 0,9c-1.15125,6.44698 -2.83655,12.81871 -5,19c-9.20665,26.30471 -21.61636,50.4725 -38,73c-5.71543,7.85872 -11.27092,11.27092 -18,18c-1.50923,1.50923 -1.92935,5.51766 -4,5c-1.94029,-0.48507 -0.53926,-4.07407 0,-6c7.5686,-27.03072 16.76958,-61.65437 33,-86c1.07814,-1.61722 -2.2893,3.19094 -3,5c-2.96807,7.55509 -5.53884,15.26491 -8,23c-3.55466,11.17179 -5.07949,22.95129 -9,34c-5.03853,14.19948 -12.47677,29.36053 -19,43c-2.41607,5.05178 -6.30735,13.76933 -9,13c-13.96923,-3.99121 -14.32916,-35.72339 -15,-40c-3.10044,-19.76528 -1.92155,-40.39226 2,-60c1.35123,-6.75613 5.11826,-24.38514 14,-26c9.50424,-1.72804 7.86614,11.5825 8,16c0.59577,19.6603 -3.87267,26.61802 -10,45c-2.20101,6.60303 -2.80775,13.81502 -6,20c-3.93364,7.62143 -17.76527,22.11736 -28,17c-11.42706,-5.71353 -9.32852,-24.24181 -10,-37c-0.82805,-15.73302 3.56436,-33.69857 10,-48c1.35258,-3.00573 5.42135,-13.85281 9,-16c10.84467,-6.5068 4.19438,21.96333 4,23c-4.33787,23.13531 -8.62205,46.74517 -21,67c-1.41097,2.30886 -6.01215,11.18218 -11,9c-19.42167,-8.49698 -9.80696,-57.59686 -7,-75c0.51546,-3.19584 5.58072,-23 11,-23c6.32456,0 5.27505,11.71713 6,18c2.02184,17.52259 -0.58291,37.91455 -4,55c-1.03362,5.16811 -2.80404,10.20881 -5,15c-3.31342,7.22927 -8.56209,13.00051 -11,10c-8.06592,-9.92729 -13.25234,-36.09354 -14,-46c-0.60415,-8.00496 1.20121,-16.01211 2,-24c0.32113,-3.2113 3.5663,-26.73119 12,-17c11.67057,13.46604 10.87207,44.20893 12,60c0.3695,5.17293 -0.43433,17.57574 -5,21c-7.10315,5.32737 -14.8261,-6.45311 -17,-10c-8.3395,-13.60655 -12.08088,-35.37495 -13,-51c-0.25521,-4.33864 0.56754,-8.67543 1,-13c0.23453,-2.34533 -0.99875,-5.75078 1,-7c7.69369,-4.80856 9.35548,8.93309 12,18c5.03406,17.25965 5.32551,37.1711 3,55c-0.20433,1.56652 -1.82121,12.26611 -5,14c-17.3174,9.44585 -21.024,-25.412 -22,-32c-0.2118,-1.42966 -0.11603,-12.69796 1,-14c2.9185,-3.40492 8.481,4.78055 10,9c2.04238,5.67328 4.95641,20.04274 6,27c0.44776,2.98507 1,5.98154 1,9c0,2.35702 0.81071,8.50893 -1,7c-6.67443,-5.56202 -6.57497,-30.17472 -7,-34c-2.04826,-18.43433 -0.75838,-21.93063 -11,-39c-5.32901,-8.88168 -12.18153,-15.20746 -19,-23c-2.0237,-2.3128 -4.21375,-4.49925 -6,-7c-1.56203,-2.18684 -6.45579,-8.09146 -4,-7c16.49207,7.32981 30.56174,30.87765 41,45c2.41849,3.27207 4.65356,6.67588 7,10c1.65361,2.34261 5,4.13256 5,7c0,1.79505 -3.30728,2.59743 -5,2c-4.53333,-1.6 -8.26012,-4.97933 -12,-8c-12.2591,-9.90158 -18.60266,-20.43821 -26,-34c-2.64214,-4.84392 -4.71678,-9.97692 -7,-15c-0.87237,-1.91922 -3.16941,-7.75412 -2,-6c2.48069,3.72104 4.25748,7.88131 6,12c1.9308,4.56372 3.15963,9.39907 5,14c1.76336,4.40841 5.53179,10.29768 8,14c0.9245,1.38675 4.60254,3.54213 3,4c-3.26855,0.93387 -7.49416,0.29702 -10,-2c-11.00324,-10.08631 -20.14565,-31.43696 -25,-46c-0.43028,-1.29083 -2.19072,-11.66624 -2,-12c2.02985,-3.55224 8.30348,2.55224 9,3c3.26991,2.10209 6.76557,3.84371 10,6c16.34137,10.89424 32.54087,20.27044 50,29c3.7807,1.89035 10.57788,5.42212 11,5c1.17851,-1.17851 -1.5939,-3.10521 -3,-4c-7.49379,-4.76878 -17.92025,-8.96012 -26,-13c-2.54733,-1.27366 -9.27366,-0.45267 -8,-3c1.49815,-2.99629 6.65218,-1.11957 10,-1c7.3686,0.26316 59.71823,13.57274 25,2c-5.2345,-1.74483 -10.58588,-3.68941 -15,-7" data-paper-data="{&quot;fixed&quot;:true}" stroke="#b50000" stroke-width="17" stroke-miterlimit="10"/><path d="M334.55,480.5c-15.45266,0 -31.6725,1.39795 -47.05,0c-12.40116,-1.12738 -25.57374,-3 -38,-3c-8.74193,0 -23.48067,3.35911 -29,-4" data-paper-data="{&quot;fixed&quot;:true}" stroke="#b50000" stroke-width="17" stroke-miterlimit="10"/></g></svg>