<svg version="1.1" xmlns="http://www.w3.org/2000/svg" xmlns:xlink="http://www.w3.org/1999/xlink" width="872" height="872"><g fill="none" fill-rule="nonzero" stroke="none" stroke-width="none" stroke-linecap="round" stroke-linejoin="round" stroke-miterlimit="none" stroke-dasharray="" stroke-dashoffset="0" font-family="none" font-weight="none" font-size="none" text-anchor="none" style="mix-blend-mode: normal"><path d="M413.19022,190.83297c-12.63737,17.26464 -87.4149,31.45321 -94.45903,36.36074c-6.93589,4.83175 -16.24135,50.08018 -7.88026,57.55531c8.36074,7.47478 40.65334,-9.1315 61.97365,9.0531c50.841,43.36378 64.88613,90.84943 130.11873,-6.47198c5.93483,-6.13975 55.00611,11.6964 59.40683,5.72642c4.39924,-5.96884 14.15544,-46.85893 -1.08738,-55.4708c-15.23942,-8.61187 -91.8232,-31.2585 -97.96399,-43.20682c-6.13975,-11.94823 2.45294,-30.3068 -23.57966,-30.90664c-26.03565,-0.59969 -20.01615,7.50007 -22.16075,20.02016" data-paper-data="{&quot;fixed&quot;:true}" id="path25603-0 1" stroke="#f0d3a7" stroke-width="28.20188" stroke-miterlimit="4"/><path d="M437.11623,198.4089c-1.15366,22.76496 -98.59146,32.30315 -88.23374,62.36466c78.0065,8.43486 76.54329,108.07684 148.08495,29.17398c8.00496,-8.96835 33.50102,-22.05951 31.36976,-25.12746c-2.12942,-3.0677 -90.99489,-46.14842 -88.19384,-51.62519" data-paper-data="{&quot;fixed&quot;:true}" id="path25656-6 1" stroke="#f0d3a7" stroke-width="61.82558" stroke-miterlimit="4"/><path d="M434.7427,268.63558c-25.40258,17.77084 -14.29208,75.34935 -8.782,75.88031c5.50755,0.53165 19.26265,-61.37956 19.83408,-70.20324c0.57279,-8.82377 -39.12027,3.51852 -38.30286,9.04674" data-paper-data="{&quot;fixed&quot;:true}" id="path25660-5 1" stroke="#f0d3a7" stroke-width="110.85998" stroke-miterlimit="4"/><path d="M288.71229,260.63348c-3.08514,18.21852 -3.15751,36.54256 0.87549,36.10019c4.033,-0.44271 -1.30015,-21.94641 5.29914,-22.72144c6.59842,-0.77509 3.14356,20.76345 7.16697,18.49931c4.02254,-2.26371 -0.64726,-17.94716 7.66314,-12.10537c8.31103,5.84153 8.30144,16.00504 17.13114,8.7043c8.83031,-7.30038 9.50384,-7.90381 12.37324,-5.32182" data-paper-data="{&quot;fixed&quot;:true}" id="path27328-4 1" stroke="#0071d1" stroke-width="22.59797" stroke-miterlimit="4"/><path d="M337.30898,306.54518c64.22638,-5.97146 57.80383,-6.14498 75.78787,9.88996c12.78561,11.40009 94.67821,71.78025 90.77148,81.77538c-3.90656,9.9953 -6.10313,19.07038 -41.89088,15.58203c-35.78784,-3.488 -91.41768,-2.76424 -93.88028,-11.15192c-2.46253,-8.38777 -23.54976,-84.74236 -20.04588,-84.44762c3.5037,0.29491 44.02737,3.81936 55.07927,13.07276c11.05199,9.25332 83.05451,59.87353 79.58674,63.4155c-3.46794,3.54206 -90.98527,5.01313 -96.33846,-0.29351c-5.35321,-5.30612 -25.89203,-47.61983 -18.25236,-54.58772c7.63959,-6.96815 81.86013,44.96651 80.06844,44.96651c-1.79196,0 -41.5985,0.19684 -47.9866,-2.70494c-6.38827,-2.90202 -13.75475,-15.6919 -11.48843,-21.36356c2.26633,-6.10749 15.20908,15.9365 20.14041,13.58829" data-paper-data="{&quot;fixed&quot;:true}" id="path27330-7 1" stroke="#0071d1" stroke-width="22.59797" stroke-miterlimit="4"/><path d="M457.54995,320.66968c26.18032,-20.93698 47.94779,-26.10123 62.13384,-21.88519c21.33374,6.34031 -0.10508,77.18395 -3.62229,79.05482c-3.48451,1.853 -40.56265,-41.66416 -42.78991,-46.56733c-2.22709,-4.90326 32.56135,-26.17953 33.81616,-20.11573c1.25481,6.06389 4.59631,40.43691 1.09698,38.4525c-3.49934,-1.98467 -24.08281,-14.48366 -16.54132,-20.78177c7.54106,-6.29846 5.7491,-3.21768 7.0414,1.4981" data-paper-data="{&quot;fixed&quot;:true}" id="path27332-6 1" stroke="#0071d1" stroke-width="22.59797" stroke-miterlimit="4"/><path d="M541.83161,279.57374c37.31811,-19.75917 46.38002,-32.83324 44.1116,-26.71093c-2.26894,6.12231 -7.43293,16.25129 -11.22438,18.72201c-3.79146,2.47038 -0.02102,13.79478 -7.5149,14.72067c-7.49571,0.92606 -23.39689,1.37166 -18.52686,-2.8183c4.87012,-4.19083 11.21584,-0.30612 16.12747,-5.82845" data-paper-data="{&quot;fixed&quot;:true}" id="path27334-5 1" stroke="#0071d1" stroke-width="22.59797" stroke-miterlimit="4"/><path d="M366.51809,428.8147c45.81069,4.64078 75.32789,6.93589 92.60832,5.57818c17.28051,-1.35683 43.61465,-1.97595 51.61612,-6.00198" data-paper-data="{&quot;fixed&quot;:true}" id="path27336-6 1" stroke="#0071d1" stroke-width="22.59797" stroke-miterlimit="4"/><path d="M293.36287,239.42875c3.55078,13.26661 3.78099,31.88669 43.0809,37.96705c39.30034,6.07958 48.68123,4.72624 67.78762,16.22312c19.10622,11.4968 102.28677,83.93323 109.82527,97.22476c17.12538,30.19544 -13.28666,32.7688 -50.59719,34.51533c-37.0968,1.73266 -101.22227,-8.41829 -106.73719,-10.87323c-5.51627,-2.45294 -22.33593,-97.77372 -27.50035,-112.97567" data-paper-data="{&quot;fixed&quot;:true}" id="path553-6-9 1" stroke="#00095e" stroke-width="12.50387" stroke-miterlimit="4"/><path d="M295.7192,235.37168c-9.45492,10.93043 -22.04556,28.27059 -20.79999,34.00233c1.25132,5.73166 -2.70494,18.26038 3.45138,19.75847c6.15632,1.49897 1.36119,20.03952 7.52449,21.59648c6.16242,1.55652 30.26328,-10.6214 63.83982,-17.84801c33.57671,-7.22626 34.73202,-5.68195 46.91255,-0.88682" data-paper-data="{&quot;fixed&quot;:true}" id="path555-0-3 1" stroke="#00095e" stroke-width="12.50387" stroke-miterlimit="4"/><path d="M439.78538,318.46285c17.59042,-15.53093 31.70906,-32.38268 55.60535,-35.21293c23.8962,-2.82964 47.93192,3.90133 49.44118,23.93047c1.51292,20.0294 -22.46481,92.73602 -25.99083,103.81967" data-paper-data="{&quot;fixed&quot;:true}" id="path557-6-7 1" stroke="#00095e" stroke-width="12.50387" stroke-miterlimit="4"/><path d="M520.43572,281.66759c55.24321,-31.80123 57.60223,-30.86304 65.68314,-38.92547" data-paper-data="{&quot;fixed&quot;:true}" id="path559-2-4 1" stroke="#00095e" stroke-width="12.50387" stroke-miterlimit="4"/><path d="M585.38721,241.61155c11.65838,4.71142 26.3882,-3.84552 17.61606,10.58643c-8.77284,14.4323 -9.8052,6.82514 -10.04343,19.44595c-0.23745,12.62133 -9.77564,1.87044 -11.03847,14.55194c-1.26353,12.68324 -9.22593,20.01475 -40.1631,11.66457" data-paper-data="{&quot;fixed&quot;:true}" id="path561-6-5 1" stroke="#00095e" stroke-width="12.50387" stroke-miterlimit="4"/><path d="M353.85551,412.98108c6.94722,29.04091 3.76006,28.83233 11.90507,31.0003c8.1471,2.16692 138.68629,3.35633 147.54934,-4.28239c14.69233,-12.66161 9.48344,-18.69716 2.8497,-26.03705" data-paper-data="{&quot;fixed&quot;:true}" id="path563-1-2 1" stroke="#00095e" stroke-width="12.50387" stroke-miterlimit="4"/><path d="M354.05,444c-38.38243,42.01062 -57.85922,94.55774 -80.05,146c-7.3441,17.02496 -16.11792,33.35377 -22,51c-1.38644,4.15933 -4.51424,9.40823 -2,13c1.70973,2.44248 5.20646,2.95834 8,4c16.89165,6.29858 33.85159,12.43835 51,18c71.49686,23.18817 146.32445,39.60363 220,54c49.28954,9.63129 98.184,16.46489 148,22c14.63707,1.62634 29.31975,2.82558 44,4c1.99363,0.15949 4.97101,1.71499 6,0c1,-1.66667 -1.78581,-3.48226 -3,-5c-2.80147,-3.50184 -6.33558,-6.39279 -9,-10c-19.01641,-25.7453 -36.37577,-52.71494 -56,-78c-15.07393,-19.42218 -30.79941,-38.43344 -48,-56c-14.21614,-14.51861 -32.40686,-24.89651 -46,-40c-29.475,-32.75 -29.43051,-60.57627 -44,-97" data-paper-data="{&quot;fixed&quot;:true}" stroke="#181818" stroke-width="30" stroke-miterlimit="10"/></g></svg>