<svg version="1.1" xmlns="http://www.w3.org/2000/svg" xmlns:xlink="http://www.w3.org/1999/xlink" width="956" height="956"><g fill="none" fill-rule="nonzero" stroke="none" stroke-width="none" stroke-linecap="round" stroke-linejoin="round" stroke-miterlimit="none" stroke-dasharray="" stroke-dashoffset="0" font-family="none" font-weight="none" font-size="none" text-anchor="none" style="mix-blend-mode: normal"><path d="M125.57627,362.55085c346.34746,66.83893 739.27964,8.1021 739.27964,-10.127c0,-18.22872 -95.19494,-101.27123 -198.49151,-62.78807" data-paper-data="{&quot;fixed&quot;:true}" id="path6470 1" stroke="#000000" stroke-width="25.29413" stroke-miterlimit="4"/><path d="M315.9661,405.08473c-14.17796,192.41526 -44.55935,386.85594 6.07634,403.05933c50.63559,16.20344 263.30509,-36.45763 301.78814,-131.65255c38.48302,-95.19494 40.50849,-135.70338 40.50849,-135.70338" data-paper-data="{&quot;fixed&quot;:true}" id="path6472 1" stroke="#000000" stroke-width="25.29413" stroke-miterlimit="4"/><path d="M660.28813,415.21186c76.96613,-14.17796 101.27118,-30.38139 97.22032,10.1271c-4.05057,40.50849 -18.22882,56.71183 -44.55935,105.32202c-26.33053,48.61021 16.20334,72.91527 -26.33053,48.61021" data-paper-data="{&quot;fixed&quot;:true}" id="path6474 1" stroke="#000000" stroke-width="25.29413" stroke-miterlimit="4"/><path d="M399.00846,480.02543c-16.20344,52.66097 -56.71183,133.67795 -52.66097,139.75422c4.05057,6.07634 52.66097,10.127 66.83903,0" data-paper-data="{&quot;fixed&quot;:true}" id="path6476 1" stroke="#000000" stroke-width="25.29413" stroke-miterlimit="4"/><path d="M334.1949,463.82203c34.43225,2.02576 2.02576,10.127 44.55935,6.07634" data-paper-data="{&quot;fixed&quot;:true}" id="path6478 1" stroke="#000000" stroke-width="25.29413" stroke-miterlimit="4"/><path d="M467.64473,486.53789c34.43225,2.02576 2.02576,10.127 44.55935,6.07634" data-paper-data="{&quot;fixed&quot;:true}" id="path6478-5 1" stroke="#000000" stroke-width="25.29413" stroke-miterlimit="4"/><path d="M364.57628,684.59322c86.28321,10.93702 97.21166,-0.93006 101.22186,-4.94061" data-paper-data="{&quot;fixed&quot;:true}" id="path6495 1" stroke="#000000" stroke-width="25.29413" stroke-miterlimit="4"/><path d="M662.05,290.5c-3.56353,-10.42986 -3.81976,-21.38637 -7.05,-32c-3.19247,-10.48954 -7.90616,-20.48095 -11,-31c-1.34667,-4.57867 -1.25072,-9.55953 -3,-14c-4.37106,-11.09577 -10.93833,-21.20177 -16,-32c-5.7106,-12.18262 -11.78843,-26.42666 -22,-36c-20.92023,-19.61272 -52.88747,-26.78605 -80,-32c-12.55476,-2.41438 -26.15854,-5.54098 -39,-4c-15.89919,1.9079 -32.12401,5.732 -48,8c-17.96519,2.56646 -41.83058,4.39986 -57,16c-13.87839,10.61289 -27.43247,25.13012 -38,39c-22.13125,29.04727 -25,48.62915 -25,84c0,3.33333 -0.98029,6.81407 0,10c0.49014,1.59297 3.03127,1.64378 4,3c2.42763,3.39868 4.22159,7.22088 6,11c0.89766,1.90753 1.18916,4.05398 2,6c0.86003,2.06406 4.58114,4.41886 3,6c-0.92254,0.92254 -23.77218,-8.49368 -26,-9c-11.92254,-2.70967 -57.69464,-4.68298 -72,-3c-33.93472,3.99232 -52.63758,7.22272 -84,20c-8.58643,3.49818 -18.07804,5.95875 -26,11c-6.543,4.16373 -24.31335,30.51771 -22,39c0.63246,2.319 2.66667,4 4,6" data-paper-data="{&quot;fixed&quot;:true}" stroke="#181818" stroke-width="30" stroke-miterlimit="10"/></g></svg>